%TF.GenerationSoftware,KiCad,Pcbnew,7.0.10*%
%TF.CreationDate,2024-02-19T19:24:59+01:00*%
%TF.ProjectId,lightning_detector,6c696768-746e-4696-9e67-5f6465746563,rev?*%
%TF.SameCoordinates,Original*%
%TF.FileFunction,Paste,Top*%
%TF.FilePolarity,Positive*%
%FSLAX46Y46*%
G04 Gerber Fmt 4.6, Leading zero omitted, Abs format (unit mm)*
G04 Created by KiCad (PCBNEW 7.0.10) date 2024-02-19 19:24:59*
%MOMM*%
%LPD*%
G01*
G04 APERTURE LIST*
G04 Aperture macros list*
%AMRoundRect*
0 Rectangle with rounded corners*
0 $1 Rounding radius*
0 $2 $3 $4 $5 $6 $7 $8 $9 X,Y pos of 4 corners*
0 Add a 4 corners polygon primitive as box body*
4,1,4,$2,$3,$4,$5,$6,$7,$8,$9,$2,$3,0*
0 Add four circle primitives for the rounded corners*
1,1,$1+$1,$2,$3*
1,1,$1+$1,$4,$5*
1,1,$1+$1,$6,$7*
1,1,$1+$1,$8,$9*
0 Add four rect primitives between the rounded corners*
20,1,$1+$1,$2,$3,$4,$5,0*
20,1,$1+$1,$4,$5,$6,$7,0*
20,1,$1+$1,$6,$7,$8,$9,0*
20,1,$1+$1,$8,$9,$2,$3,0*%
G04 Aperture macros list end*
%ADD10RoundRect,0.150000X0.587500X0.150000X-0.587500X0.150000X-0.587500X-0.150000X0.587500X-0.150000X0*%
%ADD11RoundRect,0.250000X0.750000X-0.250000X0.750000X0.250000X-0.750000X0.250000X-0.750000X-0.250000X0*%
%ADD12R,3.510000X2.540000*%
G04 APERTURE END LIST*
D10*
%TO.C,D4*%
X35560000Y-42540000D03*
X35560000Y-40640000D03*
X33685000Y-41590000D03*
%TD*%
%TO.C,D10*%
X35530000Y-71115000D03*
X35530000Y-69215000D03*
X33655000Y-70165000D03*
%TD*%
%TO.C,D12*%
X35530000Y-81600000D03*
X35530000Y-79700000D03*
X33655000Y-80650000D03*
%TD*%
%TO.C,D11*%
X35530000Y-76515000D03*
X35530000Y-74615000D03*
X33655000Y-75565000D03*
%TD*%
%TO.C,D8*%
X35530000Y-62225000D03*
X35530000Y-60325000D03*
X33655000Y-61275000D03*
%TD*%
%TO.C,D5*%
X35560000Y-46985000D03*
X35560000Y-45085000D03*
X33685000Y-46035000D03*
%TD*%
D11*
%TO.C,J5*%
X68580000Y-80010000D03*
%TD*%
%TO.C,J6*%
X68580000Y-77470000D03*
%TD*%
D10*
%TO.C,D6*%
X35560000Y-53335000D03*
X35560000Y-51435000D03*
X33685000Y-52385000D03*
%TD*%
%TO.C,D14*%
X35530000Y-90993000D03*
X35530000Y-89093000D03*
X33655000Y-90043000D03*
%TD*%
%TO.C,D1*%
X35560000Y-29845000D03*
X35560000Y-27945000D03*
X33685000Y-28895000D03*
%TD*%
%TO.C,D7*%
X35530000Y-58095000D03*
X35530000Y-56195000D03*
X33655000Y-57145000D03*
%TD*%
%TO.C,D13*%
X35530000Y-86995000D03*
X35530000Y-85095000D03*
X33655000Y-86045000D03*
%TD*%
%TO.C,D3*%
X35560000Y-38095000D03*
X35560000Y-36195000D03*
X33685000Y-37145000D03*
%TD*%
%TO.C,D9*%
X35530000Y-66665000D03*
X35530000Y-64765000D03*
X33655000Y-65715000D03*
%TD*%
%TO.C,D2*%
X35560000Y-33655000D03*
X35560000Y-31755000D03*
X33685000Y-32705000D03*
%TD*%
D12*
%TO.C,BT1*%
X83820000Y-90320000D03*
X83820000Y-60960000D03*
%TD*%
M02*
