M48
; DRILL file {KiCad 8.0.6} date 2024-12-28T16:16:08+0100
; FORMAT={-:-/ absolute / inch / decimal}
; #@! TF.CreationDate,2024-12-28T16:16:08+01:00
; #@! TF.GenerationSoftware,Kicad,Pcbnew,8.0.6
; #@! TF.FileFunction,Plated,1,2,PTH
FMAT,2
INCH
; #@! TA.AperFunction,Plated,PTH,ViaDrill
T1C0.0118
; #@! TA.AperFunction,Plated,PTH,ComponentDrill
T2C0.0295
; #@! TA.AperFunction,Plated,PTH,ComponentDrill
T3C0.0315
; #@! TA.AperFunction,Plated,PTH,ComponentDrill
T4C0.0354
; #@! TA.AperFunction,Plated,PTH,ViaDrill
T5C0.0394
; #@! TA.AperFunction,Plated,PTH,ComponentDrill
T6C0.0394
; #@! TA.AperFunction,Plated,PTH,ComponentDrill
T7C0.0433
; #@! TA.AperFunction,Plated,PTH,ComponentDrill
T8C0.0472
%
G90
G05
T1
X1.15Y-0.95
X1.15Y-1.55
X1.15Y-2.5
X1.2Y-1.05
X1.2Y-1.6
X1.25Y-1.0
X1.25Y-2.15
X1.6Y-1.55
X1.6Y-1.65
X1.6Y-2.17
X1.6Y-2.275
X1.6Y-2.67
X1.6Y-2.775
X1.6Y-3.3
X1.6Y-3.4
X1.65Y-1.55
X1.65Y-1.75
X1.65Y-2.17
X1.65Y-2.375
X1.65Y-2.67
X1.65Y-3.0
X1.65Y-3.3
X1.65Y-3.5
X1.7Y-1.55
X1.7Y-1.85
X1.7Y-2.17
X1.7Y-2.475
X1.7Y-2.67
X1.7Y-3.1
X1.7Y-3.3
X1.875Y-1.675
X1.925Y-1.1
X2.025Y-1.45
X2.025Y-2.15
X2.1Y-1.2
X2.15Y-0.875
X2.165Y-2.175
X2.2Y-1.3
X2.225Y-2.25
X2.25Y-2.075
X2.265Y-2.44
X2.265Y-2.55
X2.275Y-1.0
X2.275Y-1.55
X2.3Y-1.875
X2.325Y-2.15
X2.37Y-2.55
X2.375Y-1.1
X2.375Y-1.95
X2.375Y-2.44
X2.475Y-1.7
X2.475Y-2.44
X2.475Y-2.55
X2.475Y-2.875
X2.5Y-0.96
X2.5Y-1.075
X2.5Y-1.5
X2.55Y-2.15
X2.575Y-1.7
X2.6Y-2.2
X2.63Y-1.25
X2.63Y-1.35
X2.63Y-1.45
X2.775Y-1.55
X2.775Y-1.65
X2.775Y-2.15
X2.8Y-2.95
X2.81Y-1.28
X2.81Y-1.42
X2.865Y-1.695
X2.875Y-1.575
X3.7Y-0.775
X3.775Y-1.0125
X3.825Y-1.63
X3.835Y-1.2125
X3.835Y-1.4
X3.96Y-1.63
X3.96Y-2.6
T2
X2.95Y-2.15
X3.0Y-2.2
X3.05Y-2.15
T3
X1.5Y-1.1
X1.5Y-1.2
X1.5Y-1.3
X1.5Y-1.4
X1.5Y-1.5
X1.5Y-1.6
X1.5Y-1.7
X1.5Y-1.8
X1.5Y-2.02
X1.5Y-2.12
X1.5Y-2.22
X1.5Y-2.32
X1.5Y-2.42
X1.5Y-2.52
X1.5Y-2.62
X1.5Y-2.72
X1.5Y-2.95
X1.5Y-3.05
X1.5Y-3.15
X1.5Y-3.25
X1.5Y-3.35
X1.5Y-3.45
X1.5Y-3.55
X1.5Y-3.65
X1.8Y-1.1
X1.8Y-1.2
X1.8Y-1.3
X1.8Y-1.4
X1.8Y-1.5
X1.8Y-1.6
X1.8Y-1.7
X1.8Y-1.8
X1.8Y-2.02
X1.8Y-2.12
X1.8Y-2.22
X1.8Y-2.32
X1.8Y-2.42
X1.8Y-2.52
X1.8Y-2.62
X1.8Y-2.72
X1.8Y-2.95
X1.8Y-3.05
X1.8Y-3.15
X1.8Y-3.25
X1.8Y-3.35
X1.8Y-3.45
X1.8Y-3.55
X1.8Y-3.65
X2.225Y-1.625
X2.225Y-1.925
X2.825Y-1.05
X2.825Y-1.35
X2.93Y-1.7
X2.93Y-2.0
X3.075Y-1.7
X3.075Y-2.0
T4
X3.3508Y-2.0
X3.65Y-2.0
T5
X1.2Y-3.45
X1.9Y-1.8
X1.95Y-2.4
X2.0Y-1.15
X2.225Y-1.775
X2.225Y-2.7
X2.25Y-0.9
X2.4Y-2.05
X2.425Y-0.775
X2.465Y-3.725
X2.525Y-3.225
X2.75Y-0.925
X3.0Y-2.4
X3.2Y-2.2
X3.2Y-2.6
X3.225Y-1.2
X3.4Y-2.2
X3.4Y-2.6
X3.5Y-3.6
X3.6Y-2.4
X3.775Y-3.525
T6
X1.575Y-0.8
X1.875Y-0.8
X2.1Y-1.3
X2.1Y-1.4
X2.1Y-1.5
X2.1Y-1.6
X2.1Y-1.7
X2.1Y-1.8
X2.1Y-1.9
X2.1Y-2.0
X2.1Y-2.1
X2.1Y-2.2
X2.1Y-2.3
X2.1Y-2.4
X2.1Y-2.5
X2.1Y-2.6
X2.1Y-2.7
X2.3Y-2.3
X2.4Y-2.3
X2.575Y-0.9
X2.575Y-1.0
X2.575Y-1.1
X2.575Y-1.2
X2.575Y-1.3
X2.575Y-1.4
X2.575Y-1.5
X2.7Y-1.3
X2.7Y-1.4
X2.7Y-1.5
X2.7Y-1.6
X2.7Y-1.7
X2.7Y-1.8
X2.7Y-1.9
X2.7Y-2.0
X2.7Y-2.1
X2.7Y-2.2
X2.7Y-2.3
X2.7Y-2.4
X2.7Y-2.5
X2.7Y-2.6
X2.7Y-2.7
X2.95Y-0.8774
X2.95Y-1.1726
X3.1748Y-0.8778
X3.2748Y-0.8778
X3.4774Y-1.125
X3.4774Y-1.3
X3.5Y-0.9
X3.6Y-0.9
X3.6Y-3.7
X3.7Y-0.9
X3.7726Y-1.125
X3.7726Y-1.3
T7
X2.075Y-3.0
X2.075Y-3.1772
X2.075Y-3.4478
X2.075Y-3.625
X2.3309Y-3.0
X2.3309Y-3.1772
X2.3309Y-3.4478
X2.3309Y-3.625
X2.6Y-3.4478
X2.6Y-3.625
X2.8559Y-3.4478
X2.8559Y-3.625
T8
X3.0457Y-1.5345
X3.7543Y-1.5345
M30
