%TF.GenerationSoftware,KiCad,Pcbnew,8.0.6*%
%TF.CreationDate,2024-12-28T16:15:17+01:00*%
%TF.ProjectId,lightning_detector,6c696768-746e-4696-9e67-5f6465746563,rev?*%
%TF.SameCoordinates,Original*%
%TF.FileFunction,Copper,L1,Top*%
%TF.FilePolarity,Positive*%
%FSLAX46Y46*%
G04 Gerber Fmt 4.6, Leading zero omitted, Abs format (unit mm)*
G04 Created by KiCad (PCBNEW 8.0.6) date 2024-12-28 16:15:17*
%MOMM*%
%LPD*%
G01*
G04 APERTURE LIST*
G04 Aperture macros list*
%AMRoundRect*
0 Rectangle with rounded corners*
0 $1 Rounding radius*
0 $2 $3 $4 $5 $6 $7 $8 $9 X,Y pos of 4 corners*
0 Add a 4 corners polygon primitive as box body*
4,1,4,$2,$3,$4,$5,$6,$7,$8,$9,$2,$3,0*
0 Add four circle primitives for the rounded corners*
1,1,$1+$1,$2,$3*
1,1,$1+$1,$4,$5*
1,1,$1+$1,$6,$7*
1,1,$1+$1,$8,$9*
0 Add four rect primitives between the rounded corners*
20,1,$1+$1,$2,$3,$4,$5,0*
20,1,$1+$1,$4,$5,$6,$7,0*
20,1,$1+$1,$6,$7,$8,$9,0*
20,1,$1+$1,$8,$9,$2,$3,0*%
G04 Aperture macros list end*
%TA.AperFunction,ComponentPad*%
%ADD10C,2.000000*%
%TD*%
%TA.AperFunction,SMDPad,CuDef*%
%ADD11RoundRect,0.150000X0.587500X0.150000X-0.587500X0.150000X-0.587500X-0.150000X0.587500X-0.150000X0*%
%TD*%
%TA.AperFunction,ComponentPad*%
%ADD12R,1.600000X1.600000*%
%TD*%
%TA.AperFunction,ComponentPad*%
%ADD13O,1.600000X1.600000*%
%TD*%
%TA.AperFunction,ComponentPad*%
%ADD14R,2.000000X2.000000*%
%TD*%
%TA.AperFunction,SMDPad,CuDef*%
%ADD15R,1.500000X1.500000*%
%TD*%
%TA.AperFunction,ComponentPad*%
%ADD16RoundRect,0.249900X-0.600100X-0.600100X0.600100X-0.600100X0.600100X0.600100X-0.600100X0.600100X0*%
%TD*%
%TA.AperFunction,ComponentPad*%
%ADD17C,1.700000*%
%TD*%
%TA.AperFunction,ComponentPad*%
%ADD18R,1.300000X1.300000*%
%TD*%
%TA.AperFunction,ComponentPad*%
%ADD19C,1.300000*%
%TD*%
%TA.AperFunction,ComponentPad*%
%ADD20C,1.600000*%
%TD*%
%TA.AperFunction,ComponentPad*%
%ADD21R,2.400000X2.400000*%
%TD*%
%TA.AperFunction,ComponentPad*%
%ADD22O,2.400000X2.400000*%
%TD*%
%TA.AperFunction,SMDPad,CuDef*%
%ADD23RoundRect,0.250000X0.750000X-0.250000X0.750000X0.250000X-0.750000X0.250000X-0.750000X-0.250000X0*%
%TD*%
%TA.AperFunction,ComponentPad*%
%ADD24R,1.700000X1.700000*%
%TD*%
%TA.AperFunction,ComponentPad*%
%ADD25O,1.700000X1.700000*%
%TD*%
%TA.AperFunction,SMDPad,CuDef*%
%ADD26R,3.510000X2.540000*%
%TD*%
%TA.AperFunction,ViaPad*%
%ADD27C,2.000000*%
%TD*%
%TA.AperFunction,ViaPad*%
%ADD28C,0.700000*%
%TD*%
%TA.AperFunction,Conductor*%
%ADD29C,1.000000*%
%TD*%
%TA.AperFunction,Conductor*%
%ADD30C,0.300000*%
%TD*%
G04 APERTURE END LIST*
D10*
%TO.P,SW7,1*%
%TO.N,DisplayBut*%
X66040000Y-87575000D03*
X72540000Y-87575000D03*
%TO.P,SW7,2*%
%TO.N,GND*%
X66040000Y-92075000D03*
X72540000Y-92075000D03*
%TD*%
D11*
%TO.P,D4,1*%
%TO.N,DIP-Sel-2-P2*%
X35560000Y-42540000D03*
%TO.P,D4,2*%
%TO.N,DIP-Sel-2-P1*%
X35560000Y-40640000D03*
%TO.P,D4,3*%
%TO.N,DIP-Sel-2*%
X33685000Y-41590000D03*
%TD*%
%TO.P,D10,1*%
%TO.N,N/C*%
X35530000Y-71115000D03*
%TO.P,D10,2*%
%TO.N,DIP-Sel-4-P1*%
X35530000Y-69215000D03*
%TO.P,D10,3*%
%TO.N,DIP-Sel-4*%
X33655000Y-70165000D03*
%TD*%
D10*
%TO.P,SW5,1*%
%TO.N,ARDUINO-RESET*%
X52705000Y-76200000D03*
X59205000Y-76200000D03*
%TO.P,SW5,2*%
%TO.N,GND*%
X52705000Y-80700000D03*
X59205000Y-80700000D03*
%TD*%
D11*
%TO.P,D12,1*%
%TO.N,DIP-Sel-4-P5*%
X35530000Y-81600000D03*
%TO.P,D12,2*%
%TO.N,DIP-Sel-4-P4*%
X35530000Y-79700000D03*
%TO.P,D12,3*%
%TO.N,DIP-Sel-4*%
X33655000Y-80650000D03*
%TD*%
D12*
%TO.P,SW2,1*%
%TO.N,DIP-Sel-1-P1*%
X38100000Y-27940000D03*
D13*
%TO.P,SW2,2*%
%TO.N,DIP-Sel-1-P2*%
X38100000Y-30480000D03*
%TO.P,SW2,3*%
%TO.N,DIP-Sel-1-P3*%
X38100000Y-33020000D03*
%TO.P,SW2,4*%
%TO.N,DIP-Sel-1-P4*%
X38100000Y-35560000D03*
%TO.P,SW2,5*%
%TO.N,DIP-Sel-1-P5*%
X38100000Y-38100000D03*
%TO.P,SW2,6*%
%TO.N,DIP-Sel-2-P1*%
X38100000Y-40640000D03*
%TO.P,SW2,7*%
%TO.N,DIP-Sel-2-P2*%
X38100000Y-43180000D03*
%TO.P,SW2,8*%
%TO.N,DIP-Sel-2-P3*%
X38100000Y-45720000D03*
%TO.P,SW2,9*%
%TO.N,DIP-Sens-3*%
X45720000Y-45720000D03*
%TO.P,SW2,10*%
%TO.N,DIP-Sens-2*%
X45720000Y-43180000D03*
%TO.P,SW2,11*%
%TO.N,DIP-Sens-1*%
X45720000Y-40640000D03*
%TO.P,SW2,12*%
%TO.N,DIP-Sens-5*%
X45720000Y-38100000D03*
%TO.P,SW2,13*%
%TO.N,DIP-Sens-4*%
X45720000Y-35560000D03*
%TO.P,SW2,14*%
%TO.N,DIP-Sens-3*%
X45720000Y-33020000D03*
%TO.P,SW2,15*%
%TO.N,DIP-Sens-2*%
X45720000Y-30480000D03*
%TO.P,SW2,16*%
%TO.N,DIP-Sens-1*%
X45720000Y-27940000D03*
%TD*%
D14*
%TO.P,TP3,1*%
%TO.N,Power*%
X47625000Y-20320000D03*
%TD*%
D10*
%TO.P,C4,1*%
%TO.N,GND*%
X74930000Y-29785000D03*
%TO.P,C4,2*%
%TO.N,Power*%
X74930000Y-22285000D03*
%TD*%
D15*
%TO.P,TP4,1*%
%TO.N,Power*%
X51435000Y-20320000D03*
%TD*%
D16*
%TO.P,LS1,1*%
%TO.N,Beeper*%
X85110000Y-50800000D03*
D17*
%TO.P,LS1,2*%
%TO.N,Power*%
X92710000Y-50800000D03*
%TD*%
D15*
%TO.P,TP6,1*%
%TO.N,BatPower*%
X80645000Y-93980000D03*
%TD*%
D18*
%TO.P,Q1,1*%
%TO.N,Beeper*%
X77470000Y-54610000D03*
D19*
%TO.P,Q1,2*%
%TO.N,Beeper-TrBase*%
X76200000Y-55880000D03*
%TO.P,Q1,3*%
%TO.N,GND*%
X74930000Y-54610000D03*
%TD*%
D20*
%TO.P,R2,1*%
%TO.N,Power*%
X78105000Y-43180000D03*
D13*
%TO.P,R2,2*%
%TO.N,Beeper*%
X78105000Y-50800000D03*
%TD*%
D10*
%TO.P,C2,1*%
%TO.N,GND*%
X88325000Y-33020000D03*
%TO.P,C2,2*%
%TO.N,Power*%
X95825000Y-33020000D03*
%TD*%
D11*
%TO.P,D11,1*%
%TO.N,DIP-Sel-4-P3*%
X35530000Y-76515000D03*
%TO.P,D11,2*%
%TO.N,DIP-Sel-4-P2*%
X35530000Y-74615000D03*
%TO.P,D11,3*%
%TO.N,DIP-Sel-4*%
X33655000Y-75565000D03*
%TD*%
D12*
%TO.P,SW3,1*%
%TO.N,DIP-Sel-2-P4*%
X38100000Y-51308000D03*
D13*
%TO.P,SW3,2*%
%TO.N,DIP-Sel-2-P5*%
X38100000Y-53848000D03*
%TO.P,SW3,3*%
%TO.N,DIP-Sel-3-P1*%
X38100000Y-56388000D03*
%TO.P,SW3,4*%
%TO.N,DIP-Sel-3-P2*%
X38100000Y-58928000D03*
%TO.P,SW3,5*%
%TO.N,DIP-Sel-3-P3*%
X38100000Y-61468000D03*
%TO.P,SW3,6*%
%TO.N,DIP-Sel-3-P4*%
X38100000Y-64008000D03*
%TO.P,SW3,7*%
%TO.N,DIP-Sel-3-P5*%
X38100000Y-66548000D03*
%TO.P,SW3,8*%
%TO.N,DIP-Sel-4-P1*%
X38100000Y-69088000D03*
%TO.P,SW3,9*%
%TO.N,DIP-Sens-1*%
X45720000Y-69088000D03*
%TO.P,SW3,10*%
%TO.N,DIP-Sens-5*%
X45720000Y-66548000D03*
%TO.P,SW3,11*%
%TO.N,DIP-Sens-4*%
X45720000Y-64008000D03*
%TO.P,SW3,12*%
%TO.N,DIP-Sens-3*%
X45720000Y-61468000D03*
%TO.P,SW3,13*%
%TO.N,DIP-Sens-2*%
X45720000Y-58928000D03*
%TO.P,SW3,14*%
%TO.N,DIP-Sens-1*%
X45720000Y-56388000D03*
%TO.P,SW3,15*%
%TO.N,DIP-Sens-5*%
X45720000Y-53848000D03*
%TO.P,SW3,16*%
%TO.N,DIP-Sens-4*%
X45720000Y-51308000D03*
%TD*%
D11*
%TO.P,D8,1*%
%TO.N,DIP-Sel-3-P3*%
X35530000Y-62225000D03*
%TO.P,D8,2*%
%TO.N,N/C*%
X35530000Y-60325000D03*
%TO.P,D8,3*%
%TO.N,DIP-Sel-3*%
X33655000Y-61275000D03*
%TD*%
D21*
%TO.P,C1,1*%
%TO.N,Power*%
X95360000Y-38977500D03*
D22*
%TO.P,C1,2*%
%TO.N,GND*%
X77360000Y-38977500D03*
%TD*%
D11*
%TO.P,D5,1*%
%TO.N,N/C*%
X35560000Y-46985000D03*
%TO.P,D5,2*%
%TO.N,DIP-Sel-2-P3*%
X35560000Y-45085000D03*
%TO.P,D5,3*%
%TO.N,DIP-Sel-2*%
X33685000Y-46035000D03*
%TD*%
D20*
%TO.P,R4,1*%
%TO.N,SPI-MISO*%
X71755000Y-34290000D03*
D13*
%TO.P,R4,2*%
%TO.N,GND*%
X71755000Y-26670000D03*
%TD*%
D20*
%TO.P,R1,1*%
%TO.N,Beeper-CTRL*%
X74422000Y-43180000D03*
D13*
%TO.P,R1,2*%
%TO.N,Beeper-TrBase*%
X74422000Y-50800000D03*
%TD*%
D23*
%TO.P,J5,1*%
%TO.N,I2C-SCL*%
X68580000Y-80010000D03*
%TD*%
D24*
%TO.P,SW1,1*%
%TO.N,BatPower*%
X93980000Y-22860000D03*
D25*
%TO.P,SW1,2*%
%TO.N,Power*%
X91440000Y-22860000D03*
%TO.P,SW1,3*%
%TO.N,GND*%
X88900000Y-22860000D03*
%TD*%
D23*
%TO.P,J6,1*%
%TO.N,I2C-SDA*%
X68580000Y-77470000D03*
%TD*%
D11*
%TO.P,D6,1*%
%TO.N,DIP-Sel-2-P5*%
X35560000Y-53335000D03*
%TO.P,D6,2*%
%TO.N,DIP-Sel-2-P4*%
X35560000Y-51435000D03*
%TO.P,D6,3*%
%TO.N,DIP-Sel-2*%
X33685000Y-52385000D03*
%TD*%
%TO.P,D14,1*%
%TO.N,DIP-Sel-5-P4*%
X35530000Y-90866000D03*
%TO.P,D14,2*%
%TO.N,DIP-Sel-5-P3*%
X35530000Y-88966000D03*
%TO.P,D14,3*%
%TO.N,DIP-Sel-5*%
X33655000Y-89916000D03*
%TD*%
D10*
%TO.P,C3,1*%
%TO.N,GND*%
X88325000Y-28575000D03*
%TO.P,C3,2*%
%TO.N,Power*%
X95825000Y-28575000D03*
%TD*%
D11*
%TO.P,D1,1*%
%TO.N,DIP-Sel-1-P2*%
X35560000Y-29845000D03*
%TO.P,D1,2*%
%TO.N,DIP-Sel-1-P1*%
X35560000Y-27945000D03*
%TO.P,D1,3*%
%TO.N,DIP-Sel-1*%
X33685000Y-28895000D03*
%TD*%
D15*
%TO.P,TP2,1*%
%TO.N,GND*%
X43815000Y-20320000D03*
%TD*%
D11*
%TO.P,D7,1*%
%TO.N,DIP-Sel-3-P2*%
X35530000Y-58095000D03*
%TO.P,D7,2*%
%TO.N,DIP-Sel-3-P1*%
X35530000Y-56195000D03*
%TO.P,D7,3*%
%TO.N,DIP-Sel-3*%
X33655000Y-57145000D03*
%TD*%
%TO.P,D13,1*%
%TO.N,DIP-Sel-5-P2*%
X35530000Y-86995000D03*
%TO.P,D13,2*%
%TO.N,DIP-Sel-5-P1*%
X35530000Y-85095000D03*
%TO.P,D13,3*%
%TO.N,DIP-Sel-5*%
X33655000Y-86045000D03*
%TD*%
%TO.P,D3,1*%
%TO.N,DIP-Sel-1-P5*%
X35560000Y-38095000D03*
%TO.P,D3,2*%
%TO.N,DIP-Sel-1-P4*%
X35560000Y-36195000D03*
%TO.P,D3,3*%
%TO.N,DIP-Sel-1*%
X33685000Y-37145000D03*
%TD*%
%TO.P,D9,1*%
%TO.N,DIP-Sel-3-P5*%
X35530000Y-66665000D03*
%TO.P,D9,2*%
%TO.N,DIP-Sel-3-P4*%
X35530000Y-64765000D03*
%TO.P,D9,3*%
%TO.N,DIP-Sel-3*%
X33655000Y-65715000D03*
%TD*%
D20*
%TO.P,R3,1*%
%TO.N,SPISel-AS3935*%
X56515000Y-48895000D03*
D13*
%TO.P,R3,2*%
%TO.N,Power*%
X56515000Y-41275000D03*
%TD*%
D10*
%TO.P,TP1,1*%
%TO.N,GND*%
X40005000Y-20320000D03*
%TD*%
D12*
%TO.P,SW4,1*%
%TO.N,DIP-Sel-4-P2*%
X38100000Y-74930000D03*
D13*
%TO.P,SW4,2*%
%TO.N,DIP-Sel-4-P3*%
X38100000Y-77470000D03*
%TO.P,SW4,3*%
%TO.N,DIP-Sel-4-P4*%
X38100000Y-80010000D03*
%TO.P,SW4,4*%
%TO.N,DIP-Sel-4-P5*%
X38100000Y-82550000D03*
%TO.P,SW4,5*%
%TO.N,DIP-Sel-5-P1*%
X38100000Y-85090000D03*
%TO.P,SW4,6*%
%TO.N,DIP-Sel-5-P2*%
X38100000Y-87630000D03*
%TO.P,SW4,7*%
%TO.N,DIP-Sel-5-P3*%
X38100000Y-90170000D03*
%TO.P,SW4,8*%
%TO.N,DIP-Sel-5-P4*%
X38100000Y-92710000D03*
%TO.P,SW4,9*%
%TO.N,DIP-Sens-4*%
X45720000Y-92710000D03*
%TO.P,SW4,10*%
%TO.N,DIP-Sens-3*%
X45720000Y-90170000D03*
%TO.P,SW4,11*%
%TO.N,DIP-Sens-2*%
X45720000Y-87630000D03*
%TO.P,SW4,12*%
%TO.N,DIP-Sens-1*%
X45720000Y-85090000D03*
%TO.P,SW4,13*%
%TO.N,DIP-Sens-5*%
X45720000Y-82550000D03*
%TO.P,SW4,14*%
%TO.N,DIP-Sens-4*%
X45720000Y-80010000D03*
%TO.P,SW4,15*%
%TO.N,DIP-Sens-3*%
X45720000Y-77470000D03*
%TO.P,SW4,16*%
%TO.N,DIP-Sens-2*%
X45720000Y-74930000D03*
%TD*%
D12*
%TO.P,A1,1*%
%TO.N,N/C*%
X68580000Y-68580000D03*
D13*
%TO.P,A1,2*%
X68580000Y-66040000D03*
%TO.P,A1,3*%
%TO.N,ARDUINO-RESET*%
X68580000Y-63500000D03*
%TO.P,A1,4*%
%TO.N,GND*%
X68580000Y-60960000D03*
%TO.P,A1,5*%
%TO.N,AS3935-IRQ*%
X68580000Y-58420000D03*
%TO.P,A1,6*%
%TO.N,DIP-Sel-1*%
X68580000Y-55880000D03*
%TO.P,A1,7*%
%TO.N,DIP-Sel-2*%
X68580000Y-53340000D03*
%TO.P,A1,8*%
%TO.N,DIP-Sel-3*%
X68580000Y-50800000D03*
%TO.P,A1,9*%
%TO.N,DIP-Sel-4*%
X68580000Y-48260000D03*
%TO.P,A1,10*%
%TO.N,DIP-Sel-5*%
X68580000Y-45720000D03*
%TO.P,A1,11*%
%TO.N,DisplayBut*%
X68580000Y-43180000D03*
%TO.P,A1,12*%
%TO.N,Beeper-CTRL*%
X68580000Y-40640000D03*
%TO.P,A1,13*%
%TO.N,ClearStatsBut*%
X68580000Y-38100000D03*
%TO.P,A1,14*%
%TO.N,SPI-MOSI*%
X68580000Y-35560000D03*
%TO.P,A1,15*%
%TO.N,SPI-MISO*%
X68580000Y-33020000D03*
%TO.P,A1,16*%
%TO.N,SPI-CLK*%
X53340000Y-33020000D03*
%TO.P,A1,17*%
%TO.N,Power*%
X53340000Y-35560000D03*
%TO.P,A1,18*%
%TO.N,N/C*%
X53340000Y-38100000D03*
%TO.P,A1,19*%
%TO.N,DIP-Sens-1*%
X53340000Y-40640000D03*
%TO.P,A1,20*%
%TO.N,DIP-Sens-2*%
X53340000Y-43180000D03*
%TO.P,A1,21*%
%TO.N,DIP-Sens-3*%
X53340000Y-45720000D03*
%TO.P,A1,22*%
%TO.N,DIP-Sens-4*%
X53340000Y-48260000D03*
%TO.P,A1,23*%
%TO.N,I2C-SDA*%
X53340000Y-50800000D03*
%TO.P,A1,24*%
%TO.N,I2C-SCL*%
X53340000Y-53340000D03*
%TO.P,A1,25*%
%TO.N,DIP-Sens-5*%
X53340000Y-55880000D03*
%TO.P,A1,26*%
%TO.N,SPISel-AS3935*%
X53340000Y-58420000D03*
%TO.P,A1,27*%
%TO.N,N/C*%
X53340000Y-60960000D03*
%TO.P,A1,28*%
%TO.N,ARDUINO-RESET*%
X53340000Y-63500000D03*
%TO.P,A1,29*%
%TO.N,GND*%
X53340000Y-66040000D03*
%TO.P,A1,30*%
%TO.N,N/C*%
X53340000Y-68580000D03*
%TD*%
D11*
%TO.P,D2,1*%
%TO.N,DIP-Sel-1-P3*%
X35560000Y-33655000D03*
%TO.P,D2,2*%
%TO.N,N/C*%
X35560000Y-31755000D03*
%TO.P,D2,3*%
%TO.N,DIP-Sel-1*%
X33685000Y-32705000D03*
%TD*%
D26*
%TO.P,BT1,1*%
%TO.N,BatPower*%
X83820000Y-90320000D03*
%TO.P,BT1,2*%
%TO.N,GND*%
X83820000Y-60960000D03*
%TD*%
D10*
%TO.P,SW6,1*%
%TO.N,ClearStatsBut*%
X52705000Y-87575000D03*
X59205000Y-87575000D03*
%TO.P,SW6,2*%
%TO.N,GND*%
X52705000Y-92075000D03*
X59205000Y-92075000D03*
%TD*%
D14*
%TO.P,TP5,1*%
%TO.N,BatPower*%
X91440000Y-93980000D03*
%TD*%
D24*
%TO.P,J1,1*%
%TO.N,Power*%
X65405000Y-22860000D03*
D25*
%TO.P,J1,2*%
%TO.N,SPI-CLK*%
X65405000Y-25400000D03*
%TO.P,J1,3*%
%TO.N,GND*%
X65405000Y-27940000D03*
%TO.P,J1,4*%
%TO.N,AS3935-IRQ*%
X65405000Y-30480000D03*
%TO.P,J1,5*%
%TO.N,SPI-MISO*%
X65405000Y-33020000D03*
%TO.P,J1,6*%
%TO.N,SPI-MOSI*%
X65405000Y-35560000D03*
%TO.P,J1,7*%
%TO.N,SPISel-AS3935*%
X65405000Y-38100000D03*
%TD*%
D24*
%TO.P,J7,1*%
%TO.N,I2C-SCL*%
X58420000Y-58420000D03*
D25*
%TO.P,J7,2*%
%TO.N,I2C-SDA*%
X60960000Y-58420000D03*
%TD*%
D24*
%TO.P,J2,1*%
%TO.N,Power*%
X80640000Y-22295000D03*
D25*
%TO.P,J2,2*%
%TO.N,GND*%
X83180000Y-22295000D03*
%TD*%
D27*
%TO.N,Power*%
X50800000Y-29210000D03*
X57150000Y-22860000D03*
%TO.N,BatPower*%
X88900000Y-91440000D03*
D28*
%TO.N,DIP-Sel-4*%
X31750000Y-25400000D03*
X31750000Y-54610000D03*
%TO.N,DIP-Sel-5*%
X30480000Y-40640000D03*
X30480000Y-26670000D03*
%TO.N,DIP-Sens-2*%
X40640000Y-39370000D03*
X40640000Y-67818000D03*
X40640000Y-86360000D03*
X40640000Y-57785000D03*
X40640000Y-41910000D03*
X40640000Y-70485000D03*
X40640000Y-55118000D03*
X40640000Y-83820000D03*
%TO.N,DIP-Sens-3*%
X41910000Y-76200000D03*
X41910000Y-55118000D03*
X41910000Y-83820000D03*
X41910000Y-67818000D03*
X41910000Y-44450000D03*
X41910000Y-39370000D03*
X41910000Y-60325000D03*
X41910000Y-88900000D03*
%TO.N,DIP-Sens-4*%
X43180000Y-46990000D03*
X43180000Y-55118000D03*
X43180000Y-39370000D03*
X43180000Y-67818000D03*
X43180000Y-78740000D03*
X43180000Y-83820000D03*
X47625000Y-42545000D03*
X43180000Y-62865000D03*
%TO.N,ClearStatsBut*%
X64770000Y-54610000D03*
%TO.N,DisplayBut*%
X66040000Y-55880000D03*
%TO.N,GND*%
X51435000Y-54610000D03*
X48895000Y-27940000D03*
X54991000Y-55245000D03*
X73025000Y-40005000D03*
X70485000Y-39370000D03*
X63500000Y-27305000D03*
X62865000Y-64770000D03*
X66802000Y-31750000D03*
X63500000Y-38100000D03*
X62865000Y-61976000D03*
X29210000Y-24130000D03*
X62865000Y-73025000D03*
X53340000Y-30480000D03*
X59055000Y-54610000D03*
X95885000Y-25717500D03*
D27*
X86360000Y-55880000D03*
D28*
X58420000Y-47625000D03*
X70485000Y-54610000D03*
X54610000Y-22225000D03*
D27*
X64135000Y-81915000D03*
X62611000Y-94615000D03*
D28*
X62865000Y-43180000D03*
X51435000Y-36830000D03*
D27*
X76200000Y-60960000D03*
X95885000Y-89535000D03*
X30480000Y-87630000D03*
D28*
X57785000Y-25400000D03*
X66802000Y-34290000D03*
D27*
X81280000Y-66040000D03*
D28*
X93980000Y-19685000D03*
D27*
X56515000Y-68580000D03*
D28*
X100584000Y-41402000D03*
D27*
X86360000Y-66040000D03*
D28*
X57531000Y-61976000D03*
X100584000Y-66040000D03*
X60325000Y-49530000D03*
X66802000Y-36830000D03*
D27*
X91440000Y-60960000D03*
X49530000Y-60960000D03*
D28*
X71120000Y-74930000D03*
X29210000Y-39370000D03*
X29210000Y-63500000D03*
D27*
X56515000Y-45085000D03*
D28*
X63500000Y-24384000D03*
X70485000Y-41910000D03*
X60198000Y-64770000D03*
X97409000Y-35560000D03*
D27*
X81280000Y-55880000D03*
D28*
X57785000Y-39370000D03*
D27*
X48260000Y-45720000D03*
D28*
X56515000Y-57150000D03*
X97155000Y-41402000D03*
X71374000Y-32512000D03*
D27*
X81915000Y-30480000D03*
D28*
X60325000Y-27940000D03*
X55880000Y-33020000D03*
X60325000Y-61976000D03*
D27*
X60960000Y-52070000D03*
D28*
X57150000Y-52705000D03*
X72771000Y-43053000D03*
X97409000Y-30797500D03*
X65405000Y-43180000D03*
X57531000Y-64770000D03*
D27*
X69850000Y-23495000D03*
X61595000Y-19685000D03*
D28*
X71374000Y-36068000D03*
%TD*%
D29*
%TO.N,Power*%
X85090000Y-43180000D02*
X78105000Y-43180000D01*
X55880000Y-20320000D02*
X51435000Y-20320000D01*
X95825000Y-33020000D02*
X95825000Y-28575000D01*
X67945000Y-20320000D02*
X65405000Y-22860000D01*
X74930000Y-22285000D02*
X74930000Y-20320000D01*
X80645000Y-20320000D02*
X75565000Y-20320000D01*
X92710000Y-50800000D02*
X85090000Y-43180000D01*
X57150000Y-22860000D02*
X65405000Y-22860000D01*
D30*
X54610000Y-35560000D02*
X56515000Y-37465000D01*
D29*
X91440000Y-21590000D02*
X90170000Y-20320000D01*
X91440000Y-22860000D02*
X91440000Y-21590000D01*
X80640000Y-20325000D02*
X80645000Y-20320000D01*
X95825000Y-33020000D02*
X95825000Y-38512500D01*
X92710000Y-50800000D02*
X95360000Y-48150000D01*
X81275000Y-20325000D02*
X81280000Y-20320000D01*
D30*
X53340000Y-35560000D02*
X54610000Y-35560000D01*
D29*
X74295000Y-20320000D02*
X73660000Y-20320000D01*
X81280000Y-20320000D02*
X80645000Y-20320000D01*
X55880000Y-20320000D02*
X57150000Y-21590000D01*
X95825000Y-28575000D02*
X95825000Y-28515000D01*
X80640000Y-22295000D02*
X80640000Y-20325000D01*
X51435000Y-20320000D02*
X47625000Y-20320000D01*
X50800000Y-34290000D02*
X52070000Y-35560000D01*
X95825000Y-38512500D02*
X95360000Y-38977500D01*
X52070000Y-35560000D02*
X53340000Y-35560000D01*
X74930000Y-20320000D02*
X74295000Y-20320000D01*
X50800000Y-29210000D02*
X50800000Y-34290000D01*
X75565000Y-20320000D02*
X74930000Y-20320000D01*
X95360000Y-38977500D02*
X95360000Y-48150000D01*
X73660000Y-20320000D02*
X67945000Y-20320000D01*
X91440000Y-24130000D02*
X91440000Y-22860000D01*
X90170000Y-20320000D02*
X81280000Y-20320000D01*
X95825000Y-28515000D02*
X91440000Y-24130000D01*
X57150000Y-21590000D02*
X57150000Y-22860000D01*
D30*
X56515000Y-37465000D02*
X56515000Y-41275000D01*
D29*
%TO.N,BatPower*%
X95885000Y-22860000D02*
X99060000Y-26035000D01*
X91440000Y-93980000D02*
X86360000Y-93980000D01*
X83820000Y-91460000D02*
X83620000Y-91260000D01*
X83820000Y-93980000D02*
X83820000Y-91460000D01*
X93980000Y-22860000D02*
X95885000Y-22860000D01*
X86360000Y-93980000D02*
X83820000Y-93980000D01*
X80645000Y-93980000D02*
X83820000Y-93980000D01*
X88900000Y-91440000D02*
X86360000Y-93980000D01*
X99060000Y-26035000D02*
X99060000Y-81280000D01*
X99060000Y-81280000D02*
X88900000Y-91440000D01*
%TO.N,Beeper*%
X77470000Y-54610000D02*
X81280000Y-50800000D01*
X78105000Y-50800000D02*
X81280000Y-50800000D01*
X81280000Y-50800000D02*
X85110000Y-50800000D01*
D30*
%TO.N,Beeper-CTRL*%
X71882000Y-40640000D02*
X68580000Y-40640000D01*
X74422000Y-43180000D02*
X71882000Y-40640000D01*
%TO.N,Beeper-TrBase*%
X76200000Y-52578000D02*
X74422000Y-50800000D01*
X76200000Y-55880000D02*
X76200000Y-52578000D01*
%TO.N,DIP-Sel-1*%
X59055000Y-46355000D02*
X68580000Y-55880000D01*
X33685000Y-27275000D02*
X34925000Y-26035000D01*
X51435000Y-26035000D02*
X59055000Y-33655000D01*
X59055000Y-33655000D02*
X59055000Y-46355000D01*
X34925000Y-26035000D02*
X51435000Y-26035000D01*
X33685000Y-37145000D02*
X33685000Y-27275000D01*
%TO.N,DIP-Sel-2*%
X31750000Y-38100000D02*
X31750000Y-27940000D01*
X31750000Y-27940000D02*
X34290000Y-25400000D01*
X33685000Y-40035000D02*
X31750000Y-38100000D01*
X59690000Y-33020000D02*
X59690000Y-45720000D01*
X59690000Y-45720000D02*
X67310000Y-53340000D01*
X67310000Y-53340000D02*
X68580000Y-53340000D01*
X34290000Y-25400000D02*
X52070000Y-25400000D01*
X52070000Y-25400000D02*
X59690000Y-33020000D01*
X33685000Y-52385000D02*
X33685000Y-40035000D01*
%TO.N,DIP-Sel-3*%
X52705000Y-24765000D02*
X60325000Y-32385000D01*
X33655000Y-24765000D02*
X52705000Y-24765000D01*
X60325000Y-45085000D02*
X66040000Y-50800000D01*
X30480000Y-27940000D02*
X33655000Y-24765000D01*
X30480000Y-38735000D02*
X30480000Y-27940000D01*
X33655000Y-65715000D02*
X33655000Y-55245000D01*
X60325000Y-32385000D02*
X60325000Y-45085000D01*
X31750000Y-53340000D02*
X31750000Y-40005000D01*
X66040000Y-50800000D02*
X68580000Y-50800000D01*
X33655000Y-55245000D02*
X31750000Y-53340000D01*
X31750000Y-40005000D02*
X30480000Y-38735000D01*
%TO.N,DIP-Sel-4*%
X60960000Y-44450000D02*
X60960000Y-31750000D01*
X60960000Y-31750000D02*
X53340000Y-24130000D01*
X31750000Y-66675000D02*
X33655000Y-68580000D01*
X33020000Y-24130000D02*
X53340000Y-24130000D01*
X68580000Y-48260000D02*
X64770000Y-48260000D01*
X31750000Y-54610000D02*
X31750000Y-66675000D01*
X33655000Y-68580000D02*
X33655000Y-80650000D01*
X33020000Y-24130000D02*
X31750000Y-25400000D01*
X64770000Y-48260000D02*
X60960000Y-44450000D01*
%TO.N,DIP-Sel-5*%
X30480000Y-67310000D02*
X31750000Y-68580000D01*
X31750000Y-68580000D02*
X31750000Y-81280000D01*
X30480000Y-25400000D02*
X32385000Y-23495000D01*
X32385000Y-23495000D02*
X53975000Y-23495000D01*
X53975000Y-23495000D02*
X61595000Y-31115000D01*
X30480000Y-26670000D02*
X30480000Y-25400000D01*
X31750000Y-81280000D02*
X33655000Y-83185000D01*
X33655000Y-83185000D02*
X33655000Y-89916000D01*
X61595000Y-31115000D02*
X61595000Y-43815000D01*
X30480000Y-40640000D02*
X30480000Y-67310000D01*
X63500000Y-45720000D02*
X68580000Y-45720000D01*
X61595000Y-43815000D02*
X63500000Y-45720000D01*
%TO.N,DIP-Sens-1*%
X45720000Y-27940000D02*
X40640000Y-27940000D01*
X48895000Y-31115000D02*
X45720000Y-27940000D01*
X40640000Y-27940000D02*
X39370000Y-29210000D01*
X39370000Y-40640000D02*
X39370000Y-55880000D01*
X53340000Y-40640000D02*
X48895000Y-36195000D01*
X39370000Y-83820000D02*
X39370000Y-82550000D01*
X45212000Y-68580000D02*
X45720000Y-69088000D01*
X48895000Y-31115000D02*
X48895000Y-36195000D01*
X39370000Y-68580000D02*
X39370000Y-82550000D01*
X39370000Y-68580000D02*
X45212000Y-68580000D01*
X40640000Y-85090000D02*
X39370000Y-83820000D01*
X39370000Y-40640000D02*
X45720000Y-40640000D01*
X39370000Y-55880000D02*
X39370000Y-68580000D01*
X45212000Y-55880000D02*
X45720000Y-56388000D01*
X39370000Y-29210000D02*
X39370000Y-40640000D01*
X39370000Y-55880000D02*
X45212000Y-55880000D01*
X45720000Y-85090000D02*
X40640000Y-85090000D01*
%TO.N,DIP-Sens-2*%
X41910000Y-30480000D02*
X40640000Y-31750000D01*
X40640000Y-41910000D02*
X40640000Y-43180000D01*
X48260000Y-38100000D02*
X48260000Y-33020000D01*
X40640000Y-57785000D02*
X40640000Y-58420000D01*
X40640000Y-74930000D02*
X45720000Y-74930000D01*
X40640000Y-43180000D02*
X40640000Y-55118000D01*
X45720000Y-43180000D02*
X40640000Y-43180000D01*
X40640000Y-31750000D02*
X40640000Y-39370000D01*
X40640000Y-73660000D02*
X40640000Y-74930000D01*
X40640000Y-58420000D02*
X40640000Y-67818000D01*
X40640000Y-58420000D02*
X45212000Y-58420000D01*
X40640000Y-70485000D02*
X40640000Y-73660000D01*
X53340000Y-43180000D02*
X48260000Y-38100000D01*
X45720000Y-87630000D02*
X41910000Y-87630000D01*
X41910000Y-87630000D02*
X40640000Y-86360000D01*
X45212000Y-58420000D02*
X45720000Y-58928000D01*
X45720000Y-30480000D02*
X41910000Y-30480000D01*
X40640000Y-74930000D02*
X40640000Y-83820000D01*
X45720000Y-30480000D02*
X48260000Y-33020000D01*
%TO.N,DIP-Sens-3*%
X41910000Y-77470000D02*
X41910000Y-83820000D01*
X53340000Y-45720000D02*
X47625000Y-40005000D01*
X45720000Y-33020000D02*
X47625000Y-34925000D01*
X41910000Y-77470000D02*
X45720000Y-77470000D01*
X41910000Y-60960000D02*
X41910000Y-67818000D01*
X41910000Y-45720000D02*
X41910000Y-55118000D01*
X43180000Y-90170000D02*
X41910000Y-88900000D01*
X41910000Y-34290000D02*
X41910000Y-39370000D01*
X45720000Y-90170000D02*
X43180000Y-90170000D01*
X41910000Y-60960000D02*
X45212000Y-60960000D01*
X47625000Y-40005000D02*
X47625000Y-34925000D01*
X43180000Y-33020000D02*
X41910000Y-34290000D01*
X41910000Y-44450000D02*
X41910000Y-45720000D01*
X41910000Y-76200000D02*
X41910000Y-77470000D01*
X41910000Y-60325000D02*
X41910000Y-60960000D01*
X45212000Y-60960000D02*
X45720000Y-61468000D01*
X45720000Y-33020000D02*
X43180000Y-33020000D01*
X45720000Y-45720000D02*
X41910000Y-45720000D01*
%TO.N,DIP-Sens-4*%
X45720000Y-51308000D02*
X45212000Y-50800000D01*
X45720000Y-35560000D02*
X44450000Y-35560000D01*
X53340000Y-48260000D02*
X47625000Y-42545000D01*
X43180000Y-62865000D02*
X43180000Y-63500000D01*
X43180000Y-80010000D02*
X43180000Y-83820000D01*
X43180000Y-80010000D02*
X45720000Y-80010000D01*
X45212000Y-50800000D02*
X43180000Y-50800000D01*
X43180000Y-63500000D02*
X45212000Y-63500000D01*
X43180000Y-63500000D02*
X43180000Y-67818000D01*
X45212000Y-63500000D02*
X45720000Y-64008000D01*
X44450000Y-35560000D02*
X43180000Y-36830000D01*
X43180000Y-50800000D02*
X43180000Y-55118000D01*
X43180000Y-78740000D02*
X43180000Y-80010000D01*
X43180000Y-36830000D02*
X43180000Y-39370000D01*
X43180000Y-46990000D02*
X43180000Y-50800000D01*
%TO.N,DIP-Sens-5*%
X47752000Y-55880000D02*
X48260000Y-55880000D01*
X45720000Y-53848000D02*
X47752000Y-55880000D01*
X48260000Y-55880000D02*
X53340000Y-55880000D01*
%TO.N,I2C-SDA*%
X68580000Y-77470000D02*
X61595000Y-70485000D01*
X60960000Y-58420000D02*
X53340000Y-50800000D01*
X61595000Y-59055000D02*
X60960000Y-58420000D01*
X61595000Y-70485000D02*
X61595000Y-59055000D01*
%TO.N,I2C-SCL*%
X65722500Y-79057500D02*
X65722500Y-77152500D01*
X59055000Y-60325000D02*
X59055000Y-70485000D01*
X53340000Y-53340000D02*
X54610000Y-53340000D01*
X58420000Y-59690000D02*
X59055000Y-60325000D01*
X66675000Y-80010000D02*
X65722500Y-79057500D01*
X58420000Y-57150000D02*
X58420000Y-58420000D01*
X68580000Y-80010000D02*
X66675000Y-80010000D01*
X59055000Y-70485000D02*
X65722500Y-77152500D01*
X58420000Y-58420000D02*
X58420000Y-59690000D01*
X54610000Y-53340000D02*
X58420000Y-57150000D01*
%TO.N,ARDUINO-RESET*%
X52705000Y-76200000D02*
X50800000Y-74295000D01*
X50800000Y-66040000D02*
X53340000Y-63500000D01*
X52705000Y-76200000D02*
X59205000Y-76200000D01*
X50800000Y-74295000D02*
X50800000Y-66040000D01*
%TO.N,ClearStatsBut*%
X73025000Y-85090000D02*
X61690000Y-85090000D01*
X71120000Y-72390000D02*
X73660000Y-74930000D01*
X61690000Y-85090000D02*
X59205000Y-87575000D01*
X73660000Y-74930000D02*
X73660000Y-84455000D01*
X64770000Y-69850000D02*
X67310000Y-72390000D01*
X73660000Y-84455000D02*
X73025000Y-85090000D01*
X67310000Y-72390000D02*
X71120000Y-72390000D01*
X64770000Y-54610000D02*
X64770000Y-69850000D01*
X59205000Y-87575000D02*
X52705000Y-87575000D01*
%TO.N,DisplayBut*%
X66040000Y-69850000D02*
X67310000Y-71120000D01*
X74930000Y-74930000D02*
X74930000Y-85185000D01*
X74930000Y-85185000D02*
X72540000Y-87575000D01*
X71120000Y-71120000D02*
X74930000Y-74930000D01*
X72540000Y-87575000D02*
X66040000Y-87575000D01*
X66040000Y-55880000D02*
X66040000Y-69850000D01*
X67310000Y-71120000D02*
X71120000Y-71120000D01*
%TO.N,DIP-Sel-1-P1*%
X35565000Y-27940000D02*
X38100000Y-27940000D01*
X35560000Y-27945000D02*
X35565000Y-27940000D01*
%TO.N,DIP-Sel-1-P2*%
X37465000Y-29845000D02*
X38100000Y-30480000D01*
X35560000Y-29845000D02*
X37465000Y-29845000D01*
%TO.N,DIP-Sel-1-P3*%
X37465000Y-33655000D02*
X38100000Y-33020000D01*
X35560000Y-33655000D02*
X37465000Y-33655000D01*
%TO.N,DIP-Sel-1-P4*%
X37465000Y-36195000D02*
X38100000Y-35560000D01*
X35560000Y-36195000D02*
X37465000Y-36195000D01*
%TO.N,DIP-Sel-1-P5*%
X38095000Y-38095000D02*
X38100000Y-38100000D01*
X35560000Y-38095000D02*
X38095000Y-38095000D01*
%TO.N,DIP-Sel-2-P1*%
X35560000Y-40640000D02*
X38100000Y-40640000D01*
%TO.N,DIP-Sel-2-P2*%
X35560000Y-42540000D02*
X37460000Y-42540000D01*
X37460000Y-42540000D02*
X38100000Y-43180000D01*
%TO.N,DIP-Sel-2-P3*%
X35560000Y-45085000D02*
X37465000Y-45085000D01*
X37465000Y-45085000D02*
X38100000Y-45720000D01*
%TO.N,DIP-Sel-2-P4*%
X35560000Y-51435000D02*
X37973000Y-51435000D01*
X37973000Y-51435000D02*
X38100000Y-51308000D01*
%TO.N,DIP-Sel-2-P5*%
X35560000Y-53335000D02*
X37587000Y-53335000D01*
X37587000Y-53335000D02*
X38100000Y-53848000D01*
%TO.N,DIP-Sel-3-P1*%
X37907000Y-56195000D02*
X38100000Y-56388000D01*
X35530000Y-56195000D02*
X37907000Y-56195000D01*
%TO.N,DIP-Sel-3-P2*%
X37267000Y-58095000D02*
X38100000Y-58928000D01*
X35530000Y-58095000D02*
X37267000Y-58095000D01*
%TO.N,DIP-Sel-3-P3*%
X35530000Y-62225000D02*
X37343000Y-62225000D01*
X37343000Y-62225000D02*
X38100000Y-61468000D01*
%TO.N,DIP-Sel-3-P4*%
X35530000Y-64765000D02*
X37343000Y-64765000D01*
X37343000Y-64765000D02*
X38100000Y-64008000D01*
%TO.N,DIP-Sel-3-P5*%
X37983000Y-66665000D02*
X38100000Y-66548000D01*
X35530000Y-66665000D02*
X37983000Y-66665000D01*
%TO.N,DIP-Sel-4-P1*%
X35530000Y-69215000D02*
X37973000Y-69215000D01*
X37973000Y-69215000D02*
X38100000Y-69088000D01*
%TO.N,DIP-Sel-4-P2*%
X37785000Y-74615000D02*
X38100000Y-74930000D01*
X35530000Y-74615000D02*
X37785000Y-74615000D01*
%TO.N,DIP-Sel-4-P3*%
X37145000Y-76515000D02*
X38100000Y-77470000D01*
X35530000Y-76515000D02*
X37145000Y-76515000D01*
%TO.N,DIP-Sel-4-P4*%
X35530000Y-79700000D02*
X37790000Y-79700000D01*
X37790000Y-79700000D02*
X38100000Y-80010000D01*
%TO.N,DIP-Sel-4-P5*%
X35530000Y-81600000D02*
X37150000Y-81600000D01*
X37150000Y-81600000D02*
X38100000Y-82550000D01*
%TO.N,DIP-Sel-5-P1*%
X35530000Y-85095000D02*
X38095000Y-85095000D01*
X38095000Y-85095000D02*
X38100000Y-85090000D01*
%TO.N,DIP-Sel-5-P2*%
X37465000Y-86995000D02*
X38100000Y-87630000D01*
X35530000Y-86995000D02*
X37465000Y-86995000D01*
%TO.N,DIP-Sel-5-P3*%
X38100000Y-90170000D02*
X36896000Y-88966000D01*
X36896000Y-88966000D02*
X35530000Y-88966000D01*
X38095000Y-90175000D02*
X38100000Y-90170000D01*
%TO.N,DIP-Sel-5-P4*%
X36256000Y-90866000D02*
X35530000Y-90866000D01*
X38100000Y-92710000D02*
X36256000Y-90866000D01*
%TD*%
%TA.AperFunction,Conductor*%
%TO.N,GND*%
G36*
X47193500Y-43283356D02*
G01*
X47197401Y-43285607D01*
X47197407Y-43285612D01*
X47360733Y-43358329D01*
X47360735Y-43358329D01*
X47360736Y-43358330D01*
X47417275Y-43370347D01*
X47525010Y-43393247D01*
X47586490Y-43426438D01*
X47586909Y-43426855D01*
X52033115Y-47873061D01*
X52066600Y-47934384D01*
X52065209Y-47992834D01*
X52054367Y-48033299D01*
X52054364Y-48033313D01*
X52034532Y-48259998D01*
X52034532Y-48260001D01*
X52054364Y-48486686D01*
X52054366Y-48486697D01*
X52113258Y-48706488D01*
X52113261Y-48706497D01*
X52209431Y-48912732D01*
X52209432Y-48912734D01*
X52339954Y-49099141D01*
X52500858Y-49260045D01*
X52500861Y-49260047D01*
X52687266Y-49390568D01*
X52745275Y-49417618D01*
X52797714Y-49463791D01*
X52816866Y-49530984D01*
X52796650Y-49597865D01*
X52745275Y-49642382D01*
X52687267Y-49669431D01*
X52687265Y-49669432D01*
X52500858Y-49799954D01*
X52339954Y-49960858D01*
X52209432Y-50147265D01*
X52209431Y-50147267D01*
X52113261Y-50353502D01*
X52113258Y-50353511D01*
X52054366Y-50573302D01*
X52054364Y-50573313D01*
X52034532Y-50799998D01*
X52034532Y-50800001D01*
X52054364Y-51026686D01*
X52054366Y-51026697D01*
X52113258Y-51246488D01*
X52113261Y-51246497D01*
X52209431Y-51452732D01*
X52209432Y-51452734D01*
X52339954Y-51639141D01*
X52500858Y-51800045D01*
X52500861Y-51800047D01*
X52687266Y-51930568D01*
X52730778Y-51950858D01*
X52745275Y-51957618D01*
X52797714Y-52003791D01*
X52816866Y-52070984D01*
X52796650Y-52137865D01*
X52745275Y-52182382D01*
X52687267Y-52209431D01*
X52687265Y-52209432D01*
X52500858Y-52339954D01*
X52339954Y-52500858D01*
X52209432Y-52687265D01*
X52209431Y-52687267D01*
X52113261Y-52893502D01*
X52113258Y-52893511D01*
X52054366Y-53113302D01*
X52054364Y-53113313D01*
X52034532Y-53339998D01*
X52034532Y-53340001D01*
X52054364Y-53566686D01*
X52054366Y-53566697D01*
X52113258Y-53786488D01*
X52113261Y-53786497D01*
X52209431Y-53992732D01*
X52209432Y-53992734D01*
X52339954Y-54179141D01*
X52500858Y-54340045D01*
X52500861Y-54340047D01*
X52687266Y-54470568D01*
X52745275Y-54497618D01*
X52797714Y-54543791D01*
X52816866Y-54610984D01*
X52796650Y-54677865D01*
X52745275Y-54722382D01*
X52687267Y-54749431D01*
X52687265Y-54749432D01*
X52500858Y-54879954D01*
X52339954Y-55040858D01*
X52244892Y-55176623D01*
X52190315Y-55220248D01*
X52143317Y-55229500D01*
X48072808Y-55229500D01*
X48005769Y-55209815D01*
X47985127Y-55193181D01*
X47026884Y-54234938D01*
X46993399Y-54173615D01*
X46994791Y-54115162D01*
X47002406Y-54086744D01*
X47005635Y-54074692D01*
X47025468Y-53848000D01*
X47005635Y-53621308D01*
X46946739Y-53401504D01*
X46850568Y-53195266D01*
X46720047Y-53008861D01*
X46720045Y-53008858D01*
X46559141Y-52847954D01*
X46372734Y-52717432D01*
X46372728Y-52717429D01*
X46314725Y-52690382D01*
X46262285Y-52644210D01*
X46243133Y-52577017D01*
X46263348Y-52510135D01*
X46314725Y-52465618D01*
X46372734Y-52438568D01*
X46559139Y-52308047D01*
X46720047Y-52147139D01*
X46850568Y-51960734D01*
X46946739Y-51754496D01*
X47005635Y-51534692D01*
X47025468Y-51308000D01*
X47005635Y-51081308D01*
X46952535Y-50883135D01*
X46946741Y-50861511D01*
X46946738Y-50861502D01*
X46907334Y-50777001D01*
X46850568Y-50655266D01*
X46720047Y-50468861D01*
X46720045Y-50468858D01*
X46559141Y-50307954D01*
X46372734Y-50177432D01*
X46372732Y-50177431D01*
X46166497Y-50081261D01*
X46166488Y-50081258D01*
X45946697Y-50022366D01*
X45946693Y-50022365D01*
X45946692Y-50022365D01*
X45946691Y-50022364D01*
X45946686Y-50022364D01*
X45720002Y-50002532D01*
X45719998Y-50002532D01*
X45493313Y-50022364D01*
X45493302Y-50022366D01*
X45273511Y-50081258D01*
X45273504Y-50081260D01*
X45273504Y-50081261D01*
X45169381Y-50129815D01*
X45152081Y-50137882D01*
X45099676Y-50149500D01*
X43954500Y-50149500D01*
X43887461Y-50129815D01*
X43841706Y-50077011D01*
X43830500Y-50025500D01*
X43830500Y-47586197D01*
X43850185Y-47519158D01*
X43862352Y-47503223D01*
X43871859Y-47492665D01*
X43961250Y-47337835D01*
X44016497Y-47167803D01*
X44035185Y-46990000D01*
X44016497Y-46812197D01*
X43968061Y-46663127D01*
X43961252Y-46642170D01*
X43961249Y-46642164D01*
X43944755Y-46613596D01*
X43911790Y-46556498D01*
X43895318Y-46488600D01*
X43918171Y-46422573D01*
X43973092Y-46379382D01*
X44019178Y-46370500D01*
X44523317Y-46370500D01*
X44590356Y-46390185D01*
X44624892Y-46423377D01*
X44719954Y-46559141D01*
X44880858Y-46720045D01*
X44880861Y-46720047D01*
X45067266Y-46850568D01*
X45273504Y-46946739D01*
X45493308Y-47005635D01*
X45655230Y-47019801D01*
X45719998Y-47025468D01*
X45720000Y-47025468D01*
X45720002Y-47025468D01*
X45776673Y-47020509D01*
X45946692Y-47005635D01*
X46166496Y-46946739D01*
X46372734Y-46850568D01*
X46559139Y-46720047D01*
X46720047Y-46559139D01*
X46850568Y-46372734D01*
X46946739Y-46166496D01*
X47005635Y-45946692D01*
X47025468Y-45720000D01*
X47005635Y-45493308D01*
X46946739Y-45273504D01*
X46850568Y-45067266D01*
X46720047Y-44880861D01*
X46720045Y-44880858D01*
X46559141Y-44719954D01*
X46372734Y-44589432D01*
X46372728Y-44589429D01*
X46314725Y-44562382D01*
X46262285Y-44516210D01*
X46243133Y-44449017D01*
X46263348Y-44382135D01*
X46314725Y-44337618D01*
X46372734Y-44310568D01*
X46559139Y-44180047D01*
X46720047Y-44019139D01*
X46850568Y-43832734D01*
X46946739Y-43626496D01*
X47005635Y-43406692D01*
X47007975Y-43379938D01*
X47033426Y-43314871D01*
X47090016Y-43273891D01*
X47159778Y-43270012D01*
X47193500Y-43283356D01*
G37*
%TD.AperFunction*%
%TA.AperFunction,Conductor*%
G36*
X99063736Y-18080726D02*
G01*
X99322457Y-18096375D01*
X99337320Y-18098180D01*
X99588575Y-18144225D01*
X99603097Y-18147804D01*
X99846990Y-18223803D01*
X99860967Y-18229104D01*
X100093915Y-18333946D01*
X100107161Y-18340898D01*
X100325768Y-18473051D01*
X100338079Y-18481549D01*
X100539161Y-18639086D01*
X100550369Y-18649016D01*
X100730983Y-18829630D01*
X100740913Y-18840838D01*
X100898446Y-19041914D01*
X100906950Y-19054235D01*
X100950458Y-19126204D01*
X101039098Y-19272832D01*
X101046057Y-19286091D01*
X101150893Y-19519028D01*
X101156199Y-19533018D01*
X101204037Y-19686537D01*
X101232191Y-19776886D01*
X101235774Y-19791424D01*
X101281819Y-20042679D01*
X101283624Y-20057544D01*
X101299274Y-20316263D01*
X101299500Y-20323750D01*
X101299500Y-93976249D01*
X101299274Y-93983736D01*
X101283624Y-94242455D01*
X101281819Y-94257320D01*
X101235774Y-94508575D01*
X101232191Y-94523112D01*
X101195253Y-94641654D01*
X101156203Y-94766970D01*
X101150893Y-94780971D01*
X101046057Y-95013908D01*
X101039098Y-95027167D01*
X100906952Y-95245762D01*
X100898446Y-95258085D01*
X100740913Y-95459161D01*
X100730983Y-95470369D01*
X100550369Y-95650983D01*
X100539161Y-95660913D01*
X100338085Y-95818446D01*
X100325762Y-95826952D01*
X100107167Y-95959098D01*
X100093908Y-95966057D01*
X99860971Y-96070893D01*
X99846975Y-96076200D01*
X99603113Y-96152191D01*
X99588575Y-96155774D01*
X99337320Y-96201819D01*
X99322455Y-96203624D01*
X99063736Y-96219274D01*
X99056249Y-96219500D01*
X30483751Y-96219500D01*
X30476264Y-96219274D01*
X30217544Y-96203624D01*
X30202679Y-96201819D01*
X29951424Y-96155774D01*
X29936890Y-96152192D01*
X29693018Y-96076199D01*
X29679028Y-96070893D01*
X29446091Y-95966057D01*
X29432832Y-95959098D01*
X29214237Y-95826952D01*
X29201914Y-95818446D01*
X29000838Y-95660913D01*
X28989630Y-95650983D01*
X28809016Y-95470369D01*
X28799086Y-95459161D01*
X28641553Y-95258085D01*
X28633051Y-95245768D01*
X28500898Y-95027161D01*
X28493946Y-95013915D01*
X28389104Y-94780967D01*
X28383803Y-94766990D01*
X28307804Y-94523097D01*
X28304225Y-94508575D01*
X28258180Y-94257320D01*
X28256375Y-94242455D01*
X28240726Y-93983736D01*
X28240500Y-93976249D01*
X28240500Y-93473038D01*
X29260500Y-93473038D01*
X29260500Y-93724961D01*
X29299910Y-93973785D01*
X29377760Y-94213383D01*
X29492132Y-94437848D01*
X29640201Y-94641649D01*
X29640205Y-94641654D01*
X29818345Y-94819794D01*
X29818350Y-94819798D01*
X29996117Y-94948952D01*
X30022155Y-94967870D01*
X30144461Y-95030188D01*
X30246616Y-95082239D01*
X30246618Y-95082239D01*
X30246621Y-95082241D01*
X30486215Y-95160090D01*
X30735038Y-95199500D01*
X30735039Y-95199500D01*
X30986961Y-95199500D01*
X30986962Y-95199500D01*
X31235785Y-95160090D01*
X31475379Y-95082241D01*
X31699845Y-94967870D01*
X31903656Y-94819793D01*
X32081793Y-94641656D01*
X32229870Y-94437845D01*
X32344241Y-94213379D01*
X32422090Y-93973785D01*
X32461500Y-93724962D01*
X32461500Y-93473038D01*
X32422090Y-93224215D01*
X32344241Y-92984621D01*
X32344239Y-92984618D01*
X32344239Y-92984616D01*
X32287121Y-92872516D01*
X32229870Y-92760155D01*
X32186509Y-92700474D01*
X32081798Y-92556350D01*
X32081794Y-92556345D01*
X31903654Y-92378205D01*
X31903649Y-92378201D01*
X31699848Y-92230132D01*
X31699847Y-92230131D01*
X31699845Y-92230130D01*
X31629747Y-92194413D01*
X31475383Y-92115760D01*
X31235785Y-92037910D01*
X31209791Y-92033793D01*
X30986962Y-91998500D01*
X30735038Y-91998500D01*
X30709209Y-92002591D01*
X30486214Y-92037910D01*
X30246616Y-92115760D01*
X30022151Y-92230132D01*
X29818350Y-92378201D01*
X29818345Y-92378205D01*
X29640205Y-92556345D01*
X29640201Y-92556350D01*
X29492132Y-92760151D01*
X29377760Y-92984616D01*
X29299910Y-93224214D01*
X29260500Y-93473038D01*
X28240500Y-93473038D01*
X28240500Y-26670000D01*
X29624815Y-26670000D01*
X29643503Y-26847805D01*
X29643504Y-26847807D01*
X29698747Y-27017829D01*
X29698750Y-27017835D01*
X29788141Y-27172665D01*
X29809721Y-27196632D01*
X29907764Y-27305521D01*
X29907771Y-27305527D01*
X29956400Y-27340858D01*
X29999066Y-27396188D01*
X30005045Y-27465801D01*
X29976864Y-27519207D01*
X29978588Y-27520622D01*
X29974724Y-27525329D01*
X29905878Y-27628367D01*
X29903534Y-27631874D01*
X29854499Y-27750255D01*
X29854497Y-27750261D01*
X29829500Y-27875928D01*
X29829500Y-27875931D01*
X29829500Y-38799069D01*
X29845030Y-38877139D01*
X29848105Y-38892597D01*
X29854499Y-38924744D01*
X29873822Y-38971395D01*
X29903535Y-39043127D01*
X29941566Y-39100045D01*
X29974726Y-39149673D01*
X30413808Y-39588755D01*
X30447293Y-39650078D01*
X30442309Y-39719770D01*
X30400437Y-39775703D01*
X30351908Y-39797726D01*
X30215733Y-39826670D01*
X30215728Y-39826672D01*
X30052408Y-39899387D01*
X29907768Y-40004475D01*
X29788140Y-40137336D01*
X29698750Y-40292164D01*
X29698747Y-40292170D01*
X29643504Y-40462192D01*
X29643503Y-40462194D01*
X29624815Y-40640000D01*
X29643503Y-40817805D01*
X29643504Y-40817807D01*
X29698747Y-40987829D01*
X29698750Y-40987835D01*
X29788141Y-41142665D01*
X29797648Y-41153223D01*
X29827879Y-41216213D01*
X29829500Y-41236197D01*
X29829500Y-67374069D01*
X29829500Y-67374071D01*
X29829499Y-67374071D01*
X29848615Y-67470165D01*
X29848615Y-67470166D01*
X29854496Y-67499737D01*
X29854498Y-67499742D01*
X29854499Y-67499744D01*
X29903535Y-67618127D01*
X29961994Y-67705618D01*
X29974726Y-67724673D01*
X29974727Y-67724674D01*
X31063181Y-68813126D01*
X31096666Y-68874449D01*
X31099500Y-68900807D01*
X31099500Y-81344070D01*
X31110973Y-81401744D01*
X31110973Y-81401746D01*
X31124497Y-81469736D01*
X31124499Y-81469744D01*
X31166786Y-81571835D01*
X31173535Y-81588127D01*
X31223016Y-81662181D01*
X31244726Y-81694673D01*
X31244727Y-81694674D01*
X32968181Y-83418127D01*
X33001666Y-83479450D01*
X33004500Y-83505808D01*
X33004500Y-85142804D01*
X32984815Y-85209843D01*
X32932011Y-85255598D01*
X32915095Y-85261880D01*
X32807106Y-85293253D01*
X32807103Y-85293255D01*
X32665637Y-85376917D01*
X32665629Y-85376923D01*
X32549423Y-85493129D01*
X32549417Y-85493137D01*
X32465755Y-85634603D01*
X32465754Y-85634606D01*
X32419902Y-85792426D01*
X32419901Y-85792432D01*
X32417000Y-85829298D01*
X32417000Y-86260701D01*
X32419901Y-86297567D01*
X32419902Y-86297573D01*
X32465754Y-86455393D01*
X32465755Y-86455396D01*
X32549417Y-86596862D01*
X32549423Y-86596870D01*
X32665629Y-86713076D01*
X32665633Y-86713079D01*
X32665635Y-86713081D01*
X32807102Y-86796744D01*
X32915096Y-86828119D01*
X32973980Y-86865725D01*
X33003187Y-86929197D01*
X33004500Y-86947195D01*
X33004500Y-89013804D01*
X32984815Y-89080843D01*
X32932011Y-89126598D01*
X32915095Y-89132880D01*
X32807106Y-89164253D01*
X32807103Y-89164255D01*
X32665637Y-89247917D01*
X32665629Y-89247923D01*
X32549423Y-89364129D01*
X32549417Y-89364137D01*
X32465755Y-89505603D01*
X32465754Y-89505606D01*
X32419902Y-89663426D01*
X32419901Y-89663432D01*
X32417000Y-89700298D01*
X32417000Y-90131701D01*
X32419901Y-90168567D01*
X32419902Y-90168573D01*
X32465754Y-90326393D01*
X32465755Y-90326396D01*
X32465756Y-90326398D01*
X32469224Y-90332262D01*
X32549417Y-90467862D01*
X32549423Y-90467870D01*
X32665629Y-90584076D01*
X32665633Y-90584079D01*
X32665635Y-90584081D01*
X32807102Y-90667744D01*
X32833027Y-90675276D01*
X32964926Y-90713597D01*
X32964929Y-90713597D01*
X32964931Y-90713598D01*
X33001806Y-90716500D01*
X34168000Y-90716500D01*
X34235039Y-90736185D01*
X34280794Y-90788989D01*
X34292000Y-90840500D01*
X34292000Y-91081701D01*
X34294901Y-91118567D01*
X34294902Y-91118573D01*
X34340754Y-91276393D01*
X34340755Y-91276396D01*
X34340756Y-91276398D01*
X34355050Y-91300568D01*
X34424417Y-91417862D01*
X34424423Y-91417870D01*
X34540629Y-91534076D01*
X34540633Y-91534079D01*
X34540635Y-91534081D01*
X34682102Y-91617744D01*
X34723724Y-91629836D01*
X34839926Y-91663597D01*
X34839929Y-91663597D01*
X34839931Y-91663598D01*
X34876806Y-91666500D01*
X36085192Y-91666500D01*
X36152231Y-91686185D01*
X36172873Y-91702819D01*
X36793115Y-92323061D01*
X36826600Y-92384384D01*
X36825209Y-92442834D01*
X36814367Y-92483299D01*
X36814364Y-92483313D01*
X36794532Y-92709998D01*
X36794532Y-92710001D01*
X36814364Y-92936686D01*
X36814366Y-92936697D01*
X36873258Y-93156488D01*
X36873261Y-93156497D01*
X36969431Y-93362732D01*
X36969432Y-93362734D01*
X37099954Y-93549141D01*
X37260858Y-93710045D01*
X37260861Y-93710047D01*
X37447266Y-93840568D01*
X37653504Y-93936739D01*
X37873308Y-93995635D01*
X38035230Y-94009801D01*
X38099998Y-94015468D01*
X38100000Y-94015468D01*
X38100002Y-94015468D01*
X38156673Y-94010509D01*
X38326692Y-93995635D01*
X38546496Y-93936739D01*
X38752734Y-93840568D01*
X38939139Y-93710047D01*
X39100047Y-93549139D01*
X39230568Y-93362734D01*
X39326739Y-93156496D01*
X39385635Y-92936692D01*
X39405468Y-92710000D01*
X39385635Y-92483308D01*
X39326739Y-92263504D01*
X39230568Y-92057266D01*
X39100047Y-91870861D01*
X39100045Y-91870858D01*
X38939141Y-91709954D01*
X38752734Y-91579432D01*
X38752728Y-91579429D01*
X38694725Y-91552382D01*
X38642285Y-91506210D01*
X38623133Y-91439017D01*
X38643348Y-91372135D01*
X38694725Y-91327618D01*
X38752734Y-91300568D01*
X38939139Y-91170047D01*
X39100047Y-91009139D01*
X39230568Y-90822734D01*
X39326739Y-90616496D01*
X39385635Y-90396692D01*
X39405468Y-90170000D01*
X39385635Y-89943308D01*
X39326739Y-89723504D01*
X39230568Y-89517266D01*
X39123347Y-89364137D01*
X39100045Y-89330858D01*
X38939141Y-89169954D01*
X38752734Y-89039432D01*
X38752728Y-89039429D01*
X38694725Y-89012382D01*
X38642285Y-88966210D01*
X38623133Y-88899017D01*
X38643348Y-88832135D01*
X38694725Y-88787618D01*
X38752734Y-88760568D01*
X38939139Y-88630047D01*
X39100047Y-88469139D01*
X39230568Y-88282734D01*
X39326739Y-88076496D01*
X39385635Y-87856692D01*
X39405468Y-87630000D01*
X39385635Y-87403308D01*
X39326739Y-87183504D01*
X39230568Y-86977266D01*
X39100047Y-86790861D01*
X39100045Y-86790858D01*
X38939141Y-86629954D01*
X38752734Y-86499432D01*
X38752728Y-86499429D01*
X38694725Y-86472382D01*
X38642285Y-86426210D01*
X38623133Y-86359017D01*
X38643348Y-86292135D01*
X38694725Y-86247618D01*
X38752734Y-86220568D01*
X38939139Y-86090047D01*
X39100047Y-85929139D01*
X39230568Y-85742734D01*
X39326739Y-85536496D01*
X39385635Y-85316692D01*
X39405468Y-85090000D01*
X39404999Y-85084643D01*
X39418764Y-85016145D01*
X39467378Y-84965960D01*
X39535406Y-84950025D01*
X39601250Y-84973398D01*
X39616208Y-84986153D01*
X40131197Y-85501142D01*
X40164682Y-85562465D01*
X40159698Y-85632157D01*
X40117826Y-85688090D01*
X40116402Y-85689141D01*
X40067768Y-85724475D01*
X39948140Y-85857336D01*
X39858750Y-86012164D01*
X39858747Y-86012170D01*
X39803504Y-86182192D01*
X39803503Y-86182194D01*
X39784815Y-86360000D01*
X39803503Y-86537805D01*
X39803504Y-86537807D01*
X39858747Y-86707829D01*
X39858750Y-86707835D01*
X39948141Y-86862665D01*
X39986093Y-86904815D01*
X40067764Y-86995521D01*
X40067767Y-86995523D01*
X40067770Y-86995526D01*
X40212407Y-87100612D01*
X40375733Y-87173329D01*
X40375735Y-87173329D01*
X40375736Y-87173330D01*
X40432275Y-87185347D01*
X40540010Y-87208247D01*
X40601490Y-87241438D01*
X40601909Y-87241855D01*
X41401197Y-88041142D01*
X41434682Y-88102465D01*
X41429698Y-88172156D01*
X41387826Y-88228090D01*
X41386402Y-88229141D01*
X41337768Y-88264475D01*
X41218140Y-88397336D01*
X41128750Y-88552164D01*
X41128747Y-88552170D01*
X41073504Y-88722192D01*
X41073503Y-88722194D01*
X41054815Y-88900000D01*
X41073503Y-89077805D01*
X41073504Y-89077807D01*
X41128747Y-89247829D01*
X41128750Y-89247835D01*
X41218141Y-89402665D01*
X41259812Y-89448946D01*
X41337764Y-89535521D01*
X41337767Y-89535523D01*
X41337770Y-89535526D01*
X41482407Y-89640612D01*
X41645733Y-89713329D01*
X41645735Y-89713329D01*
X41645736Y-89713330D01*
X41702275Y-89725347D01*
X41810010Y-89748247D01*
X41871490Y-89781438D01*
X41871909Y-89781855D01*
X42287972Y-90197917D01*
X42674724Y-90584669D01*
X42757799Y-90667744D01*
X42765332Y-90675277D01*
X42871866Y-90746461D01*
X42871872Y-90746464D01*
X42871873Y-90746465D01*
X42990256Y-90795501D01*
X42990260Y-90795501D01*
X42990261Y-90795502D01*
X43115928Y-90820500D01*
X43115931Y-90820500D01*
X44523317Y-90820500D01*
X44590356Y-90840185D01*
X44624892Y-90873377D01*
X44719954Y-91009141D01*
X44880858Y-91170045D01*
X44880861Y-91170047D01*
X45067266Y-91300568D01*
X45099451Y-91315576D01*
X45125275Y-91327618D01*
X45177714Y-91373791D01*
X45196866Y-91440984D01*
X45176650Y-91507865D01*
X45125275Y-91552382D01*
X45067267Y-91579431D01*
X45067265Y-91579432D01*
X44880858Y-91709954D01*
X44719954Y-91870858D01*
X44589432Y-92057265D01*
X44589431Y-92057267D01*
X44493261Y-92263502D01*
X44493258Y-92263511D01*
X44434366Y-92483302D01*
X44434364Y-92483313D01*
X44414532Y-92709998D01*
X44414532Y-92710001D01*
X44434364Y-92936686D01*
X44434366Y-92936697D01*
X44493258Y-93156488D01*
X44493261Y-93156497D01*
X44589431Y-93362732D01*
X44589432Y-93362734D01*
X44719954Y-93549141D01*
X44880858Y-93710045D01*
X44880861Y-93710047D01*
X45067266Y-93840568D01*
X45273504Y-93936739D01*
X45493308Y-93995635D01*
X45655230Y-94009801D01*
X45719998Y-94015468D01*
X45720000Y-94015468D01*
X45720002Y-94015468D01*
X45776673Y-94010509D01*
X45946692Y-93995635D01*
X46166496Y-93936739D01*
X46372734Y-93840568D01*
X46559139Y-93710047D01*
X46720047Y-93549139D01*
X46850568Y-93362734D01*
X46946739Y-93156496D01*
X47005635Y-92936692D01*
X47025468Y-92710000D01*
X47005635Y-92483308D01*
X46946739Y-92263504D01*
X46858835Y-92074994D01*
X51199859Y-92074994D01*
X51199859Y-92075005D01*
X51220385Y-92322729D01*
X51220387Y-92322738D01*
X51281412Y-92563717D01*
X51381266Y-92791364D01*
X51481564Y-92944882D01*
X52181212Y-92245234D01*
X52192482Y-92287292D01*
X52264890Y-92412708D01*
X52367292Y-92515110D01*
X52492708Y-92587518D01*
X52534765Y-92598787D01*
X51834942Y-93298609D01*
X51881768Y-93335055D01*
X51881770Y-93335056D01*
X52100385Y-93453364D01*
X52100396Y-93453369D01*
X52335506Y-93534083D01*
X52580707Y-93575000D01*
X52829293Y-93575000D01*
X53074493Y-93534083D01*
X53309603Y-93453369D01*
X53309614Y-93453364D01*
X53528228Y-93335057D01*
X53528231Y-93335055D01*
X53575056Y-93298609D01*
X52875234Y-92598787D01*
X52917292Y-92587518D01*
X53042708Y-92515110D01*
X53145110Y-92412708D01*
X53217518Y-92287292D01*
X53228787Y-92245235D01*
X53928434Y-92944882D01*
X54028731Y-92791369D01*
X54128587Y-92563717D01*
X54189612Y-92322738D01*
X54189614Y-92322729D01*
X54210141Y-92075005D01*
X54210141Y-92074994D01*
X57699859Y-92074994D01*
X57699859Y-92075005D01*
X57720385Y-92322729D01*
X57720387Y-92322738D01*
X57781412Y-92563717D01*
X57881266Y-92791364D01*
X57981564Y-92944882D01*
X58681212Y-92245234D01*
X58692482Y-92287292D01*
X58764890Y-92412708D01*
X58867292Y-92515110D01*
X58992708Y-92587518D01*
X59034765Y-92598787D01*
X58334942Y-93298609D01*
X58381768Y-93335055D01*
X58381770Y-93335056D01*
X58600385Y-93453364D01*
X58600396Y-93453369D01*
X58835506Y-93534083D01*
X59080707Y-93575000D01*
X59329293Y-93575000D01*
X59574493Y-93534083D01*
X59809603Y-93453369D01*
X59809614Y-93453364D01*
X60028228Y-93335057D01*
X60028231Y-93335055D01*
X60075056Y-93298609D01*
X59375234Y-92598787D01*
X59417292Y-92587518D01*
X59542708Y-92515110D01*
X59645110Y-92412708D01*
X59717518Y-92287292D01*
X59728787Y-92245235D01*
X60428434Y-92944882D01*
X60528731Y-92791369D01*
X60628587Y-92563717D01*
X60689612Y-92322738D01*
X60689614Y-92322729D01*
X60710141Y-92075005D01*
X60710141Y-92074994D01*
X64534859Y-92074994D01*
X64534859Y-92075005D01*
X64555385Y-92322729D01*
X64555387Y-92322738D01*
X64616412Y-92563717D01*
X64716266Y-92791364D01*
X64816564Y-92944882D01*
X65516212Y-92245234D01*
X65527482Y-92287292D01*
X65599890Y-92412708D01*
X65702292Y-92515110D01*
X65827708Y-92587518D01*
X65869765Y-92598787D01*
X65169942Y-93298609D01*
X65216768Y-93335055D01*
X65216770Y-93335056D01*
X65435385Y-93453364D01*
X65435396Y-93453369D01*
X65670506Y-93534083D01*
X65915707Y-93575000D01*
X66164293Y-93575000D01*
X66409493Y-93534083D01*
X66644603Y-93453369D01*
X66644614Y-93453364D01*
X66863228Y-93335057D01*
X66863231Y-93335055D01*
X66910056Y-93298609D01*
X66210234Y-92598787D01*
X66252292Y-92587518D01*
X66377708Y-92515110D01*
X66480110Y-92412708D01*
X66552518Y-92287292D01*
X66563787Y-92245235D01*
X67263434Y-92944882D01*
X67363731Y-92791369D01*
X67463587Y-92563717D01*
X67524612Y-92322738D01*
X67524614Y-92322729D01*
X67545141Y-92075005D01*
X67545141Y-92074994D01*
X71034859Y-92074994D01*
X71034859Y-92075005D01*
X71055385Y-92322729D01*
X71055387Y-92322738D01*
X71116412Y-92563717D01*
X71216266Y-92791364D01*
X71316564Y-92944882D01*
X72016212Y-92245234D01*
X72027482Y-92287292D01*
X72099890Y-92412708D01*
X72202292Y-92515110D01*
X72327708Y-92587518D01*
X72369765Y-92598787D01*
X71669942Y-93298609D01*
X71716768Y-93335055D01*
X71716770Y-93335056D01*
X71935385Y-93453364D01*
X71935396Y-93453369D01*
X72170506Y-93534083D01*
X72415707Y-93575000D01*
X72664293Y-93575000D01*
X72909493Y-93534083D01*
X73144603Y-93453369D01*
X73144614Y-93453364D01*
X73363228Y-93335057D01*
X73363231Y-93335055D01*
X73410056Y-93298609D01*
X72710234Y-92598787D01*
X72752292Y-92587518D01*
X72877708Y-92515110D01*
X72980110Y-92412708D01*
X73052518Y-92287292D01*
X73063787Y-92245235D01*
X73763434Y-92944882D01*
X73863731Y-92791369D01*
X73963587Y-92563717D01*
X74024612Y-92322738D01*
X74024614Y-92322729D01*
X74045141Y-92075005D01*
X74045141Y-92074994D01*
X74024614Y-91827270D01*
X74024612Y-91827261D01*
X73963587Y-91586282D01*
X73863731Y-91358630D01*
X73763434Y-91205116D01*
X73063787Y-91904764D01*
X73052518Y-91862708D01*
X72980110Y-91737292D01*
X72877708Y-91634890D01*
X72752292Y-91562482D01*
X72710235Y-91551212D01*
X73410057Y-90851390D01*
X73410056Y-90851389D01*
X73363229Y-90814943D01*
X73144614Y-90696635D01*
X73144603Y-90696630D01*
X72909493Y-90615916D01*
X72664293Y-90575000D01*
X72415707Y-90575000D01*
X72170506Y-90615916D01*
X71935396Y-90696630D01*
X71935390Y-90696632D01*
X71716761Y-90814949D01*
X71669942Y-90851388D01*
X71669942Y-90851390D01*
X72369765Y-91551212D01*
X72327708Y-91562482D01*
X72202292Y-91634890D01*
X72099890Y-91737292D01*
X72027482Y-91862708D01*
X72016212Y-91904764D01*
X71316564Y-91205116D01*
X71216267Y-91358632D01*
X71116412Y-91586282D01*
X71055387Y-91827261D01*
X71055385Y-91827270D01*
X71034859Y-92074994D01*
X67545141Y-92074994D01*
X67524614Y-91827270D01*
X67524612Y-91827261D01*
X67463587Y-91586282D01*
X67363731Y-91358630D01*
X67263434Y-91205116D01*
X66563787Y-91904764D01*
X66552518Y-91862708D01*
X66480110Y-91737292D01*
X66377708Y-91634890D01*
X66252292Y-91562482D01*
X66210235Y-91551212D01*
X66910057Y-90851390D01*
X66910056Y-90851389D01*
X66863229Y-90814943D01*
X66644614Y-90696635D01*
X66644603Y-90696630D01*
X66409493Y-90615916D01*
X66164293Y-90575000D01*
X65915707Y-90575000D01*
X65670506Y-90615916D01*
X65435396Y-90696630D01*
X65435390Y-90696632D01*
X65216761Y-90814949D01*
X65169942Y-90851388D01*
X65169942Y-90851390D01*
X65869765Y-91551212D01*
X65827708Y-91562482D01*
X65702292Y-91634890D01*
X65599890Y-91737292D01*
X65527482Y-91862708D01*
X65516212Y-91904764D01*
X64816564Y-91205116D01*
X64716267Y-91358632D01*
X64616412Y-91586282D01*
X64555387Y-91827261D01*
X64555385Y-91827270D01*
X64534859Y-92074994D01*
X60710141Y-92074994D01*
X60689614Y-91827270D01*
X60689612Y-91827261D01*
X60628587Y-91586282D01*
X60528731Y-91358630D01*
X60428434Y-91205116D01*
X59728787Y-91904764D01*
X59717518Y-91862708D01*
X59645110Y-91737292D01*
X59542708Y-91634890D01*
X59417292Y-91562482D01*
X59375235Y-91551212D01*
X60075057Y-90851390D01*
X60075056Y-90851389D01*
X60028229Y-90814943D01*
X59809614Y-90696635D01*
X59809603Y-90696630D01*
X59574493Y-90615916D01*
X59329293Y-90575000D01*
X59080707Y-90575000D01*
X58835506Y-90615916D01*
X58600396Y-90696630D01*
X58600390Y-90696632D01*
X58381761Y-90814949D01*
X58334942Y-90851388D01*
X58334942Y-90851390D01*
X59034765Y-91551212D01*
X58992708Y-91562482D01*
X58867292Y-91634890D01*
X58764890Y-91737292D01*
X58692482Y-91862708D01*
X58681212Y-91904764D01*
X57981564Y-91205116D01*
X57881267Y-91358632D01*
X57781412Y-91586282D01*
X57720387Y-91827261D01*
X57720385Y-91827270D01*
X57699859Y-92074994D01*
X54210141Y-92074994D01*
X54189614Y-91827270D01*
X54189612Y-91827261D01*
X54128587Y-91586282D01*
X54028731Y-91358630D01*
X53928434Y-91205116D01*
X53228787Y-91904764D01*
X53217518Y-91862708D01*
X53145110Y-91737292D01*
X53042708Y-91634890D01*
X52917292Y-91562482D01*
X52875235Y-91551212D01*
X53575057Y-90851390D01*
X53575056Y-90851389D01*
X53528229Y-90814943D01*
X53309614Y-90696635D01*
X53309603Y-90696630D01*
X53074493Y-90615916D01*
X52829293Y-90575000D01*
X52580707Y-90575000D01*
X52335506Y-90615916D01*
X52100396Y-90696630D01*
X52100390Y-90696632D01*
X51881761Y-90814949D01*
X51834942Y-90851388D01*
X51834942Y-90851390D01*
X52534765Y-91551212D01*
X52492708Y-91562482D01*
X52367292Y-91634890D01*
X52264890Y-91737292D01*
X52192482Y-91862708D01*
X52181212Y-91904764D01*
X51481564Y-91205116D01*
X51381267Y-91358632D01*
X51281412Y-91586282D01*
X51220387Y-91827261D01*
X51220385Y-91827270D01*
X51199859Y-92074994D01*
X46858835Y-92074994D01*
X46850568Y-92057266D01*
X46720047Y-91870861D01*
X46720045Y-91870858D01*
X46559141Y-91709954D01*
X46372734Y-91579432D01*
X46372728Y-91579429D01*
X46314725Y-91552382D01*
X46262285Y-91506210D01*
X46243133Y-91439017D01*
X46263348Y-91372135D01*
X46314725Y-91327618D01*
X46372734Y-91300568D01*
X46559139Y-91170047D01*
X46720047Y-91009139D01*
X46850568Y-90822734D01*
X46946739Y-90616496D01*
X47005635Y-90396692D01*
X47025468Y-90170000D01*
X47005635Y-89943308D01*
X46946739Y-89723504D01*
X46850568Y-89517266D01*
X46743347Y-89364137D01*
X46720045Y-89330858D01*
X46559141Y-89169954D01*
X46372734Y-89039432D01*
X46372728Y-89039429D01*
X46314725Y-89012382D01*
X46262285Y-88966210D01*
X46243133Y-88899017D01*
X46263348Y-88832135D01*
X46314725Y-88787618D01*
X46372734Y-88760568D01*
X46559139Y-88630047D01*
X46720047Y-88469139D01*
X46850568Y-88282734D01*
X46946739Y-88076496D01*
X47005635Y-87856692D01*
X47025468Y-87630000D01*
X47020656Y-87574994D01*
X51199357Y-87574994D01*
X51199357Y-87575005D01*
X51219890Y-87822812D01*
X51219892Y-87822824D01*
X51280936Y-88063881D01*
X51380826Y-88291606D01*
X51516833Y-88499782D01*
X51516836Y-88499785D01*
X51685256Y-88682738D01*
X51881491Y-88835474D01*
X52100190Y-88953828D01*
X52335386Y-89034571D01*
X52580665Y-89075500D01*
X52829335Y-89075500D01*
X53074614Y-89034571D01*
X53309810Y-88953828D01*
X53528509Y-88835474D01*
X53724744Y-88682738D01*
X53893164Y-88499785D01*
X54029173Y-88291607D01*
X54029175Y-88291601D01*
X54029786Y-88290475D01*
X54030157Y-88290101D01*
X54031978Y-88287314D01*
X54032551Y-88287688D01*
X54079009Y-88240888D01*
X54138837Y-88225500D01*
X57771163Y-88225500D01*
X57838202Y-88245185D01*
X57877561Y-88287615D01*
X57878022Y-88287314D01*
X57879785Y-88290012D01*
X57880214Y-88290475D01*
X57880826Y-88291606D01*
X58016833Y-88499782D01*
X58016836Y-88499785D01*
X58185256Y-88682738D01*
X58381491Y-88835474D01*
X58600190Y-88953828D01*
X58835386Y-89034571D01*
X59080665Y-89075500D01*
X59329335Y-89075500D01*
X59574614Y-89034571D01*
X59809810Y-88953828D01*
X60028509Y-88835474D01*
X60224744Y-88682738D01*
X60393164Y-88499785D01*
X60529173Y-88291607D01*
X60629063Y-88063881D01*
X60690108Y-87822821D01*
X60692372Y-87795499D01*
X60710643Y-87575005D01*
X60710643Y-87574994D01*
X60690109Y-87327187D01*
X60690108Y-87327183D01*
X60690108Y-87327179D01*
X60679185Y-87284047D01*
X60651148Y-87173330D01*
X60643280Y-87142260D01*
X60645904Y-87072442D01*
X60675802Y-87024142D01*
X61923127Y-85776819D01*
X61984450Y-85743334D01*
X62010808Y-85740500D01*
X73089071Y-85740500D01*
X73144385Y-85729497D01*
X73213977Y-85735724D01*
X73269154Y-85778586D01*
X73292399Y-85844476D01*
X73276332Y-85912473D01*
X73256260Y-85938792D01*
X73124553Y-86070500D01*
X73090909Y-86104144D01*
X73029586Y-86137628D01*
X72962967Y-86133744D01*
X72909613Y-86115428D01*
X72664335Y-86074500D01*
X72415665Y-86074500D01*
X72170383Y-86115429D01*
X71935197Y-86196169D01*
X71935188Y-86196172D01*
X71716493Y-86314524D01*
X71520257Y-86467261D01*
X71351833Y-86650217D01*
X71215826Y-86858393D01*
X71215214Y-86859525D01*
X71214842Y-86859898D01*
X71213022Y-86862686D01*
X71212448Y-86862311D01*
X71165991Y-86909112D01*
X71106163Y-86924500D01*
X67473837Y-86924500D01*
X67406798Y-86904815D01*
X67367438Y-86862384D01*
X67366978Y-86862686D01*
X67365214Y-86859987D01*
X67364786Y-86859525D01*
X67364173Y-86858393D01*
X67228166Y-86650217D01*
X67124683Y-86537805D01*
X67059744Y-86467262D01*
X66863509Y-86314526D01*
X66863507Y-86314525D01*
X66863506Y-86314524D01*
X66644811Y-86196172D01*
X66644802Y-86196169D01*
X66409616Y-86115429D01*
X66164335Y-86074500D01*
X65915665Y-86074500D01*
X65670383Y-86115429D01*
X65435197Y-86196169D01*
X65435188Y-86196172D01*
X65216493Y-86314524D01*
X65020257Y-86467261D01*
X64851833Y-86650217D01*
X64715826Y-86858393D01*
X64615936Y-87086118D01*
X64554892Y-87327175D01*
X64554890Y-87327187D01*
X64534357Y-87574994D01*
X64534357Y-87575005D01*
X64554890Y-87822812D01*
X64554892Y-87822824D01*
X64615936Y-88063881D01*
X64715826Y-88291606D01*
X64851833Y-88499782D01*
X64851836Y-88499785D01*
X65020256Y-88682738D01*
X65216491Y-88835474D01*
X65435190Y-88953828D01*
X65670386Y-89034571D01*
X65915665Y-89075500D01*
X66164335Y-89075500D01*
X66409614Y-89034571D01*
X66644810Y-88953828D01*
X66863509Y-88835474D01*
X67059744Y-88682738D01*
X67228164Y-88499785D01*
X67364173Y-88291607D01*
X67364175Y-88291601D01*
X67364786Y-88290475D01*
X67365157Y-88290101D01*
X67366978Y-88287314D01*
X67367551Y-88287688D01*
X67414009Y-88240888D01*
X67473837Y-88225500D01*
X71106163Y-88225500D01*
X71173202Y-88245185D01*
X71212561Y-88287615D01*
X71213022Y-88287314D01*
X71214785Y-88290012D01*
X71215214Y-88290475D01*
X71215826Y-88291606D01*
X71351833Y-88499782D01*
X71351836Y-88499785D01*
X71520256Y-88682738D01*
X71716491Y-88835474D01*
X71935190Y-88953828D01*
X72170386Y-89034571D01*
X72415665Y-89075500D01*
X72664335Y-89075500D01*
X72909614Y-89034571D01*
X73144810Y-88953828D01*
X73363509Y-88835474D01*
X73559744Y-88682738D01*
X73728164Y-88499785D01*
X73864173Y-88291607D01*
X73964063Y-88063881D01*
X74025108Y-87822821D01*
X74027372Y-87795499D01*
X74045643Y-87575005D01*
X74045643Y-87574994D01*
X74025109Y-87327187D01*
X74025108Y-87327183D01*
X74025108Y-87327179D01*
X74014185Y-87284047D01*
X73986148Y-87173330D01*
X73978280Y-87142260D01*
X73980904Y-87072442D01*
X74010802Y-87024142D01*
X75435276Y-85599670D01*
X75501110Y-85501142D01*
X75506464Y-85493129D01*
X75554600Y-85376919D01*
X75555501Y-85374744D01*
X75559893Y-85352666D01*
X75577952Y-85261880D01*
X75580500Y-85249071D01*
X75580500Y-74865928D01*
X75555502Y-74740261D01*
X75555501Y-74740260D01*
X75555501Y-74740256D01*
X75506465Y-74621873D01*
X75477951Y-74579198D01*
X75435277Y-74515331D01*
X75435275Y-74515328D01*
X71534673Y-70614726D01*
X71475814Y-70575398D01*
X71428127Y-70543535D01*
X71309744Y-70494499D01*
X71309738Y-70494497D01*
X71184071Y-70469500D01*
X71184069Y-70469500D01*
X67630807Y-70469500D01*
X67563768Y-70449815D01*
X67543126Y-70433181D01*
X66726819Y-69616873D01*
X66693334Y-69555550D01*
X66690500Y-69529192D01*
X66690500Y-56476197D01*
X66710185Y-56409158D01*
X66722352Y-56393223D01*
X66731859Y-56382665D01*
X66821250Y-56227835D01*
X66876497Y-56057803D01*
X66895185Y-55880000D01*
X66876497Y-55702197D01*
X66836974Y-55580559D01*
X66821252Y-55532170D01*
X66821249Y-55532164D01*
X66818402Y-55527232D01*
X66731859Y-55377335D01*
X66659500Y-55296972D01*
X66612235Y-55244478D01*
X66612232Y-55244476D01*
X66612231Y-55244475D01*
X66612230Y-55244474D01*
X66467593Y-55139388D01*
X66304267Y-55066671D01*
X66304265Y-55066670D01*
X66175449Y-55039290D01*
X66129391Y-55029500D01*
X65950609Y-55029500D01*
X65919954Y-55036015D01*
X65775733Y-55066670D01*
X65775732Y-55066670D01*
X65726369Y-55088649D01*
X65657119Y-55097933D01*
X65593843Y-55068304D01*
X65556630Y-55009169D01*
X65557295Y-54939303D01*
X65558003Y-54937051D01*
X65576555Y-54879954D01*
X65606497Y-54787803D01*
X65625185Y-54610000D01*
X65606497Y-54432197D01*
X65566768Y-54309925D01*
X65551252Y-54262170D01*
X65551249Y-54262164D01*
X65550321Y-54260556D01*
X65461859Y-54107335D01*
X65389500Y-54026972D01*
X65342235Y-53974478D01*
X65342232Y-53974476D01*
X65342231Y-53974475D01*
X65342230Y-53974474D01*
X65197593Y-53869388D01*
X65034267Y-53796671D01*
X65034265Y-53796670D01*
X64906594Y-53769533D01*
X64859391Y-53759500D01*
X64680609Y-53759500D01*
X64649954Y-53766015D01*
X64505733Y-53796670D01*
X64505728Y-53796672D01*
X64342408Y-53869387D01*
X64197768Y-53974475D01*
X64078140Y-54107336D01*
X63988750Y-54262164D01*
X63988747Y-54262170D01*
X63933504Y-54432192D01*
X63933503Y-54432194D01*
X63914815Y-54610000D01*
X63933503Y-54787805D01*
X63933504Y-54787807D01*
X63988747Y-54957829D01*
X63988750Y-54957835D01*
X64078141Y-55112665D01*
X64082945Y-55118000D01*
X64087648Y-55123223D01*
X64117879Y-55186213D01*
X64119500Y-55206197D01*
X64119500Y-69914069D01*
X64119500Y-69914071D01*
X64119499Y-69914071D01*
X64144497Y-70039738D01*
X64144499Y-70039744D01*
X64193535Y-70158127D01*
X64256173Y-70251873D01*
X64264726Y-70264673D01*
X66895324Y-72895271D01*
X66895331Y-72895277D01*
X67001871Y-72966464D01*
X67001870Y-72966464D01*
X67036544Y-72980826D01*
X67120256Y-73015501D01*
X67120260Y-73015501D01*
X67120261Y-73015502D01*
X67245928Y-73040500D01*
X67245931Y-73040500D01*
X70799192Y-73040500D01*
X70866231Y-73060185D01*
X70886873Y-73076819D01*
X72973181Y-75163127D01*
X73006666Y-75224450D01*
X73009500Y-75250808D01*
X73009500Y-84134192D01*
X72989815Y-84201231D01*
X72973181Y-84221873D01*
X72791873Y-84403181D01*
X72730550Y-84436666D01*
X72704192Y-84439500D01*
X61625929Y-84439500D01*
X61500261Y-84464497D01*
X61500255Y-84464499D01*
X61381874Y-84513534D01*
X61275326Y-84584726D01*
X59755909Y-86104143D01*
X59694586Y-86137628D01*
X59627967Y-86133744D01*
X59574613Y-86115428D01*
X59329335Y-86074500D01*
X59080665Y-86074500D01*
X58835383Y-86115429D01*
X58600197Y-86196169D01*
X58600188Y-86196172D01*
X58381493Y-86314524D01*
X58185257Y-86467261D01*
X58016833Y-86650217D01*
X57880826Y-86858393D01*
X57880214Y-86859525D01*
X57879842Y-86859898D01*
X57878022Y-86862686D01*
X57877448Y-86862311D01*
X57830991Y-86909112D01*
X57771163Y-86924500D01*
X54138837Y-86924500D01*
X54071798Y-86904815D01*
X54032438Y-86862384D01*
X54031978Y-86862686D01*
X54030214Y-86859987D01*
X54029786Y-86859525D01*
X54029173Y-86858393D01*
X53893166Y-86650217D01*
X53789683Y-86537805D01*
X53724744Y-86467262D01*
X53528509Y-86314526D01*
X53528507Y-86314525D01*
X53528506Y-86314524D01*
X53309811Y-86196172D01*
X53309802Y-86196169D01*
X53074616Y-86115429D01*
X52829335Y-86074500D01*
X52580665Y-86074500D01*
X52335383Y-86115429D01*
X52100197Y-86196169D01*
X52100188Y-86196172D01*
X51881493Y-86314524D01*
X51685257Y-86467261D01*
X51516833Y-86650217D01*
X51380826Y-86858393D01*
X51280936Y-87086118D01*
X51219892Y-87327175D01*
X51219890Y-87327187D01*
X51199357Y-87574994D01*
X47020656Y-87574994D01*
X47005635Y-87403308D01*
X46946739Y-87183504D01*
X46850568Y-86977266D01*
X46720047Y-86790861D01*
X46720045Y-86790858D01*
X46559141Y-86629954D01*
X46372734Y-86499432D01*
X46372728Y-86499429D01*
X46314725Y-86472382D01*
X46262285Y-86426210D01*
X46243133Y-86359017D01*
X46263348Y-86292135D01*
X46314725Y-86247618D01*
X46372734Y-86220568D01*
X46559139Y-86090047D01*
X46720047Y-85929139D01*
X46850568Y-85742734D01*
X46946739Y-85536496D01*
X47005635Y-85316692D01*
X47025468Y-85090000D01*
X47024999Y-85084645D01*
X47019801Y-85025230D01*
X47005635Y-84863308D01*
X46946739Y-84643504D01*
X46850568Y-84437266D01*
X46720047Y-84250861D01*
X46720045Y-84250858D01*
X46559141Y-84089954D01*
X46372734Y-83959432D01*
X46372728Y-83959429D01*
X46314725Y-83932382D01*
X46262285Y-83886210D01*
X46243133Y-83819017D01*
X46263348Y-83752135D01*
X46314725Y-83707618D01*
X46372734Y-83680568D01*
X46559139Y-83550047D01*
X46720047Y-83389139D01*
X46850568Y-83202734D01*
X46946739Y-82996496D01*
X47005635Y-82776692D01*
X47025468Y-82550000D01*
X47005635Y-82323308D01*
X46946739Y-82103504D01*
X46850568Y-81897266D01*
X46720047Y-81710861D01*
X46720045Y-81710858D01*
X46559141Y-81549954D01*
X46372734Y-81419432D01*
X46372728Y-81419429D01*
X46339499Y-81403934D01*
X46314724Y-81392381D01*
X46262285Y-81346210D01*
X46243133Y-81279017D01*
X46263348Y-81212135D01*
X46314725Y-81167618D01*
X46372734Y-81140568D01*
X46559139Y-81010047D01*
X46720047Y-80849139D01*
X46824479Y-80699994D01*
X51199859Y-80699994D01*
X51199859Y-80700005D01*
X51220385Y-80947729D01*
X51220387Y-80947738D01*
X51281412Y-81188717D01*
X51381266Y-81416364D01*
X51481564Y-81569882D01*
X52181212Y-80870234D01*
X52192482Y-80912292D01*
X52264890Y-81037708D01*
X52367292Y-81140110D01*
X52492708Y-81212518D01*
X52534765Y-81223787D01*
X51834942Y-81923609D01*
X51881768Y-81960055D01*
X51881770Y-81960056D01*
X52100385Y-82078364D01*
X52100396Y-82078369D01*
X52335506Y-82159083D01*
X52580707Y-82200000D01*
X52829293Y-82200000D01*
X53074493Y-82159083D01*
X53309603Y-82078369D01*
X53309614Y-82078364D01*
X53528228Y-81960057D01*
X53528231Y-81960055D01*
X53575056Y-81923609D01*
X52875234Y-81223787D01*
X52917292Y-81212518D01*
X53042708Y-81140110D01*
X53145110Y-81037708D01*
X53217518Y-80912292D01*
X53228787Y-80870235D01*
X53928434Y-81569882D01*
X54028731Y-81416369D01*
X54128587Y-81188717D01*
X54189612Y-80947738D01*
X54189614Y-80947729D01*
X54210141Y-80700005D01*
X54210141Y-80699994D01*
X57699859Y-80699994D01*
X57699859Y-80700005D01*
X57720385Y-80947729D01*
X57720387Y-80947738D01*
X57781412Y-81188717D01*
X57881266Y-81416364D01*
X57981564Y-81569882D01*
X58681212Y-80870234D01*
X58692482Y-80912292D01*
X58764890Y-81037708D01*
X58867292Y-81140110D01*
X58992708Y-81212518D01*
X59034765Y-81223787D01*
X58334942Y-81923609D01*
X58381768Y-81960055D01*
X58381770Y-81960056D01*
X58600385Y-82078364D01*
X58600396Y-82078369D01*
X58835506Y-82159083D01*
X59080707Y-82200000D01*
X59329293Y-82200000D01*
X59574493Y-82159083D01*
X59809603Y-82078369D01*
X59809614Y-82078364D01*
X60028228Y-81960057D01*
X60028231Y-81960055D01*
X60075056Y-81923609D01*
X59375234Y-81223787D01*
X59417292Y-81212518D01*
X59542708Y-81140110D01*
X59645110Y-81037708D01*
X59717518Y-80912292D01*
X59728787Y-80870235D01*
X60428434Y-81569882D01*
X60528731Y-81416369D01*
X60628587Y-81188717D01*
X60689612Y-80947738D01*
X60689614Y-80947729D01*
X60710141Y-80700005D01*
X60710141Y-80699994D01*
X60689614Y-80452270D01*
X60689612Y-80452261D01*
X60628587Y-80211282D01*
X60528731Y-79983630D01*
X60428434Y-79830116D01*
X59728787Y-80529764D01*
X59717518Y-80487708D01*
X59645110Y-80362292D01*
X59542708Y-80259890D01*
X59417292Y-80187482D01*
X59375235Y-80176212D01*
X60075057Y-79476390D01*
X60075056Y-79476389D01*
X60028229Y-79439943D01*
X59809614Y-79321635D01*
X59809603Y-79321630D01*
X59574493Y-79240916D01*
X59329293Y-79200000D01*
X59080707Y-79200000D01*
X58835506Y-79240916D01*
X58600396Y-79321630D01*
X58600390Y-79321632D01*
X58381761Y-79439949D01*
X58334942Y-79476388D01*
X58334942Y-79476390D01*
X59034765Y-80176212D01*
X58992708Y-80187482D01*
X58867292Y-80259890D01*
X58764890Y-80362292D01*
X58692482Y-80487708D01*
X58681212Y-80529764D01*
X57981564Y-79830116D01*
X57881267Y-79983632D01*
X57781412Y-80211282D01*
X57720387Y-80452261D01*
X57720385Y-80452270D01*
X57699859Y-80699994D01*
X54210141Y-80699994D01*
X54189614Y-80452270D01*
X54189612Y-80452261D01*
X54128587Y-80211282D01*
X54028731Y-79983630D01*
X53928434Y-79830116D01*
X53228787Y-80529764D01*
X53217518Y-80487708D01*
X53145110Y-80362292D01*
X53042708Y-80259890D01*
X52917292Y-80187482D01*
X52875235Y-80176212D01*
X53575057Y-79476390D01*
X53575056Y-79476389D01*
X53528229Y-79439943D01*
X53309614Y-79321635D01*
X53309603Y-79321630D01*
X53074493Y-79240916D01*
X52829293Y-79200000D01*
X52580707Y-79200000D01*
X52335506Y-79240916D01*
X52100396Y-79321630D01*
X52100390Y-79321632D01*
X51881761Y-79439949D01*
X51834942Y-79476388D01*
X51834942Y-79476390D01*
X52534765Y-80176212D01*
X52492708Y-80187482D01*
X52367292Y-80259890D01*
X52264890Y-80362292D01*
X52192482Y-80487708D01*
X52181212Y-80529764D01*
X51481564Y-79830116D01*
X51381267Y-79983632D01*
X51281412Y-80211282D01*
X51220387Y-80452261D01*
X51220385Y-80452270D01*
X51199859Y-80699994D01*
X46824479Y-80699994D01*
X46850568Y-80662734D01*
X46946739Y-80456496D01*
X47005635Y-80236692D01*
X47025468Y-80010000D01*
X47005635Y-79783308D01*
X46946739Y-79563504D01*
X46850568Y-79357266D01*
X46720047Y-79170861D01*
X46720045Y-79170858D01*
X46559141Y-79009954D01*
X46372734Y-78879432D01*
X46372728Y-78879429D01*
X46314725Y-78852382D01*
X46262285Y-78806210D01*
X46243133Y-78739017D01*
X46263348Y-78672135D01*
X46314725Y-78627618D01*
X46372734Y-78600568D01*
X46559139Y-78470047D01*
X46720047Y-78309139D01*
X46850568Y-78122734D01*
X46946739Y-77916496D01*
X47005635Y-77696692D01*
X47025468Y-77470000D01*
X47005635Y-77243308D01*
X46958447Y-77067199D01*
X46946741Y-77023511D01*
X46946738Y-77023502D01*
X46918414Y-76962761D01*
X46850568Y-76817266D01*
X46720047Y-76630861D01*
X46720045Y-76630858D01*
X46559141Y-76469954D01*
X46372734Y-76339432D01*
X46372728Y-76339429D01*
X46339499Y-76323934D01*
X46314724Y-76312381D01*
X46262285Y-76266210D01*
X46243133Y-76199017D01*
X46263348Y-76132135D01*
X46314725Y-76087618D01*
X46372734Y-76060568D01*
X46559139Y-75930047D01*
X46720047Y-75769139D01*
X46850568Y-75582734D01*
X46946739Y-75376496D01*
X47005635Y-75156692D01*
X47024635Y-74939524D01*
X47025468Y-74930001D01*
X47025468Y-74929998D01*
X47015947Y-74821172D01*
X47005635Y-74703308D01*
X46946739Y-74483504D01*
X46850568Y-74277266D01*
X46720047Y-74090861D01*
X46720045Y-74090858D01*
X46559141Y-73929954D01*
X46372734Y-73799432D01*
X46372732Y-73799431D01*
X46166497Y-73703261D01*
X46166488Y-73703258D01*
X45946697Y-73644366D01*
X45946693Y-73644365D01*
X45946692Y-73644365D01*
X45946691Y-73644364D01*
X45946686Y-73644364D01*
X45720002Y-73624532D01*
X45719998Y-73624532D01*
X45493313Y-73644364D01*
X45493302Y-73644366D01*
X45273511Y-73703258D01*
X45273502Y-73703261D01*
X45067267Y-73799431D01*
X45067265Y-73799432D01*
X44880858Y-73929954D01*
X44719954Y-74090858D01*
X44624892Y-74226623D01*
X44570315Y-74270248D01*
X44523317Y-74279500D01*
X41414500Y-74279500D01*
X41347461Y-74259815D01*
X41301706Y-74207011D01*
X41290500Y-74155500D01*
X41290500Y-71081197D01*
X41310185Y-71014158D01*
X41322352Y-70998223D01*
X41331859Y-70987665D01*
X41421250Y-70832835D01*
X41476497Y-70662803D01*
X41495185Y-70485000D01*
X41476497Y-70307197D01*
X41430032Y-70164192D01*
X41421252Y-70137170D01*
X41421249Y-70137164D01*
X41331859Y-69982335D01*
X41259500Y-69901972D01*
X41212235Y-69849478D01*
X41212232Y-69849476D01*
X41212231Y-69849475D01*
X41212230Y-69849474D01*
X41067593Y-69744388D01*
X40904267Y-69671671D01*
X40904265Y-69671670D01*
X40776594Y-69644533D01*
X40729391Y-69634500D01*
X40550609Y-69634500D01*
X40522602Y-69640453D01*
X40375733Y-69671670D01*
X40375728Y-69671672D01*
X40212408Y-69744388D01*
X40206775Y-69747640D01*
X40205310Y-69745103D01*
X40151454Y-69764258D01*
X40083416Y-69748364D01*
X40034772Y-69698209D01*
X40020500Y-69640453D01*
X40020500Y-69354500D01*
X40040185Y-69287461D01*
X40092989Y-69241706D01*
X40144500Y-69230500D01*
X44316657Y-69230500D01*
X44383696Y-69250185D01*
X44429451Y-69302989D01*
X44436432Y-69322407D01*
X44493258Y-69534488D01*
X44493261Y-69534497D01*
X44589431Y-69740732D01*
X44589432Y-69740734D01*
X44719954Y-69927141D01*
X44880858Y-70088045D01*
X44880861Y-70088047D01*
X45067266Y-70218568D01*
X45273504Y-70314739D01*
X45273509Y-70314740D01*
X45273511Y-70314741D01*
X45326415Y-70328916D01*
X45493308Y-70373635D01*
X45655230Y-70387801D01*
X45719998Y-70393468D01*
X45720000Y-70393468D01*
X45720002Y-70393468D01*
X45776673Y-70388509D01*
X45946692Y-70373635D01*
X46166496Y-70314739D01*
X46372734Y-70218568D01*
X46559139Y-70088047D01*
X46720047Y-69927139D01*
X46850568Y-69740734D01*
X46946739Y-69534496D01*
X47005635Y-69314692D01*
X47025468Y-69088000D01*
X47005635Y-68861308D01*
X46946739Y-68641504D01*
X46850568Y-68435266D01*
X46720047Y-68248861D01*
X46720045Y-68248858D01*
X46559141Y-68087954D01*
X46372734Y-67957432D01*
X46372728Y-67957429D01*
X46314725Y-67930382D01*
X46262285Y-67884210D01*
X46243133Y-67817017D01*
X46263348Y-67750135D01*
X46314725Y-67705618D01*
X46372734Y-67678568D01*
X46559139Y-67548047D01*
X46720047Y-67387139D01*
X46850568Y-67200734D01*
X46946739Y-66994496D01*
X47005635Y-66774692D01*
X47025468Y-66548000D01*
X47005635Y-66321308D01*
X46946739Y-66101504D01*
X46850568Y-65895266D01*
X46720047Y-65708861D01*
X46720045Y-65708858D01*
X46559141Y-65547954D01*
X46372734Y-65417432D01*
X46372728Y-65417429D01*
X46314725Y-65390382D01*
X46262285Y-65344210D01*
X46243133Y-65277017D01*
X46263348Y-65210135D01*
X46314725Y-65165618D01*
X46320050Y-65163135D01*
X46372734Y-65138568D01*
X46559139Y-65008047D01*
X46720047Y-64847139D01*
X46850568Y-64660734D01*
X46946739Y-64454496D01*
X47005635Y-64234692D01*
X47025468Y-64008000D01*
X47005635Y-63781308D01*
X46946739Y-63561504D01*
X46850568Y-63355266D01*
X46720047Y-63168861D01*
X46720045Y-63168858D01*
X46559141Y-63007954D01*
X46372734Y-62877432D01*
X46372728Y-62877429D01*
X46314725Y-62850382D01*
X46262285Y-62804210D01*
X46243133Y-62737017D01*
X46263348Y-62670135D01*
X46314725Y-62625618D01*
X46372734Y-62598568D01*
X46559139Y-62468047D01*
X46720047Y-62307139D01*
X46850568Y-62120734D01*
X46946739Y-61914496D01*
X47005635Y-61694692D01*
X47025468Y-61468000D01*
X47005635Y-61241308D01*
X46947897Y-61025826D01*
X46946741Y-61021511D01*
X46946738Y-61021502D01*
X46850568Y-60815266D01*
X46720047Y-60628861D01*
X46720045Y-60628858D01*
X46559141Y-60467954D01*
X46372734Y-60337432D01*
X46372728Y-60337429D01*
X46314725Y-60310382D01*
X46262285Y-60264210D01*
X46243133Y-60197017D01*
X46263348Y-60130135D01*
X46314725Y-60085618D01*
X46372734Y-60058568D01*
X46559139Y-59928047D01*
X46720047Y-59767139D01*
X46850568Y-59580734D01*
X46946739Y-59374496D01*
X47005635Y-59154692D01*
X47022634Y-58960384D01*
X47025468Y-58928001D01*
X47025468Y-58927998D01*
X47015843Y-58817989D01*
X47005635Y-58701308D01*
X46946739Y-58481504D01*
X46850568Y-58275266D01*
X46720047Y-58088861D01*
X46720045Y-58088858D01*
X46559141Y-57927954D01*
X46372734Y-57797432D01*
X46372728Y-57797429D01*
X46314725Y-57770382D01*
X46262285Y-57724210D01*
X46243133Y-57657017D01*
X46263348Y-57590135D01*
X46314725Y-57545618D01*
X46372734Y-57518568D01*
X46559139Y-57388047D01*
X46720047Y-57227139D01*
X46850568Y-57040734D01*
X46946739Y-56834496D01*
X47005635Y-56614692D01*
X47025468Y-56388000D01*
X47024999Y-56382646D01*
X47038763Y-56314148D01*
X47087376Y-56263963D01*
X47155404Y-56248027D01*
X47221249Y-56271399D01*
X47236208Y-56284155D01*
X47337328Y-56385275D01*
X47337331Y-56385277D01*
X47416386Y-56438099D01*
X47443873Y-56456465D01*
X47562256Y-56505501D01*
X47562260Y-56505501D01*
X47562261Y-56505502D01*
X47687928Y-56530500D01*
X47687931Y-56530500D01*
X48195931Y-56530500D01*
X52143317Y-56530500D01*
X52210356Y-56550185D01*
X52244892Y-56583377D01*
X52339954Y-56719141D01*
X52500858Y-56880045D01*
X52500861Y-56880047D01*
X52687266Y-57010568D01*
X52745275Y-57037618D01*
X52797714Y-57083791D01*
X52816866Y-57150984D01*
X52796650Y-57217865D01*
X52745275Y-57262382D01*
X52687267Y-57289431D01*
X52687265Y-57289432D01*
X52500858Y-57419954D01*
X52339954Y-57580858D01*
X52209432Y-57767265D01*
X52209431Y-57767267D01*
X52113261Y-57973502D01*
X52113258Y-57973511D01*
X52054366Y-58193302D01*
X52054364Y-58193313D01*
X52034532Y-58419998D01*
X52034532Y-58420001D01*
X52054364Y-58646686D01*
X52054366Y-58646697D01*
X52113258Y-58866488D01*
X52113261Y-58866497D01*
X52209431Y-59072732D01*
X52209432Y-59072734D01*
X52339954Y-59259141D01*
X52500858Y-59420045D01*
X52500861Y-59420047D01*
X52687266Y-59550568D01*
X52745275Y-59577618D01*
X52797714Y-59623791D01*
X52816866Y-59690984D01*
X52796650Y-59757865D01*
X52745275Y-59802382D01*
X52687267Y-59829431D01*
X52687265Y-59829432D01*
X52500858Y-59959954D01*
X52339954Y-60120858D01*
X52209432Y-60307265D01*
X52209431Y-60307267D01*
X52113261Y-60513502D01*
X52113258Y-60513511D01*
X52054366Y-60733302D01*
X52054364Y-60733313D01*
X52034532Y-60959998D01*
X52034532Y-60960001D01*
X52054364Y-61186686D01*
X52054366Y-61186697D01*
X52113258Y-61406488D01*
X52113261Y-61406497D01*
X52209431Y-61612732D01*
X52209432Y-61612734D01*
X52339954Y-61799141D01*
X52500858Y-61960045D01*
X52500861Y-61960047D01*
X52687266Y-62090568D01*
X52744681Y-62117341D01*
X52745275Y-62117618D01*
X52797714Y-62163791D01*
X52816866Y-62230984D01*
X52796650Y-62297865D01*
X52745275Y-62342382D01*
X52687267Y-62369431D01*
X52687265Y-62369432D01*
X52500858Y-62499954D01*
X52339954Y-62660858D01*
X52209432Y-62847265D01*
X52209431Y-62847267D01*
X52113261Y-63053502D01*
X52113258Y-63053511D01*
X52054366Y-63273302D01*
X52054364Y-63273313D01*
X52034532Y-63499998D01*
X52034532Y-63500001D01*
X52054364Y-63726686D01*
X52054366Y-63726697D01*
X52065209Y-63767163D01*
X52063546Y-63837013D01*
X52033115Y-63886937D01*
X50294725Y-65625328D01*
X50294722Y-65625331D01*
X50256787Y-65682105D01*
X50256788Y-65682106D01*
X50223534Y-65731874D01*
X50174499Y-65850255D01*
X50174497Y-65850261D01*
X50149500Y-65975928D01*
X50149500Y-74359070D01*
X50162560Y-74424723D01*
X50162560Y-74424725D01*
X50174253Y-74483511D01*
X50174499Y-74484744D01*
X50223535Y-74603127D01*
X50290469Y-74703302D01*
X50294726Y-74709673D01*
X50294727Y-74709674D01*
X51234194Y-75649140D01*
X51267679Y-75710463D01*
X51266719Y-75767261D01*
X51219892Y-75952174D01*
X51219890Y-75952187D01*
X51199357Y-76199994D01*
X51199357Y-76200005D01*
X51219890Y-76447812D01*
X51219892Y-76447824D01*
X51280936Y-76688881D01*
X51380826Y-76916606D01*
X51516833Y-77124782D01*
X51516836Y-77124785D01*
X51685256Y-77307738D01*
X51881491Y-77460474D01*
X52100190Y-77578828D01*
X52335386Y-77659571D01*
X52580665Y-77700500D01*
X52829335Y-77700500D01*
X53074614Y-77659571D01*
X53309810Y-77578828D01*
X53528509Y-77460474D01*
X53724744Y-77307738D01*
X53893164Y-77124785D01*
X54029173Y-76916607D01*
X54029175Y-76916601D01*
X54029786Y-76915475D01*
X54030157Y-76915101D01*
X54031978Y-76912314D01*
X54032551Y-76912688D01*
X54079009Y-76865888D01*
X54138837Y-76850500D01*
X57771163Y-76850500D01*
X57838202Y-76870185D01*
X57877561Y-76912615D01*
X57878022Y-76912314D01*
X57879785Y-76915012D01*
X57880214Y-76915475D01*
X57880826Y-76916606D01*
X58016833Y-77124782D01*
X58016836Y-77124785D01*
X58185256Y-77307738D01*
X58381491Y-77460474D01*
X58600190Y-77578828D01*
X58835386Y-77659571D01*
X59080665Y-77700500D01*
X59329335Y-77700500D01*
X59574614Y-77659571D01*
X59809810Y-77578828D01*
X60028509Y-77460474D01*
X60224744Y-77307738D01*
X60393164Y-77124785D01*
X60529173Y-76916607D01*
X60629063Y-76688881D01*
X60690108Y-76447821D01*
X60691321Y-76433181D01*
X60710643Y-76200005D01*
X60710643Y-76199994D01*
X60690109Y-75952187D01*
X60690107Y-75952175D01*
X60629063Y-75711118D01*
X60529173Y-75483393D01*
X60393166Y-75275217D01*
X60370696Y-75250808D01*
X60224744Y-75092262D01*
X60028509Y-74939526D01*
X60028507Y-74939525D01*
X60028506Y-74939524D01*
X59809811Y-74821172D01*
X59809802Y-74821169D01*
X59574616Y-74740429D01*
X59329335Y-74699500D01*
X59080665Y-74699500D01*
X58835383Y-74740429D01*
X58600197Y-74821169D01*
X58600188Y-74821172D01*
X58381493Y-74939524D01*
X58185257Y-75092261D01*
X58016833Y-75275217D01*
X57880826Y-75483393D01*
X57880214Y-75484525D01*
X57879842Y-75484898D01*
X57878022Y-75487686D01*
X57877448Y-75487311D01*
X57830991Y-75534112D01*
X57771163Y-75549500D01*
X54138837Y-75549500D01*
X54071798Y-75529815D01*
X54032438Y-75487384D01*
X54031978Y-75487686D01*
X54030214Y-75484987D01*
X54029786Y-75484525D01*
X54029173Y-75483393D01*
X53893166Y-75275217D01*
X53870696Y-75250808D01*
X53724744Y-75092262D01*
X53528509Y-74939526D01*
X53528507Y-74939525D01*
X53528506Y-74939524D01*
X53309811Y-74821172D01*
X53309802Y-74821169D01*
X53074616Y-74740429D01*
X52829335Y-74699500D01*
X52580665Y-74699500D01*
X52335382Y-74740429D01*
X52282029Y-74758744D01*
X52212231Y-74761892D01*
X52154089Y-74729143D01*
X51486819Y-74061873D01*
X51453334Y-74000550D01*
X51450500Y-73974192D01*
X51450500Y-66360807D01*
X51470185Y-66293768D01*
X51486814Y-66273131D01*
X51933628Y-65826316D01*
X51994948Y-65792834D01*
X52021306Y-65790000D01*
X52906988Y-65790000D01*
X52874075Y-65847007D01*
X52840000Y-65974174D01*
X52840000Y-66105826D01*
X52874075Y-66232993D01*
X52906988Y-66290000D01*
X52061128Y-66290000D01*
X52113730Y-66486317D01*
X52113734Y-66486326D01*
X52209865Y-66692482D01*
X52340342Y-66878820D01*
X52501179Y-67039657D01*
X52687518Y-67170134D01*
X52687520Y-67170135D01*
X52745865Y-67197342D01*
X52798305Y-67243514D01*
X52817457Y-67310707D01*
X52797242Y-67377589D01*
X52745867Y-67422105D01*
X52687268Y-67449431D01*
X52687264Y-67449433D01*
X52500858Y-67579954D01*
X52339954Y-67740858D01*
X52209432Y-67927265D01*
X52209431Y-67927267D01*
X52113261Y-68133502D01*
X52113258Y-68133511D01*
X52054366Y-68353302D01*
X52054364Y-68353313D01*
X52034532Y-68579998D01*
X52034532Y-68580001D01*
X52054364Y-68806686D01*
X52054366Y-68806697D01*
X52113258Y-69026488D01*
X52113261Y-69026497D01*
X52209431Y-69232732D01*
X52209432Y-69232734D01*
X52339954Y-69419141D01*
X52500858Y-69580045D01*
X52500861Y-69580047D01*
X52687266Y-69710568D01*
X52893504Y-69806739D01*
X53113308Y-69865635D01*
X53275230Y-69879801D01*
X53339998Y-69885468D01*
X53340000Y-69885468D01*
X53340002Y-69885468D01*
X53396807Y-69880498D01*
X53566692Y-69865635D01*
X53786496Y-69806739D01*
X53992734Y-69710568D01*
X54179139Y-69580047D01*
X54340047Y-69419139D01*
X54470568Y-69232734D01*
X54566739Y-69026496D01*
X54625635Y-68806692D01*
X54645468Y-68580000D01*
X54625635Y-68353308D01*
X54566739Y-68133504D01*
X54470568Y-67927266D01*
X54340047Y-67740861D01*
X54340045Y-67740858D01*
X54179141Y-67579954D01*
X53992734Y-67449432D01*
X53992732Y-67449431D01*
X53981275Y-67444088D01*
X53934132Y-67422105D01*
X53881694Y-67375934D01*
X53862542Y-67308740D01*
X53882758Y-67241859D01*
X53934134Y-67197341D01*
X53992484Y-67170132D01*
X54178820Y-67039657D01*
X54339657Y-66878820D01*
X54470134Y-66692482D01*
X54566265Y-66486326D01*
X54566269Y-66486317D01*
X54618872Y-66290000D01*
X53773012Y-66290000D01*
X53805925Y-66232993D01*
X53840000Y-66105826D01*
X53840000Y-65974174D01*
X53805925Y-65847007D01*
X53773012Y-65790000D01*
X54618872Y-65790000D01*
X54618872Y-65789999D01*
X54566269Y-65593682D01*
X54566265Y-65593673D01*
X54470134Y-65387517D01*
X54339657Y-65201179D01*
X54178820Y-65040342D01*
X53992482Y-64909865D01*
X53934133Y-64882657D01*
X53881694Y-64836484D01*
X53862542Y-64769291D01*
X53882758Y-64702410D01*
X53934129Y-64657895D01*
X53992734Y-64630568D01*
X54179139Y-64500047D01*
X54340047Y-64339139D01*
X54470568Y-64152734D01*
X54566739Y-63946496D01*
X54625635Y-63726692D01*
X54645468Y-63500000D01*
X54625635Y-63273308D01*
X54566739Y-63053504D01*
X54470568Y-62847266D01*
X54363768Y-62694739D01*
X54340045Y-62660858D01*
X54179141Y-62499954D01*
X53992734Y-62369432D01*
X53992728Y-62369429D01*
X53934725Y-62342382D01*
X53882285Y-62296210D01*
X53863133Y-62229017D01*
X53883348Y-62162135D01*
X53934725Y-62117618D01*
X53935319Y-62117341D01*
X53992734Y-62090568D01*
X54179139Y-61960047D01*
X54340047Y-61799139D01*
X54470568Y-61612734D01*
X54566739Y-61406496D01*
X54625635Y-61186692D01*
X54645468Y-60960000D01*
X54625635Y-60733308D01*
X54566739Y-60513504D01*
X54470568Y-60307266D01*
X54363768Y-60154739D01*
X54340045Y-60120858D01*
X54179141Y-59959954D01*
X53992734Y-59829432D01*
X53992728Y-59829429D01*
X53934725Y-59802382D01*
X53882285Y-59756210D01*
X53863133Y-59689017D01*
X53883348Y-59622135D01*
X53934725Y-59577618D01*
X53992734Y-59550568D01*
X54179139Y-59420047D01*
X54340047Y-59259139D01*
X54470568Y-59072734D01*
X54566739Y-58866496D01*
X54625635Y-58646692D01*
X54645468Y-58420000D01*
X54625635Y-58193308D01*
X54566739Y-57973504D01*
X54470568Y-57767266D01*
X54363768Y-57614739D01*
X54340045Y-57580858D01*
X54179141Y-57419954D01*
X53992734Y-57289432D01*
X53992728Y-57289429D01*
X53934725Y-57262382D01*
X53882285Y-57216210D01*
X53863133Y-57149017D01*
X53883348Y-57082135D01*
X53934725Y-57037618D01*
X53992734Y-57010568D01*
X54179139Y-56880047D01*
X54340047Y-56719139D01*
X54470568Y-56532734D01*
X54566739Y-56326496D01*
X54625635Y-56106692D01*
X54642634Y-55912384D01*
X54645468Y-55880001D01*
X54645468Y-55879998D01*
X54637122Y-55784602D01*
X54625635Y-55653308D01*
X54569352Y-55443255D01*
X54566741Y-55433511D01*
X54566738Y-55433502D01*
X54508156Y-55307873D01*
X54470568Y-55227266D01*
X54358119Y-55066671D01*
X54340045Y-55040858D01*
X54179141Y-54879954D01*
X53992734Y-54749432D01*
X53992728Y-54749429D01*
X53934725Y-54722382D01*
X53882285Y-54676210D01*
X53863133Y-54609017D01*
X53883348Y-54542135D01*
X53934725Y-54497618D01*
X53992734Y-54470568D01*
X54179139Y-54340047D01*
X54258630Y-54260556D01*
X54343876Y-54175311D01*
X54344864Y-54176299D01*
X54397516Y-54141258D01*
X54467376Y-54140138D01*
X54522033Y-54171979D01*
X57311456Y-56961402D01*
X57344941Y-57022725D01*
X57339957Y-57092417D01*
X57298086Y-57148349D01*
X57212455Y-57212452D01*
X57212452Y-57212455D01*
X57126206Y-57327664D01*
X57126202Y-57327671D01*
X57075908Y-57462517D01*
X57069501Y-57522116D01*
X57069500Y-57522135D01*
X57069500Y-59317870D01*
X57069501Y-59317876D01*
X57075908Y-59377483D01*
X57126202Y-59512328D01*
X57126206Y-59512335D01*
X57212452Y-59627544D01*
X57212455Y-59627547D01*
X57327664Y-59713793D01*
X57327671Y-59713797D01*
X57358963Y-59725468D01*
X57462517Y-59764091D01*
X57522127Y-59770500D01*
X57671004Y-59770499D01*
X57738043Y-59790183D01*
X57783798Y-59842987D01*
X57792621Y-59870304D01*
X57794498Y-59879742D01*
X57794499Y-59879744D01*
X57843535Y-59998127D01*
X57901994Y-60085618D01*
X57914726Y-60104673D01*
X57914727Y-60104674D01*
X58368181Y-60558127D01*
X58401666Y-60619450D01*
X58404500Y-60645808D01*
X58404500Y-70549071D01*
X58427123Y-70662799D01*
X58427124Y-70662803D01*
X58429499Y-70674744D01*
X58429500Y-70674748D01*
X58429501Y-70674749D01*
X58478532Y-70793123D01*
X58505063Y-70832829D01*
X58549480Y-70899306D01*
X58549726Y-70899673D01*
X58549727Y-70899674D01*
X65035681Y-77385627D01*
X65069166Y-77446950D01*
X65072000Y-77473308D01*
X65072000Y-79121569D01*
X65081094Y-79167288D01*
X65082535Y-79174529D01*
X65082535Y-79174531D01*
X65096997Y-79247236D01*
X65096999Y-79247244D01*
X65146034Y-79365625D01*
X65217226Y-79472173D01*
X66260327Y-80515274D01*
X66356196Y-80579331D01*
X66356201Y-80579334D01*
X66366873Y-80586465D01*
X66485256Y-80635501D01*
X66485260Y-80635501D01*
X66485261Y-80635502D01*
X66610928Y-80660500D01*
X66610931Y-80660500D01*
X67126042Y-80660500D01*
X67193081Y-80680185D01*
X67231580Y-80719402D01*
X67237288Y-80728656D01*
X67361344Y-80852712D01*
X67510666Y-80944814D01*
X67677203Y-80999999D01*
X67779991Y-81010500D01*
X69380008Y-81010499D01*
X69384453Y-81010045D01*
X69397895Y-81008671D01*
X69482797Y-80999999D01*
X69649334Y-80944814D01*
X69798656Y-80852712D01*
X69922712Y-80728656D01*
X70014814Y-80579334D01*
X70069999Y-80412797D01*
X70080500Y-80310009D01*
X70080499Y-79709992D01*
X70069999Y-79607203D01*
X70014814Y-79440666D01*
X69922712Y-79291344D01*
X69798656Y-79167288D01*
X69705888Y-79110069D01*
X69649336Y-79075187D01*
X69649331Y-79075185D01*
X69589539Y-79055372D01*
X69482797Y-79020001D01*
X69482795Y-79020000D01*
X69380010Y-79009500D01*
X67779998Y-79009500D01*
X67779981Y-79009501D01*
X67677203Y-79020000D01*
X67677200Y-79020001D01*
X67510668Y-79075185D01*
X67510663Y-79075187D01*
X67361342Y-79167289D01*
X67237287Y-79291344D01*
X67231580Y-79300598D01*
X67179632Y-79347322D01*
X67126042Y-79359500D01*
X66995808Y-79359500D01*
X66928769Y-79339815D01*
X66908127Y-79323181D01*
X66409319Y-78824373D01*
X66375834Y-78763050D01*
X66373000Y-78736692D01*
X66373000Y-77088428D01*
X66348002Y-76962761D01*
X66348001Y-76962760D01*
X66348001Y-76962756D01*
X66298965Y-76844373D01*
X66294253Y-76837322D01*
X66284769Y-76823126D01*
X66284769Y-76823125D01*
X66227778Y-76737832D01*
X66227772Y-76737825D01*
X59741819Y-70251872D01*
X59708334Y-70190549D01*
X59705500Y-70164191D01*
X59705500Y-60260928D01*
X59680502Y-60135261D01*
X59680501Y-60135260D01*
X59680501Y-60135256D01*
X59632958Y-60020477D01*
X59631466Y-60016874D01*
X59631463Y-60016868D01*
X59560275Y-59910328D01*
X59528544Y-59878597D01*
X59495059Y-59817274D01*
X59500043Y-59747582D01*
X59541912Y-59691651D01*
X59627546Y-59627546D01*
X59713796Y-59512331D01*
X59762810Y-59380916D01*
X59804681Y-59324984D01*
X59870145Y-59300566D01*
X59938418Y-59315417D01*
X59966673Y-59336569D01*
X60088599Y-59458495D01*
X60182864Y-59524500D01*
X60282165Y-59594032D01*
X60282167Y-59594033D01*
X60282170Y-59594035D01*
X60496337Y-59693903D01*
X60724592Y-59755063D01*
X60831307Y-59764399D01*
X60896376Y-59789851D01*
X60937355Y-59846442D01*
X60944500Y-59887927D01*
X60944500Y-70549071D01*
X60967123Y-70662799D01*
X60967124Y-70662803D01*
X60969499Y-70674744D01*
X60969500Y-70674748D01*
X60969501Y-70674749D01*
X61018532Y-70793123D01*
X61045063Y-70832829D01*
X61089480Y-70899306D01*
X61089726Y-70899673D01*
X61089727Y-70899674D01*
X67077546Y-76887492D01*
X67111031Y-76948815D01*
X67107571Y-77014176D01*
X67090001Y-77067199D01*
X67079500Y-77169983D01*
X67079500Y-77770001D01*
X67079501Y-77770019D01*
X67090000Y-77872796D01*
X67090001Y-77872799D01*
X67145185Y-78039331D01*
X67145186Y-78039334D01*
X67237288Y-78188656D01*
X67361344Y-78312712D01*
X67510666Y-78404814D01*
X67677203Y-78459999D01*
X67779991Y-78470500D01*
X69380008Y-78470499D01*
X69384453Y-78470045D01*
X69397895Y-78468671D01*
X69482797Y-78459999D01*
X69649334Y-78404814D01*
X69798656Y-78312712D01*
X69922712Y-78188656D01*
X70014814Y-78039334D01*
X70069999Y-77872797D01*
X70080500Y-77770009D01*
X70080499Y-77169992D01*
X70079440Y-77159628D01*
X70069999Y-77067203D01*
X70069998Y-77067200D01*
X70055521Y-77023511D01*
X70014814Y-76900666D01*
X69922712Y-76751344D01*
X69798656Y-76627288D01*
X69705888Y-76570069D01*
X69649336Y-76535187D01*
X69649331Y-76535185D01*
X69647862Y-76534698D01*
X69482797Y-76480001D01*
X69482795Y-76480000D01*
X69380016Y-76469500D01*
X69380009Y-76469500D01*
X68550808Y-76469500D01*
X68483769Y-76449815D01*
X68463127Y-76433181D01*
X62281819Y-70251873D01*
X62248334Y-70190550D01*
X62245500Y-70164192D01*
X62245500Y-58990931D01*
X62233953Y-58932882D01*
X62235794Y-58876602D01*
X62295063Y-58655408D01*
X62315659Y-58420000D01*
X62295063Y-58184592D01*
X62238502Y-57973502D01*
X62233905Y-57956344D01*
X62233904Y-57956343D01*
X62233903Y-57956337D01*
X62134035Y-57742171D01*
X62128675Y-57734515D01*
X61998494Y-57548597D01*
X61831402Y-57381506D01*
X61831395Y-57381501D01*
X61637834Y-57245967D01*
X61637830Y-57245965D01*
X61597462Y-57227141D01*
X61423663Y-57146097D01*
X61423659Y-57146096D01*
X61423655Y-57146094D01*
X61195413Y-57084938D01*
X61195403Y-57084936D01*
X60960001Y-57064341D01*
X60959999Y-57064341D01*
X60724590Y-57084937D01*
X60724589Y-57084937D01*
X60652008Y-57104384D01*
X60582158Y-57102720D01*
X60532236Y-57072290D01*
X54646884Y-51186938D01*
X54613399Y-51125615D01*
X54614791Y-51067162D01*
X54623298Y-51035413D01*
X54625635Y-51026692D01*
X54645468Y-50800000D01*
X54625635Y-50573308D01*
X54566739Y-50353504D01*
X54470568Y-50147266D01*
X54340047Y-49960861D01*
X54340045Y-49960858D01*
X54179141Y-49799954D01*
X53992734Y-49669432D01*
X53992728Y-49669429D01*
X53934725Y-49642382D01*
X53882285Y-49596210D01*
X53863133Y-49529017D01*
X53883348Y-49462135D01*
X53934725Y-49417618D01*
X53992734Y-49390568D01*
X54179139Y-49260047D01*
X54340047Y-49099139D01*
X54470568Y-48912734D01*
X54478838Y-48894998D01*
X55209532Y-48894998D01*
X55209532Y-48895001D01*
X55229364Y-49121686D01*
X55229366Y-49121697D01*
X55288258Y-49341488D01*
X55288261Y-49341497D01*
X55384431Y-49547732D01*
X55384432Y-49547734D01*
X55514954Y-49734141D01*
X55675858Y-49895045D01*
X55675861Y-49895047D01*
X55862266Y-50025568D01*
X56068504Y-50121739D01*
X56288308Y-50180635D01*
X56450230Y-50194801D01*
X56514998Y-50200468D01*
X56515000Y-50200468D01*
X56515002Y-50200468D01*
X56571673Y-50195509D01*
X56741692Y-50180635D01*
X56961496Y-50121739D01*
X57167734Y-50025568D01*
X57354139Y-49895047D01*
X57515047Y-49734139D01*
X57645568Y-49547734D01*
X57741739Y-49341496D01*
X57800635Y-49121692D01*
X57817656Y-48927139D01*
X57820468Y-48895001D01*
X57820468Y-48894998D01*
X57800635Y-48668313D01*
X57800635Y-48668308D01*
X57741739Y-48448504D01*
X57645568Y-48242266D01*
X57515047Y-48055861D01*
X57515045Y-48055858D01*
X57354141Y-47894954D01*
X57167734Y-47764432D01*
X57167732Y-47764431D01*
X56961497Y-47668261D01*
X56961488Y-47668258D01*
X56741697Y-47609366D01*
X56741693Y-47609365D01*
X56741692Y-47609365D01*
X56741691Y-47609364D01*
X56741686Y-47609364D01*
X56515002Y-47589532D01*
X56514998Y-47589532D01*
X56288313Y-47609364D01*
X56288302Y-47609366D01*
X56068511Y-47668258D01*
X56068502Y-47668261D01*
X55862267Y-47764431D01*
X55862265Y-47764432D01*
X55675858Y-47894954D01*
X55514954Y-48055858D01*
X55384432Y-48242265D01*
X55384431Y-48242267D01*
X55288261Y-48448502D01*
X55288258Y-48448511D01*
X55229366Y-48668302D01*
X55229364Y-48668313D01*
X55209532Y-48894998D01*
X54478838Y-48894998D01*
X54566739Y-48706496D01*
X54625635Y-48486692D01*
X54645468Y-48260000D01*
X54644465Y-48248541D01*
X54627608Y-48055861D01*
X54625635Y-48033308D01*
X54566739Y-47813504D01*
X54470568Y-47607266D01*
X54340047Y-47420861D01*
X54340045Y-47420858D01*
X54179141Y-47259954D01*
X53992734Y-47129432D01*
X53992728Y-47129429D01*
X53934725Y-47102382D01*
X53882285Y-47056210D01*
X53863133Y-46989017D01*
X53883348Y-46922135D01*
X53934725Y-46877618D01*
X53992734Y-46850568D01*
X54179139Y-46720047D01*
X54340047Y-46559139D01*
X54470568Y-46372734D01*
X54566739Y-46166496D01*
X54625635Y-45946692D01*
X54645468Y-45720000D01*
X54625635Y-45493308D01*
X54566739Y-45273504D01*
X54470568Y-45067266D01*
X54340047Y-44880861D01*
X54340045Y-44880858D01*
X54179141Y-44719954D01*
X53992734Y-44589432D01*
X53992728Y-44589429D01*
X53934725Y-44562382D01*
X53882285Y-44516210D01*
X53863133Y-44449017D01*
X53883348Y-44382135D01*
X53934725Y-44337618D01*
X53992734Y-44310568D01*
X54179139Y-44180047D01*
X54340047Y-44019139D01*
X54470568Y-43832734D01*
X54566739Y-43626496D01*
X54625635Y-43406692D01*
X54645468Y-43180000D01*
X54625635Y-42953308D01*
X54566739Y-42733504D01*
X54470568Y-42527266D01*
X54358488Y-42367198D01*
X54340045Y-42340858D01*
X54179141Y-42179954D01*
X53992734Y-42049432D01*
X53992728Y-42049429D01*
X53934725Y-42022382D01*
X53882285Y-41976210D01*
X53863133Y-41909017D01*
X53883348Y-41842135D01*
X53934725Y-41797618D01*
X53992734Y-41770568D01*
X54179139Y-41640047D01*
X54340047Y-41479139D01*
X54470568Y-41292734D01*
X54566739Y-41086496D01*
X54625635Y-40866692D01*
X54645468Y-40640000D01*
X54645426Y-40639524D01*
X54636286Y-40535046D01*
X54625635Y-40413308D01*
X54566739Y-40193504D01*
X54470568Y-39987266D01*
X54358119Y-39826671D01*
X54340045Y-39800858D01*
X54179141Y-39639954D01*
X53992734Y-39509432D01*
X53992728Y-39509429D01*
X53934725Y-39482382D01*
X53882285Y-39436210D01*
X53863133Y-39369017D01*
X53883348Y-39302135D01*
X53934725Y-39257618D01*
X53992734Y-39230568D01*
X54179139Y-39100047D01*
X54340047Y-38939139D01*
X54470568Y-38752734D01*
X54566739Y-38546496D01*
X54625635Y-38326692D01*
X54645468Y-38100000D01*
X54625635Y-37873308D01*
X54578696Y-37698127D01*
X54566741Y-37653511D01*
X54566738Y-37653502D01*
X54562614Y-37644659D01*
X54470568Y-37447266D01*
X54340047Y-37260861D01*
X54340045Y-37260858D01*
X54179141Y-37099954D01*
X53992734Y-36969432D01*
X53992728Y-36969429D01*
X53944082Y-36946745D01*
X53934724Y-36942381D01*
X53882285Y-36896210D01*
X53863133Y-36829017D01*
X53883348Y-36762135D01*
X53934725Y-36717618D01*
X53992734Y-36690568D01*
X54179139Y-36560047D01*
X54257649Y-36481537D01*
X54343876Y-36395311D01*
X54344864Y-36396299D01*
X54397516Y-36361258D01*
X54467376Y-36360138D01*
X54522033Y-36391979D01*
X55828181Y-37698127D01*
X55861666Y-37759450D01*
X55864500Y-37785808D01*
X55864500Y-40078316D01*
X55844815Y-40145355D01*
X55811623Y-40179891D01*
X55675859Y-40274953D01*
X55514954Y-40435858D01*
X55384432Y-40622265D01*
X55384431Y-40622267D01*
X55288261Y-40828502D01*
X55288258Y-40828511D01*
X55229366Y-41048302D01*
X55229364Y-41048313D01*
X55209532Y-41274998D01*
X55209532Y-41275001D01*
X55229364Y-41501686D01*
X55229366Y-41501697D01*
X55288258Y-41721488D01*
X55288261Y-41721497D01*
X55384431Y-41927732D01*
X55384432Y-41927734D01*
X55514954Y-42114141D01*
X55675858Y-42275045D01*
X55699237Y-42291415D01*
X55862266Y-42405568D01*
X56068504Y-42501739D01*
X56288308Y-42560635D01*
X56450230Y-42574801D01*
X56514998Y-42580468D01*
X56515000Y-42580468D01*
X56515002Y-42580468D01*
X56571673Y-42575509D01*
X56741692Y-42560635D01*
X56961496Y-42501739D01*
X57167734Y-42405568D01*
X57354139Y-42275047D01*
X57515047Y-42114139D01*
X57645568Y-41927734D01*
X57741739Y-41721496D01*
X57800635Y-41501692D01*
X57818335Y-41299382D01*
X57820468Y-41275001D01*
X57820468Y-41274998D01*
X57800635Y-41048313D01*
X57800635Y-41048308D01*
X57741739Y-40828504D01*
X57645568Y-40622266D01*
X57547839Y-40482693D01*
X57515045Y-40435858D01*
X57354140Y-40274953D01*
X57218377Y-40179891D01*
X57174752Y-40125314D01*
X57165500Y-40078316D01*
X57165500Y-37400928D01*
X57140502Y-37275261D01*
X57140501Y-37275260D01*
X57140501Y-37275256D01*
X57091465Y-37156873D01*
X57020277Y-37050331D01*
X57020275Y-37050329D01*
X57020273Y-37050326D01*
X55024673Y-35054726D01*
X54918131Y-34983538D01*
X54918127Y-34983535D01*
X54918122Y-34983533D01*
X54799744Y-34934499D01*
X54799738Y-34934497D01*
X54674071Y-34909500D01*
X54674069Y-34909500D01*
X54536683Y-34909500D01*
X54469644Y-34889815D01*
X54435108Y-34856623D01*
X54340045Y-34720858D01*
X54179141Y-34559954D01*
X53992734Y-34429432D01*
X53992728Y-34429429D01*
X53944082Y-34406745D01*
X53934724Y-34402381D01*
X53882285Y-34356210D01*
X53863133Y-34289017D01*
X53883348Y-34222135D01*
X53934725Y-34177618D01*
X53992734Y-34150568D01*
X54179139Y-34020047D01*
X54340047Y-33859139D01*
X54470568Y-33672734D01*
X54566739Y-33466496D01*
X54625635Y-33246692D01*
X54645468Y-33020000D01*
X54645467Y-33019994D01*
X54631972Y-32865740D01*
X54625635Y-32793308D01*
X54566739Y-32573504D01*
X54470568Y-32367266D01*
X54340047Y-32180861D01*
X54340045Y-32180858D01*
X54179141Y-32019954D01*
X53992734Y-31889432D01*
X53992732Y-31889431D01*
X53786497Y-31793261D01*
X53786488Y-31793258D01*
X53566697Y-31734366D01*
X53566693Y-31734365D01*
X53566692Y-31734365D01*
X53566691Y-31734364D01*
X53566686Y-31734364D01*
X53340002Y-31714532D01*
X53339998Y-31714532D01*
X53113313Y-31734364D01*
X53113302Y-31734366D01*
X52893511Y-31793258D01*
X52893502Y-31793261D01*
X52687267Y-31889431D01*
X52687265Y-31889432D01*
X52500858Y-32019954D01*
X52339954Y-32180858D01*
X52209432Y-32367265D01*
X52209431Y-32367267D01*
X52113261Y-32573502D01*
X52113258Y-32573511D01*
X52054366Y-32793302D01*
X52054364Y-32793313D01*
X52048028Y-32865740D01*
X52022576Y-32930809D01*
X51965985Y-32971788D01*
X51896223Y-32975666D01*
X51835439Y-32941212D01*
X51802931Y-32879365D01*
X51800500Y-32854933D01*
X51800500Y-30387027D01*
X51820185Y-30319988D01*
X51833265Y-30303049D01*
X51988164Y-30134785D01*
X52124173Y-29926607D01*
X52224063Y-29698881D01*
X52285108Y-29457821D01*
X52286460Y-29441505D01*
X52305643Y-29210005D01*
X52305643Y-29209994D01*
X52285109Y-28962187D01*
X52285107Y-28962175D01*
X52224063Y-28721118D01*
X52124173Y-28493393D01*
X51988166Y-28285217D01*
X51929461Y-28221447D01*
X51819744Y-28102262D01*
X51623509Y-27949526D01*
X51623507Y-27949525D01*
X51623506Y-27949524D01*
X51404811Y-27831172D01*
X51404802Y-27831169D01*
X51169616Y-27750429D01*
X50924335Y-27709500D01*
X50675665Y-27709500D01*
X50430383Y-27750429D01*
X50195197Y-27831169D01*
X50195188Y-27831172D01*
X49976493Y-27949524D01*
X49780257Y-28102261D01*
X49611833Y-28285217D01*
X49475826Y-28493393D01*
X49375936Y-28721118D01*
X49314892Y-28962175D01*
X49314890Y-28962187D01*
X49294357Y-29209994D01*
X49294357Y-29210005D01*
X49314890Y-29457812D01*
X49314892Y-29457824D01*
X49375936Y-29698881D01*
X49475826Y-29926606D01*
X49611833Y-30134782D01*
X49648376Y-30174479D01*
X49766730Y-30303045D01*
X49797652Y-30365698D01*
X49799500Y-30387027D01*
X49799500Y-34388544D01*
X49837947Y-34581828D01*
X49837950Y-34581840D01*
X49844697Y-34598127D01*
X49913366Y-34763911D01*
X49913371Y-34763920D01*
X50022860Y-34927781D01*
X50022863Y-34927785D01*
X50166537Y-35071459D01*
X50166559Y-35071479D01*
X51289735Y-36194655D01*
X51289764Y-36194686D01*
X51432214Y-36337136D01*
X51432218Y-36337139D01*
X51596079Y-36446628D01*
X51596092Y-36446635D01*
X51724833Y-36499961D01*
X51767744Y-36517735D01*
X51778164Y-36522051D01*
X51874812Y-36541275D01*
X51923135Y-36550887D01*
X51971458Y-36560500D01*
X51971459Y-36560500D01*
X51971460Y-36560500D01*
X52168540Y-36560500D01*
X52462412Y-36560500D01*
X52529451Y-36580185D01*
X52533523Y-36582917D01*
X52687266Y-36690568D01*
X52745275Y-36717618D01*
X52797714Y-36763791D01*
X52816866Y-36830984D01*
X52796650Y-36897865D01*
X52745275Y-36942382D01*
X52687267Y-36969431D01*
X52687265Y-36969432D01*
X52500858Y-37099954D01*
X52339954Y-37260858D01*
X52209432Y-37447265D01*
X52209431Y-37447267D01*
X52113261Y-37653502D01*
X52113258Y-37653511D01*
X52054366Y-37873302D01*
X52054364Y-37873313D01*
X52034531Y-38099998D01*
X52035001Y-38105362D01*
X52021231Y-38173862D01*
X51972613Y-38224042D01*
X51904584Y-38239973D01*
X51838741Y-38216594D01*
X51823791Y-38203845D01*
X49581819Y-35961873D01*
X49548334Y-35900550D01*
X49545500Y-35874192D01*
X49545500Y-31050928D01*
X49520502Y-30925261D01*
X49520501Y-30925260D01*
X49520501Y-30925256D01*
X49471465Y-30806873D01*
X49400277Y-30700331D01*
X49400275Y-30700329D01*
X49400273Y-30700326D01*
X49400272Y-30700325D01*
X47026884Y-28326938D01*
X46993399Y-28265615D01*
X46994791Y-28207162D01*
X47005633Y-28166699D01*
X47005632Y-28166699D01*
X47005635Y-28166692D01*
X47025468Y-27940000D01*
X47005635Y-27713308D01*
X46946739Y-27493504D01*
X46850568Y-27287266D01*
X46720047Y-27100861D01*
X46720045Y-27100858D01*
X46559141Y-26939954D01*
X46517897Y-26911075D01*
X46474272Y-26856499D01*
X46467078Y-26787000D01*
X46498600Y-26724645D01*
X46558830Y-26689231D01*
X46589020Y-26685500D01*
X51114192Y-26685500D01*
X51181231Y-26705185D01*
X51201873Y-26721819D01*
X58368181Y-33888127D01*
X58401666Y-33949450D01*
X58404500Y-33975808D01*
X58404500Y-46419071D01*
X58420030Y-46497139D01*
X58420031Y-46497142D01*
X58429499Y-46544744D01*
X58458018Y-46613596D01*
X58478535Y-46663127D01*
X58549485Y-46769313D01*
X58549726Y-46769673D01*
X58549727Y-46769674D01*
X67273115Y-55493060D01*
X67306600Y-55554383D01*
X67305210Y-55612831D01*
X67294366Y-55653304D01*
X67294364Y-55653313D01*
X67274532Y-55879999D01*
X67274532Y-55880001D01*
X67294364Y-56106686D01*
X67294366Y-56106697D01*
X67353258Y-56326488D01*
X67353261Y-56326497D01*
X67449431Y-56532732D01*
X67449432Y-56532734D01*
X67579954Y-56719141D01*
X67740858Y-56880045D01*
X67740861Y-56880047D01*
X67927266Y-57010568D01*
X67985275Y-57037618D01*
X68037714Y-57083791D01*
X68056866Y-57150984D01*
X68036650Y-57217865D01*
X67985275Y-57262382D01*
X67927267Y-57289431D01*
X67927265Y-57289432D01*
X67740858Y-57419954D01*
X67579954Y-57580858D01*
X67449432Y-57767265D01*
X67449431Y-57767267D01*
X67353261Y-57973502D01*
X67353258Y-57973511D01*
X67294366Y-58193302D01*
X67294364Y-58193313D01*
X67274532Y-58419998D01*
X67274532Y-58420001D01*
X67294364Y-58646686D01*
X67294366Y-58646697D01*
X67353258Y-58866488D01*
X67353261Y-58866497D01*
X67449431Y-59072732D01*
X67449432Y-59072734D01*
X67579954Y-59259141D01*
X67740858Y-59420045D01*
X67740861Y-59420047D01*
X67927266Y-59550568D01*
X67985865Y-59577893D01*
X68038305Y-59624065D01*
X68057457Y-59691258D01*
X68037242Y-59758139D01*
X67985867Y-59802657D01*
X67927515Y-59829867D01*
X67741179Y-59960342D01*
X67580342Y-60121179D01*
X67449865Y-60307517D01*
X67353734Y-60513673D01*
X67353730Y-60513682D01*
X67301127Y-60709999D01*
X67301128Y-60710000D01*
X68146988Y-60710000D01*
X68114075Y-60767007D01*
X68080000Y-60894174D01*
X68080000Y-61025826D01*
X68114075Y-61152993D01*
X68146988Y-61210000D01*
X67301128Y-61210000D01*
X67353730Y-61406317D01*
X67353734Y-61406326D01*
X67449865Y-61612482D01*
X67580342Y-61798820D01*
X67741179Y-61959657D01*
X67927518Y-62090134D01*
X67927520Y-62090135D01*
X67985865Y-62117342D01*
X68038305Y-62163514D01*
X68057457Y-62230707D01*
X68037242Y-62297589D01*
X67985867Y-62342105D01*
X67927268Y-62369431D01*
X67927264Y-62369433D01*
X67740858Y-62499954D01*
X67579954Y-62660858D01*
X67449432Y-62847265D01*
X67449431Y-62847267D01*
X67353261Y-63053502D01*
X67353258Y-63053511D01*
X67294366Y-63273302D01*
X67294364Y-63273313D01*
X67274532Y-63499998D01*
X67274532Y-63500001D01*
X67294364Y-63726686D01*
X67294366Y-63726697D01*
X67353258Y-63946488D01*
X67353261Y-63946497D01*
X67449431Y-64152732D01*
X67449432Y-64152734D01*
X67579954Y-64339141D01*
X67740858Y-64500045D01*
X67740861Y-64500047D01*
X67927266Y-64630568D01*
X67985275Y-64657618D01*
X68037714Y-64703791D01*
X68056866Y-64770984D01*
X68036650Y-64837865D01*
X67985275Y-64882382D01*
X67927267Y-64909431D01*
X67927265Y-64909432D01*
X67740858Y-65039954D01*
X67579954Y-65200858D01*
X67449432Y-65387265D01*
X67449431Y-65387267D01*
X67353261Y-65593502D01*
X67353258Y-65593511D01*
X67294366Y-65813302D01*
X67294364Y-65813313D01*
X67274532Y-66039998D01*
X67274532Y-66040001D01*
X67294364Y-66266686D01*
X67294366Y-66266697D01*
X67353258Y-66486488D01*
X67353261Y-66486497D01*
X67449431Y-66692732D01*
X67449432Y-66692734D01*
X67579954Y-66879141D01*
X67740858Y-67040045D01*
X67765462Y-67057273D01*
X67809087Y-67111849D01*
X67816281Y-67181348D01*
X67784758Y-67243703D01*
X67724529Y-67279117D01*
X67707593Y-67282138D01*
X67672516Y-67285908D01*
X67537671Y-67336202D01*
X67537664Y-67336206D01*
X67422455Y-67422452D01*
X67422452Y-67422455D01*
X67336206Y-67537664D01*
X67336202Y-67537671D01*
X67285908Y-67672517D01*
X67283592Y-67694065D01*
X67279501Y-67732123D01*
X67279500Y-67732135D01*
X67279500Y-69427870D01*
X67279501Y-69427876D01*
X67285908Y-69487483D01*
X67336202Y-69622328D01*
X67336206Y-69622335D01*
X67422452Y-69737544D01*
X67422455Y-69737547D01*
X67537664Y-69823793D01*
X67537671Y-69823797D01*
X67672517Y-69874091D01*
X67672516Y-69874091D01*
X67679444Y-69874835D01*
X67732127Y-69880500D01*
X69427872Y-69880499D01*
X69487483Y-69874091D01*
X69622331Y-69823796D01*
X69737546Y-69737546D01*
X69823796Y-69622331D01*
X69874091Y-69487483D01*
X69880500Y-69427873D01*
X69880499Y-67732128D01*
X69874742Y-67678570D01*
X69874091Y-67672516D01*
X69823797Y-67537671D01*
X69823793Y-67537664D01*
X69737547Y-67422455D01*
X69737544Y-67422452D01*
X69622335Y-67336206D01*
X69622328Y-67336202D01*
X69487482Y-67285908D01*
X69487483Y-67285908D01*
X69452404Y-67282137D01*
X69387853Y-67255399D01*
X69348005Y-67198006D01*
X69345512Y-67128181D01*
X69381165Y-67068092D01*
X69394539Y-67057272D01*
X69419140Y-67040046D01*
X69580045Y-66879141D01*
X69580047Y-66879139D01*
X69710568Y-66692734D01*
X69806739Y-66486496D01*
X69865635Y-66266692D01*
X69885468Y-66040000D01*
X69865635Y-65813308D01*
X69806739Y-65593504D01*
X69710568Y-65387266D01*
X69580047Y-65200861D01*
X69580045Y-65200858D01*
X69419141Y-65039954D01*
X69232734Y-64909432D01*
X69232728Y-64909429D01*
X69174725Y-64882382D01*
X69122285Y-64836210D01*
X69103133Y-64769017D01*
X69123348Y-64702135D01*
X69174725Y-64657618D01*
X69232734Y-64630568D01*
X69419139Y-64500047D01*
X69580047Y-64339139D01*
X69710568Y-64152734D01*
X69806739Y-63946496D01*
X69865635Y-63726692D01*
X69885468Y-63500000D01*
X69865635Y-63273308D01*
X69806739Y-63053504D01*
X69710568Y-62847266D01*
X69603768Y-62694739D01*
X69580045Y-62660858D01*
X69419141Y-62499954D01*
X69232734Y-62369432D01*
X69232732Y-62369431D01*
X69217517Y-62362336D01*
X69174132Y-62342105D01*
X69121694Y-62295934D01*
X69116538Y-62277844D01*
X81565000Y-62277844D01*
X81571401Y-62337372D01*
X81571403Y-62337379D01*
X81621645Y-62472086D01*
X81621649Y-62472093D01*
X81707809Y-62587187D01*
X81707812Y-62587190D01*
X81822906Y-62673350D01*
X81822913Y-62673354D01*
X81957620Y-62723596D01*
X81957627Y-62723598D01*
X82017155Y-62729999D01*
X82017172Y-62730000D01*
X83570000Y-62730000D01*
X84070000Y-62730000D01*
X85622828Y-62730000D01*
X85622844Y-62729999D01*
X85682372Y-62723598D01*
X85682379Y-62723596D01*
X85817086Y-62673354D01*
X85817093Y-62673350D01*
X85932187Y-62587190D01*
X85932190Y-62587187D01*
X86018350Y-62472093D01*
X86018354Y-62472086D01*
X86068596Y-62337379D01*
X86068598Y-62337372D01*
X86074999Y-62277844D01*
X86075000Y-62277827D01*
X86075000Y-61210000D01*
X84070000Y-61210000D01*
X84070000Y-62730000D01*
X83570000Y-62730000D01*
X83570000Y-61210000D01*
X81565000Y-61210000D01*
X81565000Y-62277844D01*
X69116538Y-62277844D01*
X69102542Y-62228740D01*
X69122758Y-62161859D01*
X69174134Y-62117341D01*
X69232484Y-62090132D01*
X69418820Y-61959657D01*
X69579657Y-61798820D01*
X69710134Y-61612482D01*
X69806265Y-61406326D01*
X69806269Y-61406317D01*
X69858872Y-61210000D01*
X69013012Y-61210000D01*
X69045925Y-61152993D01*
X69080000Y-61025826D01*
X69080000Y-60894174D01*
X69045925Y-60767007D01*
X69013012Y-60710000D01*
X69858872Y-60710000D01*
X69858872Y-60709999D01*
X69806269Y-60513682D01*
X69806265Y-60513673D01*
X69710134Y-60307517D01*
X69579657Y-60121179D01*
X69418820Y-59960342D01*
X69232482Y-59829865D01*
X69174133Y-59802657D01*
X69121694Y-59756484D01*
X69102542Y-59689291D01*
X69116790Y-59642155D01*
X81565000Y-59642155D01*
X81565000Y-60710000D01*
X83570000Y-60710000D01*
X84070000Y-60710000D01*
X86075000Y-60710000D01*
X86075000Y-59642172D01*
X86074999Y-59642155D01*
X86068598Y-59582627D01*
X86068596Y-59582620D01*
X86018354Y-59447913D01*
X86018350Y-59447906D01*
X85932190Y-59332812D01*
X85932187Y-59332809D01*
X85817093Y-59246649D01*
X85817086Y-59246645D01*
X85682379Y-59196403D01*
X85682372Y-59196401D01*
X85622844Y-59190000D01*
X84070000Y-59190000D01*
X84070000Y-60710000D01*
X83570000Y-60710000D01*
X83570000Y-59190000D01*
X82017155Y-59190000D01*
X81957627Y-59196401D01*
X81957620Y-59196403D01*
X81822913Y-59246645D01*
X81822906Y-59246649D01*
X81707812Y-59332809D01*
X81707809Y-59332812D01*
X81621649Y-59447906D01*
X81621645Y-59447913D01*
X81571403Y-59582620D01*
X81571401Y-59582627D01*
X81565000Y-59642155D01*
X69116790Y-59642155D01*
X69122758Y-59622410D01*
X69174129Y-59577895D01*
X69232734Y-59550568D01*
X69419139Y-59420047D01*
X69580047Y-59259139D01*
X69710568Y-59072734D01*
X69806739Y-58866496D01*
X69865635Y-58646692D01*
X69885468Y-58420000D01*
X69865635Y-58193308D01*
X69806739Y-57973504D01*
X69710568Y-57767266D01*
X69603768Y-57614739D01*
X69580045Y-57580858D01*
X69419141Y-57419954D01*
X69232734Y-57289432D01*
X69232728Y-57289429D01*
X69174725Y-57262382D01*
X69122285Y-57216210D01*
X69103133Y-57149017D01*
X69123348Y-57082135D01*
X69174725Y-57037618D01*
X69232734Y-57010568D01*
X69419139Y-56880047D01*
X69580047Y-56719139D01*
X69710568Y-56532734D01*
X69806739Y-56326496D01*
X69865635Y-56106692D01*
X69882634Y-55912384D01*
X69885468Y-55880001D01*
X69885468Y-55879998D01*
X69877122Y-55784602D01*
X69865635Y-55653308D01*
X69809352Y-55443255D01*
X69806741Y-55433511D01*
X69806738Y-55433502D01*
X69748156Y-55307873D01*
X69710568Y-55227266D01*
X69598119Y-55066671D01*
X69580045Y-55040858D01*
X69419141Y-54879954D01*
X69232734Y-54749432D01*
X69232728Y-54749429D01*
X69174725Y-54722382D01*
X69122285Y-54676210D01*
X69103133Y-54609017D01*
X69123348Y-54542135D01*
X69174725Y-54497618D01*
X69232734Y-54470568D01*
X69419139Y-54340047D01*
X69580047Y-54179139D01*
X69710568Y-53992734D01*
X69806739Y-53786496D01*
X69865635Y-53566692D01*
X69885468Y-53340000D01*
X69865635Y-53113308D01*
X69820916Y-52946415D01*
X69806741Y-52893511D01*
X69806738Y-52893502D01*
X69796921Y-52872450D01*
X69710568Y-52687266D01*
X69580047Y-52500861D01*
X69580045Y-52500858D01*
X69419141Y-52339954D01*
X69232734Y-52209432D01*
X69232728Y-52209429D01*
X69184082Y-52186745D01*
X69174724Y-52182381D01*
X69122285Y-52136210D01*
X69103133Y-52069017D01*
X69123348Y-52002135D01*
X69174725Y-51957618D01*
X69232734Y-51930568D01*
X69419139Y-51800047D01*
X69580047Y-51639139D01*
X69710568Y-51452734D01*
X69806739Y-51246496D01*
X69865635Y-51026692D01*
X69885468Y-50800000D01*
X69885468Y-50799998D01*
X73116532Y-50799998D01*
X73116532Y-50800001D01*
X73136364Y-51026686D01*
X73136366Y-51026697D01*
X73195258Y-51246488D01*
X73195261Y-51246497D01*
X73291431Y-51452732D01*
X73291432Y-51452734D01*
X73421954Y-51639141D01*
X73582858Y-51800045D01*
X73582861Y-51800047D01*
X73769266Y-51930568D01*
X73975504Y-52026739D01*
X74195308Y-52085635D01*
X74357230Y-52099801D01*
X74421998Y-52105468D01*
X74422000Y-52105468D01*
X74422002Y-52105468D01*
X74453421Y-52102719D01*
X74648692Y-52085635D01*
X74689162Y-52074791D01*
X74759012Y-52076452D01*
X74808938Y-52106884D01*
X75513181Y-52811127D01*
X75546666Y-52872450D01*
X75549500Y-52898808D01*
X75549500Y-53435697D01*
X75529815Y-53502736D01*
X75477011Y-53548491D01*
X75407853Y-53558435D01*
X75380707Y-53551324D01*
X75246063Y-53499163D01*
X75246058Y-53499162D01*
X75036561Y-53460000D01*
X74823439Y-53460000D01*
X74613941Y-53499162D01*
X74613936Y-53499163D01*
X74415210Y-53576149D01*
X74415201Y-53576154D01*
X74312992Y-53639438D01*
X74312991Y-53639439D01*
X74908553Y-54235000D01*
X74880630Y-54235000D01*
X74785255Y-54260556D01*
X74699745Y-54309925D01*
X74629925Y-54379745D01*
X74580556Y-54465255D01*
X74555000Y-54560630D01*
X74555000Y-54588552D01*
X73956836Y-53990388D01*
X73948059Y-54002010D01*
X73853066Y-54192783D01*
X73853058Y-54192803D01*
X73794738Y-54397780D01*
X73794737Y-54397783D01*
X73775073Y-54609999D01*
X73775073Y-54610000D01*
X73794737Y-54822216D01*
X73794738Y-54822219D01*
X73853058Y-55027196D01*
X73853064Y-55027211D01*
X73948061Y-55217991D01*
X73948064Y-55217996D01*
X73956836Y-55229610D01*
X74555000Y-54631446D01*
X74555000Y-54659370D01*
X74580556Y-54754745D01*
X74629925Y-54840255D01*
X74699745Y-54910075D01*
X74785255Y-54959444D01*
X74880630Y-54985000D01*
X74908551Y-54985000D01*
X74312991Y-55580559D01*
X74415204Y-55643847D01*
X74415208Y-55643849D01*
X74613936Y-55720836D01*
X74613941Y-55720837D01*
X74823439Y-55760000D01*
X74920571Y-55760000D01*
X74987610Y-55779685D01*
X75033365Y-55832489D01*
X75042490Y-55874435D01*
X75044042Y-55874292D01*
X75064244Y-56092310D01*
X75122596Y-56297392D01*
X75122596Y-56297394D01*
X75217632Y-56488253D01*
X75346127Y-56658406D01*
X75346128Y-56658407D01*
X75503698Y-56802052D01*
X75684981Y-56914298D01*
X75883802Y-56991321D01*
X76093390Y-57030500D01*
X76093392Y-57030500D01*
X76306608Y-57030500D01*
X76306610Y-57030500D01*
X76516198Y-56991321D01*
X76715019Y-56914298D01*
X76896302Y-56802052D01*
X77053872Y-56658407D01*
X77182366Y-56488255D01*
X77205054Y-56442691D01*
X77277403Y-56297394D01*
X77277403Y-56297393D01*
X77277405Y-56297389D01*
X77335756Y-56092310D01*
X77355429Y-55880000D01*
X77355429Y-55879998D01*
X77355958Y-55874292D01*
X77358360Y-55874514D01*
X77375114Y-55817460D01*
X77427918Y-55771705D01*
X77479429Y-55760499D01*
X78167871Y-55760499D01*
X78167872Y-55760499D01*
X78227483Y-55754091D01*
X78362331Y-55703796D01*
X78477546Y-55617546D01*
X78563796Y-55502331D01*
X78614091Y-55367483D01*
X78620500Y-55307873D01*
X78620499Y-54925780D01*
X78640183Y-54858742D01*
X78656813Y-54838105D01*
X81658102Y-51836819D01*
X81719425Y-51803334D01*
X81745783Y-51800500D01*
X83805999Y-51800500D01*
X83873038Y-51820185D01*
X83911537Y-51859401D01*
X83917269Y-51868694D01*
X84041306Y-51992731D01*
X84041310Y-51992734D01*
X84190600Y-52084818D01*
X84190603Y-52084819D01*
X84190609Y-52084823D01*
X84357123Y-52140000D01*
X84459901Y-52150500D01*
X85760098Y-52150499D01*
X85862877Y-52140000D01*
X86029391Y-52084823D01*
X86178693Y-51992732D01*
X86302732Y-51868693D01*
X86394823Y-51719391D01*
X86450000Y-51552877D01*
X86460500Y-51450099D01*
X86460499Y-50149902D01*
X86455056Y-50096623D01*
X86450000Y-50047123D01*
X86449999Y-50047120D01*
X86438994Y-50013908D01*
X86394823Y-49880609D01*
X86394819Y-49880603D01*
X86394818Y-49880600D01*
X86302734Y-49731310D01*
X86302731Y-49731306D01*
X86178693Y-49607268D01*
X86178689Y-49607265D01*
X86029399Y-49515181D01*
X86029393Y-49515178D01*
X86029391Y-49515177D01*
X86026938Y-49514364D01*
X85862878Y-49460000D01*
X85760100Y-49449500D01*
X84459908Y-49449500D01*
X84459891Y-49449501D01*
X84357123Y-49459999D01*
X84357120Y-49460000D01*
X84190611Y-49515176D01*
X84190600Y-49515181D01*
X84041310Y-49607265D01*
X84041306Y-49607268D01*
X83917269Y-49731305D01*
X83911537Y-49740599D01*
X83859588Y-49787322D01*
X83805999Y-49799500D01*
X78982588Y-49799500D01*
X78915549Y-49779815D01*
X78911465Y-49777075D01*
X78846105Y-49731310D01*
X78757734Y-49669432D01*
X78757728Y-49669429D01*
X78551497Y-49573261D01*
X78551488Y-49573258D01*
X78331697Y-49514366D01*
X78331693Y-49514365D01*
X78331692Y-49514365D01*
X78331691Y-49514364D01*
X78331686Y-49514364D01*
X78105002Y-49494532D01*
X78104998Y-49494532D01*
X77878313Y-49514364D01*
X77878302Y-49514366D01*
X77658511Y-49573258D01*
X77658502Y-49573261D01*
X77452267Y-49669431D01*
X77452265Y-49669432D01*
X77265858Y-49799954D01*
X77104954Y-49960858D01*
X76974432Y-50147265D01*
X76974431Y-50147267D01*
X76878261Y-50353502D01*
X76878258Y-50353511D01*
X76819366Y-50573302D01*
X76819364Y-50573313D01*
X76799532Y-50799998D01*
X76799532Y-50800001D01*
X76819364Y-51026686D01*
X76819366Y-51026697D01*
X76878258Y-51246488D01*
X76878261Y-51246497D01*
X76974431Y-51452732D01*
X76974432Y-51452734D01*
X77104954Y-51639141D01*
X77265858Y-51800045D01*
X77265861Y-51800047D01*
X77452266Y-51930568D01*
X77658504Y-52026739D01*
X77878308Y-52085635D01*
X78040230Y-52099801D01*
X78104998Y-52105468D01*
X78105000Y-52105468D01*
X78105001Y-52105468D01*
X78144827Y-52101983D01*
X78263806Y-52091574D01*
X78332306Y-52105341D01*
X78382489Y-52153956D01*
X78398423Y-52221984D01*
X78375048Y-52287828D01*
X78362295Y-52302783D01*
X77241898Y-53423181D01*
X77180575Y-53456666D01*
X77154217Y-53459500D01*
X76974500Y-53459500D01*
X76907461Y-53439815D01*
X76861706Y-53387011D01*
X76850500Y-53335500D01*
X76850500Y-52513928D01*
X76825502Y-52388261D01*
X76825501Y-52388260D01*
X76825501Y-52388256D01*
X76776465Y-52269873D01*
X76735457Y-52208500D01*
X76735455Y-52208497D01*
X76705279Y-52163333D01*
X75728884Y-51186938D01*
X75695399Y-51125615D01*
X75696791Y-51067162D01*
X75705298Y-51035413D01*
X75707635Y-51026692D01*
X75727468Y-50800000D01*
X75707635Y-50573308D01*
X75648739Y-50353504D01*
X75552568Y-50147266D01*
X75422047Y-49960861D01*
X75422045Y-49960858D01*
X75261141Y-49799954D01*
X75074734Y-49669432D01*
X75074732Y-49669431D01*
X74868497Y-49573261D01*
X74868488Y-49573258D01*
X74648697Y-49514366D01*
X74648693Y-49514365D01*
X74648692Y-49514365D01*
X74648691Y-49514364D01*
X74648686Y-49514364D01*
X74422002Y-49494532D01*
X74421998Y-49494532D01*
X74195313Y-49514364D01*
X74195302Y-49514366D01*
X73975511Y-49573258D01*
X73975502Y-49573261D01*
X73769267Y-49669431D01*
X73769265Y-49669432D01*
X73582858Y-49799954D01*
X73421954Y-49960858D01*
X73291432Y-50147265D01*
X73291431Y-50147267D01*
X73195261Y-50353502D01*
X73195258Y-50353511D01*
X73136366Y-50573302D01*
X73136364Y-50573313D01*
X73116532Y-50799998D01*
X69885468Y-50799998D01*
X69865635Y-50573308D01*
X69806739Y-50353504D01*
X69710568Y-50147266D01*
X69580047Y-49960861D01*
X69580045Y-49960858D01*
X69419141Y-49799954D01*
X69232734Y-49669432D01*
X69232728Y-49669429D01*
X69174725Y-49642382D01*
X69122285Y-49596210D01*
X69103133Y-49529017D01*
X69123348Y-49462135D01*
X69174725Y-49417618D01*
X69232734Y-49390568D01*
X69419139Y-49260047D01*
X69580047Y-49099139D01*
X69710568Y-48912734D01*
X69806739Y-48706496D01*
X69865635Y-48486692D01*
X69885468Y-48260000D01*
X69884465Y-48248541D01*
X69867608Y-48055861D01*
X69865635Y-48033308D01*
X69806739Y-47813504D01*
X69710568Y-47607266D01*
X69580047Y-47420861D01*
X69580045Y-47420858D01*
X69419141Y-47259954D01*
X69232734Y-47129432D01*
X69232728Y-47129429D01*
X69174725Y-47102382D01*
X69122285Y-47056210D01*
X69103133Y-46989017D01*
X69123348Y-46922135D01*
X69174725Y-46877618D01*
X69232734Y-46850568D01*
X69419139Y-46720047D01*
X69580047Y-46559139D01*
X69710568Y-46372734D01*
X69806739Y-46166496D01*
X69865635Y-45946692D01*
X69885468Y-45720000D01*
X69865635Y-45493308D01*
X69806739Y-45273504D01*
X69710568Y-45067266D01*
X69580047Y-44880861D01*
X69580045Y-44880858D01*
X69419141Y-44719954D01*
X69232734Y-44589432D01*
X69232728Y-44589429D01*
X69174725Y-44562382D01*
X69122285Y-44516210D01*
X69103133Y-44449017D01*
X69123348Y-44382135D01*
X69174725Y-44337618D01*
X69232734Y-44310568D01*
X69419139Y-44180047D01*
X69580047Y-44019139D01*
X69710568Y-43832734D01*
X69806739Y-43626496D01*
X69865635Y-43406692D01*
X69885468Y-43180000D01*
X69865635Y-42953308D01*
X69806739Y-42733504D01*
X69710568Y-42527266D01*
X69598488Y-42367198D01*
X69580045Y-42340858D01*
X69419141Y-42179954D01*
X69232734Y-42049432D01*
X69232728Y-42049429D01*
X69174725Y-42022382D01*
X69122285Y-41976210D01*
X69103133Y-41909017D01*
X69123348Y-41842135D01*
X69174725Y-41797618D01*
X69232734Y-41770568D01*
X69419139Y-41640047D01*
X69580047Y-41479139D01*
X69675108Y-41343377D01*
X69729685Y-41299752D01*
X69776683Y-41290500D01*
X71561192Y-41290500D01*
X71628231Y-41310185D01*
X71648873Y-41326819D01*
X73115115Y-42793061D01*
X73148600Y-42854384D01*
X73147209Y-42912834D01*
X73136367Y-42953299D01*
X73136364Y-42953313D01*
X73116532Y-43179998D01*
X73116532Y-43180001D01*
X73136364Y-43406686D01*
X73136366Y-43406697D01*
X73195258Y-43626488D01*
X73195261Y-43626497D01*
X73291431Y-43832732D01*
X73291432Y-43832734D01*
X73421954Y-44019141D01*
X73582858Y-44180045D01*
X73582861Y-44180047D01*
X73769266Y-44310568D01*
X73975504Y-44406739D01*
X73975509Y-44406740D01*
X73975511Y-44406741D01*
X74028415Y-44420916D01*
X74195308Y-44465635D01*
X74357180Y-44479797D01*
X74421998Y-44485468D01*
X74422000Y-44485468D01*
X74422002Y-44485468D01*
X74478673Y-44480509D01*
X74648692Y-44465635D01*
X74868496Y-44406739D01*
X75074734Y-44310568D01*
X75261139Y-44180047D01*
X75422047Y-44019139D01*
X75552568Y-43832734D01*
X75648739Y-43626496D01*
X75707635Y-43406692D01*
X75727468Y-43180000D01*
X75707635Y-42953308D01*
X75648739Y-42733504D01*
X75552568Y-42527266D01*
X75440488Y-42367198D01*
X75422045Y-42340858D01*
X75261141Y-42179954D01*
X75074734Y-42049432D01*
X75074732Y-42049431D01*
X74868497Y-41953261D01*
X74868488Y-41953258D01*
X74648697Y-41894366D01*
X74648693Y-41894365D01*
X74648692Y-41894365D01*
X74648691Y-41894364D01*
X74648686Y-41894364D01*
X74422002Y-41874532D01*
X74421998Y-41874532D01*
X74195313Y-41894364D01*
X74195299Y-41894367D01*
X74154834Y-41905209D01*
X74084984Y-41903545D01*
X74035061Y-41873115D01*
X72296674Y-40134727D01*
X72296673Y-40134726D01*
X72226944Y-40088135D01*
X72190127Y-40063535D01*
X72071744Y-40014499D01*
X72071738Y-40014497D01*
X71946071Y-39989500D01*
X71946069Y-39989500D01*
X69776683Y-39989500D01*
X69709644Y-39969815D01*
X69675108Y-39936623D01*
X69580045Y-39800858D01*
X69419141Y-39639954D01*
X69232734Y-39509432D01*
X69232728Y-39509429D01*
X69174725Y-39482382D01*
X69122285Y-39436210D01*
X69103133Y-39369017D01*
X69123348Y-39302135D01*
X69174725Y-39257618D01*
X69232734Y-39230568D01*
X69419139Y-39100047D01*
X69580047Y-38939139D01*
X69710568Y-38752734D01*
X69722335Y-38727500D01*
X75673968Y-38727500D01*
X76811518Y-38727500D01*
X76800889Y-38745909D01*
X76760000Y-38898509D01*
X76760000Y-39056491D01*
X76800889Y-39209091D01*
X76811518Y-39227500D01*
X75673968Y-39227500D01*
X75674274Y-39231579D01*
X75674275Y-39231586D01*
X75730967Y-39479975D01*
X75730973Y-39479994D01*
X75824058Y-39717171D01*
X75824057Y-39717171D01*
X75951455Y-39937828D01*
X76110320Y-40137040D01*
X76297097Y-40310342D01*
X76507616Y-40453871D01*
X76507624Y-40453876D01*
X76737176Y-40564421D01*
X76737174Y-40564421D01*
X76980652Y-40639524D01*
X76980660Y-40639526D01*
X77110000Y-40659020D01*
X77110000Y-39525982D01*
X77128409Y-39536611D01*
X77281009Y-39577500D01*
X77438991Y-39577500D01*
X77591591Y-39536611D01*
X77610000Y-39525982D01*
X77610000Y-40659019D01*
X77739339Y-40639526D01*
X77739347Y-40639524D01*
X77982824Y-40564421D01*
X78212376Y-40453876D01*
X78212377Y-40453875D01*
X78422905Y-40310340D01*
X78609679Y-40137040D01*
X78768544Y-39937828D01*
X78895941Y-39717171D01*
X78989026Y-39479994D01*
X78989032Y-39479975D01*
X79045724Y-39231586D01*
X79045725Y-39231579D01*
X79046032Y-39227500D01*
X77908482Y-39227500D01*
X77919111Y-39209091D01*
X77960000Y-39056491D01*
X77960000Y-38898509D01*
X77919111Y-38745909D01*
X77908482Y-38727500D01*
X79046031Y-38727500D01*
X79045725Y-38723420D01*
X79045724Y-38723413D01*
X78989032Y-38475024D01*
X78989026Y-38475005D01*
X78895941Y-38237828D01*
X78895942Y-38237828D01*
X78768544Y-38017171D01*
X78609679Y-37817959D01*
X78422905Y-37644659D01*
X78212377Y-37501124D01*
X78212376Y-37501123D01*
X77982823Y-37390578D01*
X77982825Y-37390578D01*
X77739354Y-37315477D01*
X77739348Y-37315476D01*
X77610000Y-37295979D01*
X77610000Y-38429017D01*
X77591591Y-38418389D01*
X77438991Y-38377500D01*
X77281009Y-38377500D01*
X77128409Y-38418389D01*
X77110000Y-38429017D01*
X77110000Y-37295979D01*
X76980651Y-37315476D01*
X76980645Y-37315477D01*
X76737175Y-37390578D01*
X76507624Y-37501123D01*
X76507616Y-37501128D01*
X76297097Y-37644657D01*
X76110320Y-37817959D01*
X75951455Y-38017171D01*
X75824058Y-38237828D01*
X75730973Y-38475005D01*
X75730967Y-38475024D01*
X75674275Y-38723413D01*
X75674274Y-38723420D01*
X75673968Y-38727500D01*
X69722335Y-38727500D01*
X69806739Y-38546496D01*
X69865635Y-38326692D01*
X69885468Y-38100000D01*
X69865635Y-37873308D01*
X69818696Y-37698127D01*
X69806741Y-37653511D01*
X69806738Y-37653502D01*
X69802614Y-37644659D01*
X69710568Y-37447266D01*
X69580047Y-37260861D01*
X69580045Y-37260858D01*
X69419141Y-37099954D01*
X69232734Y-36969432D01*
X69232728Y-36969429D01*
X69184082Y-36946745D01*
X69174724Y-36942381D01*
X69122285Y-36896210D01*
X69103133Y-36829017D01*
X69123348Y-36762135D01*
X69174725Y-36717618D01*
X69232734Y-36690568D01*
X69419139Y-36560047D01*
X69580047Y-36399139D01*
X69710568Y-36212734D01*
X69806739Y-36006496D01*
X69865635Y-35786692D01*
X69885468Y-35560000D01*
X69865635Y-35333308D01*
X69806739Y-35113504D01*
X69710568Y-34907266D01*
X69580047Y-34720861D01*
X69580045Y-34720858D01*
X69419141Y-34559954D01*
X69232734Y-34429432D01*
X69232728Y-34429429D01*
X69184082Y-34406745D01*
X69174724Y-34402381D01*
X69122285Y-34356210D01*
X69103413Y-34289998D01*
X70449532Y-34289998D01*
X70449532Y-34290001D01*
X70469364Y-34516686D01*
X70469366Y-34516697D01*
X70528258Y-34736488D01*
X70528261Y-34736497D01*
X70624431Y-34942732D01*
X70624432Y-34942734D01*
X70754954Y-35129141D01*
X70915858Y-35290045D01*
X70915861Y-35290047D01*
X71102266Y-35420568D01*
X71308504Y-35516739D01*
X71308509Y-35516740D01*
X71308511Y-35516741D01*
X71361415Y-35530916D01*
X71528308Y-35575635D01*
X71690230Y-35589801D01*
X71754998Y-35595468D01*
X71755000Y-35595468D01*
X71755002Y-35595468D01*
X71811673Y-35590509D01*
X71981692Y-35575635D01*
X72201496Y-35516739D01*
X72407734Y-35420568D01*
X72594139Y-35290047D01*
X72755047Y-35129139D01*
X72885568Y-34942734D01*
X72981739Y-34736496D01*
X73040635Y-34516692D01*
X73060468Y-34290000D01*
X73040635Y-34063308D01*
X72981739Y-33843504D01*
X72885568Y-33637266D01*
X72755047Y-33450861D01*
X72755045Y-33450858D01*
X72594141Y-33289954D01*
X72407734Y-33159432D01*
X72407732Y-33159431D01*
X72201497Y-33063261D01*
X72201488Y-33063258D01*
X72040022Y-33019994D01*
X86819859Y-33019994D01*
X86819859Y-33020005D01*
X86840385Y-33267729D01*
X86840387Y-33267738D01*
X86901412Y-33508717D01*
X87001266Y-33736364D01*
X87101564Y-33889882D01*
X87842037Y-33149409D01*
X87859075Y-33212993D01*
X87924901Y-33327007D01*
X88017993Y-33420099D01*
X88132007Y-33485925D01*
X88195590Y-33502962D01*
X87454942Y-34243609D01*
X87501768Y-34280055D01*
X87501770Y-34280056D01*
X87720385Y-34398364D01*
X87720396Y-34398369D01*
X87955506Y-34479083D01*
X88200707Y-34520000D01*
X88449293Y-34520000D01*
X88694493Y-34479083D01*
X88929603Y-34398369D01*
X88929614Y-34398364D01*
X89148228Y-34280057D01*
X89148231Y-34280055D01*
X89195056Y-34243609D01*
X88454409Y-33502962D01*
X88517993Y-33485925D01*
X88632007Y-33420099D01*
X88725099Y-33327007D01*
X88790925Y-33212993D01*
X88807962Y-33149410D01*
X89548434Y-33889882D01*
X89648731Y-33736369D01*
X89748587Y-33508717D01*
X89809612Y-33267738D01*
X89809614Y-33267729D01*
X89830141Y-33020005D01*
X89830141Y-33019994D01*
X89809614Y-32772270D01*
X89809612Y-32772261D01*
X89748587Y-32531282D01*
X89648731Y-32303630D01*
X89548434Y-32150116D01*
X88807962Y-32890589D01*
X88790925Y-32827007D01*
X88725099Y-32712993D01*
X88632007Y-32619901D01*
X88517993Y-32554075D01*
X88454410Y-32537037D01*
X89195057Y-31796390D01*
X89195056Y-31796389D01*
X89148229Y-31759943D01*
X88929614Y-31641635D01*
X88929603Y-31641630D01*
X88694493Y-31560916D01*
X88449293Y-31520000D01*
X88200707Y-31520000D01*
X87955506Y-31560916D01*
X87720396Y-31641630D01*
X87720390Y-31641632D01*
X87501761Y-31759949D01*
X87454942Y-31796388D01*
X87454942Y-31796390D01*
X88195590Y-32537037D01*
X88132007Y-32554075D01*
X88017993Y-32619901D01*
X87924901Y-32712993D01*
X87859075Y-32827007D01*
X87842037Y-32890589D01*
X87101564Y-32150116D01*
X87001267Y-32303632D01*
X86901412Y-32531282D01*
X86840387Y-32772261D01*
X86840385Y-32772270D01*
X86819859Y-33019994D01*
X72040022Y-33019994D01*
X71981697Y-33004366D01*
X71981693Y-33004365D01*
X71981692Y-33004365D01*
X71981691Y-33004364D01*
X71981686Y-33004364D01*
X71755002Y-32984532D01*
X71754998Y-32984532D01*
X71528313Y-33004364D01*
X71528302Y-33004366D01*
X71308511Y-33063258D01*
X71308502Y-33063261D01*
X71102267Y-33159431D01*
X71102265Y-33159432D01*
X70915858Y-33289954D01*
X70754954Y-33450858D01*
X70624432Y-33637265D01*
X70624431Y-33637267D01*
X70528261Y-33843502D01*
X70528258Y-33843511D01*
X70469366Y-34063302D01*
X70469364Y-34063313D01*
X70449532Y-34289998D01*
X69103413Y-34289998D01*
X69103133Y-34289017D01*
X69123348Y-34222135D01*
X69174725Y-34177618D01*
X69232734Y-34150568D01*
X69419139Y-34020047D01*
X69580047Y-33859139D01*
X69710568Y-33672734D01*
X69806739Y-33466496D01*
X69865635Y-33246692D01*
X69885468Y-33020000D01*
X69885467Y-33019994D01*
X69871972Y-32865740D01*
X69865635Y-32793308D01*
X69806739Y-32573504D01*
X69710568Y-32367266D01*
X69580047Y-32180861D01*
X69580045Y-32180858D01*
X69419141Y-32019954D01*
X69232734Y-31889432D01*
X69232732Y-31889431D01*
X69026497Y-31793261D01*
X69026488Y-31793258D01*
X68806697Y-31734366D01*
X68806693Y-31734365D01*
X68806692Y-31734365D01*
X68806691Y-31734364D01*
X68806686Y-31734364D01*
X68580002Y-31714532D01*
X68579998Y-31714532D01*
X68353313Y-31734364D01*
X68353302Y-31734366D01*
X68133511Y-31793258D01*
X68133502Y-31793261D01*
X67927267Y-31889431D01*
X67927265Y-31889432D01*
X67740858Y-32019954D01*
X67579954Y-32180858D01*
X67449432Y-32367265D01*
X67449431Y-32367267D01*
X67353261Y-32573502D01*
X67353258Y-32573511D01*
X67294366Y-32793302D01*
X67294364Y-32793313D01*
X67274532Y-33019998D01*
X67274532Y-33020001D01*
X67294364Y-33246686D01*
X67294366Y-33246697D01*
X67353258Y-33466488D01*
X67353261Y-33466497D01*
X67449431Y-33672732D01*
X67449432Y-33672734D01*
X67579954Y-33859141D01*
X67740858Y-34020045D01*
X67740861Y-34020047D01*
X67927266Y-34150568D01*
X67985275Y-34177618D01*
X68037714Y-34223791D01*
X68056866Y-34290984D01*
X68036650Y-34357865D01*
X67985275Y-34402382D01*
X67927267Y-34429431D01*
X67927265Y-34429432D01*
X67740858Y-34559954D01*
X67579954Y-34720858D01*
X67449432Y-34907265D01*
X67449431Y-34907267D01*
X67353261Y-35113502D01*
X67353258Y-35113511D01*
X67294366Y-35333302D01*
X67294364Y-35333313D01*
X67274532Y-35559998D01*
X67274532Y-35560001D01*
X67294364Y-35786686D01*
X67294366Y-35786697D01*
X67353258Y-36006488D01*
X67353261Y-36006497D01*
X67449431Y-36212732D01*
X67449432Y-36212734D01*
X67579954Y-36399141D01*
X67740858Y-36560045D01*
X67740861Y-36560047D01*
X67927266Y-36690568D01*
X67985275Y-36717618D01*
X68037714Y-36763791D01*
X68056866Y-36830984D01*
X68036650Y-36897865D01*
X67985275Y-36942382D01*
X67927267Y-36969431D01*
X67927265Y-36969432D01*
X67740858Y-37099954D01*
X67579954Y-37260858D01*
X67449432Y-37447265D01*
X67449431Y-37447267D01*
X67353261Y-37653502D01*
X67353258Y-37653511D01*
X67294366Y-37873302D01*
X67294364Y-37873313D01*
X67274532Y-38099998D01*
X67274532Y-38100001D01*
X67294364Y-38326686D01*
X67294366Y-38326697D01*
X67353258Y-38546488D01*
X67353261Y-38546497D01*
X67449431Y-38752732D01*
X67449432Y-38752734D01*
X67579954Y-38939141D01*
X67740858Y-39100045D01*
X67740861Y-39100047D01*
X67927266Y-39230568D01*
X67962777Y-39247127D01*
X67985275Y-39257618D01*
X68037714Y-39303791D01*
X68056866Y-39370984D01*
X68036650Y-39437865D01*
X67985275Y-39482382D01*
X67927267Y-39509431D01*
X67927265Y-39509432D01*
X67740858Y-39639954D01*
X67579954Y-39800858D01*
X67449432Y-39987265D01*
X67449431Y-39987267D01*
X67353261Y-40193502D01*
X67353258Y-40193511D01*
X67294366Y-40413302D01*
X67294364Y-40413313D01*
X67274532Y-40639998D01*
X67274532Y-40640001D01*
X67294364Y-40866686D01*
X67294366Y-40866697D01*
X67353258Y-41086488D01*
X67353261Y-41086497D01*
X67449431Y-41292732D01*
X67449432Y-41292734D01*
X67579954Y-41479141D01*
X67740858Y-41640045D01*
X67740861Y-41640047D01*
X67927266Y-41770568D01*
X67965196Y-41788255D01*
X67985275Y-41797618D01*
X68037714Y-41843791D01*
X68056866Y-41910984D01*
X68036650Y-41977865D01*
X67985275Y-42022382D01*
X67927267Y-42049431D01*
X67927265Y-42049432D01*
X67740858Y-42179954D01*
X67579954Y-42340858D01*
X67449432Y-42527265D01*
X67449431Y-42527267D01*
X67353261Y-42733502D01*
X67353258Y-42733511D01*
X67294366Y-42953302D01*
X67294364Y-42953313D01*
X67274532Y-43179998D01*
X67274532Y-43180001D01*
X67294364Y-43406686D01*
X67294366Y-43406697D01*
X67353258Y-43626488D01*
X67353261Y-43626497D01*
X67449431Y-43832732D01*
X67449432Y-43832734D01*
X67579954Y-44019141D01*
X67740858Y-44180045D01*
X67740861Y-44180047D01*
X67927266Y-44310568D01*
X67985275Y-44337618D01*
X68037714Y-44383791D01*
X68056866Y-44450984D01*
X68036650Y-44517865D01*
X67985275Y-44562382D01*
X67927267Y-44589431D01*
X67927265Y-44589432D01*
X67740858Y-44719954D01*
X67579954Y-44880858D01*
X67484892Y-45016623D01*
X67430315Y-45060248D01*
X67383317Y-45069500D01*
X63820808Y-45069500D01*
X63753769Y-45049815D01*
X63733127Y-45033181D01*
X62281819Y-43581873D01*
X62248334Y-43520550D01*
X62245500Y-43494192D01*
X62245500Y-31050928D01*
X62220502Y-30925261D01*
X62220501Y-30925260D01*
X62220501Y-30925256D01*
X62171465Y-30806873D01*
X62158939Y-30788127D01*
X62110347Y-30715403D01*
X62100277Y-30700331D01*
X62100271Y-30700324D01*
X54389673Y-22989726D01*
X54364009Y-22972578D01*
X54283127Y-22918535D01*
X54164744Y-22869499D01*
X54164738Y-22869497D01*
X54039071Y-22844500D01*
X54039069Y-22844500D01*
X32320931Y-22844500D01*
X32320929Y-22844500D01*
X32195261Y-22869497D01*
X32195255Y-22869499D01*
X32076874Y-22918534D01*
X31970326Y-22989726D01*
X29974726Y-24985326D01*
X29903534Y-25091874D01*
X29854499Y-25210255D01*
X29854497Y-25210261D01*
X29829500Y-25335928D01*
X29829500Y-26073802D01*
X29809815Y-26140841D01*
X29797651Y-26156773D01*
X29788140Y-26167336D01*
X29698750Y-26322164D01*
X29698747Y-26322170D01*
X29643504Y-26492192D01*
X29643503Y-26492194D01*
X29624815Y-26670000D01*
X28240500Y-26670000D01*
X28240500Y-20575038D01*
X29260500Y-20575038D01*
X29260500Y-20826961D01*
X29299910Y-21075785D01*
X29377760Y-21315383D01*
X29434909Y-21427542D01*
X29484924Y-21525703D01*
X29492132Y-21539848D01*
X29640201Y-21743649D01*
X29640205Y-21743654D01*
X29818345Y-21921794D01*
X29818350Y-21921798D01*
X29977171Y-22037187D01*
X30022155Y-22069870D01*
X30165184Y-22142747D01*
X30246616Y-22184239D01*
X30246618Y-22184239D01*
X30246621Y-22184241D01*
X30486215Y-22262090D01*
X30735038Y-22301500D01*
X30735039Y-22301500D01*
X30986961Y-22301500D01*
X30986962Y-22301500D01*
X31235785Y-22262090D01*
X31475379Y-22184241D01*
X31699845Y-22069870D01*
X31903656Y-21921793D01*
X32081793Y-21743656D01*
X32229870Y-21539845D01*
X32344241Y-21315379D01*
X32422090Y-21075785D01*
X32461500Y-20826962D01*
X32461500Y-20575038D01*
X32422090Y-20326215D01*
X32420069Y-20319994D01*
X38499859Y-20319994D01*
X38499859Y-20320005D01*
X38520385Y-20567729D01*
X38520387Y-20567738D01*
X38581412Y-20808717D01*
X38681266Y-21036364D01*
X38781564Y-21189882D01*
X39522037Y-20449409D01*
X39539075Y-20512993D01*
X39604901Y-20627007D01*
X39697993Y-20720099D01*
X39812007Y-20785925D01*
X39875590Y-20802962D01*
X39134942Y-21543609D01*
X39181768Y-21580055D01*
X39181770Y-21580056D01*
X39400385Y-21698364D01*
X39400396Y-21698369D01*
X39635506Y-21779083D01*
X39880707Y-21820000D01*
X40129293Y-21820000D01*
X40374493Y-21779083D01*
X40609603Y-21698369D01*
X40609614Y-21698364D01*
X40828228Y-21580057D01*
X40828231Y-21580055D01*
X40875056Y-21543609D01*
X40134409Y-20802962D01*
X40197993Y-20785925D01*
X40312007Y-20720099D01*
X40405099Y-20627007D01*
X40470925Y-20512993D01*
X40487962Y-20449409D01*
X41228434Y-21189882D01*
X41275500Y-21117844D01*
X42565000Y-21117844D01*
X42571401Y-21177372D01*
X42571403Y-21177379D01*
X42621645Y-21312086D01*
X42621649Y-21312093D01*
X42707809Y-21427187D01*
X42707812Y-21427190D01*
X42822906Y-21513350D01*
X42822913Y-21513354D01*
X42957620Y-21563596D01*
X42957627Y-21563598D01*
X43017155Y-21569999D01*
X43017172Y-21570000D01*
X43565000Y-21570000D01*
X44065000Y-21570000D01*
X44612828Y-21570000D01*
X44612844Y-21569999D01*
X44672372Y-21563598D01*
X44672379Y-21563596D01*
X44807086Y-21513354D01*
X44807093Y-21513350D01*
X44922187Y-21427190D01*
X44922190Y-21427187D01*
X45008350Y-21312093D01*
X45008354Y-21312086D01*
X45058596Y-21177379D01*
X45058598Y-21177372D01*
X45064999Y-21117844D01*
X45065000Y-21117827D01*
X45065000Y-20570000D01*
X44065000Y-20570000D01*
X44065000Y-21570000D01*
X43565000Y-21570000D01*
X43565000Y-20570000D01*
X42565000Y-20570000D01*
X42565000Y-21117844D01*
X41275500Y-21117844D01*
X41328731Y-21036369D01*
X41428587Y-20808717D01*
X41489612Y-20567738D01*
X41489614Y-20567729D01*
X41510141Y-20320005D01*
X41510141Y-20319994D01*
X41489614Y-20072270D01*
X41489612Y-20072261D01*
X41428587Y-19831282D01*
X41328731Y-19603630D01*
X41275500Y-19522155D01*
X42565000Y-19522155D01*
X42565000Y-20070000D01*
X43565000Y-20070000D01*
X44065000Y-20070000D01*
X45065000Y-20070000D01*
X45065000Y-19522172D01*
X45064999Y-19522155D01*
X45058598Y-19462627D01*
X45058596Y-19462620D01*
X45008354Y-19327913D01*
X45008350Y-19327906D01*
X44966600Y-19272135D01*
X46124500Y-19272135D01*
X46124500Y-21367870D01*
X46124501Y-21367876D01*
X46130908Y-21427483D01*
X46181202Y-21562328D01*
X46181206Y-21562335D01*
X46267452Y-21677544D01*
X46267455Y-21677547D01*
X46382664Y-21763793D01*
X46382671Y-21763797D01*
X46517517Y-21814091D01*
X46517516Y-21814091D01*
X46524444Y-21814835D01*
X46577127Y-21820500D01*
X48672872Y-21820499D01*
X48732483Y-21814091D01*
X48867331Y-21763796D01*
X48982546Y-21677546D01*
X49068796Y-21562331D01*
X49119091Y-21427483D01*
X49119091Y-21427481D01*
X49120874Y-21419938D01*
X49123146Y-21420474D01*
X49145429Y-21366688D01*
X49202823Y-21326843D01*
X49241976Y-21320500D01*
X50185249Y-21320500D01*
X50252288Y-21340185D01*
X50284515Y-21370188D01*
X50303605Y-21395688D01*
X50327454Y-21427546D01*
X50327457Y-21427548D01*
X50442664Y-21513793D01*
X50442671Y-21513797D01*
X50577517Y-21564091D01*
X50577516Y-21564091D01*
X50579228Y-21564275D01*
X50637127Y-21570500D01*
X52232872Y-21570499D01*
X52292483Y-21564091D01*
X52427331Y-21513796D01*
X52542546Y-21427546D01*
X52576904Y-21381650D01*
X52585485Y-21370188D01*
X52641419Y-21328318D01*
X52684751Y-21320500D01*
X55414218Y-21320500D01*
X55481257Y-21340185D01*
X55501899Y-21356819D01*
X55937442Y-21792362D01*
X55970927Y-21853685D01*
X55965943Y-21923377D01*
X55953570Y-21947864D01*
X55825826Y-22143393D01*
X55725936Y-22371118D01*
X55664892Y-22612175D01*
X55664890Y-22612187D01*
X55644357Y-22859994D01*
X55644357Y-22860005D01*
X55664890Y-23107812D01*
X55664892Y-23107824D01*
X55725936Y-23348881D01*
X55825826Y-23576606D01*
X55961833Y-23784782D01*
X55961836Y-23784785D01*
X56130256Y-23967738D01*
X56326491Y-24120474D01*
X56326493Y-24120475D01*
X56493426Y-24210815D01*
X56545190Y-24238828D01*
X56780386Y-24319571D01*
X57025665Y-24360500D01*
X57274335Y-24360500D01*
X57519614Y-24319571D01*
X57754810Y-24238828D01*
X57973509Y-24120474D01*
X58169744Y-23967738D01*
X58201733Y-23932989D01*
X58231626Y-23900517D01*
X58291513Y-23864526D01*
X58322855Y-23860500D01*
X63990859Y-23860500D01*
X64057898Y-23880185D01*
X64103653Y-23932989D01*
X64107030Y-23941140D01*
X64111204Y-23952331D01*
X64111205Y-23952332D01*
X64111206Y-23952335D01*
X64197452Y-24067544D01*
X64197455Y-24067547D01*
X64312664Y-24153793D01*
X64312671Y-24153797D01*
X64444081Y-24202810D01*
X64500015Y-24244681D01*
X64524432Y-24310145D01*
X64509580Y-24378418D01*
X64488430Y-24406673D01*
X64366503Y-24528600D01*
X64230965Y-24722169D01*
X64230964Y-24722171D01*
X64131098Y-24936335D01*
X64131094Y-24936344D01*
X64069938Y-25164586D01*
X64069936Y-25164596D01*
X64049341Y-25399999D01*
X64049341Y-25400000D01*
X64069936Y-25635403D01*
X64069938Y-25635413D01*
X64131094Y-25863655D01*
X64131096Y-25863659D01*
X64131097Y-25863663D01*
X64186758Y-25983027D01*
X64230965Y-26077830D01*
X64230967Y-26077834D01*
X64366501Y-26271395D01*
X64366506Y-26271402D01*
X64533597Y-26438493D01*
X64533603Y-26438498D01*
X64719594Y-26568730D01*
X64763219Y-26623307D01*
X64770413Y-26692805D01*
X64738890Y-26755160D01*
X64719595Y-26771880D01*
X64533922Y-26901890D01*
X64533920Y-26901891D01*
X64366891Y-27068920D01*
X64366886Y-27068926D01*
X64231400Y-27262420D01*
X64231399Y-27262422D01*
X64131570Y-27476507D01*
X64131567Y-27476513D01*
X64074364Y-27689999D01*
X64074364Y-27690000D01*
X64971988Y-27690000D01*
X64939075Y-27747007D01*
X64905000Y-27874174D01*
X64905000Y-28005826D01*
X64939075Y-28132993D01*
X64971988Y-28190000D01*
X64074364Y-28190000D01*
X64131567Y-28403486D01*
X64131570Y-28403492D01*
X64231399Y-28617578D01*
X64366894Y-28811082D01*
X64533917Y-28978105D01*
X64719595Y-29108119D01*
X64763219Y-29162696D01*
X64770412Y-29232195D01*
X64738890Y-29294549D01*
X64719595Y-29311269D01*
X64533594Y-29441508D01*
X64366505Y-29608597D01*
X64230965Y-29802169D01*
X64230964Y-29802171D01*
X64131098Y-30016335D01*
X64131094Y-30016344D01*
X64069938Y-30244586D01*
X64069936Y-30244596D01*
X64049341Y-30479999D01*
X64049341Y-30480000D01*
X64069936Y-30715403D01*
X64069938Y-30715413D01*
X64131094Y-30943655D01*
X64131096Y-30943659D01*
X64131097Y-30943663D01*
X64202600Y-31097001D01*
X64230965Y-31157830D01*
X64230967Y-31157834D01*
X64366501Y-31351395D01*
X64366506Y-31351402D01*
X64533597Y-31518493D01*
X64533603Y-31518498D01*
X64719158Y-31648425D01*
X64762783Y-31703002D01*
X64769977Y-31772500D01*
X64738454Y-31834855D01*
X64719158Y-31851575D01*
X64533597Y-31981505D01*
X64366505Y-32148597D01*
X64230965Y-32342169D01*
X64230964Y-32342171D01*
X64131098Y-32556335D01*
X64131094Y-32556344D01*
X64069938Y-32784586D01*
X64069936Y-32784596D01*
X64049341Y-33019999D01*
X64049341Y-33020000D01*
X64069936Y-33255403D01*
X64069938Y-33255413D01*
X64131094Y-33483655D01*
X64131096Y-33483659D01*
X64131097Y-33483663D01*
X64202724Y-33637267D01*
X64230965Y-33697830D01*
X64230967Y-33697834D01*
X64311559Y-33812930D01*
X64365441Y-33889882D01*
X64366501Y-33891395D01*
X64366506Y-33891402D01*
X64533597Y-34058493D01*
X64533603Y-34058498D01*
X64719158Y-34188425D01*
X64762783Y-34243002D01*
X64769977Y-34312500D01*
X64738454Y-34374855D01*
X64719158Y-34391575D01*
X64533597Y-34521505D01*
X64366505Y-34688597D01*
X64230965Y-34882169D01*
X64230964Y-34882171D01*
X64131098Y-35096335D01*
X64131094Y-35096344D01*
X64069938Y-35324586D01*
X64069936Y-35324596D01*
X64049341Y-35559999D01*
X64049341Y-35560000D01*
X64069936Y-35795403D01*
X64069938Y-35795413D01*
X64131094Y-36023655D01*
X64131096Y-36023659D01*
X64131097Y-36023663D01*
X64210832Y-36194655D01*
X64230965Y-36237830D01*
X64230967Y-36237834D01*
X64313427Y-36355598D01*
X64341234Y-36395311D01*
X64366501Y-36431395D01*
X64366506Y-36431402D01*
X64533597Y-36598493D01*
X64533603Y-36598498D01*
X64719158Y-36728425D01*
X64762783Y-36783002D01*
X64769977Y-36852500D01*
X64738454Y-36914855D01*
X64719158Y-36931575D01*
X64533597Y-37061505D01*
X64366505Y-37228597D01*
X64230965Y-37422169D01*
X64230964Y-37422171D01*
X64131098Y-37636335D01*
X64131094Y-37636344D01*
X64069938Y-37864586D01*
X64069936Y-37864596D01*
X64049341Y-38099999D01*
X64049341Y-38100000D01*
X64069936Y-38335403D01*
X64069938Y-38335413D01*
X64131094Y-38563655D01*
X64131096Y-38563659D01*
X64131097Y-38563663D01*
X64169895Y-38646865D01*
X64230965Y-38777830D01*
X64230967Y-38777834D01*
X64300502Y-38877139D01*
X64366505Y-38971401D01*
X64533599Y-39138495D01*
X64549563Y-39149673D01*
X64727165Y-39274032D01*
X64727167Y-39274033D01*
X64727170Y-39274035D01*
X64941337Y-39373903D01*
X65169592Y-39435063D01*
X65357918Y-39451539D01*
X65404999Y-39455659D01*
X65405000Y-39455659D01*
X65405001Y-39455659D01*
X65444234Y-39452226D01*
X65640408Y-39435063D01*
X65868663Y-39373903D01*
X66082830Y-39274035D01*
X66276401Y-39138495D01*
X66443495Y-38971401D01*
X66579035Y-38777830D01*
X66678903Y-38563663D01*
X66740063Y-38335408D01*
X66760659Y-38100000D01*
X66740063Y-37864592D01*
X66678903Y-37636337D01*
X66579035Y-37422171D01*
X66577484Y-37419955D01*
X66443494Y-37228597D01*
X66276402Y-37061506D01*
X66276396Y-37061501D01*
X66090842Y-36931575D01*
X66047217Y-36876998D01*
X66040023Y-36807500D01*
X66071546Y-36745145D01*
X66090842Y-36728425D01*
X66237451Y-36625768D01*
X66276401Y-36598495D01*
X66443495Y-36431401D01*
X66579035Y-36237830D01*
X66678903Y-36023663D01*
X66740063Y-35795408D01*
X66760659Y-35560000D01*
X66740063Y-35324592D01*
X66678903Y-35096337D01*
X66579035Y-34882171D01*
X66561147Y-34856623D01*
X66443494Y-34688597D01*
X66276402Y-34521506D01*
X66276396Y-34521501D01*
X66090842Y-34391575D01*
X66047217Y-34336998D01*
X66040023Y-34267500D01*
X66071546Y-34205145D01*
X66090842Y-34188425D01*
X66156121Y-34142716D01*
X66276401Y-34058495D01*
X66443495Y-33891401D01*
X66579035Y-33697830D01*
X66678903Y-33483663D01*
X66740063Y-33255408D01*
X66760659Y-33020000D01*
X66760658Y-33019994D01*
X66751573Y-32916154D01*
X66740063Y-32784592D01*
X66678903Y-32556337D01*
X66579035Y-32342171D01*
X66561147Y-32316623D01*
X66443494Y-32148597D01*
X66276402Y-31981506D01*
X66276396Y-31981501D01*
X66090842Y-31851575D01*
X66047217Y-31796998D01*
X66040023Y-31727500D01*
X66071546Y-31665145D01*
X66090842Y-31648425D01*
X66144909Y-31610567D01*
X66276401Y-31518495D01*
X66443495Y-31351401D01*
X66579035Y-31157830D01*
X66678903Y-30943663D01*
X66740063Y-30715408D01*
X66760659Y-30480000D01*
X66740063Y-30244592D01*
X66678903Y-30016337D01*
X66579035Y-29802171D01*
X66567016Y-29785005D01*
X66567008Y-29784994D01*
X73424859Y-29784994D01*
X73424859Y-29785005D01*
X73445385Y-30032729D01*
X73445387Y-30032738D01*
X73506412Y-30273717D01*
X73606266Y-30501364D01*
X73706564Y-30654882D01*
X74447037Y-29914409D01*
X74464075Y-29977993D01*
X74529901Y-30092007D01*
X74622993Y-30185099D01*
X74737007Y-30250925D01*
X74800590Y-30267962D01*
X74059942Y-31008609D01*
X74106768Y-31045055D01*
X74106770Y-31045056D01*
X74325385Y-31163364D01*
X74325396Y-31163369D01*
X74560506Y-31244083D01*
X74805707Y-31285000D01*
X75054293Y-31285000D01*
X75299493Y-31244083D01*
X75534603Y-31163369D01*
X75534614Y-31163364D01*
X75753228Y-31045057D01*
X75753231Y-31045055D01*
X75800056Y-31008609D01*
X75059409Y-30267962D01*
X75122993Y-30250925D01*
X75237007Y-30185099D01*
X75330099Y-30092007D01*
X75395925Y-29977993D01*
X75412962Y-29914409D01*
X76153434Y-30654882D01*
X76253731Y-30501369D01*
X76353587Y-30273717D01*
X76414612Y-30032738D01*
X76414614Y-30032729D01*
X76435141Y-29785005D01*
X76435141Y-29784994D01*
X76414614Y-29537270D01*
X76414612Y-29537261D01*
X76353587Y-29296282D01*
X76253731Y-29068630D01*
X76153434Y-28915116D01*
X75412962Y-29655589D01*
X75395925Y-29592007D01*
X75330099Y-29477993D01*
X75237007Y-29384901D01*
X75122993Y-29319075D01*
X75059410Y-29302037D01*
X75786453Y-28574994D01*
X86819859Y-28574994D01*
X86819859Y-28575005D01*
X86840385Y-28822729D01*
X86840387Y-28822738D01*
X86901412Y-29063717D01*
X87001266Y-29291364D01*
X87101564Y-29444882D01*
X87842037Y-28704409D01*
X87859075Y-28767993D01*
X87924901Y-28882007D01*
X88017993Y-28975099D01*
X88132007Y-29040925D01*
X88195590Y-29057962D01*
X87454942Y-29798609D01*
X87501768Y-29835055D01*
X87501770Y-29835056D01*
X87720385Y-29953364D01*
X87720396Y-29953369D01*
X87955506Y-30034083D01*
X88200707Y-30075000D01*
X88449293Y-30075000D01*
X88694493Y-30034083D01*
X88929603Y-29953369D01*
X88929614Y-29953364D01*
X89148228Y-29835057D01*
X89148231Y-29835055D01*
X89195056Y-29798609D01*
X88454409Y-29057962D01*
X88517993Y-29040925D01*
X88632007Y-28975099D01*
X88725099Y-28882007D01*
X88790925Y-28767993D01*
X88807962Y-28704410D01*
X89548434Y-29444882D01*
X89648731Y-29291369D01*
X89748587Y-29063717D01*
X89809612Y-28822738D01*
X89809614Y-28822729D01*
X89830141Y-28575005D01*
X89830141Y-28574994D01*
X89809614Y-28327270D01*
X89809612Y-28327261D01*
X89748587Y-28086282D01*
X89648731Y-27858630D01*
X89548434Y-27705116D01*
X88807962Y-28445589D01*
X88790925Y-28382007D01*
X88725099Y-28267993D01*
X88632007Y-28174901D01*
X88517993Y-28109075D01*
X88454410Y-28092037D01*
X89195057Y-27351390D01*
X89195056Y-27351389D01*
X89148229Y-27314943D01*
X88929614Y-27196635D01*
X88929603Y-27196630D01*
X88694493Y-27115916D01*
X88449293Y-27075000D01*
X88200707Y-27075000D01*
X87955506Y-27115916D01*
X87720396Y-27196630D01*
X87720390Y-27196632D01*
X87501761Y-27314949D01*
X87454942Y-27351388D01*
X87454942Y-27351390D01*
X88195590Y-28092037D01*
X88132007Y-28109075D01*
X88017993Y-28174901D01*
X87924901Y-28267993D01*
X87859075Y-28382007D01*
X87842037Y-28445589D01*
X87101564Y-27705116D01*
X87001267Y-27858632D01*
X86901412Y-28086282D01*
X86840387Y-28327261D01*
X86840385Y-28327270D01*
X86819859Y-28574994D01*
X75786453Y-28574994D01*
X75800057Y-28561390D01*
X75800056Y-28561389D01*
X75753229Y-28524943D01*
X75534614Y-28406635D01*
X75534603Y-28406630D01*
X75299493Y-28325916D01*
X75054293Y-28285000D01*
X74805707Y-28285000D01*
X74560506Y-28325916D01*
X74325396Y-28406630D01*
X74325390Y-28406632D01*
X74106761Y-28524949D01*
X74059942Y-28561388D01*
X74059942Y-28561390D01*
X74800590Y-29302037D01*
X74737007Y-29319075D01*
X74622993Y-29384901D01*
X74529901Y-29477993D01*
X74464075Y-29592007D01*
X74447037Y-29655589D01*
X73706564Y-28915116D01*
X73606267Y-29068632D01*
X73506412Y-29296282D01*
X73445387Y-29537261D01*
X73445385Y-29537270D01*
X73424859Y-29784994D01*
X66567008Y-29784994D01*
X66443494Y-29608597D01*
X66276402Y-29441506D01*
X66276401Y-29441505D01*
X66090405Y-29311269D01*
X66046781Y-29256692D01*
X66039588Y-29187193D01*
X66071110Y-29124839D01*
X66090405Y-29108119D01*
X66276082Y-28978105D01*
X66443105Y-28811082D01*
X66578600Y-28617578D01*
X66678429Y-28403492D01*
X66678432Y-28403486D01*
X66735636Y-28190000D01*
X65838012Y-28190000D01*
X65870925Y-28132993D01*
X65905000Y-28005826D01*
X65905000Y-27874174D01*
X65870925Y-27747007D01*
X65838012Y-27690000D01*
X66735636Y-27690000D01*
X66735635Y-27689999D01*
X66678432Y-27476513D01*
X66678429Y-27476507D01*
X66578600Y-27262422D01*
X66578599Y-27262420D01*
X66443113Y-27068926D01*
X66443108Y-27068920D01*
X66276078Y-26901890D01*
X66090405Y-26771879D01*
X66046780Y-26717302D01*
X66039588Y-26647804D01*
X66071110Y-26585449D01*
X66090406Y-26568730D01*
X66187446Y-26500782D01*
X66276401Y-26438495D01*
X66294897Y-26419999D01*
X70476127Y-26419999D01*
X70476128Y-26420000D01*
X71439314Y-26420000D01*
X71434920Y-26424394D01*
X71382259Y-26515606D01*
X71355000Y-26617339D01*
X71355000Y-26722661D01*
X71382259Y-26824394D01*
X71434920Y-26915606D01*
X71439314Y-26920000D01*
X70476128Y-26920000D01*
X70528730Y-27116317D01*
X70528734Y-27116326D01*
X70624865Y-27322482D01*
X70755342Y-27508820D01*
X70916179Y-27669657D01*
X71102517Y-27800134D01*
X71308673Y-27896265D01*
X71308682Y-27896269D01*
X71504999Y-27948872D01*
X71505000Y-27948871D01*
X71505000Y-26985686D01*
X71509394Y-26990080D01*
X71600606Y-27042741D01*
X71702339Y-27070000D01*
X71807661Y-27070000D01*
X71909394Y-27042741D01*
X72000606Y-26990080D01*
X72005000Y-26985686D01*
X72005000Y-27948872D01*
X72201317Y-27896269D01*
X72201326Y-27896265D01*
X72407482Y-27800134D01*
X72593820Y-27669657D01*
X72754657Y-27508820D01*
X72885134Y-27322482D01*
X72981265Y-27116326D01*
X72981269Y-27116317D01*
X73033872Y-26920000D01*
X72070686Y-26920000D01*
X72075080Y-26915606D01*
X72127741Y-26824394D01*
X72155000Y-26722661D01*
X72155000Y-26617339D01*
X72127741Y-26515606D01*
X72075080Y-26424394D01*
X72070686Y-26420000D01*
X73033872Y-26420000D01*
X73033872Y-26419999D01*
X72981269Y-26223682D01*
X72981265Y-26223673D01*
X72885134Y-26017517D01*
X72754657Y-25831179D01*
X72593820Y-25670342D01*
X72407482Y-25539865D01*
X72201328Y-25443734D01*
X72005000Y-25391127D01*
X72005000Y-26354314D01*
X72000606Y-26349920D01*
X71909394Y-26297259D01*
X71807661Y-26270000D01*
X71702339Y-26270000D01*
X71600606Y-26297259D01*
X71509394Y-26349920D01*
X71505000Y-26354314D01*
X71505000Y-25391127D01*
X71308671Y-25443734D01*
X71102517Y-25539865D01*
X70916179Y-25670342D01*
X70755342Y-25831179D01*
X70624865Y-26017517D01*
X70528734Y-26223673D01*
X70528730Y-26223682D01*
X70476127Y-26419999D01*
X66294897Y-26419999D01*
X66443495Y-26271401D01*
X66579035Y-26077830D01*
X66678903Y-25863663D01*
X66740063Y-25635408D01*
X66760659Y-25400000D01*
X66740063Y-25164592D01*
X66678903Y-24936337D01*
X66579035Y-24722171D01*
X66443495Y-24528599D01*
X66321567Y-24406671D01*
X66288084Y-24345351D01*
X66293068Y-24275659D01*
X66334939Y-24219725D01*
X66365915Y-24202810D01*
X66497331Y-24153796D01*
X66612546Y-24067546D01*
X66698796Y-23952331D01*
X66749091Y-23817483D01*
X66755500Y-23757873D01*
X66755499Y-22975780D01*
X66775183Y-22908742D01*
X66791813Y-22888105D01*
X68323102Y-21356819D01*
X68384425Y-21323334D01*
X68410783Y-21320500D01*
X73538651Y-21320500D01*
X73605690Y-21340185D01*
X73651445Y-21392989D01*
X73661389Y-21462147D01*
X73642460Y-21512321D01*
X73605826Y-21568393D01*
X73505936Y-21796118D01*
X73444892Y-22037175D01*
X73444890Y-22037187D01*
X73424357Y-22284994D01*
X73424357Y-22285005D01*
X73444890Y-22532812D01*
X73444892Y-22532824D01*
X73505936Y-22773881D01*
X73605826Y-23001606D01*
X73741833Y-23209782D01*
X73741836Y-23209785D01*
X73910256Y-23392738D01*
X74106491Y-23545474D01*
X74325190Y-23663828D01*
X74521094Y-23731082D01*
X74554315Y-23742487D01*
X74560386Y-23744571D01*
X74805665Y-23785500D01*
X75054335Y-23785500D01*
X75299614Y-23744571D01*
X75534810Y-23663828D01*
X75753509Y-23545474D01*
X75949744Y-23392738D01*
X76118164Y-23209785D01*
X76254173Y-23001607D01*
X76354063Y-22773881D01*
X76415108Y-22532821D01*
X76418823Y-22487993D01*
X76435643Y-22285005D01*
X76435643Y-22284994D01*
X76415109Y-22037187D01*
X76415107Y-22037175D01*
X76354063Y-21796118D01*
X76254173Y-21568393D01*
X76217540Y-21512321D01*
X76197352Y-21445431D01*
X76216533Y-21378246D01*
X76268992Y-21332096D01*
X76321349Y-21320500D01*
X79165500Y-21320500D01*
X79232539Y-21340185D01*
X79278294Y-21392989D01*
X79289500Y-21444500D01*
X79289500Y-23192870D01*
X79289501Y-23192876D01*
X79295908Y-23252483D01*
X79346202Y-23387328D01*
X79346206Y-23387335D01*
X79432452Y-23502544D01*
X79432455Y-23502547D01*
X79547664Y-23588793D01*
X79547671Y-23588797D01*
X79682517Y-23639091D01*
X79682516Y-23639091D01*
X79689444Y-23639835D01*
X79742127Y-23645500D01*
X81537872Y-23645499D01*
X81597483Y-23639091D01*
X81732331Y-23588796D01*
X81847546Y-23502546D01*
X81933796Y-23387331D01*
X81983002Y-23255401D01*
X82024872Y-23199468D01*
X82090337Y-23175050D01*
X82158610Y-23189901D01*
X82186865Y-23211053D01*
X82308917Y-23333105D01*
X82502421Y-23468600D01*
X82716507Y-23568429D01*
X82716516Y-23568433D01*
X82930000Y-23625634D01*
X82930000Y-22728012D01*
X82987007Y-22760925D01*
X83114174Y-22795000D01*
X83245826Y-22795000D01*
X83372993Y-22760925D01*
X83430000Y-22728012D01*
X83430000Y-23625633D01*
X83643483Y-23568433D01*
X83643492Y-23568429D01*
X83857578Y-23468600D01*
X84051082Y-23333105D01*
X84218105Y-23166082D01*
X84353600Y-22972578D01*
X84453429Y-22758492D01*
X84453432Y-22758486D01*
X84510636Y-22545000D01*
X83613012Y-22545000D01*
X83645925Y-22487993D01*
X83680000Y-22360826D01*
X83680000Y-22229174D01*
X83645925Y-22102007D01*
X83613012Y-22045000D01*
X84510636Y-22045000D01*
X84510635Y-22044999D01*
X84453432Y-21831513D01*
X84453429Y-21831507D01*
X84353600Y-21617422D01*
X84353599Y-21617420D01*
X84282320Y-21515623D01*
X84259993Y-21449417D01*
X84277003Y-21381650D01*
X84327951Y-21333837D01*
X84383895Y-21320500D01*
X88487618Y-21320500D01*
X88554657Y-21340185D01*
X88600412Y-21392989D01*
X88610356Y-21462147D01*
X88581331Y-21525703D01*
X88522553Y-21563477D01*
X88519711Y-21564275D01*
X88436516Y-21586566D01*
X88436507Y-21586570D01*
X88222422Y-21686399D01*
X88222420Y-21686400D01*
X88028926Y-21821886D01*
X88028920Y-21821891D01*
X87861891Y-21988920D01*
X87861886Y-21988926D01*
X87726400Y-22182420D01*
X87726399Y-22182422D01*
X87626570Y-22396507D01*
X87626567Y-22396513D01*
X87569364Y-22609999D01*
X87569364Y-22610000D01*
X88466988Y-22610000D01*
X88434075Y-22667007D01*
X88400000Y-22794174D01*
X88400000Y-22925826D01*
X88434075Y-23052993D01*
X88466988Y-23110000D01*
X87569364Y-23110000D01*
X87626567Y-23323486D01*
X87626570Y-23323492D01*
X87726399Y-23537578D01*
X87861894Y-23731082D01*
X88028917Y-23898105D01*
X88222421Y-24033600D01*
X88436507Y-24133429D01*
X88436516Y-24133433D01*
X88650000Y-24190634D01*
X88650000Y-23293012D01*
X88707007Y-23325925D01*
X88834174Y-23360000D01*
X88965826Y-23360000D01*
X89092993Y-23325925D01*
X89150000Y-23293012D01*
X89150000Y-24190633D01*
X89363483Y-24133433D01*
X89363492Y-24133429D01*
X89577578Y-24033600D01*
X89771082Y-23898105D01*
X89938105Y-23731082D01*
X90068119Y-23545405D01*
X90122696Y-23501781D01*
X90192195Y-23494588D01*
X90254549Y-23526110D01*
X90271269Y-23545405D01*
X90401505Y-23731401D01*
X90401506Y-23731402D01*
X90403181Y-23733077D01*
X90403682Y-23733995D01*
X90404982Y-23735544D01*
X90404670Y-23735805D01*
X90436666Y-23794400D01*
X90439500Y-23820758D01*
X90439500Y-24228544D01*
X90477947Y-24421828D01*
X90477950Y-24421840D01*
X90484697Y-24438127D01*
X90553366Y-24603911D01*
X90553371Y-24603920D01*
X90662859Y-24767780D01*
X90662860Y-24767781D01*
X90662861Y-24767782D01*
X90802218Y-24907139D01*
X90802219Y-24907139D01*
X90809286Y-24914206D01*
X90809285Y-24914206D01*
X90809289Y-24914209D01*
X94290248Y-28395169D01*
X94323733Y-28456492D01*
X94326144Y-28493089D01*
X94319358Y-28574994D01*
X94319357Y-28575005D01*
X94339890Y-28822812D01*
X94339892Y-28822824D01*
X94400936Y-29063881D01*
X94500826Y-29291606D01*
X94636833Y-29499782D01*
X94636836Y-29499785D01*
X94791730Y-29668045D01*
X94822652Y-29730698D01*
X94824500Y-29752027D01*
X94824500Y-31842971D01*
X94804815Y-31910010D01*
X94791730Y-31926953D01*
X94636836Y-32095214D01*
X94500826Y-32303393D01*
X94400936Y-32531118D01*
X94339892Y-32772175D01*
X94339890Y-32772187D01*
X94319357Y-33019994D01*
X94319357Y-33020005D01*
X94339890Y-33267812D01*
X94339892Y-33267824D01*
X94400936Y-33508881D01*
X94500826Y-33736606D01*
X94636833Y-33944782D01*
X94636836Y-33944785D01*
X94791730Y-34113045D01*
X94822652Y-34175698D01*
X94824500Y-34197027D01*
X94824500Y-37153000D01*
X94804815Y-37220039D01*
X94752011Y-37265794D01*
X94700500Y-37277000D01*
X94112129Y-37277000D01*
X94112123Y-37277001D01*
X94052516Y-37283408D01*
X93917671Y-37333702D01*
X93917664Y-37333706D01*
X93802455Y-37419952D01*
X93802452Y-37419955D01*
X93716206Y-37535164D01*
X93716202Y-37535171D01*
X93665908Y-37670017D01*
X93659501Y-37729616D01*
X93659501Y-37729623D01*
X93659500Y-37729635D01*
X93659500Y-40225370D01*
X93659501Y-40225376D01*
X93665908Y-40284983D01*
X93716202Y-40419828D01*
X93716206Y-40419835D01*
X93802452Y-40535044D01*
X93802455Y-40535047D01*
X93917664Y-40621293D01*
X93917671Y-40621297D01*
X93920272Y-40622267D01*
X94052517Y-40671591D01*
X94112127Y-40678000D01*
X94235500Y-40677999D01*
X94302539Y-40697683D01*
X94348294Y-40750487D01*
X94359500Y-40801999D01*
X94359500Y-47684217D01*
X94339815Y-47751256D01*
X94323181Y-47771898D01*
X92797681Y-49297398D01*
X92736358Y-49330883D01*
X92666666Y-49325899D01*
X92622319Y-49297398D01*
X85874209Y-42549289D01*
X85874206Y-42549285D01*
X85874206Y-42549286D01*
X85867139Y-42542219D01*
X85867139Y-42542218D01*
X85727782Y-42402861D01*
X85727781Y-42402860D01*
X85727780Y-42402859D01*
X85563920Y-42293371D01*
X85563907Y-42293364D01*
X85415451Y-42231873D01*
X85381836Y-42217949D01*
X85381828Y-42217947D01*
X85277348Y-42197165D01*
X85247745Y-42191276D01*
X85188543Y-42179500D01*
X85188541Y-42179500D01*
X78982588Y-42179500D01*
X78915549Y-42159815D01*
X78911465Y-42157075D01*
X78900668Y-42149515D01*
X78757734Y-42049432D01*
X78724499Y-42033934D01*
X78551497Y-41953261D01*
X78551488Y-41953258D01*
X78331697Y-41894366D01*
X78331693Y-41894365D01*
X78331692Y-41894365D01*
X78331691Y-41894364D01*
X78331686Y-41894364D01*
X78105002Y-41874532D01*
X78104998Y-41874532D01*
X77878313Y-41894364D01*
X77878302Y-41894366D01*
X77658511Y-41953258D01*
X77658502Y-41953261D01*
X77452267Y-42049431D01*
X77452265Y-42049432D01*
X77265858Y-42179954D01*
X77104954Y-42340858D01*
X76974432Y-42527265D01*
X76974431Y-42527267D01*
X76878261Y-42733502D01*
X76878258Y-42733511D01*
X76819366Y-42953302D01*
X76819364Y-42953313D01*
X76799532Y-43179998D01*
X76799532Y-43180001D01*
X76819364Y-43406686D01*
X76819366Y-43406697D01*
X76878258Y-43626488D01*
X76878261Y-43626497D01*
X76974431Y-43832732D01*
X76974432Y-43832734D01*
X77104954Y-44019141D01*
X77265858Y-44180045D01*
X77265861Y-44180047D01*
X77452266Y-44310568D01*
X77658504Y-44406739D01*
X77658509Y-44406740D01*
X77658511Y-44406741D01*
X77711415Y-44420916D01*
X77878308Y-44465635D01*
X78040180Y-44479797D01*
X78104998Y-44485468D01*
X78105000Y-44485468D01*
X78105002Y-44485468D01*
X78161673Y-44480509D01*
X78331692Y-44465635D01*
X78551496Y-44406739D01*
X78757734Y-44310568D01*
X78911465Y-44202924D01*
X78977671Y-44180598D01*
X78982588Y-44180500D01*
X84624218Y-44180500D01*
X84691257Y-44200185D01*
X84711899Y-44216819D01*
X91328108Y-50833029D01*
X91361593Y-50894352D01*
X91363955Y-50909901D01*
X91374936Y-51035403D01*
X91374938Y-51035413D01*
X91436094Y-51263655D01*
X91436096Y-51263659D01*
X91436097Y-51263663D01*
X91523034Y-51450099D01*
X91535965Y-51477830D01*
X91535967Y-51477834D01*
X91588514Y-51552878D01*
X91671505Y-51671401D01*
X91838599Y-51838495D01*
X91881728Y-51868694D01*
X92032165Y-51974032D01*
X92032167Y-51974033D01*
X92032170Y-51974035D01*
X92246337Y-52073903D01*
X92474592Y-52135063D01*
X92651034Y-52150500D01*
X92709999Y-52155659D01*
X92710000Y-52155659D01*
X92710001Y-52155659D01*
X92768966Y-52150500D01*
X92945408Y-52135063D01*
X93173663Y-52073903D01*
X93387830Y-51974035D01*
X93581401Y-51838495D01*
X93748495Y-51671401D01*
X93884035Y-51477830D01*
X93983903Y-51263663D01*
X94045063Y-51035408D01*
X94056043Y-50909900D01*
X94081495Y-50844833D01*
X94091882Y-50833036D01*
X95997778Y-48927141D01*
X95997782Y-48927139D01*
X96137139Y-48787782D01*
X96246632Y-48623914D01*
X96322051Y-48441835D01*
X96334632Y-48378582D01*
X96360500Y-48248543D01*
X96360500Y-40801999D01*
X96380185Y-40734960D01*
X96432989Y-40689205D01*
X96484500Y-40677999D01*
X96607871Y-40677999D01*
X96607872Y-40677999D01*
X96667483Y-40671591D01*
X96802331Y-40621296D01*
X96917546Y-40535046D01*
X97003796Y-40419831D01*
X97054091Y-40284983D01*
X97060500Y-40225373D01*
X97060499Y-37729628D01*
X97054091Y-37670017D01*
X97047931Y-37653502D01*
X97003797Y-37535171D01*
X97003793Y-37535164D01*
X96922760Y-37426919D01*
X96917546Y-37419954D01*
X96917544Y-37419952D01*
X96917542Y-37419950D01*
X96875188Y-37388244D01*
X96833318Y-37332310D01*
X96825500Y-37288978D01*
X96825500Y-34197027D01*
X96845185Y-34129988D01*
X96858265Y-34113049D01*
X97013164Y-33944785D01*
X97149173Y-33736607D01*
X97249063Y-33508881D01*
X97310108Y-33267821D01*
X97311858Y-33246699D01*
X97330643Y-33020005D01*
X97330643Y-33019994D01*
X97310109Y-32772187D01*
X97310107Y-32772175D01*
X97249063Y-32531118D01*
X97149173Y-32303393D01*
X97069117Y-32180858D01*
X97013164Y-32095215D01*
X96990695Y-32070807D01*
X96858270Y-31926953D01*
X96827348Y-31864299D01*
X96825500Y-31842971D01*
X96825500Y-29752027D01*
X96845185Y-29684988D01*
X96858265Y-29668049D01*
X97013164Y-29499785D01*
X97149173Y-29291607D01*
X97249063Y-29063881D01*
X97310108Y-28822821D01*
X97313004Y-28787872D01*
X97330643Y-28575005D01*
X97330643Y-28574994D01*
X97310109Y-28327187D01*
X97310107Y-28327175D01*
X97249063Y-28086118D01*
X97149173Y-27858393D01*
X97013166Y-27650217D01*
X96944334Y-27575446D01*
X96844744Y-27467262D01*
X96648509Y-27314526D01*
X96648507Y-27314525D01*
X96648506Y-27314524D01*
X96429811Y-27196172D01*
X96429802Y-27196169D01*
X96194616Y-27115429D01*
X95949335Y-27074500D01*
X95850783Y-27074500D01*
X95783744Y-27054815D01*
X95763102Y-27038181D01*
X93147101Y-24422180D01*
X93113616Y-24360857D01*
X93118600Y-24291165D01*
X93160472Y-24235232D01*
X93225936Y-24210815D01*
X93234756Y-24210499D01*
X94877872Y-24210499D01*
X94937483Y-24204091D01*
X95072331Y-24153796D01*
X95187546Y-24067546D01*
X95273796Y-23952331D01*
X95277960Y-23941165D01*
X95319829Y-23885234D01*
X95385293Y-23860816D01*
X95394141Y-23860500D01*
X95419218Y-23860500D01*
X95486257Y-23880185D01*
X95506899Y-23896819D01*
X98023181Y-26413101D01*
X98056666Y-26474424D01*
X98059500Y-26500782D01*
X98059500Y-80814218D01*
X98039815Y-80881257D01*
X98023181Y-80901899D01*
X89021899Y-89903181D01*
X88960576Y-89936666D01*
X88934218Y-89939500D01*
X88775665Y-89939500D01*
X88530383Y-89980429D01*
X88295197Y-90061169D01*
X88295188Y-90061172D01*
X88076493Y-90179524D01*
X87880257Y-90332261D01*
X87711833Y-90515217D01*
X87575826Y-90723393D01*
X87475936Y-90951118D01*
X87414892Y-91192175D01*
X87414890Y-91192187D01*
X87394438Y-91439017D01*
X87394357Y-91440000D01*
X87396553Y-91466502D01*
X87382470Y-91534938D01*
X87360657Y-91564421D01*
X85981899Y-92943181D01*
X85920576Y-92976666D01*
X85894218Y-92979500D01*
X84944500Y-92979500D01*
X84877461Y-92959815D01*
X84831706Y-92907011D01*
X84820500Y-92855500D01*
X84820500Y-92214499D01*
X84840185Y-92147460D01*
X84892989Y-92101705D01*
X84944500Y-92090499D01*
X85622871Y-92090499D01*
X85622872Y-92090499D01*
X85682483Y-92084091D01*
X85817331Y-92033796D01*
X85932546Y-91947546D01*
X86018796Y-91832331D01*
X86069091Y-91697483D01*
X86075500Y-91637873D01*
X86075499Y-89002128D01*
X86069091Y-88942517D01*
X86053600Y-88900984D01*
X86018797Y-88807671D01*
X86018793Y-88807664D01*
X85932547Y-88692455D01*
X85932544Y-88692452D01*
X85817335Y-88606206D01*
X85817328Y-88606202D01*
X85682482Y-88555908D01*
X85682483Y-88555908D01*
X85622883Y-88549501D01*
X85622881Y-88549500D01*
X85622873Y-88549500D01*
X85622864Y-88549500D01*
X82017129Y-88549500D01*
X82017123Y-88549501D01*
X81957516Y-88555908D01*
X81822671Y-88606202D01*
X81822664Y-88606206D01*
X81707455Y-88692452D01*
X81707452Y-88692455D01*
X81621206Y-88807664D01*
X81621202Y-88807671D01*
X81570908Y-88942517D01*
X81564501Y-89002116D01*
X81564501Y-89002123D01*
X81564500Y-89002135D01*
X81564500Y-91637870D01*
X81564501Y-91637876D01*
X81570908Y-91697483D01*
X81621202Y-91832328D01*
X81621206Y-91832335D01*
X81707452Y-91947544D01*
X81707455Y-91947547D01*
X81822664Y-92033793D01*
X81822671Y-92033797D01*
X81957517Y-92084091D01*
X81957516Y-92084091D01*
X81964444Y-92084835D01*
X82017127Y-92090500D01*
X82695500Y-92090499D01*
X82762539Y-92110183D01*
X82808294Y-92162987D01*
X82819500Y-92214499D01*
X82819500Y-92855500D01*
X82799815Y-92922539D01*
X82747011Y-92968294D01*
X82695500Y-92979500D01*
X81894751Y-92979500D01*
X81827712Y-92959815D01*
X81795485Y-92929812D01*
X81752548Y-92872457D01*
X81752546Y-92872454D01*
X81752542Y-92872451D01*
X81637335Y-92786206D01*
X81637328Y-92786202D01*
X81502482Y-92735908D01*
X81502483Y-92735908D01*
X81442883Y-92729501D01*
X81442881Y-92729500D01*
X81442873Y-92729500D01*
X81442864Y-92729500D01*
X79847129Y-92729500D01*
X79847123Y-92729501D01*
X79787516Y-92735908D01*
X79652671Y-92786202D01*
X79652664Y-92786206D01*
X79537455Y-92872452D01*
X79537452Y-92872455D01*
X79451206Y-92987664D01*
X79451202Y-92987671D01*
X79400908Y-93122517D01*
X79394501Y-93182116D01*
X79394500Y-93182135D01*
X79394500Y-94777870D01*
X79394501Y-94777876D01*
X79400908Y-94837483D01*
X79451202Y-94972328D01*
X79451206Y-94972335D01*
X79537452Y-95087544D01*
X79537455Y-95087547D01*
X79652664Y-95173793D01*
X79652671Y-95173797D01*
X79787517Y-95224091D01*
X79787516Y-95224091D01*
X79794444Y-95224835D01*
X79847127Y-95230500D01*
X81442872Y-95230499D01*
X81502483Y-95224091D01*
X81637331Y-95173796D01*
X81752546Y-95087546D01*
X81779227Y-95051903D01*
X81795485Y-95030188D01*
X81851419Y-94988318D01*
X81894751Y-94980500D01*
X83721459Y-94980500D01*
X86261459Y-94980500D01*
X86261460Y-94980500D01*
X86458540Y-94980500D01*
X89823023Y-94980500D01*
X89890062Y-95000185D01*
X89935817Y-95052989D01*
X89943266Y-95080134D01*
X89944124Y-95079932D01*
X89945907Y-95087479D01*
X89996202Y-95222328D01*
X89996206Y-95222335D01*
X90082452Y-95337544D01*
X90082455Y-95337547D01*
X90197664Y-95423793D01*
X90197671Y-95423797D01*
X90332517Y-95474091D01*
X90332516Y-95474091D01*
X90339444Y-95474835D01*
X90392127Y-95480500D01*
X92487872Y-95480499D01*
X92547483Y-95474091D01*
X92682331Y-95423796D01*
X92797546Y-95337546D01*
X92883796Y-95222331D01*
X92934091Y-95087483D01*
X92940500Y-95027873D01*
X92940499Y-93473038D01*
X97078500Y-93473038D01*
X97078500Y-93724961D01*
X97117910Y-93973785D01*
X97195760Y-94213383D01*
X97310132Y-94437848D01*
X97458201Y-94641649D01*
X97458205Y-94641654D01*
X97636345Y-94819794D01*
X97636350Y-94819798D01*
X97814117Y-94948952D01*
X97840155Y-94967870D01*
X97962461Y-95030188D01*
X98064616Y-95082239D01*
X98064618Y-95082239D01*
X98064621Y-95082241D01*
X98304215Y-95160090D01*
X98553038Y-95199500D01*
X98553039Y-95199500D01*
X98804961Y-95199500D01*
X98804962Y-95199500D01*
X99053785Y-95160090D01*
X99293379Y-95082241D01*
X99517845Y-94967870D01*
X99721656Y-94819793D01*
X99899793Y-94641656D01*
X100047870Y-94437845D01*
X100162241Y-94213379D01*
X100240090Y-93973785D01*
X100279500Y-93724962D01*
X100279500Y-93473038D01*
X100240090Y-93224215D01*
X100162241Y-92984621D01*
X100162239Y-92984618D01*
X100162239Y-92984616D01*
X100105121Y-92872516D01*
X100047870Y-92760155D01*
X100004509Y-92700474D01*
X99899798Y-92556350D01*
X99899794Y-92556345D01*
X99721654Y-92378205D01*
X99721649Y-92378201D01*
X99517848Y-92230132D01*
X99517847Y-92230131D01*
X99517845Y-92230130D01*
X99447747Y-92194413D01*
X99293383Y-92115760D01*
X99053785Y-92037910D01*
X99027791Y-92033793D01*
X98804962Y-91998500D01*
X98553038Y-91998500D01*
X98527209Y-92002591D01*
X98304214Y-92037910D01*
X98064616Y-92115760D01*
X97840151Y-92230132D01*
X97636350Y-92378201D01*
X97636345Y-92378205D01*
X97458205Y-92556345D01*
X97458201Y-92556350D01*
X97310132Y-92760151D01*
X97195760Y-92984616D01*
X97117910Y-93224214D01*
X97078500Y-93473038D01*
X92940499Y-93473038D01*
X92940499Y-92932128D01*
X92934091Y-92872517D01*
X92934066Y-92872451D01*
X92883797Y-92737671D01*
X92883793Y-92737664D01*
X92797547Y-92622455D01*
X92797544Y-92622452D01*
X92682335Y-92536206D01*
X92682328Y-92536202D01*
X92547482Y-92485908D01*
X92547483Y-92485908D01*
X92487883Y-92479501D01*
X92487881Y-92479500D01*
X92487873Y-92479500D01*
X92487864Y-92479500D01*
X90392129Y-92479500D01*
X90392123Y-92479501D01*
X90332515Y-92485909D01*
X90258302Y-92513588D01*
X90188610Y-92518572D01*
X90127288Y-92485086D01*
X90093803Y-92423763D01*
X90098789Y-92354071D01*
X90111157Y-92329589D01*
X90224173Y-92156607D01*
X90324063Y-91928881D01*
X90385108Y-91687821D01*
X90387115Y-91663598D01*
X90405643Y-91440004D01*
X90405643Y-91439995D01*
X90403447Y-91413498D01*
X90417527Y-91345062D01*
X90439339Y-91315579D01*
X99697778Y-82057141D01*
X99697782Y-82057139D01*
X99837139Y-81917782D01*
X99946632Y-81753914D01*
X100022051Y-81571835D01*
X100042271Y-81470185D01*
X100060500Y-81378543D01*
X100060500Y-25936456D01*
X100022052Y-25743170D01*
X100022051Y-25743169D01*
X100022051Y-25743165D01*
X99977415Y-25635403D01*
X99946635Y-25561092D01*
X99946628Y-25561079D01*
X99837139Y-25397218D01*
X99837136Y-25397214D01*
X99694686Y-25254764D01*
X99694655Y-25254735D01*
X96666479Y-22226559D01*
X96666459Y-22226537D01*
X96522785Y-22082863D01*
X96522781Y-22082860D01*
X96358920Y-21973371D01*
X96358911Y-21973366D01*
X96266805Y-21935215D01*
X96230165Y-21920038D01*
X96203500Y-21908993D01*
X96176837Y-21897949D01*
X96176833Y-21897948D01*
X96056316Y-21873976D01*
X96032057Y-21869150D01*
X95983543Y-21859500D01*
X95983541Y-21859500D01*
X95394141Y-21859500D01*
X95327102Y-21839815D01*
X95281347Y-21787011D01*
X95277969Y-21778859D01*
X95273796Y-21767669D01*
X95273793Y-21767665D01*
X95273793Y-21767664D01*
X95187547Y-21652455D01*
X95187544Y-21652452D01*
X95072335Y-21566206D01*
X95072328Y-21566202D01*
X94937482Y-21515908D01*
X94937483Y-21515908D01*
X94877883Y-21509501D01*
X94877881Y-21509500D01*
X94877873Y-21509500D01*
X94877864Y-21509500D01*
X93082129Y-21509500D01*
X93082123Y-21509501D01*
X93022516Y-21515908D01*
X92887671Y-21566202D01*
X92887664Y-21566206D01*
X92772455Y-21652452D01*
X92772452Y-21652455D01*
X92686206Y-21767664D01*
X92686202Y-21767671D01*
X92680682Y-21782473D01*
X92638811Y-21838407D01*
X92573346Y-21862824D01*
X92505073Y-21847972D01*
X92455668Y-21798567D01*
X92440500Y-21739140D01*
X92440500Y-21491458D01*
X92440499Y-21491457D01*
X92414394Y-21360215D01*
X92402051Y-21298164D01*
X92379961Y-21244834D01*
X92379961Y-21244833D01*
X92326635Y-21116092D01*
X92326628Y-21116079D01*
X92217139Y-20952218D01*
X92217136Y-20952214D01*
X92074686Y-20809764D01*
X92074655Y-20809735D01*
X91839958Y-20575038D01*
X97078500Y-20575038D01*
X97078500Y-20826961D01*
X97117910Y-21075785D01*
X97195760Y-21315383D01*
X97252909Y-21427542D01*
X97302924Y-21525703D01*
X97310132Y-21539848D01*
X97458201Y-21743649D01*
X97458205Y-21743654D01*
X97636345Y-21921794D01*
X97636350Y-21921798D01*
X97795171Y-22037187D01*
X97840155Y-22069870D01*
X97983184Y-22142747D01*
X98064616Y-22184239D01*
X98064618Y-22184239D01*
X98064621Y-22184241D01*
X98304215Y-22262090D01*
X98553038Y-22301500D01*
X98553039Y-22301500D01*
X98804961Y-22301500D01*
X98804962Y-22301500D01*
X99053785Y-22262090D01*
X99293379Y-22184241D01*
X99517845Y-22069870D01*
X99721656Y-21921793D01*
X99899793Y-21743656D01*
X100047870Y-21539845D01*
X100162241Y-21315379D01*
X100240090Y-21075785D01*
X100279500Y-20826962D01*
X100279500Y-20575038D01*
X100240090Y-20326215D01*
X100162241Y-20086621D01*
X100162239Y-20086618D01*
X100162239Y-20086616D01*
X100101009Y-19966447D01*
X100047870Y-19862155D01*
X99985919Y-19776886D01*
X99899798Y-19658350D01*
X99899794Y-19658345D01*
X99721654Y-19480205D01*
X99721649Y-19480201D01*
X99517848Y-19332132D01*
X99517847Y-19332131D01*
X99517845Y-19332130D01*
X99447747Y-19296413D01*
X99293383Y-19217760D01*
X99053785Y-19139910D01*
X98970059Y-19126649D01*
X98804962Y-19100500D01*
X98553038Y-19100500D01*
X98428626Y-19120205D01*
X98304214Y-19139910D01*
X98064616Y-19217760D01*
X97840151Y-19332132D01*
X97636350Y-19480201D01*
X97636345Y-19480205D01*
X97458205Y-19658345D01*
X97458201Y-19658350D01*
X97310132Y-19862151D01*
X97195760Y-20086616D01*
X97117910Y-20326214D01*
X97078500Y-20575038D01*
X91839958Y-20575038D01*
X90951479Y-19686559D01*
X90951459Y-19686537D01*
X90807785Y-19542863D01*
X90807781Y-19542860D01*
X90643920Y-19433371D01*
X90643911Y-19433366D01*
X90571315Y-19403296D01*
X90515165Y-19380038D01*
X90461836Y-19357949D01*
X90461832Y-19357948D01*
X90461828Y-19357946D01*
X90365188Y-19338724D01*
X90268544Y-19319500D01*
X90268541Y-19319500D01*
X81378541Y-19319500D01*
X80743541Y-19319500D01*
X75663541Y-19319500D01*
X75028541Y-19319500D01*
X74393541Y-19319500D01*
X73758541Y-19319500D01*
X68043540Y-19319500D01*
X67846459Y-19319500D01*
X67846456Y-19319500D01*
X67653171Y-19357946D01*
X67653167Y-19357948D01*
X67653165Y-19357948D01*
X67653164Y-19357949D01*
X67577745Y-19389188D01*
X67577743Y-19389189D01*
X67471089Y-19433366D01*
X67471079Y-19433371D01*
X67338250Y-19522125D01*
X67338249Y-19522127D01*
X67322859Y-19532410D01*
X67307212Y-19542865D01*
X65376897Y-21473181D01*
X65315574Y-21506666D01*
X65289216Y-21509500D01*
X64507129Y-21509500D01*
X64507123Y-21509501D01*
X64447516Y-21515908D01*
X64312671Y-21566202D01*
X64312664Y-21566206D01*
X64197455Y-21652452D01*
X64197452Y-21652455D01*
X64111206Y-21767664D01*
X64111204Y-21767668D01*
X64111204Y-21767669D01*
X64107039Y-21778834D01*
X64065171Y-21834766D01*
X63999707Y-21859184D01*
X63990859Y-21859500D01*
X58322855Y-21859500D01*
X58255816Y-21839815D01*
X58231625Y-21819483D01*
X58183270Y-21766955D01*
X58152348Y-21704300D01*
X58150500Y-21682972D01*
X58150500Y-21491458D01*
X58150499Y-21491457D01*
X58124394Y-21360215D01*
X58112051Y-21298164D01*
X58089961Y-21244834D01*
X58089961Y-21244833D01*
X58036635Y-21116092D01*
X58036628Y-21116079D01*
X57927139Y-20952218D01*
X57927136Y-20952214D01*
X57784686Y-20809764D01*
X57784655Y-20809735D01*
X56661479Y-19686559D01*
X56661459Y-19686537D01*
X56517785Y-19542863D01*
X56517781Y-19542860D01*
X56353920Y-19433371D01*
X56353911Y-19433366D01*
X56281315Y-19403296D01*
X56225165Y-19380038D01*
X56171836Y-19357949D01*
X56171832Y-19357948D01*
X56171828Y-19357946D01*
X56075188Y-19338724D01*
X55978544Y-19319500D01*
X55978541Y-19319500D01*
X52684751Y-19319500D01*
X52617712Y-19299815D01*
X52585485Y-19269812D01*
X52542548Y-19212457D01*
X52542546Y-19212454D01*
X52542542Y-19212451D01*
X52427335Y-19126206D01*
X52427328Y-19126202D01*
X52292482Y-19075908D01*
X52292483Y-19075908D01*
X52232883Y-19069501D01*
X52232881Y-19069500D01*
X52232873Y-19069500D01*
X52232864Y-19069500D01*
X50637129Y-19069500D01*
X50637123Y-19069501D01*
X50577516Y-19075908D01*
X50442671Y-19126202D01*
X50442664Y-19126206D01*
X50327457Y-19212451D01*
X50327451Y-19212457D01*
X50284515Y-19269812D01*
X50228581Y-19311682D01*
X50185249Y-19319500D01*
X49241977Y-19319500D01*
X49174938Y-19299815D01*
X49129183Y-19247011D01*
X49121733Y-19219865D01*
X49120876Y-19220068D01*
X49119092Y-19212520D01*
X49119067Y-19212454D01*
X49086898Y-19126202D01*
X49068797Y-19077671D01*
X49068793Y-19077664D01*
X48982547Y-18962455D01*
X48982544Y-18962452D01*
X48867335Y-18876206D01*
X48867328Y-18876202D01*
X48732482Y-18825908D01*
X48732483Y-18825908D01*
X48672883Y-18819501D01*
X48672881Y-18819500D01*
X48672873Y-18819500D01*
X48672864Y-18819500D01*
X46577129Y-18819500D01*
X46577123Y-18819501D01*
X46517516Y-18825908D01*
X46382671Y-18876202D01*
X46382664Y-18876206D01*
X46267455Y-18962452D01*
X46267452Y-18962455D01*
X46181206Y-19077664D01*
X46181202Y-19077671D01*
X46130908Y-19212517D01*
X46124501Y-19272116D01*
X46124500Y-19272135D01*
X44966600Y-19272135D01*
X44922190Y-19212812D01*
X44922187Y-19212809D01*
X44807093Y-19126649D01*
X44807086Y-19126645D01*
X44672379Y-19076403D01*
X44672372Y-19076401D01*
X44612844Y-19070000D01*
X44065000Y-19070000D01*
X44065000Y-20070000D01*
X43565000Y-20070000D01*
X43565000Y-19070000D01*
X43017155Y-19070000D01*
X42957627Y-19076401D01*
X42957620Y-19076403D01*
X42822913Y-19126645D01*
X42822906Y-19126649D01*
X42707812Y-19212809D01*
X42707809Y-19212812D01*
X42621649Y-19327906D01*
X42621645Y-19327913D01*
X42571403Y-19462620D01*
X42571401Y-19462627D01*
X42565000Y-19522155D01*
X41275500Y-19522155D01*
X41228434Y-19450116D01*
X40487962Y-20190589D01*
X40470925Y-20127007D01*
X40405099Y-20012993D01*
X40312007Y-19919901D01*
X40197993Y-19854075D01*
X40134410Y-19837037D01*
X40875057Y-19096390D01*
X40875056Y-19096389D01*
X40828229Y-19059943D01*
X40609614Y-18941635D01*
X40609603Y-18941630D01*
X40374493Y-18860916D01*
X40129293Y-18820000D01*
X39880707Y-18820000D01*
X39635506Y-18860916D01*
X39400396Y-18941630D01*
X39400390Y-18941632D01*
X39181761Y-19059949D01*
X39134942Y-19096388D01*
X39134942Y-19096390D01*
X39875590Y-19837037D01*
X39812007Y-19854075D01*
X39697993Y-19919901D01*
X39604901Y-20012993D01*
X39539075Y-20127007D01*
X39522037Y-20190589D01*
X38781564Y-19450116D01*
X38681267Y-19603632D01*
X38581412Y-19831282D01*
X38520387Y-20072261D01*
X38520385Y-20072270D01*
X38499859Y-20319994D01*
X32420069Y-20319994D01*
X32344241Y-20086621D01*
X32344239Y-20086618D01*
X32344239Y-20086616D01*
X32283009Y-19966447D01*
X32229870Y-19862155D01*
X32167919Y-19776886D01*
X32081798Y-19658350D01*
X32081794Y-19658345D01*
X31903654Y-19480205D01*
X31903649Y-19480201D01*
X31699848Y-19332132D01*
X31699847Y-19332131D01*
X31699845Y-19332130D01*
X31629747Y-19296413D01*
X31475383Y-19217760D01*
X31235785Y-19139910D01*
X31152059Y-19126649D01*
X30986962Y-19100500D01*
X30735038Y-19100500D01*
X30610626Y-19120205D01*
X30486214Y-19139910D01*
X30246616Y-19217760D01*
X30022151Y-19332132D01*
X29818350Y-19480201D01*
X29818345Y-19480205D01*
X29640205Y-19658345D01*
X29640201Y-19658350D01*
X29492132Y-19862151D01*
X29377760Y-20086616D01*
X29299910Y-20326214D01*
X29260500Y-20575038D01*
X28240500Y-20575038D01*
X28240500Y-20323750D01*
X28240726Y-20316263D01*
X28250149Y-20160481D01*
X28256375Y-20057540D01*
X28258180Y-20042679D01*
X28263621Y-20012993D01*
X28304225Y-19791420D01*
X28307803Y-19776906D01*
X28383805Y-19533004D01*
X28389102Y-19519038D01*
X28493949Y-19286077D01*
X28500894Y-19272845D01*
X28633056Y-19054223D01*
X28641543Y-19041927D01*
X28799093Y-18840829D01*
X28809008Y-18829638D01*
X28989638Y-18649008D01*
X29000829Y-18639093D01*
X29201927Y-18481543D01*
X29214223Y-18473056D01*
X29432845Y-18340894D01*
X29446077Y-18333949D01*
X29679038Y-18229102D01*
X29693004Y-18223805D01*
X29936906Y-18147803D01*
X29951420Y-18144225D01*
X30202683Y-18098179D01*
X30217540Y-18096375D01*
X30476264Y-18080726D01*
X30483751Y-18080500D01*
X30527595Y-18080500D01*
X99012405Y-18080500D01*
X99056249Y-18080500D01*
X99063736Y-18080726D01*
G37*
%TD.AperFunction*%
%TD*%
M02*
