%TF.GenerationSoftware,KiCad,Pcbnew,7.0.10*%
%TF.CreationDate,2024-02-19T19:24:59+01:00*%
%TF.ProjectId,lightning_detector,6c696768-746e-4696-9e67-5f6465746563,rev?*%
%TF.SameCoordinates,Original*%
%TF.FileFunction,Legend,Top*%
%TF.FilePolarity,Positive*%
%FSLAX46Y46*%
G04 Gerber Fmt 4.6, Leading zero omitted, Abs format (unit mm)*
G04 Created by KiCad (PCBNEW 7.0.10) date 2024-02-19 19:24:59*
%MOMM*%
%LPD*%
G01*
G04 APERTURE LIST*
G04 Aperture macros list*
%AMRoundRect*
0 Rectangle with rounded corners*
0 $1 Rounding radius*
0 $2 $3 $4 $5 $6 $7 $8 $9 X,Y pos of 4 corners*
0 Add a 4 corners polygon primitive as box body*
4,1,4,$2,$3,$4,$5,$6,$7,$8,$9,$2,$3,0*
0 Add four circle primitives for the rounded corners*
1,1,$1+$1,$2,$3*
1,1,$1+$1,$4,$5*
1,1,$1+$1,$6,$7*
1,1,$1+$1,$8,$9*
0 Add four rect primitives between the rounded corners*
20,1,$1+$1,$2,$3,$4,$5,0*
20,1,$1+$1,$4,$5,$6,$7,0*
20,1,$1+$1,$6,$7,$8,$9,0*
20,1,$1+$1,$8,$9,$2,$3,0*%
G04 Aperture macros list end*
%ADD10C,0.150000*%
%ADD11C,0.200000*%
%ADD12C,0.120000*%
%ADD13C,2.700000*%
%ADD14C,2.000000*%
%ADD15RoundRect,0.150000X0.587500X0.150000X-0.587500X0.150000X-0.587500X-0.150000X0.587500X-0.150000X0*%
%ADD16R,1.600000X1.600000*%
%ADD17O,1.600000X1.600000*%
%ADD18R,2.000000X2.000000*%
%ADD19R,1.500000X1.500000*%
%ADD20RoundRect,0.249900X-0.600100X-0.600100X0.600100X-0.600100X0.600100X0.600100X-0.600100X0.600100X0*%
%ADD21C,1.700000*%
%ADD22R,1.300000X1.300000*%
%ADD23C,1.300000*%
%ADD24C,1.600000*%
%ADD25R,2.400000X2.400000*%
%ADD26O,2.400000X2.400000*%
%ADD27RoundRect,0.250000X0.750000X-0.250000X0.750000X0.250000X-0.750000X0.250000X-0.750000X-0.250000X0*%
%ADD28R,1.700000X1.700000*%
%ADD29O,1.700000X1.700000*%
%ADD30R,3.510000X2.540000*%
G04 APERTURE END LIST*
D10*
X52686600Y-95278580D02*
X52638981Y-95326200D01*
X52638981Y-95326200D02*
X52496124Y-95373819D01*
X52496124Y-95373819D02*
X52400886Y-95373819D01*
X52400886Y-95373819D02*
X52258029Y-95326200D01*
X52258029Y-95326200D02*
X52162791Y-95230961D01*
X52162791Y-95230961D02*
X52115172Y-95135723D01*
X52115172Y-95135723D02*
X52067553Y-94945247D01*
X52067553Y-94945247D02*
X52067553Y-94802390D01*
X52067553Y-94802390D02*
X52115172Y-94611914D01*
X52115172Y-94611914D02*
X52162791Y-94516676D01*
X52162791Y-94516676D02*
X52258029Y-94421438D01*
X52258029Y-94421438D02*
X52400886Y-94373819D01*
X52400886Y-94373819D02*
X52496124Y-94373819D01*
X52496124Y-94373819D02*
X52638981Y-94421438D01*
X52638981Y-94421438D02*
X52686600Y-94469057D01*
X53591362Y-95373819D02*
X53115172Y-95373819D01*
X53115172Y-95373819D02*
X53115172Y-94373819D01*
X54496124Y-95373819D02*
X54162791Y-94897628D01*
X53924696Y-95373819D02*
X53924696Y-94373819D01*
X53924696Y-94373819D02*
X54305648Y-94373819D01*
X54305648Y-94373819D02*
X54400886Y-94421438D01*
X54400886Y-94421438D02*
X54448505Y-94469057D01*
X54448505Y-94469057D02*
X54496124Y-94564295D01*
X54496124Y-94564295D02*
X54496124Y-94707152D01*
X54496124Y-94707152D02*
X54448505Y-94802390D01*
X54448505Y-94802390D02*
X54400886Y-94850009D01*
X54400886Y-94850009D02*
X54305648Y-94897628D01*
X54305648Y-94897628D02*
X53924696Y-94897628D01*
X55972315Y-95754771D02*
X55924696Y-95707152D01*
X55924696Y-95707152D02*
X55829458Y-95564295D01*
X55829458Y-95564295D02*
X55781839Y-95469057D01*
X55781839Y-95469057D02*
X55734220Y-95326200D01*
X55734220Y-95326200D02*
X55686601Y-95088104D01*
X55686601Y-95088104D02*
X55686601Y-94897628D01*
X55686601Y-94897628D02*
X55734220Y-94659533D01*
X55734220Y-94659533D02*
X55781839Y-94516676D01*
X55781839Y-94516676D02*
X55829458Y-94421438D01*
X55829458Y-94421438D02*
X55924696Y-94278580D01*
X55924696Y-94278580D02*
X55972315Y-94230961D01*
X56353268Y-95373819D02*
X56353268Y-94373819D01*
X56353268Y-94373819D02*
X56591363Y-94373819D01*
X56591363Y-94373819D02*
X56734220Y-94421438D01*
X56734220Y-94421438D02*
X56829458Y-94516676D01*
X56829458Y-94516676D02*
X56877077Y-94611914D01*
X56877077Y-94611914D02*
X56924696Y-94802390D01*
X56924696Y-94802390D02*
X56924696Y-94945247D01*
X56924696Y-94945247D02*
X56877077Y-95135723D01*
X56877077Y-95135723D02*
X56829458Y-95230961D01*
X56829458Y-95230961D02*
X56734220Y-95326200D01*
X56734220Y-95326200D02*
X56591363Y-95373819D01*
X56591363Y-95373819D02*
X56353268Y-95373819D01*
X57353268Y-95373819D02*
X57353268Y-94373819D01*
X57781839Y-95326200D02*
X57924696Y-95373819D01*
X57924696Y-95373819D02*
X58162791Y-95373819D01*
X58162791Y-95373819D02*
X58258029Y-95326200D01*
X58258029Y-95326200D02*
X58305648Y-95278580D01*
X58305648Y-95278580D02*
X58353267Y-95183342D01*
X58353267Y-95183342D02*
X58353267Y-95088104D01*
X58353267Y-95088104D02*
X58305648Y-94992866D01*
X58305648Y-94992866D02*
X58258029Y-94945247D01*
X58258029Y-94945247D02*
X58162791Y-94897628D01*
X58162791Y-94897628D02*
X57972315Y-94850009D01*
X57972315Y-94850009D02*
X57877077Y-94802390D01*
X57877077Y-94802390D02*
X57829458Y-94754771D01*
X57829458Y-94754771D02*
X57781839Y-94659533D01*
X57781839Y-94659533D02*
X57781839Y-94564295D01*
X57781839Y-94564295D02*
X57829458Y-94469057D01*
X57829458Y-94469057D02*
X57877077Y-94421438D01*
X57877077Y-94421438D02*
X57972315Y-94373819D01*
X57972315Y-94373819D02*
X58210410Y-94373819D01*
X58210410Y-94373819D02*
X58353267Y-94421438D01*
X58638982Y-94373819D02*
X59210410Y-94373819D01*
X58924696Y-95373819D02*
X58924696Y-94373819D01*
X59448506Y-95754771D02*
X59496125Y-95707152D01*
X59496125Y-95707152D02*
X59591363Y-95564295D01*
X59591363Y-95564295D02*
X59638982Y-95469057D01*
X59638982Y-95469057D02*
X59686601Y-95326200D01*
X59686601Y-95326200D02*
X59734220Y-95088104D01*
X59734220Y-95088104D02*
X59734220Y-94897628D01*
X59734220Y-94897628D02*
X59686601Y-94659533D01*
X59686601Y-94659533D02*
X59638982Y-94516676D01*
X59638982Y-94516676D02*
X59591363Y-94421438D01*
X59591363Y-94421438D02*
X59496125Y-94278580D01*
X59496125Y-94278580D02*
X59448506Y-94230961D01*
X65233779Y-95373819D02*
X65233779Y-94373819D01*
X65233779Y-94373819D02*
X65471874Y-94373819D01*
X65471874Y-94373819D02*
X65614731Y-94421438D01*
X65614731Y-94421438D02*
X65709969Y-94516676D01*
X65709969Y-94516676D02*
X65757588Y-94611914D01*
X65757588Y-94611914D02*
X65805207Y-94802390D01*
X65805207Y-94802390D02*
X65805207Y-94945247D01*
X65805207Y-94945247D02*
X65757588Y-95135723D01*
X65757588Y-95135723D02*
X65709969Y-95230961D01*
X65709969Y-95230961D02*
X65614731Y-95326200D01*
X65614731Y-95326200D02*
X65471874Y-95373819D01*
X65471874Y-95373819D02*
X65233779Y-95373819D01*
X66186160Y-95326200D02*
X66329017Y-95373819D01*
X66329017Y-95373819D02*
X66567112Y-95373819D01*
X66567112Y-95373819D02*
X66662350Y-95326200D01*
X66662350Y-95326200D02*
X66709969Y-95278580D01*
X66709969Y-95278580D02*
X66757588Y-95183342D01*
X66757588Y-95183342D02*
X66757588Y-95088104D01*
X66757588Y-95088104D02*
X66709969Y-94992866D01*
X66709969Y-94992866D02*
X66662350Y-94945247D01*
X66662350Y-94945247D02*
X66567112Y-94897628D01*
X66567112Y-94897628D02*
X66376636Y-94850009D01*
X66376636Y-94850009D02*
X66281398Y-94802390D01*
X66281398Y-94802390D02*
X66233779Y-94754771D01*
X66233779Y-94754771D02*
X66186160Y-94659533D01*
X66186160Y-94659533D02*
X66186160Y-94564295D01*
X66186160Y-94564295D02*
X66233779Y-94469057D01*
X66233779Y-94469057D02*
X66281398Y-94421438D01*
X66281398Y-94421438D02*
X66376636Y-94373819D01*
X66376636Y-94373819D02*
X66614731Y-94373819D01*
X66614731Y-94373819D02*
X66757588Y-94421438D01*
X67186160Y-95373819D02*
X67186160Y-94373819D01*
X67186160Y-94373819D02*
X67567112Y-94373819D01*
X67567112Y-94373819D02*
X67662350Y-94421438D01*
X67662350Y-94421438D02*
X67709969Y-94469057D01*
X67709969Y-94469057D02*
X67757588Y-94564295D01*
X67757588Y-94564295D02*
X67757588Y-94707152D01*
X67757588Y-94707152D02*
X67709969Y-94802390D01*
X67709969Y-94802390D02*
X67662350Y-94850009D01*
X67662350Y-94850009D02*
X67567112Y-94897628D01*
X67567112Y-94897628D02*
X67186160Y-94897628D01*
X69233779Y-95754771D02*
X69186160Y-95707152D01*
X69186160Y-95707152D02*
X69090922Y-95564295D01*
X69090922Y-95564295D02*
X69043303Y-95469057D01*
X69043303Y-95469057D02*
X68995684Y-95326200D01*
X68995684Y-95326200D02*
X68948065Y-95088104D01*
X68948065Y-95088104D02*
X68948065Y-94897628D01*
X68948065Y-94897628D02*
X68995684Y-94659533D01*
X68995684Y-94659533D02*
X69043303Y-94516676D01*
X69043303Y-94516676D02*
X69090922Y-94421438D01*
X69090922Y-94421438D02*
X69186160Y-94278580D01*
X69186160Y-94278580D02*
X69233779Y-94230961D01*
X69471875Y-94373819D02*
X70043303Y-94373819D01*
X69757589Y-95373819D02*
X69757589Y-94373819D01*
X70376637Y-94373819D02*
X70376637Y-95183342D01*
X70376637Y-95183342D02*
X70424256Y-95278580D01*
X70424256Y-95278580D02*
X70471875Y-95326200D01*
X70471875Y-95326200D02*
X70567113Y-95373819D01*
X70567113Y-95373819D02*
X70757589Y-95373819D01*
X70757589Y-95373819D02*
X70852827Y-95326200D01*
X70852827Y-95326200D02*
X70900446Y-95278580D01*
X70900446Y-95278580D02*
X70948065Y-95183342D01*
X70948065Y-95183342D02*
X70948065Y-94373819D01*
X71424256Y-95373819D02*
X71424256Y-94373819D01*
X71424256Y-94373819D02*
X71995684Y-95373819D01*
X71995684Y-95373819D02*
X71995684Y-94373819D01*
X72471875Y-94850009D02*
X72805208Y-94850009D01*
X72948065Y-95373819D02*
X72471875Y-95373819D01*
X72471875Y-95373819D02*
X72471875Y-94373819D01*
X72471875Y-94373819D02*
X72948065Y-94373819D01*
X73281399Y-95754771D02*
X73329018Y-95707152D01*
X73329018Y-95707152D02*
X73424256Y-95564295D01*
X73424256Y-95564295D02*
X73471875Y-95469057D01*
X73471875Y-95469057D02*
X73519494Y-95326200D01*
X73519494Y-95326200D02*
X73567113Y-95088104D01*
X73567113Y-95088104D02*
X73567113Y-94897628D01*
X73567113Y-94897628D02*
X73519494Y-94659533D01*
X73519494Y-94659533D02*
X73471875Y-94516676D01*
X73471875Y-94516676D02*
X73424256Y-94421438D01*
X73424256Y-94421438D02*
X73329018Y-94278580D01*
X73329018Y-94278580D02*
X73281399Y-94230961D01*
X67801200Y-26184208D02*
X67839295Y-26069922D01*
X67839295Y-26069922D02*
X67839295Y-25879446D01*
X67839295Y-25879446D02*
X67801200Y-25803255D01*
X67801200Y-25803255D02*
X67763104Y-25765160D01*
X67763104Y-25765160D02*
X67686914Y-25727065D01*
X67686914Y-25727065D02*
X67610723Y-25727065D01*
X67610723Y-25727065D02*
X67534533Y-25765160D01*
X67534533Y-25765160D02*
X67496438Y-25803255D01*
X67496438Y-25803255D02*
X67458342Y-25879446D01*
X67458342Y-25879446D02*
X67420247Y-26031827D01*
X67420247Y-26031827D02*
X67382152Y-26108017D01*
X67382152Y-26108017D02*
X67344057Y-26146112D01*
X67344057Y-26146112D02*
X67267866Y-26184208D01*
X67267866Y-26184208D02*
X67191676Y-26184208D01*
X67191676Y-26184208D02*
X67115485Y-26146112D01*
X67115485Y-26146112D02*
X67077390Y-26108017D01*
X67077390Y-26108017D02*
X67039295Y-26031827D01*
X67039295Y-26031827D02*
X67039295Y-25841350D01*
X67039295Y-25841350D02*
X67077390Y-25727065D01*
X67763104Y-24927064D02*
X67801200Y-24965160D01*
X67801200Y-24965160D02*
X67839295Y-25079445D01*
X67839295Y-25079445D02*
X67839295Y-25155636D01*
X67839295Y-25155636D02*
X67801200Y-25269922D01*
X67801200Y-25269922D02*
X67725009Y-25346112D01*
X67725009Y-25346112D02*
X67648819Y-25384207D01*
X67648819Y-25384207D02*
X67496438Y-25422303D01*
X67496438Y-25422303D02*
X67382152Y-25422303D01*
X67382152Y-25422303D02*
X67229771Y-25384207D01*
X67229771Y-25384207D02*
X67153580Y-25346112D01*
X67153580Y-25346112D02*
X67077390Y-25269922D01*
X67077390Y-25269922D02*
X67039295Y-25155636D01*
X67039295Y-25155636D02*
X67039295Y-25079445D01*
X67039295Y-25079445D02*
X67077390Y-24965160D01*
X67077390Y-24965160D02*
X67115485Y-24927064D01*
X67839295Y-24584207D02*
X67039295Y-24584207D01*
X67839295Y-24127064D02*
X67382152Y-24469922D01*
X67039295Y-24127064D02*
X67496438Y-24584207D01*
X53445704Y-19167506D02*
X54245704Y-19167506D01*
X54245704Y-19167506D02*
X54245704Y-19472268D01*
X54245704Y-19472268D02*
X54207609Y-19548458D01*
X54207609Y-19548458D02*
X54169514Y-19586553D01*
X54169514Y-19586553D02*
X54093323Y-19624649D01*
X54093323Y-19624649D02*
X53979038Y-19624649D01*
X53979038Y-19624649D02*
X53902847Y-19586553D01*
X53902847Y-19586553D02*
X53864752Y-19548458D01*
X53864752Y-19548458D02*
X53826657Y-19472268D01*
X53826657Y-19472268D02*
X53826657Y-19167506D01*
X54245704Y-19891315D02*
X53445704Y-20081791D01*
X53445704Y-20081791D02*
X54017133Y-20234172D01*
X54017133Y-20234172D02*
X53445704Y-20386553D01*
X53445704Y-20386553D02*
X54245704Y-20577030D01*
X53445704Y-21338935D02*
X53826657Y-21072268D01*
X53445704Y-20881792D02*
X54245704Y-20881792D01*
X54245704Y-20881792D02*
X54245704Y-21186554D01*
X54245704Y-21186554D02*
X54207609Y-21262744D01*
X54207609Y-21262744D02*
X54169514Y-21300839D01*
X54169514Y-21300839D02*
X54093323Y-21338935D01*
X54093323Y-21338935D02*
X53979038Y-21338935D01*
X53979038Y-21338935D02*
X53902847Y-21300839D01*
X53902847Y-21300839D02*
X53864752Y-21262744D01*
X53864752Y-21262744D02*
X53826657Y-21186554D01*
X53826657Y-21186554D02*
X53826657Y-20881792D01*
X37232390Y-20977255D02*
X37194295Y-21053445D01*
X37194295Y-21053445D02*
X37194295Y-21167731D01*
X37194295Y-21167731D02*
X37232390Y-21282017D01*
X37232390Y-21282017D02*
X37308580Y-21358207D01*
X37308580Y-21358207D02*
X37384771Y-21396302D01*
X37384771Y-21396302D02*
X37537152Y-21434398D01*
X37537152Y-21434398D02*
X37651438Y-21434398D01*
X37651438Y-21434398D02*
X37803819Y-21396302D01*
X37803819Y-21396302D02*
X37880009Y-21358207D01*
X37880009Y-21358207D02*
X37956200Y-21282017D01*
X37956200Y-21282017D02*
X37994295Y-21167731D01*
X37994295Y-21167731D02*
X37994295Y-21091540D01*
X37994295Y-21091540D02*
X37956200Y-20977255D01*
X37956200Y-20977255D02*
X37918104Y-20939159D01*
X37918104Y-20939159D02*
X37651438Y-20939159D01*
X37651438Y-20939159D02*
X37651438Y-21091540D01*
X37994295Y-20596302D02*
X37194295Y-20596302D01*
X37194295Y-20596302D02*
X37994295Y-20139159D01*
X37994295Y-20139159D02*
X37194295Y-20139159D01*
X37994295Y-19758207D02*
X37194295Y-19758207D01*
X37194295Y-19758207D02*
X37194295Y-19567731D01*
X37194295Y-19567731D02*
X37232390Y-19453445D01*
X37232390Y-19453445D02*
X37308580Y-19377255D01*
X37308580Y-19377255D02*
X37384771Y-19339160D01*
X37384771Y-19339160D02*
X37537152Y-19301064D01*
X37537152Y-19301064D02*
X37651438Y-19301064D01*
X37651438Y-19301064D02*
X37803819Y-19339160D01*
X37803819Y-19339160D02*
X37880009Y-19377255D01*
X37880009Y-19377255D02*
X37956200Y-19453445D01*
X37956200Y-19453445D02*
X37994295Y-19567731D01*
X37994295Y-19567731D02*
X37994295Y-19758207D01*
X64029295Y-33791445D02*
X63229295Y-33791445D01*
X63229295Y-33791445D02*
X63800723Y-33524779D01*
X63800723Y-33524779D02*
X63229295Y-33258112D01*
X63229295Y-33258112D02*
X64029295Y-33258112D01*
X64029295Y-32877159D02*
X63229295Y-32877159D01*
X63991200Y-32534303D02*
X64029295Y-32420017D01*
X64029295Y-32420017D02*
X64029295Y-32229541D01*
X64029295Y-32229541D02*
X63991200Y-32153350D01*
X63991200Y-32153350D02*
X63953104Y-32115255D01*
X63953104Y-32115255D02*
X63876914Y-32077160D01*
X63876914Y-32077160D02*
X63800723Y-32077160D01*
X63800723Y-32077160D02*
X63724533Y-32115255D01*
X63724533Y-32115255D02*
X63686438Y-32153350D01*
X63686438Y-32153350D02*
X63648342Y-32229541D01*
X63648342Y-32229541D02*
X63610247Y-32381922D01*
X63610247Y-32381922D02*
X63572152Y-32458112D01*
X63572152Y-32458112D02*
X63534057Y-32496207D01*
X63534057Y-32496207D02*
X63457866Y-32534303D01*
X63457866Y-32534303D02*
X63381676Y-32534303D01*
X63381676Y-32534303D02*
X63305485Y-32496207D01*
X63305485Y-32496207D02*
X63267390Y-32458112D01*
X63267390Y-32458112D02*
X63229295Y-32381922D01*
X63229295Y-32381922D02*
X63229295Y-32191445D01*
X63229295Y-32191445D02*
X63267390Y-32077160D01*
X63229295Y-31581921D02*
X63229295Y-31429540D01*
X63229295Y-31429540D02*
X63267390Y-31353350D01*
X63267390Y-31353350D02*
X63343580Y-31277159D01*
X63343580Y-31277159D02*
X63495961Y-31239064D01*
X63495961Y-31239064D02*
X63762628Y-31239064D01*
X63762628Y-31239064D02*
X63915009Y-31277159D01*
X63915009Y-31277159D02*
X63991200Y-31353350D01*
X63991200Y-31353350D02*
X64029295Y-31429540D01*
X64029295Y-31429540D02*
X64029295Y-31581921D01*
X64029295Y-31581921D02*
X63991200Y-31658112D01*
X63991200Y-31658112D02*
X63915009Y-31734302D01*
X63915009Y-31734302D02*
X63762628Y-31772398D01*
X63762628Y-31772398D02*
X63495961Y-31772398D01*
X63495961Y-31772398D02*
X63343580Y-31734302D01*
X63343580Y-31734302D02*
X63267390Y-31658112D01*
X63267390Y-31658112D02*
X63229295Y-31581921D01*
X64029295Y-36712445D02*
X63229295Y-36712445D01*
X63229295Y-36712445D02*
X63800723Y-36445779D01*
X63800723Y-36445779D02*
X63229295Y-36179112D01*
X63229295Y-36179112D02*
X64029295Y-36179112D01*
X63229295Y-35645778D02*
X63229295Y-35493397D01*
X63229295Y-35493397D02*
X63267390Y-35417207D01*
X63267390Y-35417207D02*
X63343580Y-35341016D01*
X63343580Y-35341016D02*
X63495961Y-35302921D01*
X63495961Y-35302921D02*
X63762628Y-35302921D01*
X63762628Y-35302921D02*
X63915009Y-35341016D01*
X63915009Y-35341016D02*
X63991200Y-35417207D01*
X63991200Y-35417207D02*
X64029295Y-35493397D01*
X64029295Y-35493397D02*
X64029295Y-35645778D01*
X64029295Y-35645778D02*
X63991200Y-35721969D01*
X63991200Y-35721969D02*
X63915009Y-35798159D01*
X63915009Y-35798159D02*
X63762628Y-35836255D01*
X63762628Y-35836255D02*
X63495961Y-35836255D01*
X63495961Y-35836255D02*
X63343580Y-35798159D01*
X63343580Y-35798159D02*
X63267390Y-35721969D01*
X63267390Y-35721969D02*
X63229295Y-35645778D01*
X63991200Y-34998160D02*
X64029295Y-34883874D01*
X64029295Y-34883874D02*
X64029295Y-34693398D01*
X64029295Y-34693398D02*
X63991200Y-34617207D01*
X63991200Y-34617207D02*
X63953104Y-34579112D01*
X63953104Y-34579112D02*
X63876914Y-34541017D01*
X63876914Y-34541017D02*
X63800723Y-34541017D01*
X63800723Y-34541017D02*
X63724533Y-34579112D01*
X63724533Y-34579112D02*
X63686438Y-34617207D01*
X63686438Y-34617207D02*
X63648342Y-34693398D01*
X63648342Y-34693398D02*
X63610247Y-34845779D01*
X63610247Y-34845779D02*
X63572152Y-34921969D01*
X63572152Y-34921969D02*
X63534057Y-34960064D01*
X63534057Y-34960064D02*
X63457866Y-34998160D01*
X63457866Y-34998160D02*
X63381676Y-34998160D01*
X63381676Y-34998160D02*
X63305485Y-34960064D01*
X63305485Y-34960064D02*
X63267390Y-34921969D01*
X63267390Y-34921969D02*
X63229295Y-34845779D01*
X63229295Y-34845779D02*
X63229295Y-34655302D01*
X63229295Y-34655302D02*
X63267390Y-34541017D01*
X64029295Y-34198159D02*
X63229295Y-34198159D01*
D11*
X99562219Y-84879136D02*
X99562219Y-85355326D01*
X99562219Y-85355326D02*
X98562219Y-85355326D01*
X99562219Y-84545802D02*
X98895552Y-84545802D01*
X98562219Y-84545802D02*
X98609838Y-84593421D01*
X98609838Y-84593421D02*
X98657457Y-84545802D01*
X98657457Y-84545802D02*
X98609838Y-84498183D01*
X98609838Y-84498183D02*
X98562219Y-84545802D01*
X98562219Y-84545802D02*
X98657457Y-84545802D01*
X99514600Y-83641041D02*
X99562219Y-83736279D01*
X99562219Y-83736279D02*
X99562219Y-83926755D01*
X99562219Y-83926755D02*
X99514600Y-84021993D01*
X99514600Y-84021993D02*
X99466980Y-84069612D01*
X99466980Y-84069612D02*
X99371742Y-84117231D01*
X99371742Y-84117231D02*
X99086028Y-84117231D01*
X99086028Y-84117231D02*
X98990790Y-84069612D01*
X98990790Y-84069612D02*
X98943171Y-84021993D01*
X98943171Y-84021993D02*
X98895552Y-83926755D01*
X98895552Y-83926755D02*
X98895552Y-83736279D01*
X98895552Y-83736279D02*
X98943171Y-83641041D01*
X99514600Y-82831517D02*
X99562219Y-82926755D01*
X99562219Y-82926755D02*
X99562219Y-83117231D01*
X99562219Y-83117231D02*
X99514600Y-83212469D01*
X99514600Y-83212469D02*
X99419361Y-83260088D01*
X99419361Y-83260088D02*
X99038409Y-83260088D01*
X99038409Y-83260088D02*
X98943171Y-83212469D01*
X98943171Y-83212469D02*
X98895552Y-83117231D01*
X98895552Y-83117231D02*
X98895552Y-82926755D01*
X98895552Y-82926755D02*
X98943171Y-82831517D01*
X98943171Y-82831517D02*
X99038409Y-82783898D01*
X99038409Y-82783898D02*
X99133647Y-82783898D01*
X99133647Y-82783898D02*
X99228885Y-83260088D01*
X98895552Y-82355326D02*
X99562219Y-82355326D01*
X98990790Y-82355326D02*
X98943171Y-82307707D01*
X98943171Y-82307707D02*
X98895552Y-82212469D01*
X98895552Y-82212469D02*
X98895552Y-82069612D01*
X98895552Y-82069612D02*
X98943171Y-81974374D01*
X98943171Y-81974374D02*
X99038409Y-81926755D01*
X99038409Y-81926755D02*
X99562219Y-81926755D01*
X99514600Y-81498183D02*
X99562219Y-81402945D01*
X99562219Y-81402945D02*
X99562219Y-81212469D01*
X99562219Y-81212469D02*
X99514600Y-81117231D01*
X99514600Y-81117231D02*
X99419361Y-81069612D01*
X99419361Y-81069612D02*
X99371742Y-81069612D01*
X99371742Y-81069612D02*
X99276504Y-81117231D01*
X99276504Y-81117231D02*
X99228885Y-81212469D01*
X99228885Y-81212469D02*
X99228885Y-81355326D01*
X99228885Y-81355326D02*
X99181266Y-81450564D01*
X99181266Y-81450564D02*
X99086028Y-81498183D01*
X99086028Y-81498183D02*
X99038409Y-81498183D01*
X99038409Y-81498183D02*
X98943171Y-81450564D01*
X98943171Y-81450564D02*
X98895552Y-81355326D01*
X98895552Y-81355326D02*
X98895552Y-81212469D01*
X98895552Y-81212469D02*
X98943171Y-81117231D01*
X99514600Y-80260088D02*
X99562219Y-80355326D01*
X99562219Y-80355326D02*
X99562219Y-80545802D01*
X99562219Y-80545802D02*
X99514600Y-80641040D01*
X99514600Y-80641040D02*
X99419361Y-80688659D01*
X99419361Y-80688659D02*
X99038409Y-80688659D01*
X99038409Y-80688659D02*
X98943171Y-80641040D01*
X98943171Y-80641040D02*
X98895552Y-80545802D01*
X98895552Y-80545802D02*
X98895552Y-80355326D01*
X98895552Y-80355326D02*
X98943171Y-80260088D01*
X98943171Y-80260088D02*
X99038409Y-80212469D01*
X99038409Y-80212469D02*
X99133647Y-80212469D01*
X99133647Y-80212469D02*
X99228885Y-80688659D01*
X99562219Y-79355326D02*
X98562219Y-79355326D01*
X99514600Y-79355326D02*
X99562219Y-79450564D01*
X99562219Y-79450564D02*
X99562219Y-79641040D01*
X99562219Y-79641040D02*
X99514600Y-79736278D01*
X99514600Y-79736278D02*
X99466980Y-79783897D01*
X99466980Y-79783897D02*
X99371742Y-79831516D01*
X99371742Y-79831516D02*
X99086028Y-79831516D01*
X99086028Y-79831516D02*
X98990790Y-79783897D01*
X98990790Y-79783897D02*
X98943171Y-79736278D01*
X98943171Y-79736278D02*
X98895552Y-79641040D01*
X98895552Y-79641040D02*
X98895552Y-79450564D01*
X98895552Y-79450564D02*
X98943171Y-79355326D01*
X98895552Y-77688659D02*
X99562219Y-77688659D01*
X98895552Y-78117230D02*
X99419361Y-78117230D01*
X99419361Y-78117230D02*
X99514600Y-78069611D01*
X99514600Y-78069611D02*
X99562219Y-77974373D01*
X99562219Y-77974373D02*
X99562219Y-77831516D01*
X99562219Y-77831516D02*
X99514600Y-77736278D01*
X99514600Y-77736278D02*
X99466980Y-77688659D01*
X98895552Y-77212468D02*
X99562219Y-77212468D01*
X98990790Y-77212468D02*
X98943171Y-77164849D01*
X98943171Y-77164849D02*
X98895552Y-77069611D01*
X98895552Y-77069611D02*
X98895552Y-76926754D01*
X98895552Y-76926754D02*
X98943171Y-76831516D01*
X98943171Y-76831516D02*
X99038409Y-76783897D01*
X99038409Y-76783897D02*
X99562219Y-76783897D01*
X99562219Y-75879135D02*
X98562219Y-75879135D01*
X99514600Y-75879135D02*
X99562219Y-75974373D01*
X99562219Y-75974373D02*
X99562219Y-76164849D01*
X99562219Y-76164849D02*
X99514600Y-76260087D01*
X99514600Y-76260087D02*
X99466980Y-76307706D01*
X99466980Y-76307706D02*
X99371742Y-76355325D01*
X99371742Y-76355325D02*
X99086028Y-76355325D01*
X99086028Y-76355325D02*
X98990790Y-76307706D01*
X98990790Y-76307706D02*
X98943171Y-76260087D01*
X98943171Y-76260087D02*
X98895552Y-76164849D01*
X98895552Y-76164849D02*
X98895552Y-75974373D01*
X98895552Y-75974373D02*
X98943171Y-75879135D01*
X99514600Y-75021992D02*
X99562219Y-75117230D01*
X99562219Y-75117230D02*
X99562219Y-75307706D01*
X99562219Y-75307706D02*
X99514600Y-75402944D01*
X99514600Y-75402944D02*
X99419361Y-75450563D01*
X99419361Y-75450563D02*
X99038409Y-75450563D01*
X99038409Y-75450563D02*
X98943171Y-75402944D01*
X98943171Y-75402944D02*
X98895552Y-75307706D01*
X98895552Y-75307706D02*
X98895552Y-75117230D01*
X98895552Y-75117230D02*
X98943171Y-75021992D01*
X98943171Y-75021992D02*
X99038409Y-74974373D01*
X99038409Y-74974373D02*
X99133647Y-74974373D01*
X99133647Y-74974373D02*
X99228885Y-75450563D01*
X99562219Y-74545801D02*
X98895552Y-74545801D01*
X99086028Y-74545801D02*
X98990790Y-74498182D01*
X98990790Y-74498182D02*
X98943171Y-74450563D01*
X98943171Y-74450563D02*
X98895552Y-74355325D01*
X98895552Y-74355325D02*
X98895552Y-74260087D01*
X99466980Y-72593420D02*
X99514600Y-72641039D01*
X99514600Y-72641039D02*
X99562219Y-72783896D01*
X99562219Y-72783896D02*
X99562219Y-72879134D01*
X99562219Y-72879134D02*
X99514600Y-73021991D01*
X99514600Y-73021991D02*
X99419361Y-73117229D01*
X99419361Y-73117229D02*
X99324123Y-73164848D01*
X99324123Y-73164848D02*
X99133647Y-73212467D01*
X99133647Y-73212467D02*
X98990790Y-73212467D01*
X98990790Y-73212467D02*
X98800314Y-73164848D01*
X98800314Y-73164848D02*
X98705076Y-73117229D01*
X98705076Y-73117229D02*
X98609838Y-73021991D01*
X98609838Y-73021991D02*
X98562219Y-72879134D01*
X98562219Y-72879134D02*
X98562219Y-72783896D01*
X98562219Y-72783896D02*
X98609838Y-72641039D01*
X98609838Y-72641039D02*
X98657457Y-72593420D01*
X99038409Y-72164848D02*
X99038409Y-71831515D01*
X99562219Y-71688658D02*
X99562219Y-72164848D01*
X99562219Y-72164848D02*
X98562219Y-72164848D01*
X98562219Y-72164848D02*
X98562219Y-71688658D01*
X99562219Y-70688658D02*
X99086028Y-71021991D01*
X99562219Y-71260086D02*
X98562219Y-71260086D01*
X98562219Y-71260086D02*
X98562219Y-70879134D01*
X98562219Y-70879134D02*
X98609838Y-70783896D01*
X98609838Y-70783896D02*
X98657457Y-70736277D01*
X98657457Y-70736277D02*
X98752695Y-70688658D01*
X98752695Y-70688658D02*
X98895552Y-70688658D01*
X98895552Y-70688658D02*
X98990790Y-70736277D01*
X98990790Y-70736277D02*
X99038409Y-70783896D01*
X99038409Y-70783896D02*
X99086028Y-70879134D01*
X99086028Y-70879134D02*
X99086028Y-71260086D01*
X99562219Y-70260086D02*
X98562219Y-70260086D01*
X98562219Y-70260086D02*
X99562219Y-69688658D01*
X99562219Y-69688658D02*
X98562219Y-69688658D01*
X99181266Y-69212467D02*
X99181266Y-68450563D01*
X98562219Y-67783896D02*
X98562219Y-67593420D01*
X98562219Y-67593420D02*
X98609838Y-67498182D01*
X98609838Y-67498182D02*
X98705076Y-67402944D01*
X98705076Y-67402944D02*
X98895552Y-67355325D01*
X98895552Y-67355325D02*
X99228885Y-67355325D01*
X99228885Y-67355325D02*
X99419361Y-67402944D01*
X99419361Y-67402944D02*
X99514600Y-67498182D01*
X99514600Y-67498182D02*
X99562219Y-67593420D01*
X99562219Y-67593420D02*
X99562219Y-67783896D01*
X99562219Y-67783896D02*
X99514600Y-67879134D01*
X99514600Y-67879134D02*
X99419361Y-67974372D01*
X99419361Y-67974372D02*
X99228885Y-68021991D01*
X99228885Y-68021991D02*
X98895552Y-68021991D01*
X98895552Y-68021991D02*
X98705076Y-67974372D01*
X98705076Y-67974372D02*
X98609838Y-67879134D01*
X98609838Y-67879134D02*
X98562219Y-67783896D01*
X99562219Y-66926753D02*
X98562219Y-66926753D01*
X99038409Y-66926753D02*
X99038409Y-66355325D01*
X99562219Y-66355325D02*
X98562219Y-66355325D01*
X99562219Y-65402944D02*
X99562219Y-65879134D01*
X99562219Y-65879134D02*
X98562219Y-65879134D01*
X99181266Y-65069610D02*
X99181266Y-64307706D01*
X98562219Y-63926753D02*
X99562219Y-63688658D01*
X99562219Y-63688658D02*
X98847933Y-63498182D01*
X98847933Y-63498182D02*
X99562219Y-63307706D01*
X99562219Y-63307706D02*
X98562219Y-63069611D01*
X98895552Y-61926753D02*
X99181266Y-61164849D01*
X99181266Y-61164849D02*
X99466980Y-61926753D01*
X99038409Y-60688658D02*
X99038409Y-59926754D01*
X99324123Y-59926754D02*
X99324123Y-60688658D01*
X98895552Y-58783896D02*
X99562219Y-58545801D01*
X99562219Y-58545801D02*
X98895552Y-58307706D01*
X98657457Y-57974372D02*
X98609838Y-57926753D01*
X98609838Y-57926753D02*
X98562219Y-57831515D01*
X98562219Y-57831515D02*
X98562219Y-57593420D01*
X98562219Y-57593420D02*
X98609838Y-57498182D01*
X98609838Y-57498182D02*
X98657457Y-57450563D01*
X98657457Y-57450563D02*
X98752695Y-57402944D01*
X98752695Y-57402944D02*
X98847933Y-57402944D01*
X98847933Y-57402944D02*
X98990790Y-57450563D01*
X98990790Y-57450563D02*
X99562219Y-58021991D01*
X99562219Y-58021991D02*
X99562219Y-57402944D01*
D10*
X84128219Y-93455247D02*
X84242505Y-93493342D01*
X84242505Y-93493342D02*
X84280600Y-93531438D01*
X84280600Y-93531438D02*
X84318696Y-93607628D01*
X84318696Y-93607628D02*
X84318696Y-93721914D01*
X84318696Y-93721914D02*
X84280600Y-93798104D01*
X84280600Y-93798104D02*
X84242505Y-93836200D01*
X84242505Y-93836200D02*
X84166315Y-93874295D01*
X84166315Y-93874295D02*
X83861553Y-93874295D01*
X83861553Y-93874295D02*
X83861553Y-93074295D01*
X83861553Y-93074295D02*
X84128219Y-93074295D01*
X84128219Y-93074295D02*
X84204410Y-93112390D01*
X84204410Y-93112390D02*
X84242505Y-93150485D01*
X84242505Y-93150485D02*
X84280600Y-93226676D01*
X84280600Y-93226676D02*
X84280600Y-93302866D01*
X84280600Y-93302866D02*
X84242505Y-93379057D01*
X84242505Y-93379057D02*
X84204410Y-93417152D01*
X84204410Y-93417152D02*
X84128219Y-93455247D01*
X84128219Y-93455247D02*
X83861553Y-93455247D01*
X85004410Y-93874295D02*
X85004410Y-93455247D01*
X85004410Y-93455247D02*
X84966315Y-93379057D01*
X84966315Y-93379057D02*
X84890124Y-93340961D01*
X84890124Y-93340961D02*
X84737743Y-93340961D01*
X84737743Y-93340961D02*
X84661553Y-93379057D01*
X85004410Y-93836200D02*
X84928219Y-93874295D01*
X84928219Y-93874295D02*
X84737743Y-93874295D01*
X84737743Y-93874295D02*
X84661553Y-93836200D01*
X84661553Y-93836200D02*
X84623457Y-93760009D01*
X84623457Y-93760009D02*
X84623457Y-93683819D01*
X84623457Y-93683819D02*
X84661553Y-93607628D01*
X84661553Y-93607628D02*
X84737743Y-93569533D01*
X84737743Y-93569533D02*
X84928219Y-93569533D01*
X84928219Y-93569533D02*
X85004410Y-93531438D01*
X85271077Y-93340961D02*
X85575839Y-93340961D01*
X85385363Y-93074295D02*
X85385363Y-93760009D01*
X85385363Y-93760009D02*
X85423458Y-93836200D01*
X85423458Y-93836200D02*
X85499648Y-93874295D01*
X85499648Y-93874295D02*
X85575839Y-93874295D01*
X85842506Y-93874295D02*
X85842506Y-93074295D01*
X85842506Y-93074295D02*
X86147268Y-93074295D01*
X86147268Y-93074295D02*
X86223458Y-93112390D01*
X86223458Y-93112390D02*
X86261553Y-93150485D01*
X86261553Y-93150485D02*
X86299649Y-93226676D01*
X86299649Y-93226676D02*
X86299649Y-93340961D01*
X86299649Y-93340961D02*
X86261553Y-93417152D01*
X86261553Y-93417152D02*
X86223458Y-93455247D01*
X86223458Y-93455247D02*
X86147268Y-93493342D01*
X86147268Y-93493342D02*
X85842506Y-93493342D01*
X86566315Y-93074295D02*
X86756791Y-93874295D01*
X86756791Y-93874295D02*
X86909172Y-93302866D01*
X86909172Y-93302866D02*
X87061553Y-93874295D01*
X87061553Y-93874295D02*
X87252030Y-93074295D01*
X88013935Y-93874295D02*
X87747268Y-93493342D01*
X87556792Y-93874295D02*
X87556792Y-93074295D01*
X87556792Y-93074295D02*
X87861554Y-93074295D01*
X87861554Y-93074295D02*
X87937744Y-93112390D01*
X87937744Y-93112390D02*
X87975839Y-93150485D01*
X87975839Y-93150485D02*
X88013935Y-93226676D01*
X88013935Y-93226676D02*
X88013935Y-93340961D01*
X88013935Y-93340961D02*
X87975839Y-93417152D01*
X87975839Y-93417152D02*
X87937744Y-93455247D01*
X87937744Y-93455247D02*
X87861554Y-93493342D01*
X87861554Y-93493342D02*
X87556792Y-93493342D01*
X73281982Y-52815247D02*
X73548648Y-52815247D01*
X73662934Y-53234295D02*
X73281982Y-53234295D01*
X73281982Y-53234295D02*
X73281982Y-52434295D01*
X73281982Y-52434295D02*
X73662934Y-52434295D01*
X55800826Y-71230247D02*
X55915112Y-71268342D01*
X55915112Y-71268342D02*
X55953207Y-71306438D01*
X55953207Y-71306438D02*
X55991303Y-71382628D01*
X55991303Y-71382628D02*
X55991303Y-71496914D01*
X55991303Y-71496914D02*
X55953207Y-71573104D01*
X55953207Y-71573104D02*
X55915112Y-71611200D01*
X55915112Y-71611200D02*
X55838922Y-71649295D01*
X55838922Y-71649295D02*
X55534160Y-71649295D01*
X55534160Y-71649295D02*
X55534160Y-70849295D01*
X55534160Y-70849295D02*
X55800826Y-70849295D01*
X55800826Y-70849295D02*
X55877017Y-70887390D01*
X55877017Y-70887390D02*
X55915112Y-70925485D01*
X55915112Y-70925485D02*
X55953207Y-71001676D01*
X55953207Y-71001676D02*
X55953207Y-71077866D01*
X55953207Y-71077866D02*
X55915112Y-71154057D01*
X55915112Y-71154057D02*
X55877017Y-71192152D01*
X55877017Y-71192152D02*
X55800826Y-71230247D01*
X55800826Y-71230247D02*
X55534160Y-71230247D01*
X56448445Y-71649295D02*
X56372255Y-71611200D01*
X56372255Y-71611200D02*
X56334160Y-71535009D01*
X56334160Y-71535009D02*
X56334160Y-70849295D01*
X56753208Y-71649295D02*
X56753208Y-71115961D01*
X56753208Y-70849295D02*
X56715112Y-70887390D01*
X56715112Y-70887390D02*
X56753208Y-70925485D01*
X56753208Y-70925485D02*
X56791303Y-70887390D01*
X56791303Y-70887390D02*
X56753208Y-70849295D01*
X56753208Y-70849295D02*
X56753208Y-70925485D01*
X57019874Y-71115961D02*
X57324636Y-71115961D01*
X57134160Y-70849295D02*
X57134160Y-71535009D01*
X57134160Y-71535009D02*
X57172255Y-71611200D01*
X57172255Y-71611200D02*
X57248445Y-71649295D01*
X57248445Y-71649295D02*
X57324636Y-71649295D01*
X57515112Y-71115961D02*
X57934160Y-71115961D01*
X57934160Y-71115961D02*
X57515112Y-71649295D01*
X57515112Y-71649295D02*
X57934160Y-71649295D01*
X58581779Y-71649295D02*
X58581779Y-70849295D01*
X58581779Y-71611200D02*
X58505588Y-71649295D01*
X58505588Y-71649295D02*
X58353207Y-71649295D01*
X58353207Y-71649295D02*
X58277017Y-71611200D01*
X58277017Y-71611200D02*
X58238922Y-71573104D01*
X58238922Y-71573104D02*
X58200826Y-71496914D01*
X58200826Y-71496914D02*
X58200826Y-71268342D01*
X58200826Y-71268342D02*
X58238922Y-71192152D01*
X58238922Y-71192152D02*
X58277017Y-71154057D01*
X58277017Y-71154057D02*
X58353207Y-71115961D01*
X58353207Y-71115961D02*
X58505588Y-71115961D01*
X58505588Y-71115961D02*
X58581779Y-71154057D01*
X59267494Y-71611200D02*
X59191303Y-71649295D01*
X59191303Y-71649295D02*
X59038922Y-71649295D01*
X59038922Y-71649295D02*
X58962732Y-71611200D01*
X58962732Y-71611200D02*
X58924636Y-71535009D01*
X58924636Y-71535009D02*
X58924636Y-71230247D01*
X58924636Y-71230247D02*
X58962732Y-71154057D01*
X58962732Y-71154057D02*
X59038922Y-71115961D01*
X59038922Y-71115961D02*
X59191303Y-71115961D01*
X59191303Y-71115961D02*
X59267494Y-71154057D01*
X59267494Y-71154057D02*
X59305589Y-71230247D01*
X59305589Y-71230247D02*
X59305589Y-71306438D01*
X59305589Y-71306438D02*
X58924636Y-71382628D01*
X59534160Y-71115961D02*
X59838922Y-71115961D01*
X59648446Y-70849295D02*
X59648446Y-71535009D01*
X59648446Y-71535009D02*
X59686541Y-71611200D01*
X59686541Y-71611200D02*
X59762731Y-71649295D01*
X59762731Y-71649295D02*
X59838922Y-71649295D01*
X60410351Y-71611200D02*
X60334160Y-71649295D01*
X60334160Y-71649295D02*
X60181779Y-71649295D01*
X60181779Y-71649295D02*
X60105589Y-71611200D01*
X60105589Y-71611200D02*
X60067493Y-71535009D01*
X60067493Y-71535009D02*
X60067493Y-71230247D01*
X60067493Y-71230247D02*
X60105589Y-71154057D01*
X60105589Y-71154057D02*
X60181779Y-71115961D01*
X60181779Y-71115961D02*
X60334160Y-71115961D01*
X60334160Y-71115961D02*
X60410351Y-71154057D01*
X60410351Y-71154057D02*
X60448446Y-71230247D01*
X60448446Y-71230247D02*
X60448446Y-71306438D01*
X60448446Y-71306438D02*
X60067493Y-71382628D01*
X60791303Y-71649295D02*
X60791303Y-70849295D01*
X60867493Y-71344533D02*
X61096065Y-71649295D01*
X61096065Y-71115961D02*
X60791303Y-71420723D01*
X61324636Y-71115961D02*
X61629398Y-71115961D01*
X61438922Y-70849295D02*
X61438922Y-71535009D01*
X61438922Y-71535009D02*
X61477017Y-71611200D01*
X61477017Y-71611200D02*
X61553207Y-71649295D01*
X61553207Y-71649295D02*
X61629398Y-71649295D01*
X62010350Y-71649295D02*
X61934160Y-71611200D01*
X61934160Y-71611200D02*
X61896065Y-71573104D01*
X61896065Y-71573104D02*
X61857969Y-71496914D01*
X61857969Y-71496914D02*
X61857969Y-71268342D01*
X61857969Y-71268342D02*
X61896065Y-71192152D01*
X61896065Y-71192152D02*
X61934160Y-71154057D01*
X61934160Y-71154057D02*
X62010350Y-71115961D01*
X62010350Y-71115961D02*
X62124636Y-71115961D01*
X62124636Y-71115961D02*
X62200827Y-71154057D01*
X62200827Y-71154057D02*
X62238922Y-71192152D01*
X62238922Y-71192152D02*
X62277017Y-71268342D01*
X62277017Y-71268342D02*
X62277017Y-71496914D01*
X62277017Y-71496914D02*
X62238922Y-71573104D01*
X62238922Y-71573104D02*
X62200827Y-71611200D01*
X62200827Y-71611200D02*
X62124636Y-71649295D01*
X62124636Y-71649295D02*
X62010350Y-71649295D01*
X62619875Y-71649295D02*
X62619875Y-71115961D01*
X62619875Y-71268342D02*
X62657970Y-71192152D01*
X62657970Y-71192152D02*
X62696065Y-71154057D01*
X62696065Y-71154057D02*
X62772256Y-71115961D01*
X62772256Y-71115961D02*
X62848446Y-71115961D01*
X63648446Y-71115961D02*
X63838922Y-71649295D01*
X63838922Y-71649295D02*
X64029399Y-71115961D01*
X64486542Y-70849295D02*
X64562732Y-70849295D01*
X64562732Y-70849295D02*
X64638923Y-70887390D01*
X64638923Y-70887390D02*
X64677018Y-70925485D01*
X64677018Y-70925485D02*
X64715113Y-71001676D01*
X64715113Y-71001676D02*
X64753208Y-71154057D01*
X64753208Y-71154057D02*
X64753208Y-71344533D01*
X64753208Y-71344533D02*
X64715113Y-71496914D01*
X64715113Y-71496914D02*
X64677018Y-71573104D01*
X64677018Y-71573104D02*
X64638923Y-71611200D01*
X64638923Y-71611200D02*
X64562732Y-71649295D01*
X64562732Y-71649295D02*
X64486542Y-71649295D01*
X64486542Y-71649295D02*
X64410351Y-71611200D01*
X64410351Y-71611200D02*
X64372256Y-71573104D01*
X64372256Y-71573104D02*
X64334161Y-71496914D01*
X64334161Y-71496914D02*
X64296065Y-71344533D01*
X64296065Y-71344533D02*
X64296065Y-71154057D01*
X64296065Y-71154057D02*
X64334161Y-71001676D01*
X64334161Y-71001676D02*
X64372256Y-70925485D01*
X64372256Y-70925485D02*
X64410351Y-70887390D01*
X64410351Y-70887390D02*
X64486542Y-70849295D01*
X65096066Y-71573104D02*
X65134161Y-71611200D01*
X65134161Y-71611200D02*
X65096066Y-71649295D01*
X65096066Y-71649295D02*
X65057970Y-71611200D01*
X65057970Y-71611200D02*
X65096066Y-71573104D01*
X65096066Y-71573104D02*
X65096066Y-71649295D01*
X65857970Y-70849295D02*
X65477018Y-70849295D01*
X65477018Y-70849295D02*
X65438922Y-71230247D01*
X65438922Y-71230247D02*
X65477018Y-71192152D01*
X65477018Y-71192152D02*
X65553208Y-71154057D01*
X65553208Y-71154057D02*
X65743684Y-71154057D01*
X65743684Y-71154057D02*
X65819875Y-71192152D01*
X65819875Y-71192152D02*
X65857970Y-71230247D01*
X65857970Y-71230247D02*
X65896065Y-71306438D01*
X65896065Y-71306438D02*
X65896065Y-71496914D01*
X65896065Y-71496914D02*
X65857970Y-71573104D01*
X65857970Y-71573104D02*
X65819875Y-71611200D01*
X65819875Y-71611200D02*
X65743684Y-71649295D01*
X65743684Y-71649295D02*
X65553208Y-71649295D01*
X65553208Y-71649295D02*
X65477018Y-71611200D01*
X65477018Y-71611200D02*
X65438922Y-71573104D01*
X67561064Y-76056200D02*
X67675350Y-76094295D01*
X67675350Y-76094295D02*
X67865826Y-76094295D01*
X67865826Y-76094295D02*
X67942017Y-76056200D01*
X67942017Y-76056200D02*
X67980112Y-76018104D01*
X67980112Y-76018104D02*
X68018207Y-75941914D01*
X68018207Y-75941914D02*
X68018207Y-75865723D01*
X68018207Y-75865723D02*
X67980112Y-75789533D01*
X67980112Y-75789533D02*
X67942017Y-75751438D01*
X67942017Y-75751438D02*
X67865826Y-75713342D01*
X67865826Y-75713342D02*
X67713445Y-75675247D01*
X67713445Y-75675247D02*
X67637255Y-75637152D01*
X67637255Y-75637152D02*
X67599160Y-75599057D01*
X67599160Y-75599057D02*
X67561064Y-75522866D01*
X67561064Y-75522866D02*
X67561064Y-75446676D01*
X67561064Y-75446676D02*
X67599160Y-75370485D01*
X67599160Y-75370485D02*
X67637255Y-75332390D01*
X67637255Y-75332390D02*
X67713445Y-75294295D01*
X67713445Y-75294295D02*
X67903922Y-75294295D01*
X67903922Y-75294295D02*
X68018207Y-75332390D01*
X68361065Y-76094295D02*
X68361065Y-75294295D01*
X68361065Y-75294295D02*
X68551541Y-75294295D01*
X68551541Y-75294295D02*
X68665827Y-75332390D01*
X68665827Y-75332390D02*
X68742017Y-75408580D01*
X68742017Y-75408580D02*
X68780112Y-75484771D01*
X68780112Y-75484771D02*
X68818208Y-75637152D01*
X68818208Y-75637152D02*
X68818208Y-75751438D01*
X68818208Y-75751438D02*
X68780112Y-75903819D01*
X68780112Y-75903819D02*
X68742017Y-75980009D01*
X68742017Y-75980009D02*
X68665827Y-76056200D01*
X68665827Y-76056200D02*
X68551541Y-76094295D01*
X68551541Y-76094295D02*
X68361065Y-76094295D01*
X69122969Y-75865723D02*
X69503922Y-75865723D01*
X69046779Y-76094295D02*
X69313446Y-75294295D01*
X69313446Y-75294295D02*
X69580112Y-76094295D01*
X78996935Y-53158104D02*
X78958839Y-53196200D01*
X78958839Y-53196200D02*
X78844554Y-53234295D01*
X78844554Y-53234295D02*
X78768363Y-53234295D01*
X78768363Y-53234295D02*
X78654077Y-53196200D01*
X78654077Y-53196200D02*
X78577887Y-53120009D01*
X78577887Y-53120009D02*
X78539792Y-53043819D01*
X78539792Y-53043819D02*
X78501696Y-52891438D01*
X78501696Y-52891438D02*
X78501696Y-52777152D01*
X78501696Y-52777152D02*
X78539792Y-52624771D01*
X78539792Y-52624771D02*
X78577887Y-52548580D01*
X78577887Y-52548580D02*
X78654077Y-52472390D01*
X78654077Y-52472390D02*
X78768363Y-52434295D01*
X78768363Y-52434295D02*
X78844554Y-52434295D01*
X78844554Y-52434295D02*
X78958839Y-52472390D01*
X78958839Y-52472390D02*
X78996935Y-52510485D01*
X67839295Y-23631493D02*
X67039295Y-23631493D01*
X67039295Y-23631493D02*
X67039295Y-23326731D01*
X67039295Y-23326731D02*
X67077390Y-23250541D01*
X67077390Y-23250541D02*
X67115485Y-23212446D01*
X67115485Y-23212446D02*
X67191676Y-23174350D01*
X67191676Y-23174350D02*
X67305961Y-23174350D01*
X67305961Y-23174350D02*
X67382152Y-23212446D01*
X67382152Y-23212446D02*
X67420247Y-23250541D01*
X67420247Y-23250541D02*
X67458342Y-23326731D01*
X67458342Y-23326731D02*
X67458342Y-23631493D01*
X67039295Y-22907684D02*
X67839295Y-22717208D01*
X67839295Y-22717208D02*
X67267866Y-22564827D01*
X67267866Y-22564827D02*
X67839295Y-22412446D01*
X67839295Y-22412446D02*
X67039295Y-22221970D01*
X67839295Y-21460064D02*
X67458342Y-21726731D01*
X67839295Y-21917207D02*
X67039295Y-21917207D01*
X67039295Y-21917207D02*
X67039295Y-21612445D01*
X67039295Y-21612445D02*
X67077390Y-21536255D01*
X67077390Y-21536255D02*
X67115485Y-21498160D01*
X67115485Y-21498160D02*
X67191676Y-21460064D01*
X67191676Y-21460064D02*
X67305961Y-21460064D01*
X67305961Y-21460064D02*
X67382152Y-21498160D01*
X67382152Y-21498160D02*
X67420247Y-21536255D01*
X67420247Y-21536255D02*
X67458342Y-21612445D01*
X67458342Y-21612445D02*
X67458342Y-21917207D01*
X67839295Y-31264254D02*
X67039295Y-31264254D01*
X67839295Y-30426159D02*
X67458342Y-30692826D01*
X67839295Y-30883302D02*
X67039295Y-30883302D01*
X67039295Y-30883302D02*
X67039295Y-30578540D01*
X67039295Y-30578540D02*
X67077390Y-30502350D01*
X67077390Y-30502350D02*
X67115485Y-30464255D01*
X67115485Y-30464255D02*
X67191676Y-30426159D01*
X67191676Y-30426159D02*
X67305961Y-30426159D01*
X67305961Y-30426159D02*
X67382152Y-30464255D01*
X67382152Y-30464255D02*
X67420247Y-30502350D01*
X67420247Y-30502350D02*
X67458342Y-30578540D01*
X67458342Y-30578540D02*
X67458342Y-30883302D01*
X67915485Y-29549969D02*
X67877390Y-29626159D01*
X67877390Y-29626159D02*
X67801200Y-29702350D01*
X67801200Y-29702350D02*
X67686914Y-29816636D01*
X67686914Y-29816636D02*
X67648819Y-29892826D01*
X67648819Y-29892826D02*
X67648819Y-29969017D01*
X67839295Y-29930921D02*
X67801200Y-30007112D01*
X67801200Y-30007112D02*
X67725009Y-30083302D01*
X67725009Y-30083302D02*
X67572628Y-30121398D01*
X67572628Y-30121398D02*
X67305961Y-30121398D01*
X67305961Y-30121398D02*
X67153580Y-30083302D01*
X67153580Y-30083302D02*
X67077390Y-30007112D01*
X67077390Y-30007112D02*
X67039295Y-29930921D01*
X67039295Y-29930921D02*
X67039295Y-29778540D01*
X67039295Y-29778540D02*
X67077390Y-29702350D01*
X67077390Y-29702350D02*
X67153580Y-29626159D01*
X67153580Y-29626159D02*
X67305961Y-29588064D01*
X67305961Y-29588064D02*
X67572628Y-29588064D01*
X67572628Y-29588064D02*
X67725009Y-29626159D01*
X67725009Y-29626159D02*
X67801200Y-29702350D01*
X67801200Y-29702350D02*
X67839295Y-29778540D01*
X67839295Y-29778540D02*
X67839295Y-29930921D01*
X48796553Y-78609819D02*
X48463220Y-78133628D01*
X48225125Y-78609819D02*
X48225125Y-77609819D01*
X48225125Y-77609819D02*
X48606077Y-77609819D01*
X48606077Y-77609819D02*
X48701315Y-77657438D01*
X48701315Y-77657438D02*
X48748934Y-77705057D01*
X48748934Y-77705057D02*
X48796553Y-77800295D01*
X48796553Y-77800295D02*
X48796553Y-77943152D01*
X48796553Y-77943152D02*
X48748934Y-78038390D01*
X48748934Y-78038390D02*
X48701315Y-78086009D01*
X48701315Y-78086009D02*
X48606077Y-78133628D01*
X48606077Y-78133628D02*
X48225125Y-78133628D01*
X49177506Y-78562200D02*
X49320363Y-78609819D01*
X49320363Y-78609819D02*
X49558458Y-78609819D01*
X49558458Y-78609819D02*
X49653696Y-78562200D01*
X49653696Y-78562200D02*
X49701315Y-78514580D01*
X49701315Y-78514580D02*
X49748934Y-78419342D01*
X49748934Y-78419342D02*
X49748934Y-78324104D01*
X49748934Y-78324104D02*
X49701315Y-78228866D01*
X49701315Y-78228866D02*
X49653696Y-78181247D01*
X49653696Y-78181247D02*
X49558458Y-78133628D01*
X49558458Y-78133628D02*
X49367982Y-78086009D01*
X49367982Y-78086009D02*
X49272744Y-78038390D01*
X49272744Y-78038390D02*
X49225125Y-77990771D01*
X49225125Y-77990771D02*
X49177506Y-77895533D01*
X49177506Y-77895533D02*
X49177506Y-77800295D01*
X49177506Y-77800295D02*
X49225125Y-77705057D01*
X49225125Y-77705057D02*
X49272744Y-77657438D01*
X49272744Y-77657438D02*
X49367982Y-77609819D01*
X49367982Y-77609819D02*
X49606077Y-77609819D01*
X49606077Y-77609819D02*
X49748934Y-77657438D01*
X50034649Y-77609819D02*
X50606077Y-77609819D01*
X50320363Y-78609819D02*
X50320363Y-77609819D01*
X67077390Y-28470255D02*
X67039295Y-28546445D01*
X67039295Y-28546445D02*
X67039295Y-28660731D01*
X67039295Y-28660731D02*
X67077390Y-28775017D01*
X67077390Y-28775017D02*
X67153580Y-28851207D01*
X67153580Y-28851207D02*
X67229771Y-28889302D01*
X67229771Y-28889302D02*
X67382152Y-28927398D01*
X67382152Y-28927398D02*
X67496438Y-28927398D01*
X67496438Y-28927398D02*
X67648819Y-28889302D01*
X67648819Y-28889302D02*
X67725009Y-28851207D01*
X67725009Y-28851207D02*
X67801200Y-28775017D01*
X67801200Y-28775017D02*
X67839295Y-28660731D01*
X67839295Y-28660731D02*
X67839295Y-28584540D01*
X67839295Y-28584540D02*
X67801200Y-28470255D01*
X67801200Y-28470255D02*
X67763104Y-28432159D01*
X67763104Y-28432159D02*
X67496438Y-28432159D01*
X67496438Y-28432159D02*
X67496438Y-28584540D01*
X67839295Y-28089302D02*
X67039295Y-28089302D01*
X67039295Y-28089302D02*
X67839295Y-27632159D01*
X67839295Y-27632159D02*
X67039295Y-27632159D01*
X67839295Y-27251207D02*
X67039295Y-27251207D01*
X67039295Y-27251207D02*
X67039295Y-27060731D01*
X67039295Y-27060731D02*
X67077390Y-26946445D01*
X67077390Y-26946445D02*
X67153580Y-26870255D01*
X67153580Y-26870255D02*
X67229771Y-26832160D01*
X67229771Y-26832160D02*
X67382152Y-26794064D01*
X67382152Y-26794064D02*
X67496438Y-26794064D01*
X67496438Y-26794064D02*
X67648819Y-26832160D01*
X67648819Y-26832160D02*
X67725009Y-26870255D01*
X67725009Y-26870255D02*
X67801200Y-26946445D01*
X67801200Y-26946445D02*
X67839295Y-27060731D01*
X67839295Y-27060731D02*
X67839295Y-27251207D01*
X79029160Y-24659295D02*
X79029160Y-23859295D01*
X79029160Y-23859295D02*
X79333922Y-23859295D01*
X79333922Y-23859295D02*
X79410112Y-23897390D01*
X79410112Y-23897390D02*
X79448207Y-23935485D01*
X79448207Y-23935485D02*
X79486303Y-24011676D01*
X79486303Y-24011676D02*
X79486303Y-24125961D01*
X79486303Y-24125961D02*
X79448207Y-24202152D01*
X79448207Y-24202152D02*
X79410112Y-24240247D01*
X79410112Y-24240247D02*
X79333922Y-24278342D01*
X79333922Y-24278342D02*
X79029160Y-24278342D01*
X79752969Y-23859295D02*
X79943445Y-24659295D01*
X79943445Y-24659295D02*
X80095826Y-24087866D01*
X80095826Y-24087866D02*
X80248207Y-24659295D01*
X80248207Y-24659295D02*
X80438684Y-23859295D01*
X81200589Y-24659295D02*
X80933922Y-24278342D01*
X80743446Y-24659295D02*
X80743446Y-23859295D01*
X80743446Y-23859295D02*
X81048208Y-23859295D01*
X81048208Y-23859295D02*
X81124398Y-23897390D01*
X81124398Y-23897390D02*
X81162493Y-23935485D01*
X81162493Y-23935485D02*
X81200589Y-24011676D01*
X81200589Y-24011676D02*
X81200589Y-24125961D01*
X81200589Y-24125961D02*
X81162493Y-24202152D01*
X81162493Y-24202152D02*
X81124398Y-24240247D01*
X81124398Y-24240247D02*
X81048208Y-24278342D01*
X81048208Y-24278342D02*
X80743446Y-24278342D01*
D11*
X97561980Y-84783898D02*
X97609600Y-84831517D01*
X97609600Y-84831517D02*
X97657219Y-84974374D01*
X97657219Y-84974374D02*
X97657219Y-85069612D01*
X97657219Y-85069612D02*
X97609600Y-85212469D01*
X97609600Y-85212469D02*
X97514361Y-85307707D01*
X97514361Y-85307707D02*
X97419123Y-85355326D01*
X97419123Y-85355326D02*
X97228647Y-85402945D01*
X97228647Y-85402945D02*
X97085790Y-85402945D01*
X97085790Y-85402945D02*
X96895314Y-85355326D01*
X96895314Y-85355326D02*
X96800076Y-85307707D01*
X96800076Y-85307707D02*
X96704838Y-85212469D01*
X96704838Y-85212469D02*
X96657219Y-85069612D01*
X96657219Y-85069612D02*
X96657219Y-84974374D01*
X96657219Y-84974374D02*
X96704838Y-84831517D01*
X96704838Y-84831517D02*
X96752457Y-84783898D01*
X97657219Y-84212469D02*
X97609600Y-84307707D01*
X97609600Y-84307707D02*
X97561980Y-84355326D01*
X97561980Y-84355326D02*
X97466742Y-84402945D01*
X97466742Y-84402945D02*
X97181028Y-84402945D01*
X97181028Y-84402945D02*
X97085790Y-84355326D01*
X97085790Y-84355326D02*
X97038171Y-84307707D01*
X97038171Y-84307707D02*
X96990552Y-84212469D01*
X96990552Y-84212469D02*
X96990552Y-84069612D01*
X96990552Y-84069612D02*
X97038171Y-83974374D01*
X97038171Y-83974374D02*
X97085790Y-83926755D01*
X97085790Y-83926755D02*
X97181028Y-83879136D01*
X97181028Y-83879136D02*
X97466742Y-83879136D01*
X97466742Y-83879136D02*
X97561980Y-83926755D01*
X97561980Y-83926755D02*
X97609600Y-83974374D01*
X97609600Y-83974374D02*
X97657219Y-84069612D01*
X97657219Y-84069612D02*
X97657219Y-84212469D01*
X96990552Y-83450564D02*
X97990552Y-83450564D01*
X97038171Y-83450564D02*
X96990552Y-83355326D01*
X96990552Y-83355326D02*
X96990552Y-83164850D01*
X96990552Y-83164850D02*
X97038171Y-83069612D01*
X97038171Y-83069612D02*
X97085790Y-83021993D01*
X97085790Y-83021993D02*
X97181028Y-82974374D01*
X97181028Y-82974374D02*
X97466742Y-82974374D01*
X97466742Y-82974374D02*
X97561980Y-83021993D01*
X97561980Y-83021993D02*
X97609600Y-83069612D01*
X97609600Y-83069612D02*
X97657219Y-83164850D01*
X97657219Y-83164850D02*
X97657219Y-83355326D01*
X97657219Y-83355326D02*
X97609600Y-83450564D01*
X96990552Y-82641040D02*
X97657219Y-82402945D01*
X96990552Y-82164850D02*
X97657219Y-82402945D01*
X97657219Y-82402945D02*
X97895314Y-82498183D01*
X97895314Y-82498183D02*
X97942933Y-82545802D01*
X97942933Y-82545802D02*
X97990552Y-82641040D01*
X97657219Y-81783897D02*
X96990552Y-81783897D01*
X97181028Y-81783897D02*
X97085790Y-81736278D01*
X97085790Y-81736278D02*
X97038171Y-81688659D01*
X97038171Y-81688659D02*
X96990552Y-81593421D01*
X96990552Y-81593421D02*
X96990552Y-81498183D01*
X97657219Y-81164849D02*
X96990552Y-81164849D01*
X96657219Y-81164849D02*
X96704838Y-81212468D01*
X96704838Y-81212468D02*
X96752457Y-81164849D01*
X96752457Y-81164849D02*
X96704838Y-81117230D01*
X96704838Y-81117230D02*
X96657219Y-81164849D01*
X96657219Y-81164849D02*
X96752457Y-81164849D01*
X96990552Y-80260088D02*
X97800076Y-80260088D01*
X97800076Y-80260088D02*
X97895314Y-80307707D01*
X97895314Y-80307707D02*
X97942933Y-80355326D01*
X97942933Y-80355326D02*
X97990552Y-80450564D01*
X97990552Y-80450564D02*
X97990552Y-80593421D01*
X97990552Y-80593421D02*
X97942933Y-80688659D01*
X97609600Y-80260088D02*
X97657219Y-80355326D01*
X97657219Y-80355326D02*
X97657219Y-80545802D01*
X97657219Y-80545802D02*
X97609600Y-80641040D01*
X97609600Y-80641040D02*
X97561980Y-80688659D01*
X97561980Y-80688659D02*
X97466742Y-80736278D01*
X97466742Y-80736278D02*
X97181028Y-80736278D01*
X97181028Y-80736278D02*
X97085790Y-80688659D01*
X97085790Y-80688659D02*
X97038171Y-80641040D01*
X97038171Y-80641040D02*
X96990552Y-80545802D01*
X96990552Y-80545802D02*
X96990552Y-80355326D01*
X96990552Y-80355326D02*
X97038171Y-80260088D01*
X97657219Y-79783897D02*
X96657219Y-79783897D01*
X97657219Y-79355326D02*
X97133409Y-79355326D01*
X97133409Y-79355326D02*
X97038171Y-79402945D01*
X97038171Y-79402945D02*
X96990552Y-79498183D01*
X96990552Y-79498183D02*
X96990552Y-79641040D01*
X96990552Y-79641040D02*
X97038171Y-79736278D01*
X97038171Y-79736278D02*
X97085790Y-79783897D01*
X96990552Y-79021992D02*
X96990552Y-78641040D01*
X96657219Y-78879135D02*
X97514361Y-78879135D01*
X97514361Y-78879135D02*
X97609600Y-78831516D01*
X97609600Y-78831516D02*
X97657219Y-78736278D01*
X97657219Y-78736278D02*
X97657219Y-78641040D01*
X98038171Y-77260087D02*
X97990552Y-77307706D01*
X97990552Y-77307706D02*
X97847695Y-77402944D01*
X97847695Y-77402944D02*
X97752457Y-77450563D01*
X97752457Y-77450563D02*
X97609600Y-77498182D01*
X97609600Y-77498182D02*
X97371504Y-77545801D01*
X97371504Y-77545801D02*
X97181028Y-77545801D01*
X97181028Y-77545801D02*
X96942933Y-77498182D01*
X96942933Y-77498182D02*
X96800076Y-77450563D01*
X96800076Y-77450563D02*
X96704838Y-77402944D01*
X96704838Y-77402944D02*
X96561980Y-77307706D01*
X96561980Y-77307706D02*
X96514361Y-77260087D01*
X97561980Y-76307706D02*
X97609600Y-76355325D01*
X97609600Y-76355325D02*
X97657219Y-76498182D01*
X97657219Y-76498182D02*
X97657219Y-76593420D01*
X97657219Y-76593420D02*
X97609600Y-76736277D01*
X97609600Y-76736277D02*
X97514361Y-76831515D01*
X97514361Y-76831515D02*
X97419123Y-76879134D01*
X97419123Y-76879134D02*
X97228647Y-76926753D01*
X97228647Y-76926753D02*
X97085790Y-76926753D01*
X97085790Y-76926753D02*
X96895314Y-76879134D01*
X96895314Y-76879134D02*
X96800076Y-76831515D01*
X96800076Y-76831515D02*
X96704838Y-76736277D01*
X96704838Y-76736277D02*
X96657219Y-76593420D01*
X96657219Y-76593420D02*
X96657219Y-76498182D01*
X96657219Y-76498182D02*
X96704838Y-76355325D01*
X96704838Y-76355325D02*
X96752457Y-76307706D01*
X98038171Y-75974372D02*
X97990552Y-75926753D01*
X97990552Y-75926753D02*
X97847695Y-75831515D01*
X97847695Y-75831515D02*
X97752457Y-75783896D01*
X97752457Y-75783896D02*
X97609600Y-75736277D01*
X97609600Y-75736277D02*
X97371504Y-75688658D01*
X97371504Y-75688658D02*
X97181028Y-75688658D01*
X97181028Y-75688658D02*
X96942933Y-75736277D01*
X96942933Y-75736277D02*
X96800076Y-75783896D01*
X96800076Y-75783896D02*
X96704838Y-75831515D01*
X96704838Y-75831515D02*
X96561980Y-75926753D01*
X96561980Y-75926753D02*
X96514361Y-75974372D01*
X96752457Y-74498181D02*
X96704838Y-74450562D01*
X96704838Y-74450562D02*
X96657219Y-74355324D01*
X96657219Y-74355324D02*
X96657219Y-74117229D01*
X96657219Y-74117229D02*
X96704838Y-74021991D01*
X96704838Y-74021991D02*
X96752457Y-73974372D01*
X96752457Y-73974372D02*
X96847695Y-73926753D01*
X96847695Y-73926753D02*
X96942933Y-73926753D01*
X96942933Y-73926753D02*
X97085790Y-73974372D01*
X97085790Y-73974372D02*
X97657219Y-74545800D01*
X97657219Y-74545800D02*
X97657219Y-73926753D01*
X96657219Y-73307705D02*
X96657219Y-73212467D01*
X96657219Y-73212467D02*
X96704838Y-73117229D01*
X96704838Y-73117229D02*
X96752457Y-73069610D01*
X96752457Y-73069610D02*
X96847695Y-73021991D01*
X96847695Y-73021991D02*
X97038171Y-72974372D01*
X97038171Y-72974372D02*
X97276266Y-72974372D01*
X97276266Y-72974372D02*
X97466742Y-73021991D01*
X97466742Y-73021991D02*
X97561980Y-73069610D01*
X97561980Y-73069610D02*
X97609600Y-73117229D01*
X97609600Y-73117229D02*
X97657219Y-73212467D01*
X97657219Y-73212467D02*
X97657219Y-73307705D01*
X97657219Y-73307705D02*
X97609600Y-73402943D01*
X97609600Y-73402943D02*
X97561980Y-73450562D01*
X97561980Y-73450562D02*
X97466742Y-73498181D01*
X97466742Y-73498181D02*
X97276266Y-73545800D01*
X97276266Y-73545800D02*
X97038171Y-73545800D01*
X97038171Y-73545800D02*
X96847695Y-73498181D01*
X96847695Y-73498181D02*
X96752457Y-73450562D01*
X96752457Y-73450562D02*
X96704838Y-73402943D01*
X96704838Y-73402943D02*
X96657219Y-73307705D01*
X96752457Y-72593419D02*
X96704838Y-72545800D01*
X96704838Y-72545800D02*
X96657219Y-72450562D01*
X96657219Y-72450562D02*
X96657219Y-72212467D01*
X96657219Y-72212467D02*
X96704838Y-72117229D01*
X96704838Y-72117229D02*
X96752457Y-72069610D01*
X96752457Y-72069610D02*
X96847695Y-72021991D01*
X96847695Y-72021991D02*
X96942933Y-72021991D01*
X96942933Y-72021991D02*
X97085790Y-72069610D01*
X97085790Y-72069610D02*
X97657219Y-72641038D01*
X97657219Y-72641038D02*
X97657219Y-72021991D01*
X96990552Y-71164848D02*
X97657219Y-71164848D01*
X96609600Y-71402943D02*
X97323885Y-71641038D01*
X97323885Y-71641038D02*
X97323885Y-71021991D01*
X97657219Y-69879133D02*
X96657219Y-69879133D01*
X96657219Y-69879133D02*
X97371504Y-69545800D01*
X97371504Y-69545800D02*
X96657219Y-69212467D01*
X96657219Y-69212467D02*
X97657219Y-69212467D01*
X97561980Y-68736276D02*
X97609600Y-68688657D01*
X97609600Y-68688657D02*
X97657219Y-68736276D01*
X97657219Y-68736276D02*
X97609600Y-68783895D01*
X97609600Y-68783895D02*
X97561980Y-68736276D01*
X97561980Y-68736276D02*
X97657219Y-68736276D01*
X97133409Y-67164848D02*
X97133409Y-67498181D01*
X97657219Y-67498181D02*
X96657219Y-67498181D01*
X96657219Y-67498181D02*
X96657219Y-67021991D01*
X97657219Y-66641038D02*
X96990552Y-66641038D01*
X97181028Y-66641038D02*
X97085790Y-66593419D01*
X97085790Y-66593419D02*
X97038171Y-66545800D01*
X97038171Y-66545800D02*
X96990552Y-66450562D01*
X96990552Y-66450562D02*
X96990552Y-66355324D01*
X97657219Y-65879133D02*
X97609600Y-65974371D01*
X97609600Y-65974371D02*
X97561980Y-66021990D01*
X97561980Y-66021990D02*
X97466742Y-66069609D01*
X97466742Y-66069609D02*
X97181028Y-66069609D01*
X97181028Y-66069609D02*
X97085790Y-66021990D01*
X97085790Y-66021990D02*
X97038171Y-65974371D01*
X97038171Y-65974371D02*
X96990552Y-65879133D01*
X96990552Y-65879133D02*
X96990552Y-65736276D01*
X96990552Y-65736276D02*
X97038171Y-65641038D01*
X97038171Y-65641038D02*
X97085790Y-65593419D01*
X97085790Y-65593419D02*
X97181028Y-65545800D01*
X97181028Y-65545800D02*
X97466742Y-65545800D01*
X97466742Y-65545800D02*
X97561980Y-65593419D01*
X97561980Y-65593419D02*
X97609600Y-65641038D01*
X97609600Y-65641038D02*
X97657219Y-65736276D01*
X97657219Y-65736276D02*
X97657219Y-65879133D01*
X97657219Y-65117228D02*
X96657219Y-65117228D01*
X97657219Y-64688657D02*
X97133409Y-64688657D01*
X97133409Y-64688657D02*
X97038171Y-64736276D01*
X97038171Y-64736276D02*
X96990552Y-64831514D01*
X96990552Y-64831514D02*
X96990552Y-64974371D01*
X96990552Y-64974371D02*
X97038171Y-65069609D01*
X97038171Y-65069609D02*
X97085790Y-65117228D01*
X96990552Y-64212466D02*
X97657219Y-64212466D01*
X97085790Y-64212466D02*
X97038171Y-64164847D01*
X97038171Y-64164847D02*
X96990552Y-64069609D01*
X96990552Y-64069609D02*
X96990552Y-63926752D01*
X96990552Y-63926752D02*
X97038171Y-63831514D01*
X97038171Y-63831514D02*
X97133409Y-63783895D01*
X97133409Y-63783895D02*
X97657219Y-63783895D01*
X97609600Y-62926752D02*
X97657219Y-63021990D01*
X97657219Y-63021990D02*
X97657219Y-63212466D01*
X97657219Y-63212466D02*
X97609600Y-63307704D01*
X97609600Y-63307704D02*
X97514361Y-63355323D01*
X97514361Y-63355323D02*
X97133409Y-63355323D01*
X97133409Y-63355323D02*
X97038171Y-63307704D01*
X97038171Y-63307704D02*
X96990552Y-63212466D01*
X96990552Y-63212466D02*
X96990552Y-63021990D01*
X96990552Y-63021990D02*
X97038171Y-62926752D01*
X97038171Y-62926752D02*
X97133409Y-62879133D01*
X97133409Y-62879133D02*
X97228647Y-62879133D01*
X97228647Y-62879133D02*
X97323885Y-63355323D01*
X95752219Y-84879136D02*
X95752219Y-85355326D01*
X95752219Y-85355326D02*
X94752219Y-85355326D01*
X95752219Y-84545802D02*
X95085552Y-84545802D01*
X94752219Y-84545802D02*
X94799838Y-84593421D01*
X94799838Y-84593421D02*
X94847457Y-84545802D01*
X94847457Y-84545802D02*
X94799838Y-84498183D01*
X94799838Y-84498183D02*
X94752219Y-84545802D01*
X94752219Y-84545802D02*
X94847457Y-84545802D01*
X95085552Y-83641041D02*
X95895076Y-83641041D01*
X95895076Y-83641041D02*
X95990314Y-83688660D01*
X95990314Y-83688660D02*
X96037933Y-83736279D01*
X96037933Y-83736279D02*
X96085552Y-83831517D01*
X96085552Y-83831517D02*
X96085552Y-83974374D01*
X96085552Y-83974374D02*
X96037933Y-84069612D01*
X95704600Y-83641041D02*
X95752219Y-83736279D01*
X95752219Y-83736279D02*
X95752219Y-83926755D01*
X95752219Y-83926755D02*
X95704600Y-84021993D01*
X95704600Y-84021993D02*
X95656980Y-84069612D01*
X95656980Y-84069612D02*
X95561742Y-84117231D01*
X95561742Y-84117231D02*
X95276028Y-84117231D01*
X95276028Y-84117231D02*
X95180790Y-84069612D01*
X95180790Y-84069612D02*
X95133171Y-84021993D01*
X95133171Y-84021993D02*
X95085552Y-83926755D01*
X95085552Y-83926755D02*
X95085552Y-83736279D01*
X95085552Y-83736279D02*
X95133171Y-83641041D01*
X95752219Y-83164850D02*
X94752219Y-83164850D01*
X95752219Y-82736279D02*
X95228409Y-82736279D01*
X95228409Y-82736279D02*
X95133171Y-82783898D01*
X95133171Y-82783898D02*
X95085552Y-82879136D01*
X95085552Y-82879136D02*
X95085552Y-83021993D01*
X95085552Y-83021993D02*
X95133171Y-83117231D01*
X95133171Y-83117231D02*
X95180790Y-83164850D01*
X95085552Y-82402945D02*
X95085552Y-82021993D01*
X94752219Y-82260088D02*
X95609361Y-82260088D01*
X95609361Y-82260088D02*
X95704600Y-82212469D01*
X95704600Y-82212469D02*
X95752219Y-82117231D01*
X95752219Y-82117231D02*
X95752219Y-82021993D01*
X95085552Y-81688659D02*
X95752219Y-81688659D01*
X95180790Y-81688659D02*
X95133171Y-81641040D01*
X95133171Y-81641040D02*
X95085552Y-81545802D01*
X95085552Y-81545802D02*
X95085552Y-81402945D01*
X95085552Y-81402945D02*
X95133171Y-81307707D01*
X95133171Y-81307707D02*
X95228409Y-81260088D01*
X95228409Y-81260088D02*
X95752219Y-81260088D01*
X95752219Y-80783897D02*
X95085552Y-80783897D01*
X94752219Y-80783897D02*
X94799838Y-80831516D01*
X94799838Y-80831516D02*
X94847457Y-80783897D01*
X94847457Y-80783897D02*
X94799838Y-80736278D01*
X94799838Y-80736278D02*
X94752219Y-80783897D01*
X94752219Y-80783897D02*
X94847457Y-80783897D01*
X95085552Y-80307707D02*
X95752219Y-80307707D01*
X95180790Y-80307707D02*
X95133171Y-80260088D01*
X95133171Y-80260088D02*
X95085552Y-80164850D01*
X95085552Y-80164850D02*
X95085552Y-80021993D01*
X95085552Y-80021993D02*
X95133171Y-79926755D01*
X95133171Y-79926755D02*
X95228409Y-79879136D01*
X95228409Y-79879136D02*
X95752219Y-79879136D01*
X95085552Y-78974374D02*
X95895076Y-78974374D01*
X95895076Y-78974374D02*
X95990314Y-79021993D01*
X95990314Y-79021993D02*
X96037933Y-79069612D01*
X96037933Y-79069612D02*
X96085552Y-79164850D01*
X96085552Y-79164850D02*
X96085552Y-79307707D01*
X96085552Y-79307707D02*
X96037933Y-79402945D01*
X95704600Y-78974374D02*
X95752219Y-79069612D01*
X95752219Y-79069612D02*
X95752219Y-79260088D01*
X95752219Y-79260088D02*
X95704600Y-79355326D01*
X95704600Y-79355326D02*
X95656980Y-79402945D01*
X95656980Y-79402945D02*
X95561742Y-79450564D01*
X95561742Y-79450564D02*
X95276028Y-79450564D01*
X95276028Y-79450564D02*
X95180790Y-79402945D01*
X95180790Y-79402945D02*
X95133171Y-79355326D01*
X95133171Y-79355326D02*
X95085552Y-79260088D01*
X95085552Y-79260088D02*
X95085552Y-79069612D01*
X95085552Y-79069612D02*
X95133171Y-78974374D01*
X95752219Y-77736278D02*
X94752219Y-77736278D01*
X94752219Y-77736278D02*
X94752219Y-77498183D01*
X94752219Y-77498183D02*
X94799838Y-77355326D01*
X94799838Y-77355326D02*
X94895076Y-77260088D01*
X94895076Y-77260088D02*
X94990314Y-77212469D01*
X94990314Y-77212469D02*
X95180790Y-77164850D01*
X95180790Y-77164850D02*
X95323647Y-77164850D01*
X95323647Y-77164850D02*
X95514123Y-77212469D01*
X95514123Y-77212469D02*
X95609361Y-77260088D01*
X95609361Y-77260088D02*
X95704600Y-77355326D01*
X95704600Y-77355326D02*
X95752219Y-77498183D01*
X95752219Y-77498183D02*
X95752219Y-77736278D01*
X95704600Y-76355326D02*
X95752219Y-76450564D01*
X95752219Y-76450564D02*
X95752219Y-76641040D01*
X95752219Y-76641040D02*
X95704600Y-76736278D01*
X95704600Y-76736278D02*
X95609361Y-76783897D01*
X95609361Y-76783897D02*
X95228409Y-76783897D01*
X95228409Y-76783897D02*
X95133171Y-76736278D01*
X95133171Y-76736278D02*
X95085552Y-76641040D01*
X95085552Y-76641040D02*
X95085552Y-76450564D01*
X95085552Y-76450564D02*
X95133171Y-76355326D01*
X95133171Y-76355326D02*
X95228409Y-76307707D01*
X95228409Y-76307707D02*
X95323647Y-76307707D01*
X95323647Y-76307707D02*
X95418885Y-76783897D01*
X95085552Y-76021992D02*
X95085552Y-75641040D01*
X94752219Y-75879135D02*
X95609361Y-75879135D01*
X95609361Y-75879135D02*
X95704600Y-75831516D01*
X95704600Y-75831516D02*
X95752219Y-75736278D01*
X95752219Y-75736278D02*
X95752219Y-75641040D01*
X95704600Y-74926754D02*
X95752219Y-75021992D01*
X95752219Y-75021992D02*
X95752219Y-75212468D01*
X95752219Y-75212468D02*
X95704600Y-75307706D01*
X95704600Y-75307706D02*
X95609361Y-75355325D01*
X95609361Y-75355325D02*
X95228409Y-75355325D01*
X95228409Y-75355325D02*
X95133171Y-75307706D01*
X95133171Y-75307706D02*
X95085552Y-75212468D01*
X95085552Y-75212468D02*
X95085552Y-75021992D01*
X95085552Y-75021992D02*
X95133171Y-74926754D01*
X95133171Y-74926754D02*
X95228409Y-74879135D01*
X95228409Y-74879135D02*
X95323647Y-74879135D01*
X95323647Y-74879135D02*
X95418885Y-75355325D01*
X95704600Y-74021992D02*
X95752219Y-74117230D01*
X95752219Y-74117230D02*
X95752219Y-74307706D01*
X95752219Y-74307706D02*
X95704600Y-74402944D01*
X95704600Y-74402944D02*
X95656980Y-74450563D01*
X95656980Y-74450563D02*
X95561742Y-74498182D01*
X95561742Y-74498182D02*
X95276028Y-74498182D01*
X95276028Y-74498182D02*
X95180790Y-74450563D01*
X95180790Y-74450563D02*
X95133171Y-74402944D01*
X95133171Y-74402944D02*
X95085552Y-74307706D01*
X95085552Y-74307706D02*
X95085552Y-74117230D01*
X95085552Y-74117230D02*
X95133171Y-74021992D01*
X95085552Y-73736277D02*
X95085552Y-73355325D01*
X94752219Y-73593420D02*
X95609361Y-73593420D01*
X95609361Y-73593420D02*
X95704600Y-73545801D01*
X95704600Y-73545801D02*
X95752219Y-73450563D01*
X95752219Y-73450563D02*
X95752219Y-73355325D01*
X95752219Y-72879134D02*
X95704600Y-72974372D01*
X95704600Y-72974372D02*
X95656980Y-73021991D01*
X95656980Y-73021991D02*
X95561742Y-73069610D01*
X95561742Y-73069610D02*
X95276028Y-73069610D01*
X95276028Y-73069610D02*
X95180790Y-73021991D01*
X95180790Y-73021991D02*
X95133171Y-72974372D01*
X95133171Y-72974372D02*
X95085552Y-72879134D01*
X95085552Y-72879134D02*
X95085552Y-72736277D01*
X95085552Y-72736277D02*
X95133171Y-72641039D01*
X95133171Y-72641039D02*
X95180790Y-72593420D01*
X95180790Y-72593420D02*
X95276028Y-72545801D01*
X95276028Y-72545801D02*
X95561742Y-72545801D01*
X95561742Y-72545801D02*
X95656980Y-72593420D01*
X95656980Y-72593420D02*
X95704600Y-72641039D01*
X95704600Y-72641039D02*
X95752219Y-72736277D01*
X95752219Y-72736277D02*
X95752219Y-72879134D01*
X95752219Y-72117229D02*
X95085552Y-72117229D01*
X95276028Y-72117229D02*
X95180790Y-72069610D01*
X95180790Y-72069610D02*
X95133171Y-72021991D01*
X95133171Y-72021991D02*
X95085552Y-71926753D01*
X95085552Y-71926753D02*
X95085552Y-71831515D01*
X95085552Y-70831514D02*
X95752219Y-70593419D01*
X95752219Y-70593419D02*
X95085552Y-70355324D01*
X94752219Y-69783895D02*
X94752219Y-69688657D01*
X94752219Y-69688657D02*
X94799838Y-69593419D01*
X94799838Y-69593419D02*
X94847457Y-69545800D01*
X94847457Y-69545800D02*
X94942695Y-69498181D01*
X94942695Y-69498181D02*
X95133171Y-69450562D01*
X95133171Y-69450562D02*
X95371266Y-69450562D01*
X95371266Y-69450562D02*
X95561742Y-69498181D01*
X95561742Y-69498181D02*
X95656980Y-69545800D01*
X95656980Y-69545800D02*
X95704600Y-69593419D01*
X95704600Y-69593419D02*
X95752219Y-69688657D01*
X95752219Y-69688657D02*
X95752219Y-69783895D01*
X95752219Y-69783895D02*
X95704600Y-69879133D01*
X95704600Y-69879133D02*
X95656980Y-69926752D01*
X95656980Y-69926752D02*
X95561742Y-69974371D01*
X95561742Y-69974371D02*
X95371266Y-70021990D01*
X95371266Y-70021990D02*
X95133171Y-70021990D01*
X95133171Y-70021990D02*
X94942695Y-69974371D01*
X94942695Y-69974371D02*
X94847457Y-69926752D01*
X94847457Y-69926752D02*
X94799838Y-69879133D01*
X94799838Y-69879133D02*
X94752219Y-69783895D01*
X95656980Y-69021990D02*
X95704600Y-68974371D01*
X95704600Y-68974371D02*
X95752219Y-69021990D01*
X95752219Y-69021990D02*
X95704600Y-69069609D01*
X95704600Y-69069609D02*
X95656980Y-69021990D01*
X95656980Y-69021990D02*
X95752219Y-69021990D01*
X94752219Y-68069610D02*
X94752219Y-68545800D01*
X94752219Y-68545800D02*
X95228409Y-68593419D01*
X95228409Y-68593419D02*
X95180790Y-68545800D01*
X95180790Y-68545800D02*
X95133171Y-68450562D01*
X95133171Y-68450562D02*
X95133171Y-68212467D01*
X95133171Y-68212467D02*
X95180790Y-68117229D01*
X95180790Y-68117229D02*
X95228409Y-68069610D01*
X95228409Y-68069610D02*
X95323647Y-68021991D01*
X95323647Y-68021991D02*
X95561742Y-68021991D01*
X95561742Y-68021991D02*
X95656980Y-68069610D01*
X95656980Y-68069610D02*
X95704600Y-68117229D01*
X95704600Y-68117229D02*
X95752219Y-68212467D01*
X95752219Y-68212467D02*
X95752219Y-68450562D01*
X95752219Y-68450562D02*
X95704600Y-68545800D01*
X95704600Y-68545800D02*
X95656980Y-68593419D01*
D10*
X67561064Y-82406200D02*
X67675350Y-82444295D01*
X67675350Y-82444295D02*
X67865826Y-82444295D01*
X67865826Y-82444295D02*
X67942017Y-82406200D01*
X67942017Y-82406200D02*
X67980112Y-82368104D01*
X67980112Y-82368104D02*
X68018207Y-82291914D01*
X68018207Y-82291914D02*
X68018207Y-82215723D01*
X68018207Y-82215723D02*
X67980112Y-82139533D01*
X67980112Y-82139533D02*
X67942017Y-82101438D01*
X67942017Y-82101438D02*
X67865826Y-82063342D01*
X67865826Y-82063342D02*
X67713445Y-82025247D01*
X67713445Y-82025247D02*
X67637255Y-81987152D01*
X67637255Y-81987152D02*
X67599160Y-81949057D01*
X67599160Y-81949057D02*
X67561064Y-81872866D01*
X67561064Y-81872866D02*
X67561064Y-81796676D01*
X67561064Y-81796676D02*
X67599160Y-81720485D01*
X67599160Y-81720485D02*
X67637255Y-81682390D01*
X67637255Y-81682390D02*
X67713445Y-81644295D01*
X67713445Y-81644295D02*
X67903922Y-81644295D01*
X67903922Y-81644295D02*
X68018207Y-81682390D01*
X68818208Y-82368104D02*
X68780112Y-82406200D01*
X68780112Y-82406200D02*
X68665827Y-82444295D01*
X68665827Y-82444295D02*
X68589636Y-82444295D01*
X68589636Y-82444295D02*
X68475350Y-82406200D01*
X68475350Y-82406200D02*
X68399160Y-82330009D01*
X68399160Y-82330009D02*
X68361065Y-82253819D01*
X68361065Y-82253819D02*
X68322969Y-82101438D01*
X68322969Y-82101438D02*
X68322969Y-81987152D01*
X68322969Y-81987152D02*
X68361065Y-81834771D01*
X68361065Y-81834771D02*
X68399160Y-81758580D01*
X68399160Y-81758580D02*
X68475350Y-81682390D01*
X68475350Y-81682390D02*
X68589636Y-81644295D01*
X68589636Y-81644295D02*
X68665827Y-81644295D01*
X68665827Y-81644295D02*
X68780112Y-81682390D01*
X68780112Y-81682390D02*
X68818208Y-81720485D01*
X69542017Y-82444295D02*
X69161065Y-82444295D01*
X69161065Y-82444295D02*
X69161065Y-81644295D01*
X82623207Y-23897390D02*
X82547017Y-23859295D01*
X82547017Y-23859295D02*
X82432731Y-23859295D01*
X82432731Y-23859295D02*
X82318445Y-23897390D01*
X82318445Y-23897390D02*
X82242255Y-23973580D01*
X82242255Y-23973580D02*
X82204160Y-24049771D01*
X82204160Y-24049771D02*
X82166064Y-24202152D01*
X82166064Y-24202152D02*
X82166064Y-24316438D01*
X82166064Y-24316438D02*
X82204160Y-24468819D01*
X82204160Y-24468819D02*
X82242255Y-24545009D01*
X82242255Y-24545009D02*
X82318445Y-24621200D01*
X82318445Y-24621200D02*
X82432731Y-24659295D01*
X82432731Y-24659295D02*
X82508922Y-24659295D01*
X82508922Y-24659295D02*
X82623207Y-24621200D01*
X82623207Y-24621200D02*
X82661303Y-24583104D01*
X82661303Y-24583104D02*
X82661303Y-24316438D01*
X82661303Y-24316438D02*
X82508922Y-24316438D01*
X83004160Y-24659295D02*
X83004160Y-23859295D01*
X83004160Y-23859295D02*
X83461303Y-24659295D01*
X83461303Y-24659295D02*
X83461303Y-23859295D01*
X83842255Y-24659295D02*
X83842255Y-23859295D01*
X83842255Y-23859295D02*
X84032731Y-23859295D01*
X84032731Y-23859295D02*
X84147017Y-23897390D01*
X84147017Y-23897390D02*
X84223207Y-23973580D01*
X84223207Y-23973580D02*
X84261302Y-24049771D01*
X84261302Y-24049771D02*
X84299398Y-24202152D01*
X84299398Y-24202152D02*
X84299398Y-24316438D01*
X84299398Y-24316438D02*
X84261302Y-24468819D01*
X84261302Y-24468819D02*
X84223207Y-24545009D01*
X84223207Y-24545009D02*
X84147017Y-24621200D01*
X84147017Y-24621200D02*
X84032731Y-24659295D01*
X84032731Y-24659295D02*
X83842255Y-24659295D01*
X65896200Y-41449637D02*
X65934295Y-41335351D01*
X65934295Y-41335351D02*
X65934295Y-41144875D01*
X65934295Y-41144875D02*
X65896200Y-41068684D01*
X65896200Y-41068684D02*
X65858104Y-41030589D01*
X65858104Y-41030589D02*
X65781914Y-40992494D01*
X65781914Y-40992494D02*
X65705723Y-40992494D01*
X65705723Y-40992494D02*
X65629533Y-41030589D01*
X65629533Y-41030589D02*
X65591438Y-41068684D01*
X65591438Y-41068684D02*
X65553342Y-41144875D01*
X65553342Y-41144875D02*
X65515247Y-41297256D01*
X65515247Y-41297256D02*
X65477152Y-41373446D01*
X65477152Y-41373446D02*
X65439057Y-41411541D01*
X65439057Y-41411541D02*
X65362866Y-41449637D01*
X65362866Y-41449637D02*
X65286676Y-41449637D01*
X65286676Y-41449637D02*
X65210485Y-41411541D01*
X65210485Y-41411541D02*
X65172390Y-41373446D01*
X65172390Y-41373446D02*
X65134295Y-41297256D01*
X65134295Y-41297256D02*
X65134295Y-41106779D01*
X65134295Y-41106779D02*
X65172390Y-40992494D01*
X65515247Y-40649636D02*
X65515247Y-40382970D01*
X65934295Y-40268684D02*
X65934295Y-40649636D01*
X65934295Y-40649636D02*
X65134295Y-40649636D01*
X65134295Y-40649636D02*
X65134295Y-40268684D01*
X65934295Y-39544874D02*
X65934295Y-39925826D01*
X65934295Y-39925826D02*
X65134295Y-39925826D01*
X33909095Y-19885819D02*
X33909095Y-18885819D01*
X33909095Y-19362009D02*
X34480523Y-19362009D01*
X34480523Y-19885819D02*
X34480523Y-18885819D01*
X35480523Y-19885819D02*
X34909095Y-19885819D01*
X35194809Y-19885819D02*
X35194809Y-18885819D01*
X35194809Y-18885819D02*
X35099571Y-19028676D01*
X35099571Y-19028676D02*
X35004333Y-19123914D01*
X35004333Y-19123914D02*
X34909095Y-19171533D01*
X67956667Y-85982200D02*
X68099524Y-86029819D01*
X68099524Y-86029819D02*
X68337619Y-86029819D01*
X68337619Y-86029819D02*
X68432857Y-85982200D01*
X68432857Y-85982200D02*
X68480476Y-85934580D01*
X68480476Y-85934580D02*
X68528095Y-85839342D01*
X68528095Y-85839342D02*
X68528095Y-85744104D01*
X68528095Y-85744104D02*
X68480476Y-85648866D01*
X68480476Y-85648866D02*
X68432857Y-85601247D01*
X68432857Y-85601247D02*
X68337619Y-85553628D01*
X68337619Y-85553628D02*
X68147143Y-85506009D01*
X68147143Y-85506009D02*
X68051905Y-85458390D01*
X68051905Y-85458390D02*
X68004286Y-85410771D01*
X68004286Y-85410771D02*
X67956667Y-85315533D01*
X67956667Y-85315533D02*
X67956667Y-85220295D01*
X67956667Y-85220295D02*
X68004286Y-85125057D01*
X68004286Y-85125057D02*
X68051905Y-85077438D01*
X68051905Y-85077438D02*
X68147143Y-85029819D01*
X68147143Y-85029819D02*
X68385238Y-85029819D01*
X68385238Y-85029819D02*
X68528095Y-85077438D01*
X68861429Y-85029819D02*
X69099524Y-86029819D01*
X69099524Y-86029819D02*
X69290000Y-85315533D01*
X69290000Y-85315533D02*
X69480476Y-86029819D01*
X69480476Y-86029819D02*
X69718572Y-85029819D01*
X70004286Y-85029819D02*
X70670952Y-85029819D01*
X70670952Y-85029819D02*
X70242381Y-86029819D01*
X30376905Y-42359819D02*
X30376905Y-41359819D01*
X30376905Y-41359819D02*
X30615000Y-41359819D01*
X30615000Y-41359819D02*
X30757857Y-41407438D01*
X30757857Y-41407438D02*
X30853095Y-41502676D01*
X30853095Y-41502676D02*
X30900714Y-41597914D01*
X30900714Y-41597914D02*
X30948333Y-41788390D01*
X30948333Y-41788390D02*
X30948333Y-41931247D01*
X30948333Y-41931247D02*
X30900714Y-42121723D01*
X30900714Y-42121723D02*
X30853095Y-42216961D01*
X30853095Y-42216961D02*
X30757857Y-42312200D01*
X30757857Y-42312200D02*
X30615000Y-42359819D01*
X30615000Y-42359819D02*
X30376905Y-42359819D01*
X31805476Y-41693152D02*
X31805476Y-42359819D01*
X31567381Y-41312200D02*
X31329286Y-42026485D01*
X31329286Y-42026485D02*
X31948333Y-42026485D01*
X29900714Y-70619819D02*
X29900714Y-69619819D01*
X29900714Y-69619819D02*
X30138809Y-69619819D01*
X30138809Y-69619819D02*
X30281666Y-69667438D01*
X30281666Y-69667438D02*
X30376904Y-69762676D01*
X30376904Y-69762676D02*
X30424523Y-69857914D01*
X30424523Y-69857914D02*
X30472142Y-70048390D01*
X30472142Y-70048390D02*
X30472142Y-70191247D01*
X30472142Y-70191247D02*
X30424523Y-70381723D01*
X30424523Y-70381723D02*
X30376904Y-70476961D01*
X30376904Y-70476961D02*
X30281666Y-70572200D01*
X30281666Y-70572200D02*
X30138809Y-70619819D01*
X30138809Y-70619819D02*
X29900714Y-70619819D01*
X31424523Y-70619819D02*
X30853095Y-70619819D01*
X31138809Y-70619819D02*
X31138809Y-69619819D01*
X31138809Y-69619819D02*
X31043571Y-69762676D01*
X31043571Y-69762676D02*
X30948333Y-69857914D01*
X30948333Y-69857914D02*
X30853095Y-69905533D01*
X32043571Y-69619819D02*
X32138809Y-69619819D01*
X32138809Y-69619819D02*
X32234047Y-69667438D01*
X32234047Y-69667438D02*
X32281666Y-69715057D01*
X32281666Y-69715057D02*
X32329285Y-69810295D01*
X32329285Y-69810295D02*
X32376904Y-70000771D01*
X32376904Y-70000771D02*
X32376904Y-70238866D01*
X32376904Y-70238866D02*
X32329285Y-70429342D01*
X32329285Y-70429342D02*
X32281666Y-70524580D01*
X32281666Y-70524580D02*
X32234047Y-70572200D01*
X32234047Y-70572200D02*
X32138809Y-70619819D01*
X32138809Y-70619819D02*
X32043571Y-70619819D01*
X32043571Y-70619819D02*
X31948333Y-70572200D01*
X31948333Y-70572200D02*
X31900714Y-70524580D01*
X31900714Y-70524580D02*
X31853095Y-70429342D01*
X31853095Y-70429342D02*
X31805476Y-70238866D01*
X31805476Y-70238866D02*
X31805476Y-70000771D01*
X31805476Y-70000771D02*
X31853095Y-69810295D01*
X31853095Y-69810295D02*
X31900714Y-69715057D01*
X31900714Y-69715057D02*
X31948333Y-69667438D01*
X31948333Y-69667438D02*
X32043571Y-69619819D01*
X54621667Y-74607200D02*
X54764524Y-74654819D01*
X54764524Y-74654819D02*
X55002619Y-74654819D01*
X55002619Y-74654819D02*
X55097857Y-74607200D01*
X55097857Y-74607200D02*
X55145476Y-74559580D01*
X55145476Y-74559580D02*
X55193095Y-74464342D01*
X55193095Y-74464342D02*
X55193095Y-74369104D01*
X55193095Y-74369104D02*
X55145476Y-74273866D01*
X55145476Y-74273866D02*
X55097857Y-74226247D01*
X55097857Y-74226247D02*
X55002619Y-74178628D01*
X55002619Y-74178628D02*
X54812143Y-74131009D01*
X54812143Y-74131009D02*
X54716905Y-74083390D01*
X54716905Y-74083390D02*
X54669286Y-74035771D01*
X54669286Y-74035771D02*
X54621667Y-73940533D01*
X54621667Y-73940533D02*
X54621667Y-73845295D01*
X54621667Y-73845295D02*
X54669286Y-73750057D01*
X54669286Y-73750057D02*
X54716905Y-73702438D01*
X54716905Y-73702438D02*
X54812143Y-73654819D01*
X54812143Y-73654819D02*
X55050238Y-73654819D01*
X55050238Y-73654819D02*
X55193095Y-73702438D01*
X55526429Y-73654819D02*
X55764524Y-74654819D01*
X55764524Y-74654819D02*
X55955000Y-73940533D01*
X55955000Y-73940533D02*
X56145476Y-74654819D01*
X56145476Y-74654819D02*
X56383572Y-73654819D01*
X57240714Y-73654819D02*
X56764524Y-73654819D01*
X56764524Y-73654819D02*
X56716905Y-74131009D01*
X56716905Y-74131009D02*
X56764524Y-74083390D01*
X56764524Y-74083390D02*
X56859762Y-74035771D01*
X56859762Y-74035771D02*
X57097857Y-74035771D01*
X57097857Y-74035771D02*
X57193095Y-74083390D01*
X57193095Y-74083390D02*
X57240714Y-74131009D01*
X57240714Y-74131009D02*
X57288333Y-74226247D01*
X57288333Y-74226247D02*
X57288333Y-74464342D01*
X57288333Y-74464342D02*
X57240714Y-74559580D01*
X57240714Y-74559580D02*
X57193095Y-74607200D01*
X57193095Y-74607200D02*
X57097857Y-74654819D01*
X57097857Y-74654819D02*
X56859762Y-74654819D01*
X56859762Y-74654819D02*
X56764524Y-74607200D01*
X56764524Y-74607200D02*
X56716905Y-74559580D01*
X29900714Y-81104819D02*
X29900714Y-80104819D01*
X29900714Y-80104819D02*
X30138809Y-80104819D01*
X30138809Y-80104819D02*
X30281666Y-80152438D01*
X30281666Y-80152438D02*
X30376904Y-80247676D01*
X30376904Y-80247676D02*
X30424523Y-80342914D01*
X30424523Y-80342914D02*
X30472142Y-80533390D01*
X30472142Y-80533390D02*
X30472142Y-80676247D01*
X30472142Y-80676247D02*
X30424523Y-80866723D01*
X30424523Y-80866723D02*
X30376904Y-80961961D01*
X30376904Y-80961961D02*
X30281666Y-81057200D01*
X30281666Y-81057200D02*
X30138809Y-81104819D01*
X30138809Y-81104819D02*
X29900714Y-81104819D01*
X31424523Y-81104819D02*
X30853095Y-81104819D01*
X31138809Y-81104819D02*
X31138809Y-80104819D01*
X31138809Y-80104819D02*
X31043571Y-80247676D01*
X31043571Y-80247676D02*
X30948333Y-80342914D01*
X30948333Y-80342914D02*
X30853095Y-80390533D01*
X31805476Y-80200057D02*
X31853095Y-80152438D01*
X31853095Y-80152438D02*
X31948333Y-80104819D01*
X31948333Y-80104819D02*
X32186428Y-80104819D01*
X32186428Y-80104819D02*
X32281666Y-80152438D01*
X32281666Y-80152438D02*
X32329285Y-80200057D01*
X32329285Y-80200057D02*
X32376904Y-80295295D01*
X32376904Y-80295295D02*
X32376904Y-80390533D01*
X32376904Y-80390533D02*
X32329285Y-80533390D01*
X32329285Y-80533390D02*
X31757857Y-81104819D01*
X31757857Y-81104819D02*
X32376904Y-81104819D01*
X33591667Y-26442200D02*
X33734524Y-26489819D01*
X33734524Y-26489819D02*
X33972619Y-26489819D01*
X33972619Y-26489819D02*
X34067857Y-26442200D01*
X34067857Y-26442200D02*
X34115476Y-26394580D01*
X34115476Y-26394580D02*
X34163095Y-26299342D01*
X34163095Y-26299342D02*
X34163095Y-26204104D01*
X34163095Y-26204104D02*
X34115476Y-26108866D01*
X34115476Y-26108866D02*
X34067857Y-26061247D01*
X34067857Y-26061247D02*
X33972619Y-26013628D01*
X33972619Y-26013628D02*
X33782143Y-25966009D01*
X33782143Y-25966009D02*
X33686905Y-25918390D01*
X33686905Y-25918390D02*
X33639286Y-25870771D01*
X33639286Y-25870771D02*
X33591667Y-25775533D01*
X33591667Y-25775533D02*
X33591667Y-25680295D01*
X33591667Y-25680295D02*
X33639286Y-25585057D01*
X33639286Y-25585057D02*
X33686905Y-25537438D01*
X33686905Y-25537438D02*
X33782143Y-25489819D01*
X33782143Y-25489819D02*
X34020238Y-25489819D01*
X34020238Y-25489819D02*
X34163095Y-25537438D01*
X34496429Y-25489819D02*
X34734524Y-26489819D01*
X34734524Y-26489819D02*
X34925000Y-25775533D01*
X34925000Y-25775533D02*
X35115476Y-26489819D01*
X35115476Y-26489819D02*
X35353572Y-25489819D01*
X35686905Y-25585057D02*
X35734524Y-25537438D01*
X35734524Y-25537438D02*
X35829762Y-25489819D01*
X35829762Y-25489819D02*
X36067857Y-25489819D01*
X36067857Y-25489819D02*
X36163095Y-25537438D01*
X36163095Y-25537438D02*
X36210714Y-25585057D01*
X36210714Y-25585057D02*
X36258333Y-25680295D01*
X36258333Y-25680295D02*
X36258333Y-25775533D01*
X36258333Y-25775533D02*
X36210714Y-25918390D01*
X36210714Y-25918390D02*
X35639286Y-26489819D01*
X35639286Y-26489819D02*
X36258333Y-26489819D01*
X46615476Y-22422295D02*
X47072619Y-22422295D01*
X46844047Y-23222295D02*
X46844047Y-22422295D01*
X47339286Y-23222295D02*
X47339286Y-22422295D01*
X47339286Y-22422295D02*
X47644048Y-22422295D01*
X47644048Y-22422295D02*
X47720238Y-22460390D01*
X47720238Y-22460390D02*
X47758333Y-22498485D01*
X47758333Y-22498485D02*
X47796429Y-22574676D01*
X47796429Y-22574676D02*
X47796429Y-22688961D01*
X47796429Y-22688961D02*
X47758333Y-22765152D01*
X47758333Y-22765152D02*
X47720238Y-22803247D01*
X47720238Y-22803247D02*
X47644048Y-22841342D01*
X47644048Y-22841342D02*
X47339286Y-22841342D01*
X48063095Y-22422295D02*
X48558333Y-22422295D01*
X48558333Y-22422295D02*
X48291667Y-22727057D01*
X48291667Y-22727057D02*
X48405952Y-22727057D01*
X48405952Y-22727057D02*
X48482143Y-22765152D01*
X48482143Y-22765152D02*
X48520238Y-22803247D01*
X48520238Y-22803247D02*
X48558333Y-22879438D01*
X48558333Y-22879438D02*
X48558333Y-23069914D01*
X48558333Y-23069914D02*
X48520238Y-23146104D01*
X48520238Y-23146104D02*
X48482143Y-23184200D01*
X48482143Y-23184200D02*
X48405952Y-23222295D01*
X48405952Y-23222295D02*
X48177381Y-23222295D01*
X48177381Y-23222295D02*
X48101190Y-23184200D01*
X48101190Y-23184200D02*
X48063095Y-23146104D01*
X72749580Y-23026666D02*
X72797200Y-23074285D01*
X72797200Y-23074285D02*
X72844819Y-23217142D01*
X72844819Y-23217142D02*
X72844819Y-23312380D01*
X72844819Y-23312380D02*
X72797200Y-23455237D01*
X72797200Y-23455237D02*
X72701961Y-23550475D01*
X72701961Y-23550475D02*
X72606723Y-23598094D01*
X72606723Y-23598094D02*
X72416247Y-23645713D01*
X72416247Y-23645713D02*
X72273390Y-23645713D01*
X72273390Y-23645713D02*
X72082914Y-23598094D01*
X72082914Y-23598094D02*
X71987676Y-23550475D01*
X71987676Y-23550475D02*
X71892438Y-23455237D01*
X71892438Y-23455237D02*
X71844819Y-23312380D01*
X71844819Y-23312380D02*
X71844819Y-23217142D01*
X71844819Y-23217142D02*
X71892438Y-23074285D01*
X71892438Y-23074285D02*
X71940057Y-23026666D01*
X72178152Y-22169523D02*
X72844819Y-22169523D01*
X71797200Y-22407618D02*
X72511485Y-22645713D01*
X72511485Y-22645713D02*
X72511485Y-22026666D01*
X50425476Y-22422295D02*
X50882619Y-22422295D01*
X50654047Y-23222295D02*
X50654047Y-22422295D01*
X51149286Y-23222295D02*
X51149286Y-22422295D01*
X51149286Y-22422295D02*
X51454048Y-22422295D01*
X51454048Y-22422295D02*
X51530238Y-22460390D01*
X51530238Y-22460390D02*
X51568333Y-22498485D01*
X51568333Y-22498485D02*
X51606429Y-22574676D01*
X51606429Y-22574676D02*
X51606429Y-22688961D01*
X51606429Y-22688961D02*
X51568333Y-22765152D01*
X51568333Y-22765152D02*
X51530238Y-22803247D01*
X51530238Y-22803247D02*
X51454048Y-22841342D01*
X51454048Y-22841342D02*
X51149286Y-22841342D01*
X52292143Y-22688961D02*
X52292143Y-23222295D01*
X52101667Y-22384200D02*
X51911190Y-22955628D01*
X51911190Y-22955628D02*
X52406429Y-22955628D01*
X92087142Y-58874819D02*
X91610952Y-58874819D01*
X91610952Y-58874819D02*
X91610952Y-57874819D01*
X92372857Y-58827200D02*
X92515714Y-58874819D01*
X92515714Y-58874819D02*
X92753809Y-58874819D01*
X92753809Y-58874819D02*
X92849047Y-58827200D01*
X92849047Y-58827200D02*
X92896666Y-58779580D01*
X92896666Y-58779580D02*
X92944285Y-58684342D01*
X92944285Y-58684342D02*
X92944285Y-58589104D01*
X92944285Y-58589104D02*
X92896666Y-58493866D01*
X92896666Y-58493866D02*
X92849047Y-58446247D01*
X92849047Y-58446247D02*
X92753809Y-58398628D01*
X92753809Y-58398628D02*
X92563333Y-58351009D01*
X92563333Y-58351009D02*
X92468095Y-58303390D01*
X92468095Y-58303390D02*
X92420476Y-58255771D01*
X92420476Y-58255771D02*
X92372857Y-58160533D01*
X92372857Y-58160533D02*
X92372857Y-58065295D01*
X92372857Y-58065295D02*
X92420476Y-57970057D01*
X92420476Y-57970057D02*
X92468095Y-57922438D01*
X92468095Y-57922438D02*
X92563333Y-57874819D01*
X92563333Y-57874819D02*
X92801428Y-57874819D01*
X92801428Y-57874819D02*
X92944285Y-57922438D01*
X93896666Y-58874819D02*
X93325238Y-58874819D01*
X93610952Y-58874819D02*
X93610952Y-57874819D01*
X93610952Y-57874819D02*
X93515714Y-58017676D01*
X93515714Y-58017676D02*
X93420476Y-58112914D01*
X93420476Y-58112914D02*
X93325238Y-58160533D01*
X98933095Y-90624819D02*
X98933095Y-89624819D01*
X98933095Y-90101009D02*
X99504523Y-90101009D01*
X99504523Y-90624819D02*
X99504523Y-89624819D01*
X99885476Y-89624819D02*
X100504523Y-89624819D01*
X100504523Y-89624819D02*
X100171190Y-90005771D01*
X100171190Y-90005771D02*
X100314047Y-90005771D01*
X100314047Y-90005771D02*
X100409285Y-90053390D01*
X100409285Y-90053390D02*
X100456904Y-90101009D01*
X100456904Y-90101009D02*
X100504523Y-90196247D01*
X100504523Y-90196247D02*
X100504523Y-90434342D01*
X100504523Y-90434342D02*
X100456904Y-90529580D01*
X100456904Y-90529580D02*
X100409285Y-90577200D01*
X100409285Y-90577200D02*
X100314047Y-90624819D01*
X100314047Y-90624819D02*
X100028333Y-90624819D01*
X100028333Y-90624819D02*
X99933095Y-90577200D01*
X99933095Y-90577200D02*
X99885476Y-90529580D01*
X82175476Y-94812295D02*
X82632619Y-94812295D01*
X82404047Y-95612295D02*
X82404047Y-94812295D01*
X82899286Y-95612295D02*
X82899286Y-94812295D01*
X82899286Y-94812295D02*
X83204048Y-94812295D01*
X83204048Y-94812295D02*
X83280238Y-94850390D01*
X83280238Y-94850390D02*
X83318333Y-94888485D01*
X83318333Y-94888485D02*
X83356429Y-94964676D01*
X83356429Y-94964676D02*
X83356429Y-95078961D01*
X83356429Y-95078961D02*
X83318333Y-95155152D01*
X83318333Y-95155152D02*
X83280238Y-95193247D01*
X83280238Y-95193247D02*
X83204048Y-95231342D01*
X83204048Y-95231342D02*
X82899286Y-95231342D01*
X84042143Y-94812295D02*
X83889762Y-94812295D01*
X83889762Y-94812295D02*
X83813571Y-94850390D01*
X83813571Y-94850390D02*
X83775476Y-94888485D01*
X83775476Y-94888485D02*
X83699286Y-95002771D01*
X83699286Y-95002771D02*
X83661190Y-95155152D01*
X83661190Y-95155152D02*
X83661190Y-95459914D01*
X83661190Y-95459914D02*
X83699286Y-95536104D01*
X83699286Y-95536104D02*
X83737381Y-95574200D01*
X83737381Y-95574200D02*
X83813571Y-95612295D01*
X83813571Y-95612295D02*
X83965952Y-95612295D01*
X83965952Y-95612295D02*
X84042143Y-95574200D01*
X84042143Y-95574200D02*
X84080238Y-95536104D01*
X84080238Y-95536104D02*
X84118333Y-95459914D01*
X84118333Y-95459914D02*
X84118333Y-95269438D01*
X84118333Y-95269438D02*
X84080238Y-95193247D01*
X84080238Y-95193247D02*
X84042143Y-95155152D01*
X84042143Y-95155152D02*
X83965952Y-95117057D01*
X83965952Y-95117057D02*
X83813571Y-95117057D01*
X83813571Y-95117057D02*
X83737381Y-95155152D01*
X83737381Y-95155152D02*
X83699286Y-95193247D01*
X83699286Y-95193247D02*
X83661190Y-95269438D01*
X76104761Y-58970057D02*
X76009523Y-58922438D01*
X76009523Y-58922438D02*
X75914285Y-58827200D01*
X75914285Y-58827200D02*
X75771428Y-58684342D01*
X75771428Y-58684342D02*
X75676190Y-58636723D01*
X75676190Y-58636723D02*
X75580952Y-58636723D01*
X75628571Y-58874819D02*
X75533333Y-58827200D01*
X75533333Y-58827200D02*
X75438095Y-58731961D01*
X75438095Y-58731961D02*
X75390476Y-58541485D01*
X75390476Y-58541485D02*
X75390476Y-58208152D01*
X75390476Y-58208152D02*
X75438095Y-58017676D01*
X75438095Y-58017676D02*
X75533333Y-57922438D01*
X75533333Y-57922438D02*
X75628571Y-57874819D01*
X75628571Y-57874819D02*
X75819047Y-57874819D01*
X75819047Y-57874819D02*
X75914285Y-57922438D01*
X75914285Y-57922438D02*
X76009523Y-58017676D01*
X76009523Y-58017676D02*
X76057142Y-58208152D01*
X76057142Y-58208152D02*
X76057142Y-58541485D01*
X76057142Y-58541485D02*
X76009523Y-58731961D01*
X76009523Y-58731961D02*
X75914285Y-58827200D01*
X75914285Y-58827200D02*
X75819047Y-58874819D01*
X75819047Y-58874819D02*
X75628571Y-58874819D01*
X77009523Y-58874819D02*
X76438095Y-58874819D01*
X76723809Y-58874819D02*
X76723809Y-57874819D01*
X76723809Y-57874819D02*
X76628571Y-58017676D01*
X76628571Y-58017676D02*
X76533333Y-58112914D01*
X76533333Y-58112914D02*
X76438095Y-58160533D01*
X80929819Y-47156666D02*
X80453628Y-47489999D01*
X80929819Y-47728094D02*
X79929819Y-47728094D01*
X79929819Y-47728094D02*
X79929819Y-47347142D01*
X79929819Y-47347142D02*
X79977438Y-47251904D01*
X79977438Y-47251904D02*
X80025057Y-47204285D01*
X80025057Y-47204285D02*
X80120295Y-47156666D01*
X80120295Y-47156666D02*
X80263152Y-47156666D01*
X80263152Y-47156666D02*
X80358390Y-47204285D01*
X80358390Y-47204285D02*
X80406009Y-47251904D01*
X80406009Y-47251904D02*
X80453628Y-47347142D01*
X80453628Y-47347142D02*
X80453628Y-47728094D01*
X80025057Y-46775713D02*
X79977438Y-46728094D01*
X79977438Y-46728094D02*
X79929819Y-46632856D01*
X79929819Y-46632856D02*
X79929819Y-46394761D01*
X79929819Y-46394761D02*
X79977438Y-46299523D01*
X79977438Y-46299523D02*
X80025057Y-46251904D01*
X80025057Y-46251904D02*
X80120295Y-46204285D01*
X80120295Y-46204285D02*
X80215533Y-46204285D01*
X80215533Y-46204285D02*
X80358390Y-46251904D01*
X80358390Y-46251904D02*
X80929819Y-46823332D01*
X80929819Y-46823332D02*
X80929819Y-46204285D01*
X85498333Y-33379580D02*
X85450714Y-33427200D01*
X85450714Y-33427200D02*
X85307857Y-33474819D01*
X85307857Y-33474819D02*
X85212619Y-33474819D01*
X85212619Y-33474819D02*
X85069762Y-33427200D01*
X85069762Y-33427200D02*
X84974524Y-33331961D01*
X84974524Y-33331961D02*
X84926905Y-33236723D01*
X84926905Y-33236723D02*
X84879286Y-33046247D01*
X84879286Y-33046247D02*
X84879286Y-32903390D01*
X84879286Y-32903390D02*
X84926905Y-32712914D01*
X84926905Y-32712914D02*
X84974524Y-32617676D01*
X84974524Y-32617676D02*
X85069762Y-32522438D01*
X85069762Y-32522438D02*
X85212619Y-32474819D01*
X85212619Y-32474819D02*
X85307857Y-32474819D01*
X85307857Y-32474819D02*
X85450714Y-32522438D01*
X85450714Y-32522438D02*
X85498333Y-32570057D01*
X85879286Y-32570057D02*
X85926905Y-32522438D01*
X85926905Y-32522438D02*
X86022143Y-32474819D01*
X86022143Y-32474819D02*
X86260238Y-32474819D01*
X86260238Y-32474819D02*
X86355476Y-32522438D01*
X86355476Y-32522438D02*
X86403095Y-32570057D01*
X86403095Y-32570057D02*
X86450714Y-32665295D01*
X86450714Y-32665295D02*
X86450714Y-32760533D01*
X86450714Y-32760533D02*
X86403095Y-32903390D01*
X86403095Y-32903390D02*
X85831667Y-33474819D01*
X85831667Y-33474819D02*
X86450714Y-33474819D01*
X29900714Y-76019819D02*
X29900714Y-75019819D01*
X29900714Y-75019819D02*
X30138809Y-75019819D01*
X30138809Y-75019819D02*
X30281666Y-75067438D01*
X30281666Y-75067438D02*
X30376904Y-75162676D01*
X30376904Y-75162676D02*
X30424523Y-75257914D01*
X30424523Y-75257914D02*
X30472142Y-75448390D01*
X30472142Y-75448390D02*
X30472142Y-75591247D01*
X30472142Y-75591247D02*
X30424523Y-75781723D01*
X30424523Y-75781723D02*
X30376904Y-75876961D01*
X30376904Y-75876961D02*
X30281666Y-75972200D01*
X30281666Y-75972200D02*
X30138809Y-76019819D01*
X30138809Y-76019819D02*
X29900714Y-76019819D01*
X31424523Y-76019819D02*
X30853095Y-76019819D01*
X31138809Y-76019819D02*
X31138809Y-75019819D01*
X31138809Y-75019819D02*
X31043571Y-75162676D01*
X31043571Y-75162676D02*
X30948333Y-75257914D01*
X30948333Y-75257914D02*
X30853095Y-75305533D01*
X32376904Y-76019819D02*
X31805476Y-76019819D01*
X32091190Y-76019819D02*
X32091190Y-75019819D01*
X32091190Y-75019819D02*
X31995952Y-75162676D01*
X31995952Y-75162676D02*
X31900714Y-75257914D01*
X31900714Y-75257914D02*
X31805476Y-75305533D01*
X33591667Y-49937200D02*
X33734524Y-49984819D01*
X33734524Y-49984819D02*
X33972619Y-49984819D01*
X33972619Y-49984819D02*
X34067857Y-49937200D01*
X34067857Y-49937200D02*
X34115476Y-49889580D01*
X34115476Y-49889580D02*
X34163095Y-49794342D01*
X34163095Y-49794342D02*
X34163095Y-49699104D01*
X34163095Y-49699104D02*
X34115476Y-49603866D01*
X34115476Y-49603866D02*
X34067857Y-49556247D01*
X34067857Y-49556247D02*
X33972619Y-49508628D01*
X33972619Y-49508628D02*
X33782143Y-49461009D01*
X33782143Y-49461009D02*
X33686905Y-49413390D01*
X33686905Y-49413390D02*
X33639286Y-49365771D01*
X33639286Y-49365771D02*
X33591667Y-49270533D01*
X33591667Y-49270533D02*
X33591667Y-49175295D01*
X33591667Y-49175295D02*
X33639286Y-49080057D01*
X33639286Y-49080057D02*
X33686905Y-49032438D01*
X33686905Y-49032438D02*
X33782143Y-48984819D01*
X33782143Y-48984819D02*
X34020238Y-48984819D01*
X34020238Y-48984819D02*
X34163095Y-49032438D01*
X34496429Y-48984819D02*
X34734524Y-49984819D01*
X34734524Y-49984819D02*
X34925000Y-49270533D01*
X34925000Y-49270533D02*
X35115476Y-49984819D01*
X35115476Y-49984819D02*
X35353572Y-48984819D01*
X35639286Y-48984819D02*
X36258333Y-48984819D01*
X36258333Y-48984819D02*
X35925000Y-49365771D01*
X35925000Y-49365771D02*
X36067857Y-49365771D01*
X36067857Y-49365771D02*
X36163095Y-49413390D01*
X36163095Y-49413390D02*
X36210714Y-49461009D01*
X36210714Y-49461009D02*
X36258333Y-49556247D01*
X36258333Y-49556247D02*
X36258333Y-49794342D01*
X36258333Y-49794342D02*
X36210714Y-49889580D01*
X36210714Y-49889580D02*
X36163095Y-49937200D01*
X36163095Y-49937200D02*
X36067857Y-49984819D01*
X36067857Y-49984819D02*
X35782143Y-49984819D01*
X35782143Y-49984819D02*
X35686905Y-49937200D01*
X35686905Y-49937200D02*
X35639286Y-49889580D01*
X30376905Y-61729819D02*
X30376905Y-60729819D01*
X30376905Y-60729819D02*
X30615000Y-60729819D01*
X30615000Y-60729819D02*
X30757857Y-60777438D01*
X30757857Y-60777438D02*
X30853095Y-60872676D01*
X30853095Y-60872676D02*
X30900714Y-60967914D01*
X30900714Y-60967914D02*
X30948333Y-61158390D01*
X30948333Y-61158390D02*
X30948333Y-61301247D01*
X30948333Y-61301247D02*
X30900714Y-61491723D01*
X30900714Y-61491723D02*
X30853095Y-61586961D01*
X30853095Y-61586961D02*
X30757857Y-61682200D01*
X30757857Y-61682200D02*
X30615000Y-61729819D01*
X30615000Y-61729819D02*
X30376905Y-61729819D01*
X31519762Y-61158390D02*
X31424524Y-61110771D01*
X31424524Y-61110771D02*
X31376905Y-61063152D01*
X31376905Y-61063152D02*
X31329286Y-60967914D01*
X31329286Y-60967914D02*
X31329286Y-60920295D01*
X31329286Y-60920295D02*
X31376905Y-60825057D01*
X31376905Y-60825057D02*
X31424524Y-60777438D01*
X31424524Y-60777438D02*
X31519762Y-60729819D01*
X31519762Y-60729819D02*
X31710238Y-60729819D01*
X31710238Y-60729819D02*
X31805476Y-60777438D01*
X31805476Y-60777438D02*
X31853095Y-60825057D01*
X31853095Y-60825057D02*
X31900714Y-60920295D01*
X31900714Y-60920295D02*
X31900714Y-60967914D01*
X31900714Y-60967914D02*
X31853095Y-61063152D01*
X31853095Y-61063152D02*
X31805476Y-61110771D01*
X31805476Y-61110771D02*
X31710238Y-61158390D01*
X31710238Y-61158390D02*
X31519762Y-61158390D01*
X31519762Y-61158390D02*
X31424524Y-61206009D01*
X31424524Y-61206009D02*
X31376905Y-61253628D01*
X31376905Y-61253628D02*
X31329286Y-61348866D01*
X31329286Y-61348866D02*
X31329286Y-61539342D01*
X31329286Y-61539342D02*
X31376905Y-61634580D01*
X31376905Y-61634580D02*
X31424524Y-61682200D01*
X31424524Y-61682200D02*
X31519762Y-61729819D01*
X31519762Y-61729819D02*
X31710238Y-61729819D01*
X31710238Y-61729819D02*
X31805476Y-61682200D01*
X31805476Y-61682200D02*
X31853095Y-61634580D01*
X31853095Y-61634580D02*
X31900714Y-61539342D01*
X31900714Y-61539342D02*
X31900714Y-61348866D01*
X31900714Y-61348866D02*
X31853095Y-61253628D01*
X31853095Y-61253628D02*
X31805476Y-61206009D01*
X31805476Y-61206009D02*
X31710238Y-61158390D01*
X81003333Y-35527080D02*
X80955714Y-35574700D01*
X80955714Y-35574700D02*
X80812857Y-35622319D01*
X80812857Y-35622319D02*
X80717619Y-35622319D01*
X80717619Y-35622319D02*
X80574762Y-35574700D01*
X80574762Y-35574700D02*
X80479524Y-35479461D01*
X80479524Y-35479461D02*
X80431905Y-35384223D01*
X80431905Y-35384223D02*
X80384286Y-35193747D01*
X80384286Y-35193747D02*
X80384286Y-35050890D01*
X80384286Y-35050890D02*
X80431905Y-34860414D01*
X80431905Y-34860414D02*
X80479524Y-34765176D01*
X80479524Y-34765176D02*
X80574762Y-34669938D01*
X80574762Y-34669938D02*
X80717619Y-34622319D01*
X80717619Y-34622319D02*
X80812857Y-34622319D01*
X80812857Y-34622319D02*
X80955714Y-34669938D01*
X80955714Y-34669938D02*
X81003333Y-34717557D01*
X81955714Y-35622319D02*
X81384286Y-35622319D01*
X81670000Y-35622319D02*
X81670000Y-34622319D01*
X81670000Y-34622319D02*
X81574762Y-34765176D01*
X81574762Y-34765176D02*
X81479524Y-34860414D01*
X81479524Y-34860414D02*
X81384286Y-34908033D01*
X30376905Y-46489819D02*
X30376905Y-45489819D01*
X30376905Y-45489819D02*
X30615000Y-45489819D01*
X30615000Y-45489819D02*
X30757857Y-45537438D01*
X30757857Y-45537438D02*
X30853095Y-45632676D01*
X30853095Y-45632676D02*
X30900714Y-45727914D01*
X30900714Y-45727914D02*
X30948333Y-45918390D01*
X30948333Y-45918390D02*
X30948333Y-46061247D01*
X30948333Y-46061247D02*
X30900714Y-46251723D01*
X30900714Y-46251723D02*
X30853095Y-46346961D01*
X30853095Y-46346961D02*
X30757857Y-46442200D01*
X30757857Y-46442200D02*
X30615000Y-46489819D01*
X30615000Y-46489819D02*
X30376905Y-46489819D01*
X31853095Y-45489819D02*
X31376905Y-45489819D01*
X31376905Y-45489819D02*
X31329286Y-45966009D01*
X31329286Y-45966009D02*
X31376905Y-45918390D01*
X31376905Y-45918390D02*
X31472143Y-45870771D01*
X31472143Y-45870771D02*
X31710238Y-45870771D01*
X31710238Y-45870771D02*
X31805476Y-45918390D01*
X31805476Y-45918390D02*
X31853095Y-45966009D01*
X31853095Y-45966009D02*
X31900714Y-46061247D01*
X31900714Y-46061247D02*
X31900714Y-46299342D01*
X31900714Y-46299342D02*
X31853095Y-46394580D01*
X31853095Y-46394580D02*
X31805476Y-46442200D01*
X31805476Y-46442200D02*
X31710238Y-46489819D01*
X31710238Y-46489819D02*
X31472143Y-46489819D01*
X31472143Y-46489819D02*
X31376905Y-46442200D01*
X31376905Y-46442200D02*
X31329286Y-46394580D01*
X74749819Y-33186666D02*
X74273628Y-33519999D01*
X74749819Y-33758094D02*
X73749819Y-33758094D01*
X73749819Y-33758094D02*
X73749819Y-33377142D01*
X73749819Y-33377142D02*
X73797438Y-33281904D01*
X73797438Y-33281904D02*
X73845057Y-33234285D01*
X73845057Y-33234285D02*
X73940295Y-33186666D01*
X73940295Y-33186666D02*
X74083152Y-33186666D01*
X74083152Y-33186666D02*
X74178390Y-33234285D01*
X74178390Y-33234285D02*
X74226009Y-33281904D01*
X74226009Y-33281904D02*
X74273628Y-33377142D01*
X74273628Y-33377142D02*
X74273628Y-33758094D01*
X74083152Y-32329523D02*
X74749819Y-32329523D01*
X73702200Y-32567618D02*
X74416485Y-32805713D01*
X74416485Y-32805713D02*
X74416485Y-32186666D01*
X72336819Y-47156666D02*
X71860628Y-47489999D01*
X72336819Y-47728094D02*
X71336819Y-47728094D01*
X71336819Y-47728094D02*
X71336819Y-47347142D01*
X71336819Y-47347142D02*
X71384438Y-47251904D01*
X71384438Y-47251904D02*
X71432057Y-47204285D01*
X71432057Y-47204285D02*
X71527295Y-47156666D01*
X71527295Y-47156666D02*
X71670152Y-47156666D01*
X71670152Y-47156666D02*
X71765390Y-47204285D01*
X71765390Y-47204285D02*
X71813009Y-47251904D01*
X71813009Y-47251904D02*
X71860628Y-47347142D01*
X71860628Y-47347142D02*
X71860628Y-47728094D01*
X72336819Y-46204285D02*
X72336819Y-46775713D01*
X72336819Y-46489999D02*
X71336819Y-46489999D01*
X71336819Y-46489999D02*
X71479676Y-46585237D01*
X71479676Y-46585237D02*
X71574914Y-46680475D01*
X71574914Y-46680475D02*
X71622533Y-46775713D01*
X70574819Y-80343333D02*
X71289104Y-80343333D01*
X71289104Y-80343333D02*
X71431961Y-80390952D01*
X71431961Y-80390952D02*
X71527200Y-80486190D01*
X71527200Y-80486190D02*
X71574819Y-80629047D01*
X71574819Y-80629047D02*
X71574819Y-80724285D01*
X70574819Y-79390952D02*
X70574819Y-79867142D01*
X70574819Y-79867142D02*
X71051009Y-79914761D01*
X71051009Y-79914761D02*
X71003390Y-79867142D01*
X71003390Y-79867142D02*
X70955771Y-79771904D01*
X70955771Y-79771904D02*
X70955771Y-79533809D01*
X70955771Y-79533809D02*
X71003390Y-79438571D01*
X71003390Y-79438571D02*
X71051009Y-79390952D01*
X71051009Y-79390952D02*
X71146247Y-79343333D01*
X71146247Y-79343333D02*
X71384342Y-79343333D01*
X71384342Y-79343333D02*
X71479580Y-79390952D01*
X71479580Y-79390952D02*
X71527200Y-79438571D01*
X71527200Y-79438571D02*
X71574819Y-79533809D01*
X71574819Y-79533809D02*
X71574819Y-79771904D01*
X71574819Y-79771904D02*
X71527200Y-79867142D01*
X71527200Y-79867142D02*
X71479580Y-79914761D01*
X90741667Y-20727200D02*
X90884524Y-20774819D01*
X90884524Y-20774819D02*
X91122619Y-20774819D01*
X91122619Y-20774819D02*
X91217857Y-20727200D01*
X91217857Y-20727200D02*
X91265476Y-20679580D01*
X91265476Y-20679580D02*
X91313095Y-20584342D01*
X91313095Y-20584342D02*
X91313095Y-20489104D01*
X91313095Y-20489104D02*
X91265476Y-20393866D01*
X91265476Y-20393866D02*
X91217857Y-20346247D01*
X91217857Y-20346247D02*
X91122619Y-20298628D01*
X91122619Y-20298628D02*
X90932143Y-20251009D01*
X90932143Y-20251009D02*
X90836905Y-20203390D01*
X90836905Y-20203390D02*
X90789286Y-20155771D01*
X90789286Y-20155771D02*
X90741667Y-20060533D01*
X90741667Y-20060533D02*
X90741667Y-19965295D01*
X90741667Y-19965295D02*
X90789286Y-19870057D01*
X90789286Y-19870057D02*
X90836905Y-19822438D01*
X90836905Y-19822438D02*
X90932143Y-19774819D01*
X90932143Y-19774819D02*
X91170238Y-19774819D01*
X91170238Y-19774819D02*
X91313095Y-19822438D01*
X91646429Y-19774819D02*
X91884524Y-20774819D01*
X91884524Y-20774819D02*
X92075000Y-20060533D01*
X92075000Y-20060533D02*
X92265476Y-20774819D01*
X92265476Y-20774819D02*
X92503572Y-19774819D01*
X93408333Y-20774819D02*
X92836905Y-20774819D01*
X93122619Y-20774819D02*
X93122619Y-19774819D01*
X93122619Y-19774819D02*
X93027381Y-19917676D01*
X93027381Y-19917676D02*
X92932143Y-20012914D01*
X92932143Y-20012914D02*
X92836905Y-20060533D01*
X70574819Y-77803333D02*
X71289104Y-77803333D01*
X71289104Y-77803333D02*
X71431961Y-77850952D01*
X71431961Y-77850952D02*
X71527200Y-77946190D01*
X71527200Y-77946190D02*
X71574819Y-78089047D01*
X71574819Y-78089047D02*
X71574819Y-78184285D01*
X70574819Y-76898571D02*
X70574819Y-77089047D01*
X70574819Y-77089047D02*
X70622438Y-77184285D01*
X70622438Y-77184285D02*
X70670057Y-77231904D01*
X70670057Y-77231904D02*
X70812914Y-77327142D01*
X70812914Y-77327142D02*
X71003390Y-77374761D01*
X71003390Y-77374761D02*
X71384342Y-77374761D01*
X71384342Y-77374761D02*
X71479580Y-77327142D01*
X71479580Y-77327142D02*
X71527200Y-77279523D01*
X71527200Y-77279523D02*
X71574819Y-77184285D01*
X71574819Y-77184285D02*
X71574819Y-76993809D01*
X71574819Y-76993809D02*
X71527200Y-76898571D01*
X71527200Y-76898571D02*
X71479580Y-76850952D01*
X71479580Y-76850952D02*
X71384342Y-76803333D01*
X71384342Y-76803333D02*
X71146247Y-76803333D01*
X71146247Y-76803333D02*
X71051009Y-76850952D01*
X71051009Y-76850952D02*
X71003390Y-76898571D01*
X71003390Y-76898571D02*
X70955771Y-76993809D01*
X70955771Y-76993809D02*
X70955771Y-77184285D01*
X70955771Y-77184285D02*
X71003390Y-77279523D01*
X71003390Y-77279523D02*
X71051009Y-77327142D01*
X71051009Y-77327142D02*
X71146247Y-77374761D01*
X30376905Y-52839819D02*
X30376905Y-51839819D01*
X30376905Y-51839819D02*
X30615000Y-51839819D01*
X30615000Y-51839819D02*
X30757857Y-51887438D01*
X30757857Y-51887438D02*
X30853095Y-51982676D01*
X30853095Y-51982676D02*
X30900714Y-52077914D01*
X30900714Y-52077914D02*
X30948333Y-52268390D01*
X30948333Y-52268390D02*
X30948333Y-52411247D01*
X30948333Y-52411247D02*
X30900714Y-52601723D01*
X30900714Y-52601723D02*
X30853095Y-52696961D01*
X30853095Y-52696961D02*
X30757857Y-52792200D01*
X30757857Y-52792200D02*
X30615000Y-52839819D01*
X30615000Y-52839819D02*
X30376905Y-52839819D01*
X31805476Y-51839819D02*
X31615000Y-51839819D01*
X31615000Y-51839819D02*
X31519762Y-51887438D01*
X31519762Y-51887438D02*
X31472143Y-51935057D01*
X31472143Y-51935057D02*
X31376905Y-52077914D01*
X31376905Y-52077914D02*
X31329286Y-52268390D01*
X31329286Y-52268390D02*
X31329286Y-52649342D01*
X31329286Y-52649342D02*
X31376905Y-52744580D01*
X31376905Y-52744580D02*
X31424524Y-52792200D01*
X31424524Y-52792200D02*
X31519762Y-52839819D01*
X31519762Y-52839819D02*
X31710238Y-52839819D01*
X31710238Y-52839819D02*
X31805476Y-52792200D01*
X31805476Y-52792200D02*
X31853095Y-52744580D01*
X31853095Y-52744580D02*
X31900714Y-52649342D01*
X31900714Y-52649342D02*
X31900714Y-52411247D01*
X31900714Y-52411247D02*
X31853095Y-52316009D01*
X31853095Y-52316009D02*
X31805476Y-52268390D01*
X31805476Y-52268390D02*
X31710238Y-52220771D01*
X31710238Y-52220771D02*
X31519762Y-52220771D01*
X31519762Y-52220771D02*
X31424524Y-52268390D01*
X31424524Y-52268390D02*
X31376905Y-52316009D01*
X31376905Y-52316009D02*
X31329286Y-52411247D01*
X29900714Y-89989819D02*
X29900714Y-88989819D01*
X29900714Y-88989819D02*
X30138809Y-88989819D01*
X30138809Y-88989819D02*
X30281666Y-89037438D01*
X30281666Y-89037438D02*
X30376904Y-89132676D01*
X30376904Y-89132676D02*
X30424523Y-89227914D01*
X30424523Y-89227914D02*
X30472142Y-89418390D01*
X30472142Y-89418390D02*
X30472142Y-89561247D01*
X30472142Y-89561247D02*
X30424523Y-89751723D01*
X30424523Y-89751723D02*
X30376904Y-89846961D01*
X30376904Y-89846961D02*
X30281666Y-89942200D01*
X30281666Y-89942200D02*
X30138809Y-89989819D01*
X30138809Y-89989819D02*
X29900714Y-89989819D01*
X31424523Y-89989819D02*
X30853095Y-89989819D01*
X31138809Y-89989819D02*
X31138809Y-88989819D01*
X31138809Y-88989819D02*
X31043571Y-89132676D01*
X31043571Y-89132676D02*
X30948333Y-89227914D01*
X30948333Y-89227914D02*
X30853095Y-89275533D01*
X32281666Y-89323152D02*
X32281666Y-89989819D01*
X32043571Y-88942200D02*
X31805476Y-89656485D01*
X31805476Y-89656485D02*
X32424523Y-89656485D01*
X85498333Y-28934580D02*
X85450714Y-28982200D01*
X85450714Y-28982200D02*
X85307857Y-29029819D01*
X85307857Y-29029819D02*
X85212619Y-29029819D01*
X85212619Y-29029819D02*
X85069762Y-28982200D01*
X85069762Y-28982200D02*
X84974524Y-28886961D01*
X84974524Y-28886961D02*
X84926905Y-28791723D01*
X84926905Y-28791723D02*
X84879286Y-28601247D01*
X84879286Y-28601247D02*
X84879286Y-28458390D01*
X84879286Y-28458390D02*
X84926905Y-28267914D01*
X84926905Y-28267914D02*
X84974524Y-28172676D01*
X84974524Y-28172676D02*
X85069762Y-28077438D01*
X85069762Y-28077438D02*
X85212619Y-28029819D01*
X85212619Y-28029819D02*
X85307857Y-28029819D01*
X85307857Y-28029819D02*
X85450714Y-28077438D01*
X85450714Y-28077438D02*
X85498333Y-28125057D01*
X85831667Y-28029819D02*
X86450714Y-28029819D01*
X86450714Y-28029819D02*
X86117381Y-28410771D01*
X86117381Y-28410771D02*
X86260238Y-28410771D01*
X86260238Y-28410771D02*
X86355476Y-28458390D01*
X86355476Y-28458390D02*
X86403095Y-28506009D01*
X86403095Y-28506009D02*
X86450714Y-28601247D01*
X86450714Y-28601247D02*
X86450714Y-28839342D01*
X86450714Y-28839342D02*
X86403095Y-28934580D01*
X86403095Y-28934580D02*
X86355476Y-28982200D01*
X86355476Y-28982200D02*
X86260238Y-29029819D01*
X86260238Y-29029819D02*
X85974524Y-29029819D01*
X85974524Y-29029819D02*
X85879286Y-28982200D01*
X85879286Y-28982200D02*
X85831667Y-28934580D01*
X30376905Y-29349819D02*
X30376905Y-28349819D01*
X30376905Y-28349819D02*
X30615000Y-28349819D01*
X30615000Y-28349819D02*
X30757857Y-28397438D01*
X30757857Y-28397438D02*
X30853095Y-28492676D01*
X30853095Y-28492676D02*
X30900714Y-28587914D01*
X30900714Y-28587914D02*
X30948333Y-28778390D01*
X30948333Y-28778390D02*
X30948333Y-28921247D01*
X30948333Y-28921247D02*
X30900714Y-29111723D01*
X30900714Y-29111723D02*
X30853095Y-29206961D01*
X30853095Y-29206961D02*
X30757857Y-29302200D01*
X30757857Y-29302200D02*
X30615000Y-29349819D01*
X30615000Y-29349819D02*
X30376905Y-29349819D01*
X31900714Y-29349819D02*
X31329286Y-29349819D01*
X31615000Y-29349819D02*
X31615000Y-28349819D01*
X31615000Y-28349819D02*
X31519762Y-28492676D01*
X31519762Y-28492676D02*
X31424524Y-28587914D01*
X31424524Y-28587914D02*
X31329286Y-28635533D01*
X42805476Y-22422295D02*
X43262619Y-22422295D01*
X43034047Y-23222295D02*
X43034047Y-22422295D01*
X43529286Y-23222295D02*
X43529286Y-22422295D01*
X43529286Y-22422295D02*
X43834048Y-22422295D01*
X43834048Y-22422295D02*
X43910238Y-22460390D01*
X43910238Y-22460390D02*
X43948333Y-22498485D01*
X43948333Y-22498485D02*
X43986429Y-22574676D01*
X43986429Y-22574676D02*
X43986429Y-22688961D01*
X43986429Y-22688961D02*
X43948333Y-22765152D01*
X43948333Y-22765152D02*
X43910238Y-22803247D01*
X43910238Y-22803247D02*
X43834048Y-22841342D01*
X43834048Y-22841342D02*
X43529286Y-22841342D01*
X44291190Y-22498485D02*
X44329286Y-22460390D01*
X44329286Y-22460390D02*
X44405476Y-22422295D01*
X44405476Y-22422295D02*
X44595952Y-22422295D01*
X44595952Y-22422295D02*
X44672143Y-22460390D01*
X44672143Y-22460390D02*
X44710238Y-22498485D01*
X44710238Y-22498485D02*
X44748333Y-22574676D01*
X44748333Y-22574676D02*
X44748333Y-22650866D01*
X44748333Y-22650866D02*
X44710238Y-22765152D01*
X44710238Y-22765152D02*
X44253095Y-23222295D01*
X44253095Y-23222295D02*
X44748333Y-23222295D01*
X30376905Y-57599819D02*
X30376905Y-56599819D01*
X30376905Y-56599819D02*
X30615000Y-56599819D01*
X30615000Y-56599819D02*
X30757857Y-56647438D01*
X30757857Y-56647438D02*
X30853095Y-56742676D01*
X30853095Y-56742676D02*
X30900714Y-56837914D01*
X30900714Y-56837914D02*
X30948333Y-57028390D01*
X30948333Y-57028390D02*
X30948333Y-57171247D01*
X30948333Y-57171247D02*
X30900714Y-57361723D01*
X30900714Y-57361723D02*
X30853095Y-57456961D01*
X30853095Y-57456961D02*
X30757857Y-57552200D01*
X30757857Y-57552200D02*
X30615000Y-57599819D01*
X30615000Y-57599819D02*
X30376905Y-57599819D01*
X31281667Y-56599819D02*
X31948333Y-56599819D01*
X31948333Y-56599819D02*
X31519762Y-57599819D01*
X29900714Y-86179819D02*
X29900714Y-85179819D01*
X29900714Y-85179819D02*
X30138809Y-85179819D01*
X30138809Y-85179819D02*
X30281666Y-85227438D01*
X30281666Y-85227438D02*
X30376904Y-85322676D01*
X30376904Y-85322676D02*
X30424523Y-85417914D01*
X30424523Y-85417914D02*
X30472142Y-85608390D01*
X30472142Y-85608390D02*
X30472142Y-85751247D01*
X30472142Y-85751247D02*
X30424523Y-85941723D01*
X30424523Y-85941723D02*
X30376904Y-86036961D01*
X30376904Y-86036961D02*
X30281666Y-86132200D01*
X30281666Y-86132200D02*
X30138809Y-86179819D01*
X30138809Y-86179819D02*
X29900714Y-86179819D01*
X31424523Y-86179819D02*
X30853095Y-86179819D01*
X31138809Y-86179819D02*
X31138809Y-85179819D01*
X31138809Y-85179819D02*
X31043571Y-85322676D01*
X31043571Y-85322676D02*
X30948333Y-85417914D01*
X30948333Y-85417914D02*
X30853095Y-85465533D01*
X31757857Y-85179819D02*
X32376904Y-85179819D01*
X32376904Y-85179819D02*
X32043571Y-85560771D01*
X32043571Y-85560771D02*
X32186428Y-85560771D01*
X32186428Y-85560771D02*
X32281666Y-85608390D01*
X32281666Y-85608390D02*
X32329285Y-85656009D01*
X32329285Y-85656009D02*
X32376904Y-85751247D01*
X32376904Y-85751247D02*
X32376904Y-85989342D01*
X32376904Y-85989342D02*
X32329285Y-86084580D01*
X32329285Y-86084580D02*
X32281666Y-86132200D01*
X32281666Y-86132200D02*
X32186428Y-86179819D01*
X32186428Y-86179819D02*
X31900714Y-86179819D01*
X31900714Y-86179819D02*
X31805476Y-86132200D01*
X31805476Y-86132200D02*
X31757857Y-86084580D01*
X30376905Y-37599819D02*
X30376905Y-36599819D01*
X30376905Y-36599819D02*
X30615000Y-36599819D01*
X30615000Y-36599819D02*
X30757857Y-36647438D01*
X30757857Y-36647438D02*
X30853095Y-36742676D01*
X30853095Y-36742676D02*
X30900714Y-36837914D01*
X30900714Y-36837914D02*
X30948333Y-37028390D01*
X30948333Y-37028390D02*
X30948333Y-37171247D01*
X30948333Y-37171247D02*
X30900714Y-37361723D01*
X30900714Y-37361723D02*
X30853095Y-37456961D01*
X30853095Y-37456961D02*
X30757857Y-37552200D01*
X30757857Y-37552200D02*
X30615000Y-37599819D01*
X30615000Y-37599819D02*
X30376905Y-37599819D01*
X31281667Y-36599819D02*
X31900714Y-36599819D01*
X31900714Y-36599819D02*
X31567381Y-36980771D01*
X31567381Y-36980771D02*
X31710238Y-36980771D01*
X31710238Y-36980771D02*
X31805476Y-37028390D01*
X31805476Y-37028390D02*
X31853095Y-37076009D01*
X31853095Y-37076009D02*
X31900714Y-37171247D01*
X31900714Y-37171247D02*
X31900714Y-37409342D01*
X31900714Y-37409342D02*
X31853095Y-37504580D01*
X31853095Y-37504580D02*
X31805476Y-37552200D01*
X31805476Y-37552200D02*
X31710238Y-37599819D01*
X31710238Y-37599819D02*
X31424524Y-37599819D01*
X31424524Y-37599819D02*
X31329286Y-37552200D01*
X31329286Y-37552200D02*
X31281667Y-37504580D01*
X30376905Y-66169819D02*
X30376905Y-65169819D01*
X30376905Y-65169819D02*
X30615000Y-65169819D01*
X30615000Y-65169819D02*
X30757857Y-65217438D01*
X30757857Y-65217438D02*
X30853095Y-65312676D01*
X30853095Y-65312676D02*
X30900714Y-65407914D01*
X30900714Y-65407914D02*
X30948333Y-65598390D01*
X30948333Y-65598390D02*
X30948333Y-65741247D01*
X30948333Y-65741247D02*
X30900714Y-65931723D01*
X30900714Y-65931723D02*
X30853095Y-66026961D01*
X30853095Y-66026961D02*
X30757857Y-66122200D01*
X30757857Y-66122200D02*
X30615000Y-66169819D01*
X30615000Y-66169819D02*
X30376905Y-66169819D01*
X31424524Y-66169819D02*
X31615000Y-66169819D01*
X31615000Y-66169819D02*
X31710238Y-66122200D01*
X31710238Y-66122200D02*
X31757857Y-66074580D01*
X31757857Y-66074580D02*
X31853095Y-65931723D01*
X31853095Y-65931723D02*
X31900714Y-65741247D01*
X31900714Y-65741247D02*
X31900714Y-65360295D01*
X31900714Y-65360295D02*
X31853095Y-65265057D01*
X31853095Y-65265057D02*
X31805476Y-65217438D01*
X31805476Y-65217438D02*
X31710238Y-65169819D01*
X31710238Y-65169819D02*
X31519762Y-65169819D01*
X31519762Y-65169819D02*
X31424524Y-65217438D01*
X31424524Y-65217438D02*
X31376905Y-65265057D01*
X31376905Y-65265057D02*
X31329286Y-65360295D01*
X31329286Y-65360295D02*
X31329286Y-65598390D01*
X31329286Y-65598390D02*
X31376905Y-65693628D01*
X31376905Y-65693628D02*
X31424524Y-65741247D01*
X31424524Y-65741247D02*
X31519762Y-65788866D01*
X31519762Y-65788866D02*
X31710238Y-65788866D01*
X31710238Y-65788866D02*
X31805476Y-65741247D01*
X31805476Y-65741247D02*
X31853095Y-65693628D01*
X31853095Y-65693628D02*
X31900714Y-65598390D01*
X98933095Y-24584819D02*
X98933095Y-23584819D01*
X98933095Y-24061009D02*
X99504523Y-24061009D01*
X99504523Y-24584819D02*
X99504523Y-23584819D01*
X100409285Y-23918152D02*
X100409285Y-24584819D01*
X100171190Y-23537200D02*
X99933095Y-24251485D01*
X99933095Y-24251485D02*
X100552142Y-24251485D01*
X59509819Y-45251666D02*
X59033628Y-45584999D01*
X59509819Y-45823094D02*
X58509819Y-45823094D01*
X58509819Y-45823094D02*
X58509819Y-45442142D01*
X58509819Y-45442142D02*
X58557438Y-45346904D01*
X58557438Y-45346904D02*
X58605057Y-45299285D01*
X58605057Y-45299285D02*
X58700295Y-45251666D01*
X58700295Y-45251666D02*
X58843152Y-45251666D01*
X58843152Y-45251666D02*
X58938390Y-45299285D01*
X58938390Y-45299285D02*
X58986009Y-45346904D01*
X58986009Y-45346904D02*
X59033628Y-45442142D01*
X59033628Y-45442142D02*
X59033628Y-45823094D01*
X58509819Y-44918332D02*
X58509819Y-44299285D01*
X58509819Y-44299285D02*
X58890771Y-44632618D01*
X58890771Y-44632618D02*
X58890771Y-44489761D01*
X58890771Y-44489761D02*
X58938390Y-44394523D01*
X58938390Y-44394523D02*
X58986009Y-44346904D01*
X58986009Y-44346904D02*
X59081247Y-44299285D01*
X59081247Y-44299285D02*
X59319342Y-44299285D01*
X59319342Y-44299285D02*
X59414580Y-44346904D01*
X59414580Y-44346904D02*
X59462200Y-44394523D01*
X59462200Y-44394523D02*
X59509819Y-44489761D01*
X59509819Y-44489761D02*
X59509819Y-44775475D01*
X59509819Y-44775475D02*
X59462200Y-44870713D01*
X59462200Y-44870713D02*
X59414580Y-44918332D01*
X33909095Y-95323819D02*
X33909095Y-94323819D01*
X33909095Y-94800009D02*
X34480523Y-94800009D01*
X34480523Y-95323819D02*
X34480523Y-94323819D01*
X34909095Y-94419057D02*
X34956714Y-94371438D01*
X34956714Y-94371438D02*
X35051952Y-94323819D01*
X35051952Y-94323819D02*
X35290047Y-94323819D01*
X35290047Y-94323819D02*
X35385285Y-94371438D01*
X35385285Y-94371438D02*
X35432904Y-94419057D01*
X35432904Y-94419057D02*
X35480523Y-94514295D01*
X35480523Y-94514295D02*
X35480523Y-94609533D01*
X35480523Y-94609533D02*
X35432904Y-94752390D01*
X35432904Y-94752390D02*
X34861476Y-95323819D01*
X34861476Y-95323819D02*
X35480523Y-95323819D01*
X38995476Y-22422295D02*
X39452619Y-22422295D01*
X39224047Y-23222295D02*
X39224047Y-22422295D01*
X39719286Y-23222295D02*
X39719286Y-22422295D01*
X39719286Y-22422295D02*
X40024048Y-22422295D01*
X40024048Y-22422295D02*
X40100238Y-22460390D01*
X40100238Y-22460390D02*
X40138333Y-22498485D01*
X40138333Y-22498485D02*
X40176429Y-22574676D01*
X40176429Y-22574676D02*
X40176429Y-22688961D01*
X40176429Y-22688961D02*
X40138333Y-22765152D01*
X40138333Y-22765152D02*
X40100238Y-22803247D01*
X40100238Y-22803247D02*
X40024048Y-22841342D01*
X40024048Y-22841342D02*
X39719286Y-22841342D01*
X40938333Y-23222295D02*
X40481190Y-23222295D01*
X40709762Y-23222295D02*
X40709762Y-22422295D01*
X40709762Y-22422295D02*
X40633571Y-22536580D01*
X40633571Y-22536580D02*
X40557381Y-22612771D01*
X40557381Y-22612771D02*
X40481190Y-22650866D01*
X33591667Y-73432200D02*
X33734524Y-73479819D01*
X33734524Y-73479819D02*
X33972619Y-73479819D01*
X33972619Y-73479819D02*
X34067857Y-73432200D01*
X34067857Y-73432200D02*
X34115476Y-73384580D01*
X34115476Y-73384580D02*
X34163095Y-73289342D01*
X34163095Y-73289342D02*
X34163095Y-73194104D01*
X34163095Y-73194104D02*
X34115476Y-73098866D01*
X34115476Y-73098866D02*
X34067857Y-73051247D01*
X34067857Y-73051247D02*
X33972619Y-73003628D01*
X33972619Y-73003628D02*
X33782143Y-72956009D01*
X33782143Y-72956009D02*
X33686905Y-72908390D01*
X33686905Y-72908390D02*
X33639286Y-72860771D01*
X33639286Y-72860771D02*
X33591667Y-72765533D01*
X33591667Y-72765533D02*
X33591667Y-72670295D01*
X33591667Y-72670295D02*
X33639286Y-72575057D01*
X33639286Y-72575057D02*
X33686905Y-72527438D01*
X33686905Y-72527438D02*
X33782143Y-72479819D01*
X33782143Y-72479819D02*
X34020238Y-72479819D01*
X34020238Y-72479819D02*
X34163095Y-72527438D01*
X34496429Y-72479819D02*
X34734524Y-73479819D01*
X34734524Y-73479819D02*
X34925000Y-72765533D01*
X34925000Y-72765533D02*
X35115476Y-73479819D01*
X35115476Y-73479819D02*
X35353572Y-72479819D01*
X36163095Y-72813152D02*
X36163095Y-73479819D01*
X35925000Y-72432200D02*
X35686905Y-73146485D01*
X35686905Y-73146485D02*
X36305952Y-73146485D01*
X70405714Y-64939104D02*
X70881904Y-64939104D01*
X70310476Y-65224819D02*
X70643809Y-64224819D01*
X70643809Y-64224819D02*
X70977142Y-65224819D01*
X71834285Y-65224819D02*
X71262857Y-65224819D01*
X71548571Y-65224819D02*
X71548571Y-64224819D01*
X71548571Y-64224819D02*
X71453333Y-64367676D01*
X71453333Y-64367676D02*
X71358095Y-64462914D01*
X71358095Y-64462914D02*
X71262857Y-64510533D01*
X62221904Y-33565180D02*
X62221904Y-32755657D01*
X62221904Y-32755657D02*
X62174285Y-32660419D01*
X62174285Y-32660419D02*
X62126666Y-32612800D01*
X62126666Y-32612800D02*
X62031428Y-32565180D01*
X62031428Y-32565180D02*
X61840952Y-32565180D01*
X61840952Y-32565180D02*
X61745714Y-32612800D01*
X61745714Y-32612800D02*
X61698095Y-32660419D01*
X61698095Y-32660419D02*
X61650476Y-32755657D01*
X61650476Y-32755657D02*
X61650476Y-33565180D01*
X61221904Y-32612800D02*
X61079047Y-32565180D01*
X61079047Y-32565180D02*
X60840952Y-32565180D01*
X60840952Y-32565180D02*
X60745714Y-32612800D01*
X60745714Y-32612800D02*
X60698095Y-32660419D01*
X60698095Y-32660419D02*
X60650476Y-32755657D01*
X60650476Y-32755657D02*
X60650476Y-32850895D01*
X60650476Y-32850895D02*
X60698095Y-32946133D01*
X60698095Y-32946133D02*
X60745714Y-32993752D01*
X60745714Y-32993752D02*
X60840952Y-33041371D01*
X60840952Y-33041371D02*
X61031428Y-33088990D01*
X61031428Y-33088990D02*
X61126666Y-33136609D01*
X61126666Y-33136609D02*
X61174285Y-33184228D01*
X61174285Y-33184228D02*
X61221904Y-33279466D01*
X61221904Y-33279466D02*
X61221904Y-33374704D01*
X61221904Y-33374704D02*
X61174285Y-33469942D01*
X61174285Y-33469942D02*
X61126666Y-33517561D01*
X61126666Y-33517561D02*
X61031428Y-33565180D01*
X61031428Y-33565180D02*
X60793333Y-33565180D01*
X60793333Y-33565180D02*
X60650476Y-33517561D01*
X59888571Y-33088990D02*
X59745714Y-33041371D01*
X59745714Y-33041371D02*
X59698095Y-32993752D01*
X59698095Y-32993752D02*
X59650476Y-32898514D01*
X59650476Y-32898514D02*
X59650476Y-32755657D01*
X59650476Y-32755657D02*
X59698095Y-32660419D01*
X59698095Y-32660419D02*
X59745714Y-32612800D01*
X59745714Y-32612800D02*
X59840952Y-32565180D01*
X59840952Y-32565180D02*
X60221904Y-32565180D01*
X60221904Y-32565180D02*
X60221904Y-33565180D01*
X60221904Y-33565180D02*
X59888571Y-33565180D01*
X59888571Y-33565180D02*
X59793333Y-33517561D01*
X59793333Y-33517561D02*
X59745714Y-33469942D01*
X59745714Y-33469942D02*
X59698095Y-33374704D01*
X59698095Y-33374704D02*
X59698095Y-33279466D01*
X59698095Y-33279466D02*
X59745714Y-33184228D01*
X59745714Y-33184228D02*
X59793333Y-33136609D01*
X59793333Y-33136609D02*
X59888571Y-33088990D01*
X59888571Y-33088990D02*
X60221904Y-33088990D01*
X30376905Y-33159819D02*
X30376905Y-32159819D01*
X30376905Y-32159819D02*
X30615000Y-32159819D01*
X30615000Y-32159819D02*
X30757857Y-32207438D01*
X30757857Y-32207438D02*
X30853095Y-32302676D01*
X30853095Y-32302676D02*
X30900714Y-32397914D01*
X30900714Y-32397914D02*
X30948333Y-32588390D01*
X30948333Y-32588390D02*
X30948333Y-32731247D01*
X30948333Y-32731247D02*
X30900714Y-32921723D01*
X30900714Y-32921723D02*
X30853095Y-33016961D01*
X30853095Y-33016961D02*
X30757857Y-33112200D01*
X30757857Y-33112200D02*
X30615000Y-33159819D01*
X30615000Y-33159819D02*
X30376905Y-33159819D01*
X31329286Y-32255057D02*
X31376905Y-32207438D01*
X31376905Y-32207438D02*
X31472143Y-32159819D01*
X31472143Y-32159819D02*
X31710238Y-32159819D01*
X31710238Y-32159819D02*
X31805476Y-32207438D01*
X31805476Y-32207438D02*
X31853095Y-32255057D01*
X31853095Y-32255057D02*
X31900714Y-32350295D01*
X31900714Y-32350295D02*
X31900714Y-32445533D01*
X31900714Y-32445533D02*
X31853095Y-32588390D01*
X31853095Y-32588390D02*
X31281667Y-33159819D01*
X31281667Y-33159819D02*
X31900714Y-33159819D01*
X91371009Y-76425714D02*
X91418628Y-76282857D01*
X91418628Y-76282857D02*
X91466247Y-76235238D01*
X91466247Y-76235238D02*
X91561485Y-76187619D01*
X91561485Y-76187619D02*
X91704342Y-76187619D01*
X91704342Y-76187619D02*
X91799580Y-76235238D01*
X91799580Y-76235238D02*
X91847200Y-76282857D01*
X91847200Y-76282857D02*
X91894819Y-76378095D01*
X91894819Y-76378095D02*
X91894819Y-76759047D01*
X91894819Y-76759047D02*
X90894819Y-76759047D01*
X90894819Y-76759047D02*
X90894819Y-76425714D01*
X90894819Y-76425714D02*
X90942438Y-76330476D01*
X90942438Y-76330476D02*
X90990057Y-76282857D01*
X90990057Y-76282857D02*
X91085295Y-76235238D01*
X91085295Y-76235238D02*
X91180533Y-76235238D01*
X91180533Y-76235238D02*
X91275771Y-76282857D01*
X91275771Y-76282857D02*
X91323390Y-76330476D01*
X91323390Y-76330476D02*
X91371009Y-76425714D01*
X91371009Y-76425714D02*
X91371009Y-76759047D01*
X90894819Y-75901904D02*
X90894819Y-75330476D01*
X91894819Y-75616190D02*
X90894819Y-75616190D01*
X91894819Y-74473333D02*
X91894819Y-75044761D01*
X91894819Y-74759047D02*
X90894819Y-74759047D01*
X90894819Y-74759047D02*
X91037676Y-74854285D01*
X91037676Y-74854285D02*
X91132914Y-74949523D01*
X91132914Y-74949523D02*
X91180533Y-75044761D01*
X54621667Y-85982200D02*
X54764524Y-86029819D01*
X54764524Y-86029819D02*
X55002619Y-86029819D01*
X55002619Y-86029819D02*
X55097857Y-85982200D01*
X55097857Y-85982200D02*
X55145476Y-85934580D01*
X55145476Y-85934580D02*
X55193095Y-85839342D01*
X55193095Y-85839342D02*
X55193095Y-85744104D01*
X55193095Y-85744104D02*
X55145476Y-85648866D01*
X55145476Y-85648866D02*
X55097857Y-85601247D01*
X55097857Y-85601247D02*
X55002619Y-85553628D01*
X55002619Y-85553628D02*
X54812143Y-85506009D01*
X54812143Y-85506009D02*
X54716905Y-85458390D01*
X54716905Y-85458390D02*
X54669286Y-85410771D01*
X54669286Y-85410771D02*
X54621667Y-85315533D01*
X54621667Y-85315533D02*
X54621667Y-85220295D01*
X54621667Y-85220295D02*
X54669286Y-85125057D01*
X54669286Y-85125057D02*
X54716905Y-85077438D01*
X54716905Y-85077438D02*
X54812143Y-85029819D01*
X54812143Y-85029819D02*
X55050238Y-85029819D01*
X55050238Y-85029819D02*
X55193095Y-85077438D01*
X55526429Y-85029819D02*
X55764524Y-86029819D01*
X55764524Y-86029819D02*
X55955000Y-85315533D01*
X55955000Y-85315533D02*
X56145476Y-86029819D01*
X56145476Y-86029819D02*
X56383572Y-85029819D01*
X57193095Y-85029819D02*
X57002619Y-85029819D01*
X57002619Y-85029819D02*
X56907381Y-85077438D01*
X56907381Y-85077438D02*
X56859762Y-85125057D01*
X56859762Y-85125057D02*
X56764524Y-85267914D01*
X56764524Y-85267914D02*
X56716905Y-85458390D01*
X56716905Y-85458390D02*
X56716905Y-85839342D01*
X56716905Y-85839342D02*
X56764524Y-85934580D01*
X56764524Y-85934580D02*
X56812143Y-85982200D01*
X56812143Y-85982200D02*
X56907381Y-86029819D01*
X56907381Y-86029819D02*
X57097857Y-86029819D01*
X57097857Y-86029819D02*
X57193095Y-85982200D01*
X57193095Y-85982200D02*
X57240714Y-85934580D01*
X57240714Y-85934580D02*
X57288333Y-85839342D01*
X57288333Y-85839342D02*
X57288333Y-85601247D01*
X57288333Y-85601247D02*
X57240714Y-85506009D01*
X57240714Y-85506009D02*
X57193095Y-85458390D01*
X57193095Y-85458390D02*
X57097857Y-85410771D01*
X57097857Y-85410771D02*
X56907381Y-85410771D01*
X56907381Y-85410771D02*
X56812143Y-85458390D01*
X56812143Y-85458390D02*
X56764524Y-85506009D01*
X56764524Y-85506009D02*
X56716905Y-85601247D01*
X87890476Y-94812295D02*
X88347619Y-94812295D01*
X88119047Y-95612295D02*
X88119047Y-94812295D01*
X88614286Y-95612295D02*
X88614286Y-94812295D01*
X88614286Y-94812295D02*
X88919048Y-94812295D01*
X88919048Y-94812295D02*
X88995238Y-94850390D01*
X88995238Y-94850390D02*
X89033333Y-94888485D01*
X89033333Y-94888485D02*
X89071429Y-94964676D01*
X89071429Y-94964676D02*
X89071429Y-95078961D01*
X89071429Y-95078961D02*
X89033333Y-95155152D01*
X89033333Y-95155152D02*
X88995238Y-95193247D01*
X88995238Y-95193247D02*
X88919048Y-95231342D01*
X88919048Y-95231342D02*
X88614286Y-95231342D01*
X89795238Y-94812295D02*
X89414286Y-94812295D01*
X89414286Y-94812295D02*
X89376190Y-95193247D01*
X89376190Y-95193247D02*
X89414286Y-95155152D01*
X89414286Y-95155152D02*
X89490476Y-95117057D01*
X89490476Y-95117057D02*
X89680952Y-95117057D01*
X89680952Y-95117057D02*
X89757143Y-95155152D01*
X89757143Y-95155152D02*
X89795238Y-95193247D01*
X89795238Y-95193247D02*
X89833333Y-95269438D01*
X89833333Y-95269438D02*
X89833333Y-95459914D01*
X89833333Y-95459914D02*
X89795238Y-95536104D01*
X89795238Y-95536104D02*
X89757143Y-95574200D01*
X89757143Y-95574200D02*
X89680952Y-95612295D01*
X89680952Y-95612295D02*
X89490476Y-95612295D01*
X89490476Y-95612295D02*
X89414286Y-95574200D01*
X89414286Y-95574200D02*
X89376190Y-95536104D01*
D12*
%TO.C,SW7*%
X65790000Y-89075000D02*
X65790000Y-90575000D01*
X67040000Y-93075000D02*
X71540000Y-93075000D01*
X71540000Y-86575000D02*
X67040000Y-86575000D01*
X72790000Y-90575000D02*
X72790000Y-89075000D01*
%TO.C,D4*%
X34622500Y-43150000D02*
X36297500Y-43150000D01*
X34622500Y-43150000D02*
X33972500Y-43150000D01*
X34622500Y-40030000D02*
X35272500Y-40030000D01*
X34622500Y-40030000D02*
X33972500Y-40030000D01*
%TO.C,D10*%
X34592500Y-71725000D02*
X36267500Y-71725000D01*
X34592500Y-71725000D02*
X33942500Y-71725000D01*
X34592500Y-68605000D02*
X35242500Y-68605000D01*
X34592500Y-68605000D02*
X33942500Y-68605000D01*
%TO.C,SW5*%
X52455000Y-77700000D02*
X52455000Y-79200000D01*
X53705000Y-81700000D02*
X58205000Y-81700000D01*
X58205000Y-75200000D02*
X53705000Y-75200000D01*
X59455000Y-79200000D02*
X59455000Y-77700000D01*
%TO.C,D12*%
X34592500Y-82210000D02*
X36267500Y-82210000D01*
X34592500Y-82210000D02*
X33942500Y-82210000D01*
X34592500Y-79090000D02*
X35242500Y-79090000D01*
X34592500Y-79090000D02*
X33942500Y-79090000D01*
%TO.C,SW2*%
X36720000Y-25280000D02*
X36720000Y-26663000D01*
X36720000Y-25280000D02*
X38104000Y-25280000D01*
X36960000Y-25520000D02*
X36960000Y-48141000D01*
X36960000Y-25520000D02*
X46860000Y-25520000D01*
X36960000Y-48141000D02*
X46860000Y-48141000D01*
X39880000Y-27305000D02*
X39880000Y-28575000D01*
X39880000Y-27425000D02*
X41233333Y-27425000D01*
X39880000Y-27545000D02*
X41233333Y-27545000D01*
X39880000Y-27665000D02*
X41233333Y-27665000D01*
X39880000Y-27785000D02*
X41233333Y-27785000D01*
X39880000Y-27905000D02*
X41233333Y-27905000D01*
X39880000Y-28025000D02*
X41233333Y-28025000D01*
X39880000Y-28145000D02*
X41233333Y-28145000D01*
X39880000Y-28265000D02*
X41233333Y-28265000D01*
X39880000Y-28385000D02*
X41233333Y-28385000D01*
X39880000Y-28505000D02*
X41233333Y-28505000D01*
X39880000Y-28575000D02*
X43940000Y-28575000D01*
X39880000Y-29845000D02*
X39880000Y-31115000D01*
X39880000Y-29965000D02*
X41233333Y-29965000D01*
X39880000Y-30085000D02*
X41233333Y-30085000D01*
X39880000Y-30205000D02*
X41233333Y-30205000D01*
X39880000Y-30325000D02*
X41233333Y-30325000D01*
X39880000Y-30445000D02*
X41233333Y-30445000D01*
X39880000Y-30565000D02*
X41233333Y-30565000D01*
X39880000Y-30685000D02*
X41233333Y-30685000D01*
X39880000Y-30805000D02*
X41233333Y-30805000D01*
X39880000Y-30925000D02*
X41233333Y-30925000D01*
X39880000Y-31045000D02*
X41233333Y-31045000D01*
X39880000Y-31115000D02*
X43940000Y-31115000D01*
X39880000Y-32385000D02*
X39880000Y-33655000D01*
X39880000Y-32505000D02*
X41233333Y-32505000D01*
X39880000Y-32625000D02*
X41233333Y-32625000D01*
X39880000Y-32745000D02*
X41233333Y-32745000D01*
X39880000Y-32865000D02*
X41233333Y-32865000D01*
X39880000Y-32985000D02*
X41233333Y-32985000D01*
X39880000Y-33105000D02*
X41233333Y-33105000D01*
X39880000Y-33225000D02*
X41233333Y-33225000D01*
X39880000Y-33345000D02*
X41233333Y-33345000D01*
X39880000Y-33465000D02*
X41233333Y-33465000D01*
X39880000Y-33585000D02*
X41233333Y-33585000D01*
X39880000Y-33655000D02*
X43940000Y-33655000D01*
X39880000Y-34925000D02*
X39880000Y-36195000D01*
X39880000Y-35045000D02*
X41233333Y-35045000D01*
X39880000Y-35165000D02*
X41233333Y-35165000D01*
X39880000Y-35285000D02*
X41233333Y-35285000D01*
X39880000Y-35405000D02*
X41233333Y-35405000D01*
X39880000Y-35525000D02*
X41233333Y-35525000D01*
X39880000Y-35645000D02*
X41233333Y-35645000D01*
X39880000Y-35765000D02*
X41233333Y-35765000D01*
X39880000Y-35885000D02*
X41233333Y-35885000D01*
X39880000Y-36005000D02*
X41233333Y-36005000D01*
X39880000Y-36125000D02*
X41233333Y-36125000D01*
X39880000Y-36195000D02*
X43940000Y-36195000D01*
X39880000Y-37465000D02*
X39880000Y-38735000D01*
X39880000Y-37585000D02*
X41233333Y-37585000D01*
X39880000Y-37705000D02*
X41233333Y-37705000D01*
X39880000Y-37825000D02*
X41233333Y-37825000D01*
X39880000Y-37945000D02*
X41233333Y-37945000D01*
X39880000Y-38065000D02*
X41233333Y-38065000D01*
X39880000Y-38185000D02*
X41233333Y-38185000D01*
X39880000Y-38305000D02*
X41233333Y-38305000D01*
X39880000Y-38425000D02*
X41233333Y-38425000D01*
X39880000Y-38545000D02*
X41233333Y-38545000D01*
X39880000Y-38665000D02*
X41233333Y-38665000D01*
X39880000Y-38735000D02*
X43940000Y-38735000D01*
X39880000Y-40005000D02*
X39880000Y-41275000D01*
X39880000Y-40125000D02*
X41233333Y-40125000D01*
X39880000Y-40245000D02*
X41233333Y-40245000D01*
X39880000Y-40365000D02*
X41233333Y-40365000D01*
X39880000Y-40485000D02*
X41233333Y-40485000D01*
X39880000Y-40605000D02*
X41233333Y-40605000D01*
X39880000Y-40725000D02*
X41233333Y-40725000D01*
X39880000Y-40845000D02*
X41233333Y-40845000D01*
X39880000Y-40965000D02*
X41233333Y-40965000D01*
X39880000Y-41085000D02*
X41233333Y-41085000D01*
X39880000Y-41205000D02*
X41233333Y-41205000D01*
X39880000Y-41275000D02*
X43940000Y-41275000D01*
X39880000Y-42545000D02*
X39880000Y-43815000D01*
X39880000Y-42665000D02*
X41233333Y-42665000D01*
X39880000Y-42785000D02*
X41233333Y-42785000D01*
X39880000Y-42905000D02*
X41233333Y-42905000D01*
X39880000Y-43025000D02*
X41233333Y-43025000D01*
X39880000Y-43145000D02*
X41233333Y-43145000D01*
X39880000Y-43265000D02*
X41233333Y-43265000D01*
X39880000Y-43385000D02*
X41233333Y-43385000D01*
X39880000Y-43505000D02*
X41233333Y-43505000D01*
X39880000Y-43625000D02*
X41233333Y-43625000D01*
X39880000Y-43745000D02*
X41233333Y-43745000D01*
X39880000Y-43815000D02*
X43940000Y-43815000D01*
X39880000Y-45085000D02*
X39880000Y-46355000D01*
X39880000Y-45205000D02*
X41233333Y-45205000D01*
X39880000Y-45325000D02*
X41233333Y-45325000D01*
X39880000Y-45445000D02*
X41233333Y-45445000D01*
X39880000Y-45565000D02*
X41233333Y-45565000D01*
X39880000Y-45685000D02*
X41233333Y-45685000D01*
X39880000Y-45805000D02*
X41233333Y-45805000D01*
X39880000Y-45925000D02*
X41233333Y-45925000D01*
X39880000Y-46045000D02*
X41233333Y-46045000D01*
X39880000Y-46165000D02*
X41233333Y-46165000D01*
X39880000Y-46285000D02*
X41233333Y-46285000D01*
X39880000Y-46355000D02*
X43940000Y-46355000D01*
X41233333Y-27305000D02*
X41233333Y-28575000D01*
X41233333Y-29845000D02*
X41233333Y-31115000D01*
X41233333Y-32385000D02*
X41233333Y-33655000D01*
X41233333Y-34925000D02*
X41233333Y-36195000D01*
X41233333Y-37465000D02*
X41233333Y-38735000D01*
X41233333Y-40005000D02*
X41233333Y-41275000D01*
X41233333Y-42545000D02*
X41233333Y-43815000D01*
X41233333Y-45085000D02*
X41233333Y-46355000D01*
X43940000Y-27305000D02*
X39880000Y-27305000D01*
X43940000Y-28575000D02*
X43940000Y-27305000D01*
X43940000Y-29845000D02*
X39880000Y-29845000D01*
X43940000Y-31115000D02*
X43940000Y-29845000D01*
X43940000Y-32385000D02*
X39880000Y-32385000D01*
X43940000Y-33655000D02*
X43940000Y-32385000D01*
X43940000Y-34925000D02*
X39880000Y-34925000D01*
X43940000Y-36195000D02*
X43940000Y-34925000D01*
X43940000Y-37465000D02*
X39880000Y-37465000D01*
X43940000Y-38735000D02*
X43940000Y-37465000D01*
X43940000Y-40005000D02*
X39880000Y-40005000D01*
X43940000Y-41275000D02*
X43940000Y-40005000D01*
X43940000Y-42545000D02*
X39880000Y-42545000D01*
X43940000Y-43815000D02*
X43940000Y-42545000D01*
X43940000Y-45085000D02*
X39880000Y-45085000D01*
X43940000Y-46355000D02*
X43940000Y-45085000D01*
X46860000Y-25520000D02*
X46860000Y-48141000D01*
%TO.C,TP3*%
X46425000Y-19120000D02*
X48825000Y-19120000D01*
X46425000Y-21520000D02*
X46425000Y-19120000D01*
X48825000Y-19120000D02*
X48825000Y-21520000D01*
X48825000Y-21520000D02*
X46425000Y-21520000D01*
%TO.C,C4*%
X73560000Y-31155000D02*
X76300000Y-31155000D01*
X73560000Y-31155000D02*
X73560000Y-20915000D01*
X76300000Y-31155000D02*
X76300000Y-20915000D01*
X73560000Y-20915000D02*
X76300000Y-20915000D01*
%TO.C,TP4*%
X50485000Y-19370000D02*
X52385000Y-19370000D01*
X50485000Y-21270000D02*
X50485000Y-19370000D01*
X52385000Y-19370000D02*
X52385000Y-21270000D01*
X52385000Y-21270000D02*
X50485000Y-21270000D01*
%TO.C,LS1*%
X81909552Y-51409880D02*
G75*
G03*
X81910000Y-50185000I7000448J609880D01*
G01*
%TO.C,TP6*%
X79695000Y-93030000D02*
X81595000Y-93030000D01*
X79695000Y-94930000D02*
X79695000Y-93030000D01*
X81595000Y-93030000D02*
X81595000Y-94930000D01*
X81595000Y-94930000D02*
X79695000Y-94930000D01*
%TO.C,Q1*%
X78000000Y-52760000D02*
X74400000Y-52760000D01*
X76200000Y-57210000D02*
G75*
G03*
X78038478Y-52771522I0J2600000D01*
G01*
X74361522Y-52771522D02*
G75*
G03*
X76200000Y-57210000I1838478J-1838478D01*
G01*
%TO.C,R2*%
X79475000Y-43720000D02*
X79475000Y-50260000D01*
X79145000Y-43720000D02*
X79475000Y-43720000D01*
X77065000Y-43720000D02*
X76735000Y-43720000D01*
X76735000Y-43720000D02*
X76735000Y-50260000D01*
X79475000Y-50260000D02*
X79145000Y-50260000D01*
X76735000Y-50260000D02*
X77065000Y-50260000D01*
%TO.C,C2*%
X86955000Y-31650000D02*
X86955000Y-34390000D01*
X86955000Y-31650000D02*
X97195000Y-31650000D01*
X86955000Y-34390000D02*
X97195000Y-34390000D01*
X97195000Y-31650000D02*
X97195000Y-34390000D01*
%TO.C,D11*%
X34592500Y-77125000D02*
X36267500Y-77125000D01*
X34592500Y-77125000D02*
X33942500Y-77125000D01*
X34592500Y-74005000D02*
X35242500Y-74005000D01*
X34592500Y-74005000D02*
X33942500Y-74005000D01*
%TO.C,SW3*%
X36720000Y-48648000D02*
X36720000Y-50031000D01*
X36720000Y-48648000D02*
X38104000Y-48648000D01*
X36960000Y-48888000D02*
X36960000Y-71509000D01*
X36960000Y-48888000D02*
X46860000Y-48888000D01*
X36960000Y-71509000D02*
X46860000Y-71509000D01*
X39880000Y-50673000D02*
X39880000Y-51943000D01*
X39880000Y-50793000D02*
X41233333Y-50793000D01*
X39880000Y-50913000D02*
X41233333Y-50913000D01*
X39880000Y-51033000D02*
X41233333Y-51033000D01*
X39880000Y-51153000D02*
X41233333Y-51153000D01*
X39880000Y-51273000D02*
X41233333Y-51273000D01*
X39880000Y-51393000D02*
X41233333Y-51393000D01*
X39880000Y-51513000D02*
X41233333Y-51513000D01*
X39880000Y-51633000D02*
X41233333Y-51633000D01*
X39880000Y-51753000D02*
X41233333Y-51753000D01*
X39880000Y-51873000D02*
X41233333Y-51873000D01*
X39880000Y-51943000D02*
X43940000Y-51943000D01*
X39880000Y-53213000D02*
X39880000Y-54483000D01*
X39880000Y-53333000D02*
X41233333Y-53333000D01*
X39880000Y-53453000D02*
X41233333Y-53453000D01*
X39880000Y-53573000D02*
X41233333Y-53573000D01*
X39880000Y-53693000D02*
X41233333Y-53693000D01*
X39880000Y-53813000D02*
X41233333Y-53813000D01*
X39880000Y-53933000D02*
X41233333Y-53933000D01*
X39880000Y-54053000D02*
X41233333Y-54053000D01*
X39880000Y-54173000D02*
X41233333Y-54173000D01*
X39880000Y-54293000D02*
X41233333Y-54293000D01*
X39880000Y-54413000D02*
X41233333Y-54413000D01*
X39880000Y-54483000D02*
X43940000Y-54483000D01*
X39880000Y-55753000D02*
X39880000Y-57023000D01*
X39880000Y-55873000D02*
X41233333Y-55873000D01*
X39880000Y-55993000D02*
X41233333Y-55993000D01*
X39880000Y-56113000D02*
X41233333Y-56113000D01*
X39880000Y-56233000D02*
X41233333Y-56233000D01*
X39880000Y-56353000D02*
X41233333Y-56353000D01*
X39880000Y-56473000D02*
X41233333Y-56473000D01*
X39880000Y-56593000D02*
X41233333Y-56593000D01*
X39880000Y-56713000D02*
X41233333Y-56713000D01*
X39880000Y-56833000D02*
X41233333Y-56833000D01*
X39880000Y-56953000D02*
X41233333Y-56953000D01*
X39880000Y-57023000D02*
X43940000Y-57023000D01*
X39880000Y-58293000D02*
X39880000Y-59563000D01*
X39880000Y-58413000D02*
X41233333Y-58413000D01*
X39880000Y-58533000D02*
X41233333Y-58533000D01*
X39880000Y-58653000D02*
X41233333Y-58653000D01*
X39880000Y-58773000D02*
X41233333Y-58773000D01*
X39880000Y-58893000D02*
X41233333Y-58893000D01*
X39880000Y-59013000D02*
X41233333Y-59013000D01*
X39880000Y-59133000D02*
X41233333Y-59133000D01*
X39880000Y-59253000D02*
X41233333Y-59253000D01*
X39880000Y-59373000D02*
X41233333Y-59373000D01*
X39880000Y-59493000D02*
X41233333Y-59493000D01*
X39880000Y-59563000D02*
X43940000Y-59563000D01*
X39880000Y-60833000D02*
X39880000Y-62103000D01*
X39880000Y-60953000D02*
X41233333Y-60953000D01*
X39880000Y-61073000D02*
X41233333Y-61073000D01*
X39880000Y-61193000D02*
X41233333Y-61193000D01*
X39880000Y-61313000D02*
X41233333Y-61313000D01*
X39880000Y-61433000D02*
X41233333Y-61433000D01*
X39880000Y-61553000D02*
X41233333Y-61553000D01*
X39880000Y-61673000D02*
X41233333Y-61673000D01*
X39880000Y-61793000D02*
X41233333Y-61793000D01*
X39880000Y-61913000D02*
X41233333Y-61913000D01*
X39880000Y-62033000D02*
X41233333Y-62033000D01*
X39880000Y-62103000D02*
X43940000Y-62103000D01*
X39880000Y-63373000D02*
X39880000Y-64643000D01*
X39880000Y-63493000D02*
X41233333Y-63493000D01*
X39880000Y-63613000D02*
X41233333Y-63613000D01*
X39880000Y-63733000D02*
X41233333Y-63733000D01*
X39880000Y-63853000D02*
X41233333Y-63853000D01*
X39880000Y-63973000D02*
X41233333Y-63973000D01*
X39880000Y-64093000D02*
X41233333Y-64093000D01*
X39880000Y-64213000D02*
X41233333Y-64213000D01*
X39880000Y-64333000D02*
X41233333Y-64333000D01*
X39880000Y-64453000D02*
X41233333Y-64453000D01*
X39880000Y-64573000D02*
X41233333Y-64573000D01*
X39880000Y-64643000D02*
X43940000Y-64643000D01*
X39880000Y-65913000D02*
X39880000Y-67183000D01*
X39880000Y-66033000D02*
X41233333Y-66033000D01*
X39880000Y-66153000D02*
X41233333Y-66153000D01*
X39880000Y-66273000D02*
X41233333Y-66273000D01*
X39880000Y-66393000D02*
X41233333Y-66393000D01*
X39880000Y-66513000D02*
X41233333Y-66513000D01*
X39880000Y-66633000D02*
X41233333Y-66633000D01*
X39880000Y-66753000D02*
X41233333Y-66753000D01*
X39880000Y-66873000D02*
X41233333Y-66873000D01*
X39880000Y-66993000D02*
X41233333Y-66993000D01*
X39880000Y-67113000D02*
X41233333Y-67113000D01*
X39880000Y-67183000D02*
X43940000Y-67183000D01*
X39880000Y-68453000D02*
X39880000Y-69723000D01*
X39880000Y-68573000D02*
X41233333Y-68573000D01*
X39880000Y-68693000D02*
X41233333Y-68693000D01*
X39880000Y-68813000D02*
X41233333Y-68813000D01*
X39880000Y-68933000D02*
X41233333Y-68933000D01*
X39880000Y-69053000D02*
X41233333Y-69053000D01*
X39880000Y-69173000D02*
X41233333Y-69173000D01*
X39880000Y-69293000D02*
X41233333Y-69293000D01*
X39880000Y-69413000D02*
X41233333Y-69413000D01*
X39880000Y-69533000D02*
X41233333Y-69533000D01*
X39880000Y-69653000D02*
X41233333Y-69653000D01*
X39880000Y-69723000D02*
X43940000Y-69723000D01*
X41233333Y-50673000D02*
X41233333Y-51943000D01*
X41233333Y-53213000D02*
X41233333Y-54483000D01*
X41233333Y-55753000D02*
X41233333Y-57023000D01*
X41233333Y-58293000D02*
X41233333Y-59563000D01*
X41233333Y-60833000D02*
X41233333Y-62103000D01*
X41233333Y-63373000D02*
X41233333Y-64643000D01*
X41233333Y-65913000D02*
X41233333Y-67183000D01*
X41233333Y-68453000D02*
X41233333Y-69723000D01*
X43940000Y-50673000D02*
X39880000Y-50673000D01*
X43940000Y-51943000D02*
X43940000Y-50673000D01*
X43940000Y-53213000D02*
X39880000Y-53213000D01*
X43940000Y-54483000D02*
X43940000Y-53213000D01*
X43940000Y-55753000D02*
X39880000Y-55753000D01*
X43940000Y-57023000D02*
X43940000Y-55753000D01*
X43940000Y-58293000D02*
X39880000Y-58293000D01*
X43940000Y-59563000D02*
X43940000Y-58293000D01*
X43940000Y-60833000D02*
X39880000Y-60833000D01*
X43940000Y-62103000D02*
X43940000Y-60833000D01*
X43940000Y-63373000D02*
X39880000Y-63373000D01*
X43940000Y-64643000D02*
X43940000Y-63373000D01*
X43940000Y-65913000D02*
X39880000Y-65913000D01*
X43940000Y-67183000D02*
X43940000Y-65913000D01*
X43940000Y-68453000D02*
X39880000Y-68453000D01*
X43940000Y-69723000D02*
X43940000Y-68453000D01*
X46860000Y-48888000D02*
X46860000Y-71509000D01*
%TO.C,D8*%
X34592500Y-62835000D02*
X36267500Y-62835000D01*
X34592500Y-62835000D02*
X33942500Y-62835000D01*
X34592500Y-59715000D02*
X35242500Y-59715000D01*
X34592500Y-59715000D02*
X33942500Y-59715000D01*
%TO.C,C1*%
X94080000Y-41577500D02*
X92280000Y-41577500D01*
X93920000Y-38977500D02*
X91980000Y-38977500D01*
X93180000Y-42477500D02*
X93180000Y-40677500D01*
X91980000Y-41597500D02*
X91980000Y-36357500D01*
X91980000Y-41597500D02*
X90180000Y-41597500D01*
X91980000Y-36357500D02*
X90180000Y-36357500D01*
X90180000Y-41597500D02*
X89280000Y-40697500D01*
X90180000Y-36357500D02*
X89280000Y-37257500D01*
X89280000Y-40697500D02*
X88380000Y-41597500D01*
X89280000Y-37257500D02*
X88380000Y-36357500D01*
X88380000Y-41597500D02*
X80740000Y-41597500D01*
X88380000Y-36357500D02*
X80740000Y-36357500D01*
X80740000Y-41597500D02*
X80740000Y-36357500D01*
X78800000Y-38977500D02*
X80740000Y-38977500D01*
%TO.C,D5*%
X34622500Y-47595000D02*
X36297500Y-47595000D01*
X34622500Y-47595000D02*
X33972500Y-47595000D01*
X34622500Y-44475000D02*
X35272500Y-44475000D01*
X34622500Y-44475000D02*
X33972500Y-44475000D01*
%TO.C,R4*%
X70385000Y-33750000D02*
X70385000Y-27210000D01*
X70715000Y-33750000D02*
X70385000Y-33750000D01*
X72795000Y-33750000D02*
X73125000Y-33750000D01*
X73125000Y-33750000D02*
X73125000Y-27210000D01*
X70385000Y-27210000D02*
X70715000Y-27210000D01*
X73125000Y-27210000D02*
X72795000Y-27210000D01*
%TO.C,R1*%
X75792000Y-43720000D02*
X75792000Y-50260000D01*
X75462000Y-43720000D02*
X75792000Y-43720000D01*
X73382000Y-43720000D02*
X73052000Y-43720000D01*
X73052000Y-43720000D02*
X73052000Y-50260000D01*
X75792000Y-50260000D02*
X75462000Y-50260000D01*
X73052000Y-50260000D02*
X73382000Y-50260000D01*
%TO.C,SW1*%
X95310000Y-21530000D02*
X95310000Y-22860000D01*
X93980000Y-21530000D02*
X95310000Y-21530000D01*
X92710000Y-21530000D02*
X87570000Y-21530000D01*
X92710000Y-21530000D02*
X92710000Y-24190000D01*
X87570000Y-21530000D02*
X87570000Y-24190000D01*
X92710000Y-24190000D02*
X87570000Y-24190000D01*
%TO.C,D6*%
X34622500Y-53945000D02*
X36297500Y-53945000D01*
X34622500Y-53945000D02*
X33972500Y-53945000D01*
X34622500Y-50825000D02*
X35272500Y-50825000D01*
X34622500Y-50825000D02*
X33972500Y-50825000D01*
%TO.C,D14*%
X34592500Y-91603000D02*
X36267500Y-91603000D01*
X34592500Y-91603000D02*
X33942500Y-91603000D01*
X34592500Y-88483000D02*
X35242500Y-88483000D01*
X34592500Y-88483000D02*
X33942500Y-88483000D01*
%TO.C,C3*%
X86955000Y-27205000D02*
X86955000Y-29945000D01*
X86955000Y-27205000D02*
X97195000Y-27205000D01*
X86955000Y-29945000D02*
X97195000Y-29945000D01*
X97195000Y-27205000D02*
X97195000Y-29945000D01*
%TO.C,D1*%
X34622500Y-30455000D02*
X36297500Y-30455000D01*
X34622500Y-30455000D02*
X33972500Y-30455000D01*
X34622500Y-27335000D02*
X35272500Y-27335000D01*
X34622500Y-27335000D02*
X33972500Y-27335000D01*
%TO.C,TP2*%
X42865000Y-19370000D02*
X44765000Y-19370000D01*
X42865000Y-21270000D02*
X42865000Y-19370000D01*
X44765000Y-19370000D02*
X44765000Y-21270000D01*
X44765000Y-21270000D02*
X42865000Y-21270000D01*
%TO.C,D7*%
X34592500Y-58705000D02*
X36267500Y-58705000D01*
X34592500Y-58705000D02*
X33942500Y-58705000D01*
X34592500Y-55585000D02*
X35242500Y-55585000D01*
X34592500Y-55585000D02*
X33942500Y-55585000D01*
%TO.C,D13*%
X34592500Y-87605000D02*
X36267500Y-87605000D01*
X34592500Y-87605000D02*
X33942500Y-87605000D01*
X34592500Y-84485000D02*
X35242500Y-84485000D01*
X34592500Y-84485000D02*
X33942500Y-84485000D01*
%TO.C,D3*%
X34622500Y-38705000D02*
X36297500Y-38705000D01*
X34622500Y-38705000D02*
X33972500Y-38705000D01*
X34622500Y-35585000D02*
X35272500Y-35585000D01*
X34622500Y-35585000D02*
X33972500Y-35585000D01*
%TO.C,D9*%
X34592500Y-67275000D02*
X36267500Y-67275000D01*
X34592500Y-67275000D02*
X33942500Y-67275000D01*
X34592500Y-64155000D02*
X35242500Y-64155000D01*
X34592500Y-64155000D02*
X33942500Y-64155000D01*
%TO.C,R3*%
X55145000Y-48355000D02*
X55145000Y-41815000D01*
X55475000Y-48355000D02*
X55145000Y-48355000D01*
X57555000Y-48355000D02*
X57885000Y-48355000D01*
X57885000Y-48355000D02*
X57885000Y-41815000D01*
X55145000Y-41815000D02*
X55475000Y-41815000D01*
X57885000Y-41815000D02*
X57555000Y-41815000D01*
%TO.C,TP1*%
X41205000Y-20320000D02*
G75*
G03*
X38805000Y-20320000I-1200000J0D01*
G01*
X38805000Y-20320000D02*
G75*
G03*
X41205000Y-20320000I1200000J0D01*
G01*
%TO.C,SW4*%
X36720000Y-72270000D02*
X36720000Y-73653000D01*
X36720000Y-72270000D02*
X38104000Y-72270000D01*
X36960000Y-72510000D02*
X36960000Y-95131000D01*
X36960000Y-72510000D02*
X46860000Y-72510000D01*
X36960000Y-95131000D02*
X46860000Y-95131000D01*
X39880000Y-74295000D02*
X39880000Y-75565000D01*
X39880000Y-74415000D02*
X41233333Y-74415000D01*
X39880000Y-74535000D02*
X41233333Y-74535000D01*
X39880000Y-74655000D02*
X41233333Y-74655000D01*
X39880000Y-74775000D02*
X41233333Y-74775000D01*
X39880000Y-74895000D02*
X41233333Y-74895000D01*
X39880000Y-75015000D02*
X41233333Y-75015000D01*
X39880000Y-75135000D02*
X41233333Y-75135000D01*
X39880000Y-75255000D02*
X41233333Y-75255000D01*
X39880000Y-75375000D02*
X41233333Y-75375000D01*
X39880000Y-75495000D02*
X41233333Y-75495000D01*
X39880000Y-75565000D02*
X43940000Y-75565000D01*
X39880000Y-76835000D02*
X39880000Y-78105000D01*
X39880000Y-76955000D02*
X41233333Y-76955000D01*
X39880000Y-77075000D02*
X41233333Y-77075000D01*
X39880000Y-77195000D02*
X41233333Y-77195000D01*
X39880000Y-77315000D02*
X41233333Y-77315000D01*
X39880000Y-77435000D02*
X41233333Y-77435000D01*
X39880000Y-77555000D02*
X41233333Y-77555000D01*
X39880000Y-77675000D02*
X41233333Y-77675000D01*
X39880000Y-77795000D02*
X41233333Y-77795000D01*
X39880000Y-77915000D02*
X41233333Y-77915000D01*
X39880000Y-78035000D02*
X41233333Y-78035000D01*
X39880000Y-78105000D02*
X43940000Y-78105000D01*
X39880000Y-79375000D02*
X39880000Y-80645000D01*
X39880000Y-79495000D02*
X41233333Y-79495000D01*
X39880000Y-79615000D02*
X41233333Y-79615000D01*
X39880000Y-79735000D02*
X41233333Y-79735000D01*
X39880000Y-79855000D02*
X41233333Y-79855000D01*
X39880000Y-79975000D02*
X41233333Y-79975000D01*
X39880000Y-80095000D02*
X41233333Y-80095000D01*
X39880000Y-80215000D02*
X41233333Y-80215000D01*
X39880000Y-80335000D02*
X41233333Y-80335000D01*
X39880000Y-80455000D02*
X41233333Y-80455000D01*
X39880000Y-80575000D02*
X41233333Y-80575000D01*
X39880000Y-80645000D02*
X43940000Y-80645000D01*
X39880000Y-81915000D02*
X39880000Y-83185000D01*
X39880000Y-82035000D02*
X41233333Y-82035000D01*
X39880000Y-82155000D02*
X41233333Y-82155000D01*
X39880000Y-82275000D02*
X41233333Y-82275000D01*
X39880000Y-82395000D02*
X41233333Y-82395000D01*
X39880000Y-82515000D02*
X41233333Y-82515000D01*
X39880000Y-82635000D02*
X41233333Y-82635000D01*
X39880000Y-82755000D02*
X41233333Y-82755000D01*
X39880000Y-82875000D02*
X41233333Y-82875000D01*
X39880000Y-82995000D02*
X41233333Y-82995000D01*
X39880000Y-83115000D02*
X41233333Y-83115000D01*
X39880000Y-83185000D02*
X43940000Y-83185000D01*
X39880000Y-84455000D02*
X39880000Y-85725000D01*
X39880000Y-84575000D02*
X41233333Y-84575000D01*
X39880000Y-84695000D02*
X41233333Y-84695000D01*
X39880000Y-84815000D02*
X41233333Y-84815000D01*
X39880000Y-84935000D02*
X41233333Y-84935000D01*
X39880000Y-85055000D02*
X41233333Y-85055000D01*
X39880000Y-85175000D02*
X41233333Y-85175000D01*
X39880000Y-85295000D02*
X41233333Y-85295000D01*
X39880000Y-85415000D02*
X41233333Y-85415000D01*
X39880000Y-85535000D02*
X41233333Y-85535000D01*
X39880000Y-85655000D02*
X41233333Y-85655000D01*
X39880000Y-85725000D02*
X43940000Y-85725000D01*
X39880000Y-86995000D02*
X39880000Y-88265000D01*
X39880000Y-87115000D02*
X41233333Y-87115000D01*
X39880000Y-87235000D02*
X41233333Y-87235000D01*
X39880000Y-87355000D02*
X41233333Y-87355000D01*
X39880000Y-87475000D02*
X41233333Y-87475000D01*
X39880000Y-87595000D02*
X41233333Y-87595000D01*
X39880000Y-87715000D02*
X41233333Y-87715000D01*
X39880000Y-87835000D02*
X41233333Y-87835000D01*
X39880000Y-87955000D02*
X41233333Y-87955000D01*
X39880000Y-88075000D02*
X41233333Y-88075000D01*
X39880000Y-88195000D02*
X41233333Y-88195000D01*
X39880000Y-88265000D02*
X43940000Y-88265000D01*
X39880000Y-89535000D02*
X39880000Y-90805000D01*
X39880000Y-89655000D02*
X41233333Y-89655000D01*
X39880000Y-89775000D02*
X41233333Y-89775000D01*
X39880000Y-89895000D02*
X41233333Y-89895000D01*
X39880000Y-90015000D02*
X41233333Y-90015000D01*
X39880000Y-90135000D02*
X41233333Y-90135000D01*
X39880000Y-90255000D02*
X41233333Y-90255000D01*
X39880000Y-90375000D02*
X41233333Y-90375000D01*
X39880000Y-90495000D02*
X41233333Y-90495000D01*
X39880000Y-90615000D02*
X41233333Y-90615000D01*
X39880000Y-90735000D02*
X41233333Y-90735000D01*
X39880000Y-90805000D02*
X43940000Y-90805000D01*
X39880000Y-92075000D02*
X39880000Y-93345000D01*
X39880000Y-92195000D02*
X41233333Y-92195000D01*
X39880000Y-92315000D02*
X41233333Y-92315000D01*
X39880000Y-92435000D02*
X41233333Y-92435000D01*
X39880000Y-92555000D02*
X41233333Y-92555000D01*
X39880000Y-92675000D02*
X41233333Y-92675000D01*
X39880000Y-92795000D02*
X41233333Y-92795000D01*
X39880000Y-92915000D02*
X41233333Y-92915000D01*
X39880000Y-93035000D02*
X41233333Y-93035000D01*
X39880000Y-93155000D02*
X41233333Y-93155000D01*
X39880000Y-93275000D02*
X41233333Y-93275000D01*
X39880000Y-93345000D02*
X43940000Y-93345000D01*
X41233333Y-74295000D02*
X41233333Y-75565000D01*
X41233333Y-76835000D02*
X41233333Y-78105000D01*
X41233333Y-79375000D02*
X41233333Y-80645000D01*
X41233333Y-81915000D02*
X41233333Y-83185000D01*
X41233333Y-84455000D02*
X41233333Y-85725000D01*
X41233333Y-86995000D02*
X41233333Y-88265000D01*
X41233333Y-89535000D02*
X41233333Y-90805000D01*
X41233333Y-92075000D02*
X41233333Y-93345000D01*
X43940000Y-74295000D02*
X39880000Y-74295000D01*
X43940000Y-75565000D02*
X43940000Y-74295000D01*
X43940000Y-76835000D02*
X39880000Y-76835000D01*
X43940000Y-78105000D02*
X43940000Y-76835000D01*
X43940000Y-79375000D02*
X39880000Y-79375000D01*
X43940000Y-80645000D02*
X43940000Y-79375000D01*
X43940000Y-81915000D02*
X39880000Y-81915000D01*
X43940000Y-83185000D02*
X43940000Y-81915000D01*
X43940000Y-84455000D02*
X39880000Y-84455000D01*
X43940000Y-85725000D02*
X43940000Y-84455000D01*
X43940000Y-86995000D02*
X39880000Y-86995000D01*
X43940000Y-88265000D02*
X43940000Y-86995000D01*
X43940000Y-89535000D02*
X39880000Y-89535000D01*
X43940000Y-90805000D02*
X43940000Y-89535000D01*
X43940000Y-92075000D02*
X39880000Y-92075000D01*
X43940000Y-93345000D02*
X43940000Y-92075000D01*
X46860000Y-72510000D02*
X46860000Y-95131000D01*
%TO.C,A1*%
X69980000Y-72520000D02*
X69980000Y-69850000D01*
X69980000Y-67310000D02*
X69980000Y-29080000D01*
X69980000Y-29080000D02*
X64900000Y-29080000D01*
X67310000Y-69850000D02*
X69980000Y-69850000D01*
X67310000Y-67310000D02*
X69980000Y-67310000D01*
X67310000Y-67310000D02*
X67310000Y-69850000D01*
X67310000Y-67310000D02*
X67310000Y-31750000D01*
X67310000Y-31750000D02*
X69980000Y-31750000D01*
X64900000Y-36960000D02*
X57020000Y-36960000D01*
X57020000Y-36960000D02*
X57020000Y-26540000D01*
X57020000Y-26540000D02*
X64900000Y-26540000D01*
X54610000Y-69850000D02*
X54610000Y-31750000D01*
X54610000Y-69850000D02*
X51940000Y-69850000D01*
X54610000Y-31750000D02*
X51940000Y-31750000D01*
X51940000Y-72520000D02*
X69980000Y-72520000D01*
X51940000Y-29080000D02*
X57020000Y-29080000D01*
X51940000Y-29080000D02*
X51940000Y-72520000D01*
%TO.C,D2*%
X34622500Y-34265000D02*
X36297500Y-34265000D01*
X34622500Y-34265000D02*
X33972500Y-34265000D01*
X34622500Y-31145000D02*
X35272500Y-31145000D01*
X34622500Y-31145000D02*
X33972500Y-31145000D01*
%TO.C,BT1*%
X80210000Y-89950000D02*
X80210000Y-86332000D01*
X81920000Y-89950000D02*
X80210000Y-89950000D01*
X85720000Y-89950000D02*
X87430000Y-89950000D01*
X87430000Y-86332000D02*
X87430000Y-89950000D01*
X75710000Y-83487300D02*
X75710000Y-67792700D01*
X91930000Y-79500000D02*
X91930000Y-83487300D01*
X89730000Y-77300000D02*
X91930000Y-79500000D01*
X89730000Y-73980000D02*
X89730000Y-77300000D01*
X89730000Y-73980000D02*
X91930000Y-71780000D01*
X91930000Y-67792700D02*
X91930000Y-71780000D01*
X80210000Y-64948000D02*
X80210000Y-61330000D01*
X81920000Y-61330000D02*
X80210000Y-61330000D01*
X85720000Y-61330000D02*
X87430000Y-61330000D01*
X87430000Y-61330000D02*
X87430000Y-64948000D01*
X75708211Y-83485371D02*
G75*
G03*
X80210000Y-86331999I8111799J7845391D01*
G01*
X87430000Y-86332000D02*
G75*
G03*
X91931789Y-83485371I-3609996J10691995D01*
G01*
X80210000Y-64948000D02*
G75*
G03*
X75708211Y-67794629I3610000J-10692000D01*
G01*
X91931789Y-67794629D02*
G75*
G03*
X87430000Y-64948000I-8111801J-7845391D01*
G01*
%TO.C,SW6*%
X52455000Y-89075000D02*
X52455000Y-90575000D01*
X53705000Y-93075000D02*
X58205000Y-93075000D01*
X58205000Y-86575000D02*
X53705000Y-86575000D01*
X59455000Y-90575000D02*
X59455000Y-89075000D01*
%TO.C,TP5*%
X90240000Y-92780000D02*
X92640000Y-92780000D01*
X90240000Y-95180000D02*
X90240000Y-92780000D01*
X92640000Y-92780000D02*
X92640000Y-95180000D01*
X92640000Y-95180000D02*
X90240000Y-95180000D01*
%TD*%
%LPC*%
D13*
%TO.C,H1*%
X30861000Y-20701000D03*
%TD*%
D14*
%TO.C,SW7*%
X66040000Y-87575000D03*
X72540000Y-87575000D03*
X66040000Y-92075000D03*
X72540000Y-92075000D03*
%TD*%
D15*
%TO.C,D4*%
X35560000Y-42540000D03*
X35560000Y-40640000D03*
X33685000Y-41590000D03*
%TD*%
%TO.C,D10*%
X35530000Y-71115000D03*
X35530000Y-69215000D03*
X33655000Y-70165000D03*
%TD*%
D14*
%TO.C,SW5*%
X52705000Y-76200000D03*
X59205000Y-76200000D03*
X52705000Y-80700000D03*
X59205000Y-80700000D03*
%TD*%
D15*
%TO.C,D12*%
X35530000Y-81600000D03*
X35530000Y-79700000D03*
X33655000Y-80650000D03*
%TD*%
D16*
%TO.C,SW2*%
X38100000Y-27940000D03*
D17*
X38100000Y-30480000D03*
X38100000Y-33020000D03*
X38100000Y-35560000D03*
X38100000Y-38100000D03*
X38100000Y-40640000D03*
X38100000Y-43180000D03*
X38100000Y-45720000D03*
X45720000Y-45720000D03*
X45720000Y-43180000D03*
X45720000Y-40640000D03*
X45720000Y-38100000D03*
X45720000Y-35560000D03*
X45720000Y-33020000D03*
X45720000Y-30480000D03*
X45720000Y-27940000D03*
%TD*%
D18*
%TO.C,TP3*%
X47625000Y-20320000D03*
%TD*%
D14*
%TO.C,C4*%
X74930000Y-29785000D03*
X74930000Y-22285000D03*
%TD*%
D19*
%TO.C,TP4*%
X51435000Y-20320000D03*
%TD*%
D20*
%TO.C,LS1*%
X85110000Y-50800000D03*
D21*
X92710000Y-50800000D03*
%TD*%
D13*
%TO.C,H3*%
X98679000Y-93599000D03*
%TD*%
D19*
%TO.C,TP6*%
X80645000Y-93980000D03*
%TD*%
D22*
%TO.C,Q1*%
X77470000Y-54610000D03*
D23*
X76200000Y-55880000D03*
X74930000Y-54610000D03*
%TD*%
D24*
%TO.C,R2*%
X78105000Y-43180000D03*
D17*
X78105000Y-50800000D03*
%TD*%
D14*
%TO.C,C2*%
X88325000Y-33020000D03*
X95825000Y-33020000D03*
%TD*%
D15*
%TO.C,D11*%
X35530000Y-76515000D03*
X35530000Y-74615000D03*
X33655000Y-75565000D03*
%TD*%
D16*
%TO.C,SW3*%
X38100000Y-51308000D03*
D17*
X38100000Y-53848000D03*
X38100000Y-56388000D03*
X38100000Y-58928000D03*
X38100000Y-61468000D03*
X38100000Y-64008000D03*
X38100000Y-66548000D03*
X38100000Y-69088000D03*
X45720000Y-69088000D03*
X45720000Y-66548000D03*
X45720000Y-64008000D03*
X45720000Y-61468000D03*
X45720000Y-58928000D03*
X45720000Y-56388000D03*
X45720000Y-53848000D03*
X45720000Y-51308000D03*
%TD*%
D15*
%TO.C,D8*%
X35530000Y-62225000D03*
X35530000Y-60325000D03*
X33655000Y-61275000D03*
%TD*%
D25*
%TO.C,C1*%
X95360000Y-38977500D03*
D26*
X77360000Y-38977500D03*
%TD*%
D15*
%TO.C,D5*%
X35560000Y-46985000D03*
X35560000Y-45085000D03*
X33685000Y-46035000D03*
%TD*%
D24*
%TO.C,R4*%
X71755000Y-34290000D03*
D17*
X71755000Y-26670000D03*
%TD*%
D24*
%TO.C,R1*%
X74422000Y-43180000D03*
D17*
X74422000Y-50800000D03*
%TD*%
D27*
%TO.C,J5*%
X68580000Y-80010000D03*
%TD*%
D28*
%TO.C,SW1*%
X93980000Y-22860000D03*
D29*
X91440000Y-22860000D03*
X88900000Y-22860000D03*
%TD*%
D27*
%TO.C,J6*%
X68580000Y-77470000D03*
%TD*%
D15*
%TO.C,D6*%
X35560000Y-53335000D03*
X35560000Y-51435000D03*
X33685000Y-52385000D03*
%TD*%
%TO.C,D14*%
X35530000Y-90993000D03*
X35530000Y-89093000D03*
X33655000Y-90043000D03*
%TD*%
D14*
%TO.C,C3*%
X88325000Y-28575000D03*
X95825000Y-28575000D03*
%TD*%
D15*
%TO.C,D1*%
X35560000Y-29845000D03*
X35560000Y-27945000D03*
X33685000Y-28895000D03*
%TD*%
D19*
%TO.C,TP2*%
X43815000Y-20320000D03*
%TD*%
D15*
%TO.C,D7*%
X35530000Y-58095000D03*
X35530000Y-56195000D03*
X33655000Y-57145000D03*
%TD*%
%TO.C,D13*%
X35530000Y-86995000D03*
X35530000Y-85095000D03*
X33655000Y-86045000D03*
%TD*%
%TO.C,D3*%
X35560000Y-38095000D03*
X35560000Y-36195000D03*
X33685000Y-37145000D03*
%TD*%
%TO.C,D9*%
X35530000Y-66665000D03*
X35530000Y-64765000D03*
X33655000Y-65715000D03*
%TD*%
D13*
%TO.C,H4*%
X98679000Y-20701000D03*
%TD*%
D24*
%TO.C,R3*%
X56515000Y-48895000D03*
D17*
X56515000Y-41275000D03*
%TD*%
D13*
%TO.C,H2*%
X30861000Y-93599000D03*
%TD*%
D14*
%TO.C,TP1*%
X40005000Y-20320000D03*
%TD*%
D16*
%TO.C,SW4*%
X38100000Y-74930000D03*
D17*
X38100000Y-77470000D03*
X38100000Y-80010000D03*
X38100000Y-82550000D03*
X38100000Y-85090000D03*
X38100000Y-87630000D03*
X38100000Y-90170000D03*
X38100000Y-92710000D03*
X45720000Y-92710000D03*
X45720000Y-90170000D03*
X45720000Y-87630000D03*
X45720000Y-85090000D03*
X45720000Y-82550000D03*
X45720000Y-80010000D03*
X45720000Y-77470000D03*
X45720000Y-74930000D03*
%TD*%
D16*
%TO.C,A1*%
X68580000Y-68580000D03*
D17*
X68580000Y-66040000D03*
X68580000Y-63500000D03*
X68580000Y-60960000D03*
X68580000Y-58420000D03*
X68580000Y-55880000D03*
X68580000Y-53340000D03*
X68580000Y-50800000D03*
X68580000Y-48260000D03*
X68580000Y-45720000D03*
X68580000Y-43180000D03*
X68580000Y-40640000D03*
X68580000Y-38100000D03*
X68580000Y-35560000D03*
X68580000Y-33020000D03*
X53340000Y-33020000D03*
X53340000Y-35560000D03*
X53340000Y-38100000D03*
X53340000Y-40640000D03*
X53340000Y-43180000D03*
X53340000Y-45720000D03*
X53340000Y-48260000D03*
X53340000Y-50800000D03*
X53340000Y-53340000D03*
X53340000Y-55880000D03*
X53340000Y-58420000D03*
X53340000Y-60960000D03*
X53340000Y-63500000D03*
X53340000Y-66040000D03*
X53340000Y-68580000D03*
%TD*%
D15*
%TO.C,D2*%
X35560000Y-33655000D03*
X35560000Y-31755000D03*
X33685000Y-32705000D03*
%TD*%
D30*
%TO.C,BT1*%
X83820000Y-90320000D03*
X83820000Y-60960000D03*
%TD*%
D14*
%TO.C,SW6*%
X52705000Y-87575000D03*
X59205000Y-87575000D03*
X52705000Y-92075000D03*
X59205000Y-92075000D03*
%TD*%
D18*
%TO.C,TP5*%
X91440000Y-93980000D03*
%TD*%
D28*
%TO.C,J1*%
X65405000Y-22860000D03*
D29*
X65405000Y-25400000D03*
X65405000Y-27940000D03*
X65405000Y-30480000D03*
X65405000Y-33020000D03*
X65405000Y-35560000D03*
X65405000Y-38100000D03*
%TD*%
D28*
%TO.C,J7*%
X58420000Y-58420000D03*
D29*
X60960000Y-58420000D03*
%TD*%
D28*
%TO.C,J2*%
X80640000Y-22295000D03*
D29*
X83180000Y-22295000D03*
%TD*%
%LPD*%
M02*
